<svg width="361" height="460" viewBox="0 0 361 460" fill="none" xmlns="http://www.w3.org/2000/svg">
<rect width="361" height="382" rx="10" fill="white"/>
<rect x="102" y="327.713" width="158" height="36.8166" rx="11" fill="url(#paint0_angular_1790_978)"/>
<rect x="102" y="327.713" width="158" height="36.8166" rx="11" fill="black" fill-opacity="0.2"/>
<path d="M148.33 344.713H147.097C147.025 344.358 146.897 344.047 146.715 343.778C146.536 343.51 146.317 343.285 146.058 343.102C145.803 342.917 145.52 342.778 145.208 342.685C144.897 342.592 144.572 342.546 144.234 342.546C143.617 342.546 143.059 342.701 142.558 343.013C142.061 343.324 141.665 343.783 141.37 344.39C141.079 344.997 140.933 345.741 140.933 346.622C140.933 347.504 141.079 348.248 141.37 348.854C141.665 349.461 142.061 349.92 142.558 350.232C143.059 350.543 143.617 350.699 144.234 350.699C144.572 350.699 144.897 350.653 145.208 350.56C145.52 350.467 145.803 350.329 146.058 350.147C146.317 349.961 146.536 349.734 146.715 349.466C146.897 349.194 147.025 348.883 147.097 348.531H148.33C148.238 349.052 148.069 349.517 147.823 349.928C147.578 350.339 147.273 350.689 146.909 350.977C146.544 351.262 146.135 351.479 145.681 351.629C145.23 351.778 144.748 351.852 144.234 351.852C143.365 351.852 142.593 351.64 141.917 351.216C141.241 350.792 140.709 350.189 140.321 349.406C139.933 348.624 139.74 347.696 139.74 346.622C139.74 345.548 139.933 344.62 140.321 343.838C140.709 343.056 141.241 342.453 141.917 342.028C142.593 341.604 143.365 341.392 144.234 341.392C144.748 341.392 145.23 341.467 145.681 341.616C146.135 341.765 146.544 341.984 146.909 342.272C147.273 342.557 147.578 342.905 147.823 343.316C148.069 343.724 148.238 344.189 148.33 344.713ZM158.914 346.622C158.914 347.696 158.72 348.624 158.332 349.406C157.944 350.189 157.412 350.792 156.736 351.216C156.06 351.64 155.288 351.852 154.419 351.852C153.551 351.852 152.779 351.64 152.103 351.216C151.426 350.792 150.895 350.189 150.507 349.406C150.119 348.624 149.925 347.696 149.925 346.622C149.925 345.548 150.119 344.62 150.507 343.838C150.895 343.056 151.426 342.453 152.103 342.028C152.779 341.604 153.551 341.392 154.419 341.392C155.288 341.392 156.06 341.604 156.736 342.028C157.412 342.453 157.944 343.056 158.332 343.838C158.72 344.62 158.914 345.548 158.914 346.622ZM157.721 346.622C157.721 345.741 157.573 344.997 157.278 344.39C156.986 343.783 156.59 343.324 156.09 343.013C155.593 342.701 155.036 342.546 154.419 342.546C153.803 342.546 153.244 342.701 152.744 343.013C152.247 343.324 151.851 343.783 151.556 344.39C151.264 344.997 151.118 345.741 151.118 346.622C151.118 347.504 151.264 348.248 151.556 348.854C151.851 349.461 152.247 349.92 152.744 350.232C153.244 350.543 153.803 350.699 154.419 350.699C155.036 350.699 155.593 350.543 156.09 350.232C156.59 349.92 156.986 349.461 157.278 348.854C157.573 348.248 157.721 347.504 157.721 346.622ZM169.061 341.531V351.713H167.868L162.319 343.719H162.22V351.713H160.987V341.531H162.18L167.748 349.546H167.848V341.531H169.061ZM179.602 341.531V351.713H178.409L172.86 343.719H172.761V351.713H171.528V341.531H172.721L178.289 349.546H178.389V341.531H179.602ZM182.069 351.713V341.531H188.214V342.625H183.302V346.065H187.896V347.159H183.302V350.619H188.293V351.713H182.069ZM191.033 341.531L193.658 345.767H193.737L196.362 341.531H197.814L194.612 346.622L197.814 351.713H196.362L193.737 347.557H193.658L191.033 351.713H189.581L192.862 346.622L189.581 341.531H191.033ZM200.651 341.531V351.713H199.419V341.531H200.651ZM211.714 346.622C211.714 347.696 211.521 348.624 211.133 349.406C210.745 350.189 210.213 350.792 209.537 351.216C208.861 351.64 208.089 351.852 207.22 351.852C206.352 351.852 205.58 351.64 204.903 351.216C204.227 350.792 203.695 350.189 203.308 349.406C202.92 348.624 202.726 347.696 202.726 346.622C202.726 345.548 202.92 344.62 203.308 343.838C203.695 343.056 204.227 342.453 204.903 342.028C205.58 341.604 206.352 341.392 207.22 341.392C208.089 341.392 208.861 341.604 209.537 342.028C210.213 342.453 210.745 343.056 211.133 343.838C211.521 344.62 211.714 345.548 211.714 346.622ZM210.521 346.622C210.521 345.741 210.374 344.997 210.079 344.39C209.787 343.783 209.391 343.324 208.891 343.013C208.393 342.701 207.837 342.546 207.22 342.546C206.604 342.546 206.045 342.701 205.545 343.013C205.048 343.324 204.652 343.783 204.357 344.39C204.065 344.997 203.919 345.741 203.919 346.622C203.919 347.504 204.065 348.248 204.357 348.854C204.652 349.461 205.048 349.92 205.545 350.232C206.045 350.543 206.604 350.699 207.22 350.699C207.837 350.699 208.393 350.543 208.891 350.232C209.391 349.92 209.787 349.461 210.079 348.854C210.374 348.248 210.521 347.504 210.521 346.622ZM221.862 341.531V351.713H220.668L215.12 343.719H215.021V351.713H213.788V341.531H214.981L220.549 349.546H220.648V341.531H221.862Z" fill="white"/>
<path d="M26.7082 202.217H28.2849L31.9923 211.272H32.1202L35.8275 202.217H37.4043V213.126H36.1685V204.838H36.0619L32.6528 213.126H31.4597L28.0506 204.838H27.944V213.126H26.7082V202.217ZM43.2064 213.296C42.4677 213.296 41.8196 213.121 41.2621 212.769C40.7081 212.418 40.2749 211.926 39.9624 211.294C39.6535 210.661 39.499 209.923 39.499 209.078C39.499 208.225 39.6535 207.481 39.9624 206.846C40.2749 206.21 40.7081 205.717 41.2621 205.365C41.8196 205.013 42.4677 204.838 43.2064 204.838C43.945 204.838 44.5913 205.013 45.1453 205.365C45.7028 205.717 46.1361 206.21 46.445 206.846C46.7575 207.481 46.9138 208.225 46.9138 209.078C46.9138 209.923 46.7575 210.661 46.445 211.294C46.1361 211.926 45.7028 212.418 45.1453 212.769C44.5913 213.121 43.945 213.296 43.2064 213.296ZM43.2064 212.167C43.7674 212.167 44.2291 212.023 44.5913 211.736C44.9535 211.448 45.2216 211.07 45.3956 210.601C45.5696 210.132 45.6566 209.625 45.6566 209.078C45.6566 208.531 45.5696 208.021 45.3956 207.549C45.2216 207.077 44.9535 206.695 44.5913 206.404C44.2291 206.112 43.7674 205.967 43.2064 205.967C42.6453 205.967 42.1836 206.112 41.8214 206.404C41.4592 206.695 41.1911 207.077 41.0171 207.549C40.8431 208.021 40.7561 208.531 40.7561 209.078C40.7561 209.625 40.8431 210.132 41.0171 210.601C41.1911 211.07 41.4592 211.448 41.8214 211.736C42.1836 212.023 42.6453 212.167 43.2064 212.167ZM52.3909 204.944V206.009H48.1509V204.944H52.3909ZM49.3867 202.984H50.6438V210.782C50.6438 211.137 50.6953 211.404 50.7983 211.581C50.9048 211.755 51.0397 211.872 51.2031 211.933C51.37 211.99 51.5458 212.018 51.7304 212.018C51.8689 212.018 51.9826 212.011 52.0713 211.997C52.1601 211.979 52.2311 211.965 52.2844 211.954L52.5401 213.083C52.4549 213.115 52.3359 213.147 52.1832 213.179C52.0305 213.215 51.837 213.233 51.6026 213.233C51.2475 213.233 50.8995 213.156 50.5585 213.003C50.2212 212.851 49.9407 212.618 49.7169 212.306C49.4968 211.993 49.3867 211.599 49.3867 211.123V202.984ZM61.5902 213.296C60.9083 213.296 60.3064 213.124 59.7844 212.78C59.2624 212.432 58.854 211.942 58.5593 211.31C58.2645 210.674 58.1171 209.923 58.1171 209.056C58.1171 208.197 58.2645 207.451 58.5593 206.819C58.854 206.187 59.2642 205.699 59.7897 205.354C60.3153 205.01 60.9225 204.838 61.6115 204.838C62.1441 204.838 62.5649 204.926 62.8739 205.104C63.1864 205.278 63.4243 205.477 63.5877 205.701C63.7546 205.921 63.8842 206.102 63.9765 206.244H64.0831V202.217H65.3402V213.126H64.1257V211.869H63.9765C63.8842 212.018 63.7528 212.206 63.5823 212.434C63.4119 212.657 63.1686 212.858 62.8526 213.035C62.5365 213.209 62.1157 213.296 61.5902 213.296ZM61.7606 212.167C62.2649 212.167 62.691 212.036 63.039 211.773C63.387 211.507 63.6516 211.139 63.8327 210.67C64.0138 210.198 64.1044 209.653 64.1044 209.035C64.1044 208.424 64.0156 207.89 63.838 207.432C63.6605 206.97 63.3977 206.611 63.0497 206.356C62.7017 206.097 62.272 205.967 61.7606 205.967C61.2279 205.967 60.784 206.104 60.4289 206.377C60.0774 206.647 59.8128 207.014 59.6353 207.48C59.4612 207.941 59.3742 208.46 59.3742 209.035C59.3742 209.617 59.463 210.147 59.6406 210.622C59.8217 211.095 60.088 211.471 60.4396 211.752C60.7947 212.029 61.235 212.167 61.7606 212.167ZM71.2475 213.296C70.4591 213.296 69.7791 213.122 69.2073 212.774C68.6392 212.423 68.2006 211.933 67.8916 211.304C67.5862 210.672 67.4335 209.937 67.4335 209.099C67.4335 208.261 67.5862 207.522 67.8916 206.883C68.2006 206.24 68.6303 205.74 69.1807 205.381C69.7347 205.019 70.381 204.838 71.1196 204.838C71.5458 204.838 71.9666 204.909 72.3821 205.051C72.7975 205.193 73.1757 205.424 73.5166 205.743C73.8576 206.059 74.1292 206.478 74.3316 207C74.534 207.522 74.6353 208.165 74.6353 208.929V209.461H68.3284V208.375H73.3568C73.3568 207.913 73.2645 207.501 73.0799 207.139C72.8987 206.777 72.6395 206.491 72.3022 206.281C71.9684 206.072 71.5742 205.967 71.1196 205.967C70.6189 205.967 70.1857 206.091 69.8199 206.34C69.4577 206.585 69.1789 206.904 68.9836 207.299C68.7883 207.693 68.6907 208.115 68.6907 208.566V209.291C68.6907 209.909 68.7972 210.432 69.0103 210.862C69.2269 211.288 69.5269 211.613 69.9105 211.837C70.294 212.057 70.7397 212.167 71.2475 212.167C71.5777 212.167 71.876 212.121 72.1424 212.029C72.4122 211.933 72.6448 211.791 72.8402 211.603C73.0355 211.411 73.1864 211.173 73.2929 210.889L74.5074 211.23C74.3796 211.642 74.1647 212.004 73.8629 212.316C73.561 212.625 73.1882 212.867 72.7443 213.041C72.3004 213.211 71.8014 213.296 71.2475 213.296ZM80.7663 216.194V204.944H81.9808V206.244H82.1299C82.2223 206.102 82.3501 205.921 82.5135 205.701C82.6804 205.477 82.9183 205.278 83.2272 205.104C83.5397 204.926 83.9623 204.838 84.495 204.838C85.1839 204.838 85.7911 205.01 86.3167 205.354C86.8423 205.699 87.2524 206.187 87.5472 206.819C87.8419 207.451 87.9893 208.197 87.9893 209.056C87.9893 209.923 87.8419 210.674 87.5472 211.31C87.2524 211.942 86.8441 212.432 86.322 212.78C85.8 213.124 85.1981 213.296 84.5163 213.296C83.9907 213.296 83.5699 213.209 83.2539 213.035C82.9378 212.858 82.6946 212.657 82.5241 212.434C82.3536 212.206 82.2223 212.018 82.1299 211.869H82.0234V216.194H80.7663ZM82.0021 209.035C82.0021 209.653 82.0926 210.198 82.2737 210.67C82.4549 211.139 82.7194 211.507 83.0674 211.773C83.4154 212.036 83.8416 212.167 84.3458 212.167C84.8714 212.167 85.31 212.029 85.6615 211.752C86.0166 211.471 86.283 211.095 86.4605 210.622C86.6416 210.147 86.7322 209.617 86.7322 209.035C86.7322 208.46 86.6434 207.941 86.4659 207.48C86.2919 207.014 86.0273 206.647 85.6722 206.377C85.3206 206.104 84.8785 205.967 84.3458 205.967C83.8345 205.967 83.4048 206.097 83.0568 206.356C82.7088 206.611 82.446 206.97 82.2684 207.432C82.0909 207.89 82.0021 208.424 82.0021 209.035ZM92.3146 213.318C91.7961 213.318 91.3256 213.22 90.903 213.025C90.4804 212.826 90.1448 212.54 89.8963 212.167C89.6477 211.791 89.5234 211.336 89.5234 210.804C89.5234 210.335 89.6157 209.955 89.8004 209.664C89.985 209.369 90.2318 209.138 90.5408 208.971C90.8497 208.804 91.1907 208.68 91.5635 208.598C91.9399 208.513 92.3181 208.446 92.6981 208.396C93.1953 208.332 93.5983 208.284 93.9073 208.252C94.2198 208.217 94.447 208.158 94.5891 208.076C94.7347 207.995 94.8075 207.853 94.8075 207.65V207.608C94.8075 207.082 94.6637 206.674 94.376 206.382C94.0919 206.091 93.6605 205.946 93.0816 205.946C92.4815 205.946 92.011 206.077 91.6701 206.34C91.3291 206.603 91.0894 206.883 90.951 207.181L89.7578 206.755C89.9708 206.258 90.2549 205.871 90.61 205.594C90.9687 205.313 91.3593 205.118 91.7819 205.008C92.2081 204.894 92.6271 204.838 93.039 204.838C93.3018 204.838 93.6036 204.87 93.9446 204.934C94.289 204.994 94.621 205.12 94.9407 205.312C95.2638 205.503 95.5319 205.793 95.745 206.18C95.9581 206.567 96.0646 207.085 96.0646 207.735V213.126H94.8075V212.018H94.7436C94.6583 212.196 94.5163 212.386 94.3174 212.588C94.1186 212.79 93.854 212.963 93.5237 213.105C93.1935 213.247 92.7904 213.318 92.3146 213.318ZM92.5063 212.188C93.0035 212.188 93.4225 212.091 93.7635 211.896C94.1079 211.7 94.3671 211.448 94.5411 211.139C94.7187 210.83 94.8075 210.505 94.8075 210.164V209.014C94.7542 209.078 94.637 209.136 94.4559 209.19C94.2784 209.239 94.0724 209.284 93.838 209.323C93.6072 209.358 93.3817 209.39 93.1615 209.419C92.9449 209.443 92.7691 209.465 92.6342 209.483C92.3075 209.525 92.0021 209.594 91.718 209.69C91.4375 209.783 91.2102 209.923 91.0362 210.111C90.8657 210.296 90.7805 210.548 90.7805 210.867C90.7805 211.304 90.9421 211.634 91.2652 211.858C91.5919 212.078 92.0056 212.188 92.5063 212.188ZM104.155 206.777L103.025 207.096C102.954 206.908 102.849 206.725 102.711 206.547C102.576 206.366 102.391 206.217 102.157 206.1C101.923 205.983 101.623 205.924 101.257 205.924C100.756 205.924 100.339 206.04 100.005 206.271C99.6748 206.498 99.5096 206.787 99.5096 207.139C99.5096 207.451 99.6233 207.698 99.8505 207.879C100.078 208.06 100.433 208.211 100.916 208.332L102.13 208.63C102.862 208.808 103.407 209.079 103.766 209.445C104.124 209.807 104.304 210.274 104.304 210.846C104.304 211.315 104.169 211.734 103.899 212.103C103.633 212.473 103.26 212.764 102.78 212.977C102.301 213.19 101.743 213.296 101.108 213.296C100.273 213.296 99.5824 213.115 99.0356 212.753C98.4887 212.391 98.1424 211.862 97.9968 211.166L99.19 210.867C99.3037 211.308 99.5185 211.638 99.8346 211.858C100.154 212.078 100.571 212.188 101.086 212.188C101.672 212.188 102.137 212.064 102.482 211.816C102.83 211.563 103.004 211.262 103.004 210.91C103.004 210.626 102.905 210.388 102.706 210.196C102.507 210.001 102.201 209.855 101.789 209.759L100.426 209.44C99.6765 209.262 99.1261 208.987 98.7745 208.614C98.4265 208.238 98.2525 207.767 98.2525 207.203C98.2525 206.741 98.3821 206.333 98.6414 205.978C98.9042 205.622 99.2611 205.344 99.712 205.141C100.167 204.939 100.682 204.838 101.257 204.838C102.066 204.838 102.702 205.015 103.164 205.37C103.629 205.725 103.959 206.194 104.155 206.777ZM111.991 206.777L110.862 207.096C110.791 206.908 110.686 206.725 110.548 206.547C110.413 206.366 110.228 206.217 109.994 206.1C109.76 205.983 109.459 205.924 109.094 205.924C108.593 205.924 108.176 206.04 107.842 206.271C107.512 206.498 107.347 206.787 107.347 207.139C107.347 207.451 107.46 207.698 107.687 207.879C107.915 208.06 108.27 208.211 108.753 208.332L109.967 208.63C110.699 208.808 111.244 209.079 111.603 209.445C111.961 209.807 112.141 210.274 112.141 210.846C112.141 211.315 112.006 211.734 111.736 212.103C111.469 212.473 111.097 212.764 110.617 212.977C110.138 213.19 109.58 213.296 108.945 213.296C108.11 213.296 107.419 213.115 106.872 212.753C106.326 212.391 105.979 211.862 105.834 211.166L107.027 210.867C107.141 211.308 107.355 211.638 107.671 211.858C107.991 212.078 108.408 212.188 108.923 212.188C109.509 212.188 109.974 212.064 110.319 211.816C110.667 211.563 110.841 211.262 110.841 210.91C110.841 210.626 110.741 210.388 110.543 210.196C110.344 210.001 110.038 209.855 109.626 209.759L108.263 209.44C107.513 209.262 106.963 208.987 106.611 208.614C106.263 208.238 106.089 207.767 106.089 207.203C106.089 206.741 106.219 206.333 106.478 205.978C106.741 205.622 107.098 205.344 107.549 205.141C108.004 204.939 108.518 204.838 109.094 204.838C109.903 204.838 110.539 205.015 111.001 205.37C111.466 205.725 111.796 206.194 111.991 206.777ZM117.463 213.296C116.675 213.296 115.995 213.122 115.423 212.774C114.855 212.423 114.416 211.933 114.107 211.304C113.802 210.672 113.649 209.937 113.649 209.099C113.649 208.261 113.802 207.522 114.107 206.883C114.416 206.24 114.846 205.74 115.397 205.381C115.951 205.019 116.597 204.838 117.335 204.838C117.762 204.838 118.182 204.909 118.598 205.051C119.013 205.193 119.392 205.424 119.732 205.743C120.073 206.059 120.345 206.478 120.547 207C120.75 207.522 120.851 208.165 120.851 208.929V209.461H114.544V208.375H119.573C119.573 207.913 119.48 207.501 119.296 207.139C119.115 206.777 118.855 206.491 118.518 206.281C118.184 206.072 117.79 205.967 117.335 205.967C116.835 205.967 116.402 206.091 116.036 206.34C115.674 206.585 115.395 206.904 115.199 207.299C115.004 207.693 114.906 208.115 114.906 208.566V209.291C114.906 209.909 115.013 210.432 115.226 210.862C115.443 211.288 115.743 211.613 116.126 211.837C116.51 212.057 116.955 212.167 117.463 212.167C117.794 212.167 118.092 212.121 118.358 212.029C118.628 211.933 118.861 211.791 119.056 211.603C119.251 211.411 119.402 211.173 119.509 210.889L120.723 211.23C120.595 211.642 120.381 212.004 120.079 212.316C119.777 212.625 119.404 212.867 118.96 213.041C118.516 213.211 118.017 213.296 117.463 213.296Z" fill="#1E1E1E"/>
<rect x="13.5" y="187.626" width="334" height="34.9187" rx="9.5" stroke="black"/>
<path d="M26.5344 103.565V92.6561H33.1182V93.828H27.8554V97.514H32.7773V98.6859H27.8554V102.393H33.2034V103.565H26.5344ZM35.3288 103.565V95.3834H36.5433V96.6618H36.6498C36.8203 96.225 37.0955 95.8859 37.4755 95.6444C37.8554 95.3993 38.3117 95.2768 38.8444 95.2768C39.3842 95.2768 39.8334 95.3993 40.1921 95.6444C40.5543 95.8859 40.8366 96.225 41.039 96.6618H41.1242C41.3338 96.2392 41.648 95.9036 42.0671 95.655C42.4861 95.4029 42.9886 95.2768 43.5745 95.2768C44.3061 95.2768 44.9044 95.5059 45.3696 95.964C45.8348 96.4185 46.0674 97.127 46.0674 98.0893V103.565H44.8103V98.0893C44.8103 97.4856 44.6452 97.0542 44.3149 96.7949C43.9847 96.5357 43.5958 96.4061 43.1484 96.4061C42.5731 96.4061 42.1274 96.5801 41.8114 96.9281C41.4953 97.2726 41.3373 97.7094 41.3373 98.2385V103.565H40.0589V97.9615C40.0589 97.4963 39.908 97.1216 39.6061 96.8376C39.3043 96.5499 38.9154 96.4061 38.4396 96.4061C38.1129 96.4061 37.8075 96.4931 37.5234 96.6671C37.2429 96.8411 37.0156 97.0826 36.8416 97.3915C36.6711 97.6969 36.5859 98.0503 36.5859 98.4515V103.565H35.3288ZM50.7736 103.757C50.2551 103.757 49.7846 103.659 49.362 103.464C48.9394 103.265 48.6038 102.979 48.3552 102.606C48.1067 102.23 47.9824 101.775 47.9824 101.243C47.9824 100.774 48.0747 100.394 48.2594 100.103C48.444 99.8081 48.6908 99.5773 48.9998 99.4104C49.3087 99.2435 49.6496 99.1192 50.0225 99.0375C50.3989 98.9523 50.7771 98.8848 51.1571 98.8351C51.6543 98.7712 52.0573 98.7232 52.3663 98.6913C52.6788 98.6557 52.906 98.5971 53.0481 98.5155C53.1937 98.4338 53.2665 98.2917 53.2665 98.0893V98.0467C53.2665 97.5212 53.1226 97.1128 52.835 96.8216C52.5509 96.5304 52.1195 96.3848 51.5406 96.3848C50.9405 96.3848 50.4699 96.5162 50.129 96.779C49.7881 97.0417 49.5484 97.3223 49.4099 97.6206L48.2168 97.1944C48.4298 96.6973 48.7139 96.3102 49.069 96.0332C49.4277 95.7527 49.8183 95.5574 50.2409 95.4473C50.667 95.3337 51.0861 95.2768 51.498 95.2768C51.7608 95.2768 52.0626 95.3088 52.4035 95.3727C52.748 95.4331 53.08 95.5591 53.3996 95.7509C53.7228 95.9427 53.9909 96.2321 54.204 96.6192C54.417 97.0062 54.5236 97.5247 54.5236 98.1746V103.565H53.2665V102.457H53.2025C53.1173 102.635 52.9753 102.825 52.7764 103.027C52.5775 103.23 52.313 103.402 51.9827 103.544C51.6525 103.686 51.2494 103.757 50.7736 103.757ZM50.9653 102.628C51.4625 102.628 51.8815 102.53 52.2224 102.335C52.5669 102.139 52.8261 101.887 53.0001 101.578C53.1777 101.269 53.2665 100.944 53.2665 100.604V99.453C53.2132 99.5169 53.096 99.5755 52.9149 99.6288C52.7373 99.6785 52.5314 99.7229 52.297 99.7619C52.0662 99.7974 51.8407 99.8294 51.6205 99.8578C51.4039 99.8827 51.2281 99.904 51.0932 99.9217C50.7665 99.9643 50.4611 100.034 50.177 100.129C49.8964 100.222 49.6692 100.362 49.4952 100.55C49.3247 100.735 49.2395 100.987 49.2395 101.307C49.2395 101.743 49.4011 102.074 49.7242 102.297C50.0509 102.518 50.4646 102.628 50.9653 102.628ZM56.818 103.565V95.3834H58.0752V103.565H56.818ZM57.4573 94.0197C57.2122 94.0197 57.0009 93.9363 56.8234 93.7694C56.6494 93.6025 56.5624 93.4018 56.5624 93.1675C56.5624 92.9331 56.6494 92.7324 56.8234 92.5655C57.0009 92.3986 57.2122 92.3152 57.4573 92.3152C57.7023 92.3152 57.9118 92.3986 58.0858 92.5655C58.2634 92.7324 58.3521 92.9331 58.3521 93.1675C58.3521 93.4018 58.2634 93.6025 58.0858 93.7694C57.9118 93.9363 57.7023 94.0197 57.4573 94.0197ZM61.6347 92.6561V103.565H60.3776V92.6561H61.6347Z" fill="#1E1E1E"/>
<rect x="13.5" y="78.0652" width="334" height="34.9187" rx="9.5" stroke="black"/>
<path d="M35.265 257.013H33.9439C33.8658 256.633 33.7291 256.299 33.5338 256.012C33.342 255.724 33.1076 255.482 32.8307 255.287C32.5572 255.088 32.2536 254.939 31.9198 254.84C31.586 254.74 31.238 254.69 30.8758 254.69C30.2152 254.69 29.6169 254.857 29.0807 255.191C28.548 255.525 28.1236 256.017 27.8076 256.667C27.4951 257.317 27.3388 258.114 27.3388 259.058C27.3388 260.003 27.4951 260.8 27.8076 261.45C28.1236 262.1 28.548 262.592 29.0807 262.926C29.6169 263.259 30.2152 263.426 30.8758 263.426C31.238 263.426 31.586 263.377 31.9198 263.277C32.2536 263.178 32.5572 263.03 32.8307 262.835C33.1076 262.636 33.342 262.393 33.5338 262.105C33.7291 261.814 33.8658 261.48 33.9439 261.104H35.265C35.1655 261.661 34.9844 262.16 34.7216 262.601C34.4589 263.041 34.1321 263.416 33.7415 263.725C33.3509 264.03 32.9123 264.263 32.4258 264.422C31.9429 264.582 31.4262 264.662 30.8758 264.662C29.9454 264.662 29.1179 264.435 28.3935 263.98C27.6691 263.526 27.0991 262.879 26.6836 262.041C26.2682 261.203 26.0604 260.209 26.0604 259.058C26.0604 257.908 26.2682 256.914 26.6836 256.075C27.0991 255.237 27.6691 254.591 28.3935 254.137C29.1179 253.682 29.9454 253.455 30.8758 253.455C31.4262 253.455 31.9429 253.535 32.4258 253.694C32.9123 253.854 33.3509 254.089 33.7415 254.398C34.1321 254.703 34.4589 255.076 34.7216 255.516C34.9844 255.953 35.1655 256.452 35.265 257.013ZM40.553 264.683C39.8144 264.683 39.1663 264.508 38.6088 264.156C38.0548 263.804 37.6216 263.313 37.3091 262.681C37.0001 262.048 36.8457 261.31 36.8457 260.465C36.8457 259.612 37.0001 258.868 37.3091 258.233C37.6216 257.597 38.0548 257.103 38.6088 256.752C39.1663 256.4 39.8144 256.225 40.553 256.225C41.2917 256.225 41.938 256.4 42.492 256.752C43.0495 257.103 43.4827 257.597 43.7917 258.233C44.1042 258.868 44.2604 259.612 44.2604 260.465C44.2604 261.31 44.1042 262.048 43.7917 262.681C43.4827 263.313 43.0495 263.804 42.492 264.156C41.938 264.508 41.2917 264.683 40.553 264.683ZM40.553 263.554C41.1141 263.554 41.5758 263.41 41.938 263.123C42.3002 262.835 42.5683 262.457 42.7423 261.988C42.9163 261.519 43.0033 261.012 43.0033 260.465C43.0033 259.918 42.9163 259.408 42.7423 258.936C42.5683 258.464 42.3002 258.082 41.938 257.791C41.5758 257.499 41.1141 257.354 40.553 257.354C39.992 257.354 39.5303 257.499 39.1681 257.791C38.8059 258.082 38.5378 258.464 38.3638 258.936C38.1898 259.408 38.1028 259.918 38.1028 260.465C38.1028 261.012 38.1898 261.519 38.3638 261.988C38.5378 262.457 38.8059 262.835 39.1681 263.123C39.5303 263.41 39.992 263.554 40.553 263.554ZM47.4365 259.591V264.513H46.1794V256.331H47.3939V257.61H47.5004C47.6922 257.194 47.9834 256.86 48.374 256.608C48.7646 256.352 49.2689 256.225 49.8868 256.225C50.4407 256.225 50.9255 256.338 51.341 256.565C51.7564 256.789 52.0796 257.13 52.3104 257.588C52.5412 258.043 52.6566 258.618 52.6566 259.314V264.513H51.3995V259.399C51.3995 258.757 51.2326 258.256 50.8988 257.897C50.565 257.535 50.1069 257.354 49.5245 257.354C49.1233 257.354 48.7646 257.441 48.4486 257.615C48.1361 257.789 47.8892 258.043 47.7081 258.377C47.527 258.71 47.4365 259.115 47.4365 259.591ZM58.5973 256.331V257.396H54.1867V256.331H58.5973ZM55.5078 264.513V255.202C55.5078 254.733 55.6179 254.342 55.838 254.03C56.0582 253.717 56.3441 253.483 56.6956 253.327C57.0472 253.171 57.4183 253.092 57.8089 253.092C58.1179 253.092 58.37 253.117 58.5653 253.167C58.7606 253.217 58.9062 253.263 59.0021 253.306L58.6399 254.392C58.576 254.371 58.4872 254.344 58.3735 254.312C58.2635 254.28 58.1179 254.264 57.9367 254.264C57.5213 254.264 57.2212 254.369 57.0365 254.579C56.8554 254.788 56.7649 255.095 56.7649 255.5V264.513H55.5078ZM60.3591 264.513V256.331H61.6162V264.513H60.3591ZM60.9983 254.967C60.7532 254.967 60.5419 254.884 60.3644 254.717C60.1904 254.55 60.1034 254.35 60.1034 254.115C60.1034 253.881 60.1904 253.68 60.3644 253.513C60.5419 253.346 60.7532 253.263 60.9983 253.263C61.2433 253.263 61.4528 253.346 61.6268 253.513C61.8044 253.68 61.8932 253.881 61.8932 254.115C61.8932 254.35 61.8044 254.55 61.6268 254.717C61.4528 254.884 61.2433 254.967 60.9983 254.967ZM63.9186 264.513V256.331H65.1331V257.567H65.2184C65.3675 257.162 65.6374 256.834 66.028 256.581C66.4186 256.329 66.859 256.203 67.349 256.203C67.4414 256.203 67.5568 256.205 67.6953 256.209C67.8338 256.212 67.9385 256.217 68.0095 256.225V257.503C67.9669 257.492 67.8693 257.476 67.7166 257.455C67.5674 257.43 67.4094 257.418 67.2425 257.418C66.8448 257.418 66.4897 257.501 66.1772 257.668C65.8682 257.831 65.6232 258.059 65.4421 258.35C65.2645 258.638 65.1757 258.966 65.1757 259.335V264.513H63.9186ZM69.4997 264.513V256.331H70.7142V257.61H70.8207C70.9912 257.173 71.2664 256.834 71.6464 256.592C72.0263 256.347 72.4826 256.225 73.0153 256.225C73.5551 256.225 74.0043 256.347 74.363 256.592C74.7252 256.834 75.0075 257.173 75.2099 257.61H75.2951C75.5047 257.187 75.8189 256.851 76.238 256.603C76.657 256.351 77.1595 256.225 77.7454 256.225C78.477 256.225 79.0753 256.454 79.5405 256.912C80.0057 257.366 80.2383 258.075 80.2383 259.037V264.513H78.9812V259.037C78.9812 258.433 78.8161 258.002 78.4858 257.743C78.1556 257.483 77.7667 257.354 77.3193 257.354C76.744 257.354 76.2983 257.528 75.9823 257.876C75.6662 258.22 75.5082 258.657 75.5082 259.186V264.513H74.2298V258.909C74.2298 258.444 74.0789 258.069 73.777 257.785C73.4752 257.498 73.0863 257.354 72.6105 257.354C72.2838 257.354 71.9784 257.441 71.6943 257.615C71.4138 257.789 71.1865 258.03 71.0125 258.339C70.842 258.645 70.7568 258.998 70.7568 259.399V264.513H69.4997ZM85.9672 264.683C85.1788 264.683 84.4988 264.509 83.9271 264.161C83.3589 263.81 82.9203 263.32 82.6114 262.691C82.306 262.059 82.1533 261.324 82.1533 260.486C82.1533 259.648 82.306 258.909 82.6114 258.27C82.9203 257.627 83.35 257.127 83.9004 256.768C84.4544 256.406 85.1007 256.225 85.8394 256.225C86.2655 256.225 86.6863 256.296 87.1018 256.438C87.5173 256.58 87.8955 256.811 88.2364 257.13C88.5773 257.446 88.8489 257.865 89.0514 258.387C89.2538 258.909 89.355 259.552 89.355 260.315V260.848H83.0482V259.762H88.0766C88.0766 259.3 87.9842 258.888 87.7996 258.526C87.6185 258.164 87.3592 257.878 87.0219 257.668C86.6881 257.459 86.2939 257.354 85.8394 257.354C85.3386 257.354 84.9054 257.478 84.5396 257.727C84.1774 257.972 83.8987 258.291 83.7033 258.686C83.508 259.08 83.4104 259.502 83.4104 259.953V260.678C83.4104 261.296 83.5169 261.819 83.73 262.249C83.9466 262.675 84.2467 263 84.6302 263.224C85.0137 263.444 85.4594 263.554 85.9672 263.554C86.2975 263.554 86.5957 263.508 86.8621 263.416C87.132 263.32 87.3646 263.178 87.5599 262.99C87.7552 262.798 87.9061 262.56 88.0127 262.276L89.2271 262.617C89.0993 263.029 88.8845 263.391 88.5826 263.703C88.2808 264.012 87.9079 264.254 87.464 264.428C87.0201 264.598 86.5212 264.683 85.9672 264.683ZM91.2673 264.513V256.331H92.4818V257.567H92.567C92.7161 257.162 92.986 256.834 93.3766 256.581C93.7673 256.329 94.2076 256.203 94.6977 256.203C94.79 256.203 94.9054 256.205 95.0439 256.209C95.1824 256.212 95.2872 256.217 95.3582 256.225V257.503C95.3156 257.492 95.2179 257.476 95.0652 257.455C94.9161 257.43 94.758 257.418 94.5911 257.418C94.1934 257.418 93.8383 257.501 93.5258 257.668C93.2168 257.831 92.9718 258.059 92.7907 258.35C92.6131 258.638 92.5244 258.966 92.5244 259.335V264.513H91.2673ZM101.067 264.513V256.331H102.282V257.61H102.388C102.559 257.173 102.834 256.834 103.214 256.592C103.594 256.347 104.05 256.225 104.583 256.225C105.122 256.225 105.572 256.347 105.93 256.592C106.293 256.834 106.575 257.173 106.777 257.61H106.863C107.072 257.187 107.386 256.851 107.805 256.603C108.224 256.351 108.727 256.225 109.313 256.225C110.044 256.225 110.643 256.454 111.108 256.912C111.573 257.366 111.806 258.075 111.806 259.037V264.513H110.549V259.037C110.549 258.433 110.383 258.002 110.053 257.743C109.723 257.483 109.334 257.354 108.887 257.354C108.311 257.354 107.866 257.528 107.55 257.876C107.234 258.22 107.076 258.657 107.076 259.186V264.513H105.797V258.909C105.797 258.444 105.646 258.069 105.344 257.785C105.043 257.498 104.654 257.354 104.178 257.354C103.851 257.354 103.546 257.441 103.262 257.615C102.981 257.789 102.754 258.03 102.58 258.339C102.409 258.645 102.324 258.998 102.324 259.399V264.513H101.067ZM117.428 264.683C116.689 264.683 116.041 264.508 115.484 264.156C114.93 263.804 114.497 263.313 114.184 262.681C113.875 262.048 113.721 261.31 113.721 260.465C113.721 259.612 113.875 258.868 114.184 258.233C114.497 257.597 114.93 257.103 115.484 256.752C116.041 256.4 116.689 256.225 117.428 256.225C118.167 256.225 118.813 256.4 119.367 256.752C119.924 257.103 120.358 257.597 120.667 258.233C120.979 258.868 121.135 259.612 121.135 260.465C121.135 261.31 120.979 262.048 120.667 262.681C120.358 263.313 119.924 263.804 119.367 264.156C118.813 264.508 118.167 264.683 117.428 264.683ZM117.428 263.554C117.989 263.554 118.451 263.41 118.813 263.123C119.175 262.835 119.443 262.457 119.617 261.988C119.791 261.519 119.878 261.012 119.878 260.465C119.878 259.918 119.791 259.408 119.617 258.936C119.443 258.464 119.175 258.082 118.813 257.791C118.451 257.499 117.989 257.354 117.428 257.354C116.867 257.354 116.405 257.499 116.043 257.791C115.681 258.082 115.413 258.464 115.239 258.936C115.065 259.408 114.978 259.918 114.978 260.465C114.978 261.012 115.065 261.519 115.239 261.988C115.413 262.457 115.681 262.835 116.043 263.123C116.405 263.41 116.867 263.554 117.428 263.554ZM126.613 256.331V257.396H122.373V256.331H126.613ZM123.608 254.371H124.865V262.169C124.865 262.524 124.917 262.791 125.02 262.968C125.126 263.142 125.261 263.259 125.425 263.32C125.592 263.377 125.767 263.405 125.952 263.405C126.091 263.405 126.204 263.398 126.293 263.384C126.382 263.366 126.453 263.352 126.506 263.341L126.762 264.47C126.677 264.502 126.558 264.534 126.405 264.566C126.252 264.602 126.059 264.619 125.824 264.619C125.469 264.619 125.121 264.543 124.78 264.39C124.443 264.238 124.162 264.005 123.939 263.693C123.718 263.38 123.608 262.986 123.608 262.51V254.371ZM135.812 264.683C135.13 264.683 134.528 264.511 134.006 264.167C133.484 263.819 133.076 263.329 132.781 262.697C132.486 262.061 132.339 261.31 132.339 260.443C132.339 259.584 132.486 258.838 132.781 258.206C133.076 257.574 133.486 257.086 134.011 256.741C134.537 256.397 135.144 256.225 135.833 256.225C136.366 256.225 136.787 256.313 137.096 256.491C137.408 256.665 137.646 256.864 137.809 257.088C137.976 257.308 138.106 257.489 138.198 257.631H138.305V253.604H139.562V264.513H138.347V263.256H138.198C138.106 263.405 137.974 263.593 137.804 263.82C137.634 264.044 137.39 264.245 137.074 264.422C136.758 264.596 136.337 264.683 135.812 264.683ZM135.982 263.554C136.487 263.554 136.913 263.423 137.261 263.16C137.609 262.894 137.873 262.526 138.054 262.057C138.235 261.585 138.326 261.04 138.326 260.422C138.326 259.811 138.237 259.277 138.06 258.819C137.882 258.357 137.619 257.998 137.271 257.743C136.923 257.483 136.494 257.354 135.982 257.354C135.45 257.354 135.006 257.491 134.651 257.764C134.299 258.034 134.034 258.401 133.857 258.867C133.683 259.328 133.596 259.847 133.596 260.422C133.596 261.004 133.685 261.534 133.862 262.009C134.043 262.482 134.31 262.858 134.661 263.139C135.016 263.416 135.457 263.554 135.982 263.554ZM145.469 264.683C144.681 264.683 144.001 264.509 143.429 264.161C142.861 263.81 142.422 263.32 142.113 262.691C141.808 262.059 141.655 261.324 141.655 260.486C141.655 259.648 141.808 258.909 142.113 258.27C142.422 257.627 142.852 257.127 143.402 256.768C143.956 256.406 144.603 256.225 145.341 256.225C145.767 256.225 146.188 256.296 146.604 256.438C147.019 256.58 147.397 256.811 147.738 257.13C148.079 257.446 148.351 257.865 148.553 258.387C148.756 258.909 148.857 259.552 148.857 260.315V260.848H142.55V259.762H147.579C147.579 259.3 147.486 258.888 147.302 258.526C147.12 258.164 146.861 257.878 146.524 257.668C146.19 257.459 145.796 257.354 145.341 257.354C144.841 257.354 144.407 257.478 144.042 257.727C143.679 257.972 143.401 258.291 143.205 258.686C143.01 259.08 142.912 259.502 142.912 259.953V260.678C142.912 261.296 143.019 261.819 143.232 262.249C143.449 262.675 143.749 263 144.132 263.224C144.516 263.444 144.961 263.554 145.469 263.554C145.799 263.554 146.098 263.508 146.364 263.416C146.634 263.32 146.867 263.178 147.062 262.99C147.257 262.798 147.408 262.56 147.515 262.276L148.729 262.617C148.601 263.029 148.386 263.391 148.085 263.703C147.783 264.012 147.41 264.254 146.966 264.428C146.522 264.598 146.023 264.683 145.469 264.683ZM154.988 267.581V256.331H156.202V257.631H156.352C156.444 257.489 156.572 257.308 156.735 257.088C156.902 256.864 157.14 256.665 157.449 256.491C157.761 256.313 158.184 256.225 158.717 256.225C159.406 256.225 160.013 256.397 160.538 256.741C161.064 257.086 161.474 257.574 161.769 258.206C162.064 258.838 162.211 259.584 162.211 260.443C162.211 261.31 162.064 262.061 161.769 262.697C161.474 263.329 161.066 263.819 160.544 264.167C160.022 264.511 159.42 264.683 158.738 264.683C158.212 264.683 157.792 264.596 157.476 264.422C157.159 264.245 156.916 264.044 156.746 263.82C156.575 263.593 156.444 263.405 156.352 263.256H156.245V267.581H154.988ZM156.224 260.422C156.224 261.04 156.314 261.585 156.495 262.057C156.677 262.526 156.941 262.894 157.289 263.16C157.637 263.423 158.063 263.554 158.568 263.554C159.093 263.554 159.532 263.416 159.883 263.139C160.238 262.858 160.505 262.482 160.682 262.009C160.863 261.534 160.954 261.004 160.954 260.422C160.954 259.847 160.865 259.328 160.688 258.867C160.514 258.401 160.249 258.034 159.894 257.764C159.542 257.491 159.1 257.354 158.568 257.354C158.056 257.354 157.626 257.483 157.278 257.743C156.93 257.998 156.668 258.357 156.49 258.819C156.313 259.277 156.224 259.811 156.224 260.422ZM166.536 264.705C166.018 264.705 165.547 264.607 165.125 264.412C164.702 264.213 164.367 263.927 164.118 263.554C163.869 263.178 163.745 262.723 163.745 262.19C163.745 261.722 163.837 261.342 164.022 261.051C164.207 260.756 164.454 260.525 164.762 260.358C165.071 260.191 165.412 260.067 165.785 259.985C166.162 259.9 166.54 259.833 166.92 259.783C167.417 259.719 167.82 259.671 168.129 259.639C168.441 259.603 168.669 259.545 168.811 259.463C168.956 259.382 169.029 259.24 169.029 259.037V258.994C169.029 258.469 168.885 258.061 168.598 257.769C168.314 257.478 167.882 257.333 167.303 257.333C166.703 257.333 166.233 257.464 165.892 257.727C165.551 257.99 165.311 258.27 165.173 258.568L163.979 258.142C164.193 257.645 164.477 257.258 164.832 256.981C165.19 256.7 165.581 256.505 166.004 256.395C166.43 256.281 166.849 256.225 167.261 256.225C167.523 256.225 167.825 256.257 168.166 256.32C168.511 256.381 168.843 256.507 169.162 256.699C169.485 256.89 169.754 257.18 169.967 257.567C170.18 257.954 170.286 258.472 170.286 259.122V264.513H169.029V263.405H168.965C168.88 263.583 168.738 263.773 168.539 263.975C168.34 264.177 168.076 264.35 167.745 264.492C167.415 264.634 167.012 264.705 166.536 264.705ZM166.728 263.575C167.225 263.575 167.644 263.478 167.985 263.282C168.33 263.087 168.589 262.835 168.763 262.526C168.94 262.217 169.029 261.892 169.029 261.551V260.401C168.976 260.465 168.859 260.523 168.678 260.577C168.5 260.626 168.294 260.671 168.06 260.71C167.829 260.745 167.603 260.777 167.383 260.806C167.167 260.83 166.991 260.852 166.856 260.869C166.529 260.912 166.224 260.981 165.94 261.077C165.659 261.17 165.432 261.31 165.258 261.498C165.087 261.683 165.002 261.935 165.002 262.254C165.002 262.691 165.164 263.021 165.487 263.245C165.814 263.465 166.227 263.575 166.728 263.575ZM178.376 258.164L177.247 258.483C177.176 258.295 177.071 258.112 176.933 257.934C176.798 257.753 176.613 257.604 176.379 257.487C176.144 257.37 175.844 257.311 175.478 257.311C174.978 257.311 174.561 257.427 174.227 257.657C173.896 257.885 173.731 258.174 173.731 258.526C173.731 258.838 173.845 259.085 174.072 259.266C174.299 259.447 174.655 259.598 175.138 259.719L176.352 260.017C177.084 260.195 177.629 260.466 177.987 260.832C178.346 261.194 178.525 261.661 178.525 262.233C178.525 262.702 178.39 263.121 178.121 263.49C177.854 263.86 177.481 264.151 177.002 264.364C176.523 264.577 175.965 264.683 175.329 264.683C174.495 264.683 173.804 264.502 173.257 264.14C172.71 263.778 172.364 263.249 172.219 262.553L173.412 262.254C173.525 262.695 173.74 263.025 174.056 263.245C174.376 263.465 174.793 263.575 175.308 263.575C175.894 263.575 176.359 263.451 176.704 263.203C177.052 262.95 177.226 262.649 177.226 262.297C177.226 262.013 177.126 261.775 176.927 261.583C176.728 261.388 176.423 261.242 176.011 261.146L174.648 260.827C173.898 260.649 173.348 260.374 172.996 260.001C172.648 259.625 172.474 259.154 172.474 258.59C172.474 258.128 172.604 257.72 172.863 257.365C173.126 257.009 173.483 256.731 173.934 256.528C174.388 256.326 174.903 256.225 175.478 256.225C176.288 256.225 176.924 256.402 177.385 256.757C177.851 257.112 178.181 257.581 178.376 258.164ZM186.213 258.164L185.084 258.483C185.013 258.295 184.908 258.112 184.77 257.934C184.635 257.753 184.45 257.604 184.216 257.487C183.981 257.37 183.681 257.311 183.315 257.311C182.815 257.311 182.397 257.427 182.064 257.657C181.733 257.885 181.568 258.174 181.568 258.526C181.568 258.838 181.682 259.085 181.909 259.266C182.136 259.447 182.492 259.598 182.974 259.719L184.189 260.017C184.92 260.195 185.466 260.466 185.824 260.832C186.183 261.194 186.362 261.661 186.362 262.233C186.362 262.702 186.227 263.121 185.957 263.49C185.691 263.86 185.318 264.151 184.839 264.364C184.359 264.577 183.802 264.683 183.166 264.683C182.332 264.683 181.641 264.502 181.094 264.14C180.547 263.778 180.201 263.249 180.055 262.553L181.249 262.254C181.362 262.695 181.577 263.025 181.893 263.245C182.213 263.465 182.63 263.575 183.145 263.575C183.731 263.575 184.196 263.451 184.541 263.203C184.889 262.95 185.063 262.649 185.063 262.297C185.063 262.013 184.963 261.775 184.764 261.583C184.565 261.388 184.26 261.242 183.848 261.146L182.484 260.827C181.735 260.649 181.185 260.374 180.833 260.001C180.485 259.625 180.311 259.154 180.311 258.59C180.311 258.128 180.441 257.72 180.7 257.365C180.963 257.009 181.32 256.731 181.771 256.528C182.225 256.326 182.74 256.225 183.315 256.225C184.125 256.225 184.761 256.402 185.222 256.757C185.688 257.112 186.018 257.581 186.213 258.164ZM191.685 264.683C190.897 264.683 190.217 264.509 189.645 264.161C189.077 263.81 188.638 263.32 188.329 262.691C188.024 262.059 187.871 261.324 187.871 260.486C187.871 259.648 188.024 258.909 188.329 258.27C188.638 257.627 189.068 257.127 189.618 256.768C190.172 256.406 190.818 256.225 191.557 256.225C191.983 256.225 192.404 256.296 192.82 256.438C193.235 256.58 193.613 256.811 193.954 257.13C194.295 257.446 194.567 257.865 194.769 258.387C194.972 258.909 195.073 259.552 195.073 260.315V260.848H188.766V259.762H193.794C193.794 259.3 193.702 258.888 193.517 258.526C193.336 258.164 193.077 257.878 192.74 257.668C192.406 257.459 192.012 257.354 191.557 257.354C191.056 257.354 190.623 257.478 190.257 257.727C189.895 257.972 189.616 258.291 189.421 258.686C189.226 259.08 189.128 259.502 189.128 259.953V260.678C189.128 261.296 189.235 261.819 189.448 262.249C189.664 262.675 189.964 263 190.348 263.224C190.731 263.444 191.177 263.554 191.685 263.554C192.015 263.554 192.314 263.508 192.58 263.416C192.85 263.32 193.082 263.178 193.278 262.99C193.473 262.798 193.624 262.56 193.73 262.276L194.945 262.617C194.817 263.029 194.602 263.391 194.3 263.703C193.999 264.012 193.626 264.254 193.182 264.428C192.738 264.598 192.239 264.683 191.685 264.683Z" fill="#1E1E1E"/>
<rect x="13.5" y="239.013" width="334" height="37.7826" rx="9.5" stroke="black"/>
<path d="M26.7854 158.83V147.921H30.4715C31.3273 147.921 32.0269 148.076 32.5702 148.385C33.1171 148.69 33.5219 149.104 33.7847 149.626C34.0475 150.148 34.1788 150.73 34.1788 151.373C34.1788 152.016 34.0475 152.6 33.7847 153.125C33.5254 153.651 33.1242 154.07 32.5808 154.383C32.0375 154.691 31.3415 154.846 30.4928 154.846H27.8507V153.674H30.4502C31.0361 153.674 31.5066 153.573 31.8617 153.37C32.2168 153.168 32.4743 152.895 32.6341 152.55C32.7975 152.202 32.8791 151.81 32.8791 151.373C32.8791 150.936 32.7975 150.546 32.6341 150.201C32.4743 149.857 32.2151 149.587 31.8564 149.391C31.4977 149.193 31.0219 149.093 30.4288 149.093H28.1064V158.83H26.7854ZM41.9319 152.481L40.8026 152.8C40.7316 152.612 40.6268 152.429 40.4883 152.252C40.3534 152.071 40.1687 151.922 39.9343 151.804C39.7 151.687 39.3999 151.629 39.0341 151.629C38.5334 151.629 38.1162 151.744 37.7824 151.975C37.4521 152.202 37.287 152.492 37.287 152.843C37.287 153.156 37.4006 153.402 37.6279 153.584C37.8552 153.765 38.2103 153.916 38.6932 154.036L39.9077 154.335C40.6392 154.512 41.1843 154.784 41.543 155.15C41.9017 155.512 42.081 155.979 42.081 156.55C42.081 157.019 41.9461 157.438 41.6762 157.808C41.4098 158.177 41.037 158.468 40.5576 158.681C40.0782 158.894 39.5206 159.001 38.885 159.001C38.0505 159.001 37.3598 158.82 36.8129 158.457C36.266 158.095 35.9198 157.566 35.7742 156.87L36.9674 156.572C37.081 157.012 37.2959 157.342 37.6119 157.563C37.9315 157.783 38.3488 157.893 38.8637 157.893C39.4496 157.893 39.9148 157.769 40.2593 157.52C40.6073 157.268 40.7813 156.966 40.7813 156.614C40.7813 156.33 40.6819 156.092 40.483 155.901C40.2841 155.705 39.9787 155.56 39.5668 155.464L38.2032 155.144C37.4539 154.967 36.9035 154.691 36.5519 154.319C36.2039 153.942 36.0299 153.472 36.0299 152.907C36.0299 152.445 36.1595 152.037 36.4187 151.682C36.6815 151.327 37.0384 151.048 37.4894 150.846C37.9439 150.643 38.4589 150.542 39.0341 150.542C39.8438 150.542 40.4794 150.72 40.9411 151.075C41.4063 151.43 41.7366 151.899 41.9319 152.481ZM47.4037 159.001C46.6154 159.001 45.9353 158.827 45.3636 158.479C44.7954 158.127 44.3568 157.637 44.0479 157.009C43.7425 156.376 43.5898 155.641 43.5898 154.803C43.5898 153.965 43.7425 153.227 44.0479 152.587C44.3568 151.945 44.7865 151.444 45.337 151.085C45.8909 150.723 46.5372 150.542 47.2759 150.542C47.702 150.542 48.1228 150.613 48.5383 150.755C48.9538 150.897 49.332 151.128 49.6729 151.448C50.0138 151.764 50.2855 152.183 50.4879 152.705C50.6903 153.227 50.7915 153.869 50.7915 154.633V155.166H44.4847V154.079H49.5131C49.5131 153.617 49.4208 153.205 49.2361 152.843C49.055 152.481 48.7958 152.195 48.4584 151.986C48.1246 151.776 47.7304 151.671 47.2759 151.671C46.7752 151.671 46.3419 151.796 45.9762 152.044C45.6139 152.289 45.3352 152.609 45.1399 153.003C44.9446 153.397 44.8469 153.82 44.8469 154.271V154.995C44.8469 155.613 44.9534 156.137 45.1665 156.566C45.3831 156.993 45.6832 157.318 46.0667 157.541C46.4502 157.761 46.8959 157.872 47.4037 157.872C47.734 157.872 48.0323 157.825 48.2986 157.733C48.5685 157.637 48.8011 157.495 48.9964 157.307C49.1917 157.115 49.3426 156.877 49.4492 156.593L50.6637 156.934C50.5358 157.346 50.321 157.708 50.0191 158.021C49.7173 158.33 49.3444 158.571 48.9005 158.745C48.4566 158.916 47.9577 159.001 47.4037 159.001ZM57.86 155.485V150.649H59.1171V158.83H57.86V157.445H57.7748C57.5831 157.861 57.2848 158.214 56.8799 158.505C56.4751 158.793 55.9637 158.937 55.3458 158.937C54.8345 158.937 54.3799 158.825 53.9822 158.601C53.5845 158.374 53.272 158.033 53.0447 157.579C52.8174 157.12 52.7038 156.543 52.7038 155.847V150.649H53.9609V155.762C53.9609 156.359 54.1278 156.835 54.4616 157.19C54.799 157.545 55.2286 157.722 55.7507 157.722C56.0632 157.722 56.381 157.642 56.7041 157.483C57.0309 157.323 57.3043 157.078 57.5245 156.748C57.7482 156.417 57.86 155.997 57.86 155.485ZM64.5091 159.001C63.8273 159.001 63.2254 158.829 62.7033 158.484C62.1813 158.136 61.7729 157.646 61.4782 157.014C61.1835 156.378 61.0361 155.627 61.0361 154.761C61.0361 153.901 61.1835 153.156 61.4782 152.524C61.7729 151.891 62.1831 151.403 62.7087 151.059C63.2342 150.714 63.8415 150.542 64.5304 150.542C65.0631 150.542 65.4839 150.631 65.7928 150.808C66.1053 150.982 66.3433 151.181 66.5066 151.405C66.6735 151.625 66.8031 151.806 66.8955 151.948H67.002V147.921H68.2591V158.83H67.0446V157.573H66.8955C66.8031 157.722 66.6717 157.911 66.5013 158.138C66.3308 158.362 66.0876 158.562 65.7715 158.74C65.4555 158.914 65.0347 159.001 64.5091 159.001ZM64.6796 157.872C65.1838 157.872 65.61 157.74 65.958 157.477C66.306 157.211 66.5705 156.843 66.7516 156.375C66.9328 155.902 67.0233 155.357 67.0233 154.739C67.0233 154.129 66.9345 153.594 66.757 153.136C66.5794 152.674 66.3166 152.316 65.9686 152.06C65.6206 151.801 65.1909 151.671 64.6796 151.671C64.1469 151.671 63.703 151.808 63.3479 152.081C62.9963 152.351 62.7318 152.719 62.5542 153.184C62.3802 153.646 62.2932 154.164 62.2932 154.739C62.2932 155.322 62.382 155.851 62.5595 156.327C62.7406 156.799 63.007 157.175 63.3585 157.456C63.7136 157.733 64.154 157.872 64.6796 157.872ZM74.0599 159.001C73.3212 159.001 72.6732 158.825 72.1156 158.473C71.5617 158.122 71.1284 157.63 70.8159 156.998C70.507 156.366 70.3525 155.627 70.3525 154.782C70.3525 153.93 70.507 153.186 70.8159 152.55C71.1284 151.914 71.5617 151.421 72.1156 151.069C72.6732 150.718 73.3212 150.542 74.0599 150.542C74.7985 150.542 75.4448 150.718 75.9988 151.069C76.5563 151.421 76.9896 151.914 77.2985 152.55C77.611 153.186 77.7673 153.93 77.7673 154.782C77.7673 155.627 77.611 156.366 77.2985 156.998C76.9896 157.63 76.5563 158.122 75.9988 158.473C75.4448 158.825 74.7985 159.001 74.0599 159.001ZM74.0599 157.872C74.621 157.872 75.0826 157.728 75.4448 157.44C75.807 157.152 76.0752 156.774 76.2492 156.305C76.4232 155.837 76.5102 155.329 76.5102 154.782C76.5102 154.235 76.4232 153.726 76.2492 153.253C76.0752 152.781 75.807 152.399 75.4448 152.108C75.0826 151.817 74.621 151.671 74.0599 151.671C73.4988 151.671 73.0372 151.817 72.6749 152.108C72.3127 152.399 72.0446 152.781 71.8706 153.253C71.6966 153.726 71.6096 154.235 71.6096 154.782C71.6096 155.329 71.6966 155.837 71.8706 156.305C72.0446 156.774 72.3127 157.152 72.6749 157.44C73.0372 157.728 73.4988 157.872 74.0599 157.872Z" fill="#1E1E1E"/>
<rect x="13.5" y="133.33" width="334" height="37.7826" rx="9.5" stroke="black"/>
<rect x="13" width="335" height="68.8391" rx="10" fill="white"/>
<path d="M98.5827 11.5455V29H96.4691V11.5455H98.5827ZM104.559 21.125V29H102.548V15.9091H104.491V17.9545H104.662C104.968 17.2898 105.434 16.7557 106.059 16.3523C106.684 15.9432 107.491 15.7386 108.48 15.7386C109.366 15.7386 110.142 15.9205 110.806 16.2841C111.471 16.642 111.988 17.1875 112.358 17.9205C112.727 18.6477 112.912 19.5682 112.912 20.6818V29H110.9V20.8182C110.9 19.7898 110.633 18.9886 110.099 18.4148C109.565 17.8352 108.832 17.5455 107.9 17.5455C107.258 17.5455 106.684 17.6847 106.179 17.9631C105.679 18.2415 105.284 18.6477 104.994 19.1818C104.704 19.7159 104.559 20.3636 104.559 21.125ZM125.86 18.8409L124.053 19.3523C123.939 19.0511 123.772 18.7585 123.55 18.4744C123.334 18.1847 123.039 17.946 122.664 17.7585C122.289 17.571 121.809 17.4773 121.223 17.4773C120.422 17.4773 119.755 17.6619 119.221 18.0312C118.692 18.3949 118.428 18.858 118.428 19.4205C118.428 19.9205 118.61 20.3153 118.973 20.6051C119.337 20.8949 119.905 21.1364 120.678 21.3295L122.621 21.8068C123.792 22.0909 124.664 22.5256 125.238 23.1108C125.811 23.6903 126.098 24.4375 126.098 25.3523C126.098 26.1023 125.882 26.7727 125.451 27.3636C125.025 27.9545 124.428 28.4205 123.661 28.7614C122.894 29.1023 122.002 29.2727 120.985 29.2727C119.65 29.2727 118.544 28.983 117.669 28.4034C116.794 27.8239 116.24 26.9773 116.007 25.8636L117.917 25.3864C118.098 26.0909 118.442 26.6193 118.948 26.9716C119.459 27.3239 120.127 27.5 120.951 27.5C121.888 27.5 122.632 27.3011 123.184 26.9034C123.74 26.5 124.019 26.017 124.019 25.4545C124.019 25 123.86 24.6193 123.542 24.3125C123.223 24 122.735 23.767 122.076 23.6136L119.894 23.1023C118.695 22.8182 117.814 22.3778 117.252 21.7812C116.695 21.179 116.417 20.4261 116.417 19.5227C116.417 18.7841 116.624 18.1307 117.039 17.5625C117.459 16.9943 118.03 16.5483 118.752 16.2244C119.479 15.9006 120.303 15.7386 121.223 15.7386C122.519 15.7386 123.536 16.0227 124.275 16.5909C125.019 17.1591 125.547 17.9091 125.86 18.8409ZM134.444 29.2727C133.217 29.2727 132.16 28.983 131.274 28.4034C130.387 27.8239 129.706 27.0256 129.228 26.0085C128.751 24.9915 128.512 23.8295 128.512 22.5227C128.512 21.1932 128.757 20.0199 129.245 19.0028C129.74 17.9801 130.427 17.1818 131.308 16.608C132.194 16.0284 133.228 15.7386 134.41 15.7386C135.331 15.7386 136.16 15.9091 136.899 16.25C137.637 16.5909 138.243 17.0682 138.714 17.6818C139.186 18.2955 139.478 19.0114 139.592 19.8295H137.581C137.427 19.233 137.086 18.7045 136.558 18.2443C136.035 17.7784 135.331 17.5455 134.444 17.5455C133.66 17.5455 132.973 17.75 132.382 18.1591C131.797 18.5625 131.339 19.1335 131.01 19.8722C130.686 20.6051 130.524 21.4659 130.524 22.4545C130.524 23.4659 130.683 24.3466 131.001 25.0966C131.325 25.8466 131.779 26.429 132.365 26.8438C132.956 27.2585 133.649 27.4659 134.444 27.4659C134.967 27.4659 135.441 27.375 135.868 27.1932C136.294 27.0114 136.654 26.75 136.95 26.4091C137.245 26.0682 137.456 25.6591 137.581 25.1818H139.592C139.478 25.9545 139.197 26.6506 138.748 27.2699C138.305 27.8835 137.717 28.3722 136.984 28.7358C136.257 29.0938 135.41 29.2727 134.444 29.2727ZM142.532 29V15.9091H144.475V17.8864H144.612C144.85 17.2386 145.282 16.7131 145.907 16.3097C146.532 15.9062 147.237 15.7045 148.021 15.7045C148.169 15.7045 148.353 15.7074 148.575 15.7131C148.797 15.7187 148.964 15.7273 149.078 15.7386V17.7841C149.01 17.767 148.853 17.7415 148.609 17.7074C148.37 17.6676 148.118 17.6477 147.85 17.6477C147.214 17.6477 146.646 17.7812 146.146 18.0483C145.652 18.3097 145.26 18.6733 144.97 19.1392C144.686 19.5994 144.544 20.125 144.544 20.7159V29H142.532ZM151.462 29V15.9091H153.473V29H151.462ZM152.485 13.7273C152.093 13.7273 151.755 13.5938 151.471 13.3267C151.192 13.0597 151.053 12.7386 151.053 12.3636C151.053 11.9886 151.192 11.6676 151.471 11.4006C151.755 11.1335 152.093 11 152.485 11C152.877 11 153.212 11.1335 153.49 11.4006C153.775 11.6676 153.917 11.9886 153.917 12.3636C153.917 12.7386 153.775 13.0597 153.49 13.3267C153.212 13.5938 152.877 13.7273 152.485 13.7273ZM167.862 15.9091L163.021 29H160.975L156.135 15.9091H158.316L161.93 26.3409H162.066L165.68 15.9091H167.862ZM175.537 29.2727C174.275 29.2727 173.187 28.9943 172.272 28.4375C171.363 27.875 170.662 27.0909 170.167 26.0852C169.679 25.0739 169.434 23.8977 169.434 22.5568C169.434 21.2159 169.679 20.0341 170.167 19.0114C170.662 17.983 171.349 17.1818 172.23 16.608C173.116 16.0284 174.15 15.7386 175.332 15.7386C176.014 15.7386 176.687 15.8523 177.352 16.0795C178.017 16.3068 178.622 16.6761 179.167 17.1875C179.713 17.6932 180.147 18.3636 180.471 19.1989C180.795 20.0341 180.957 21.0625 180.957 22.2841V23.1364H170.866V21.3977H178.912C178.912 20.6591 178.764 20 178.468 19.4205C178.179 18.8409 177.764 18.3835 177.224 18.0483C176.69 17.7131 176.059 17.5455 175.332 17.5455C174.531 17.5455 173.838 17.7443 173.252 18.142C172.673 18.5341 172.227 19.0455 171.914 19.6761C171.602 20.3068 171.446 20.983 171.446 21.7045V22.8636C171.446 23.8523 171.616 24.6903 171.957 25.3778C172.304 26.0597 172.784 26.5795 173.397 26.9375C174.011 27.2898 174.724 27.4659 175.537 27.4659C176.065 27.4659 176.542 27.392 176.968 27.2443C177.4 27.0909 177.772 26.8636 178.085 26.5625C178.397 26.2557 178.639 25.875 178.809 25.4205L180.752 25.9659C180.548 26.625 180.204 27.2045 179.721 27.7045C179.238 28.1989 178.642 28.5852 177.931 28.8636C177.221 29.1364 176.423 29.2727 175.537 29.2727ZM183.642 29V27.4659L191.074 17.9205V17.7841H183.88V15.9091H193.664V17.5114L186.437 26.9886V27.125H193.903V29H183.642ZM211.251 20.5795V22.4545H203.615V20.5795H211.251ZM225.495 15.9091L220.654 29H218.608L213.767 15.9091H215.949L219.563 26.3409H219.699L223.313 15.9091H225.495ZM232.999 29.2727C231.817 29.2727 230.78 28.9915 229.888 28.429C229.002 27.8665 228.309 27.0795 227.809 26.0682C227.314 25.0568 227.067 23.875 227.067 22.5227C227.067 21.1591 227.314 19.9687 227.809 18.9517C228.309 17.9347 229.002 17.1449 229.888 16.5824C230.78 16.0199 231.817 15.7386 232.999 15.7386C234.181 15.7386 235.215 16.0199 236.101 16.5824C236.993 17.1449 237.686 17.9347 238.181 18.9517C238.681 19.9687 238.931 21.1591 238.931 22.5227C238.931 23.875 238.681 25.0568 238.181 26.0682C237.686 27.0795 236.993 27.8665 236.101 28.429C235.215 28.9915 234.181 29.2727 232.999 29.2727ZM232.999 27.4659C233.897 27.4659 234.635 27.2358 235.215 26.7756C235.794 26.3153 236.223 25.7102 236.502 24.9602C236.78 24.2102 236.919 23.3977 236.919 22.5227C236.919 21.6477 236.78 20.8324 236.502 20.0767C236.223 19.321 235.794 18.7102 235.215 18.2443C234.635 17.7784 233.897 17.5455 232.999 17.5455C232.101 17.5455 231.363 17.7784 230.783 18.2443C230.203 18.7102 229.775 19.321 229.496 20.0767C229.218 20.8324 229.078 21.6477 229.078 22.5227C229.078 23.3977 229.218 24.2102 229.496 24.9602C229.775 25.7102 230.203 26.3153 230.783 26.7756C231.363 27.2358 232.101 27.4659 232.999 27.4659ZM250.251 23.6477V15.9091H252.262V29H250.251V26.7841H250.115C249.808 27.4489 249.331 28.0142 248.683 28.4801C248.035 28.9403 247.217 29.1705 246.228 29.1705C245.41 29.1705 244.683 28.9915 244.047 28.6335C243.41 28.2699 242.91 27.7244 242.547 26.9972C242.183 26.2642 242.001 25.3409 242.001 24.2273V15.9091H244.012V24.0909C244.012 25.0455 244.279 25.8068 244.814 26.375C245.353 26.9432 246.041 27.2273 246.876 27.2273C247.376 27.2273 247.885 27.0994 248.402 26.8438C248.924 26.5881 249.362 26.196 249.714 25.6676C250.072 25.1392 250.251 24.4659 250.251 23.6477ZM265.219 18.8409L263.412 19.3523C263.299 19.0511 263.131 18.7585 262.909 18.4744C262.694 18.1847 262.398 17.946 262.023 17.7585C261.648 17.571 261.168 17.4773 260.583 17.4773C259.782 17.4773 259.114 17.6619 258.58 18.0312C258.051 18.3949 257.787 18.858 257.787 19.4205C257.787 19.9205 257.969 20.3153 258.333 20.6051C258.696 20.8949 259.265 21.1364 260.037 21.3295L261.98 21.8068C263.151 22.0909 264.023 22.5256 264.597 23.1108C265.171 23.6903 265.458 24.4375 265.458 25.3523C265.458 26.1023 265.242 26.7727 264.81 27.3636C264.384 27.9545 263.787 28.4205 263.02 28.7614C262.253 29.1023 261.361 29.2727 260.344 29.2727C259.009 29.2727 257.904 28.983 257.029 28.4034C256.154 27.8239 255.6 26.9773 255.367 25.8636L257.276 25.3864C257.458 26.0909 257.801 26.6193 258.307 26.9716C258.819 27.3239 259.486 27.5 260.31 27.5C261.248 27.5 261.992 27.3011 262.543 26.9034C263.1 26.5 263.378 26.017 263.378 25.4545C263.378 25 263.219 24.6193 262.901 24.3125C262.583 24 262.094 23.767 261.435 23.6136L259.253 23.1023C258.054 22.8182 257.174 22.3778 256.611 21.7812C256.054 21.179 255.776 20.4261 255.776 19.5227C255.776 18.7841 255.983 18.1307 256.398 17.5625C256.819 16.9943 257.39 16.5483 258.111 16.2244C258.838 15.9006 259.662 15.7386 260.583 15.7386C261.878 15.7386 262.895 16.0227 263.634 16.5909C264.378 17.1591 264.907 17.9091 265.219 18.8409Z" fill="#9747FF"/>
<path d="M50.5268 48.4197H49.47C49.4075 48.1157 49.2981 47.8487 49.1419 47.6185C48.9885 47.3884 48.801 47.1952 48.5794 47.039C48.3606 46.8799 48.1177 46.7606 47.8507 46.681C47.5836 46.6015 47.3052 46.5617 47.0154 46.5617C46.487 46.5617 46.0083 46.6952 45.5794 46.9623C45.1532 47.2293 44.8137 47.6228 44.5609 48.1427C44.3109 48.6626 44.1859 49.3004 44.1859 50.056C44.1859 50.8117 44.3109 51.4495 44.5609 51.9694C44.8137 52.4893 45.1532 52.8827 45.5794 53.1498C46.0083 53.4168 46.487 53.5504 47.0154 53.5504C47.3052 53.5504 47.5836 53.5106 47.8507 53.431C48.1177 53.3515 48.3606 53.2336 48.5794 53.0773C48.801 52.9183 48.9885 52.7237 49.1419 52.4935C49.2981 52.2606 49.4075 51.9935 49.47 51.6924H50.5268C50.4473 52.1384 50.3024 52.5376 50.0922 52.8898C49.8819 53.2421 49.6206 53.5418 49.3081 53.789C48.9956 54.0333 48.6447 54.2194 48.2555 54.3472C47.8691 54.4751 47.4558 54.539 47.0154 54.539C46.2711 54.539 45.6092 54.3572 45.0297 53.9935C44.4501 53.6299 43.9941 53.1129 43.6618 52.4424C43.3294 51.772 43.1632 50.9765 43.1632 50.056C43.1632 49.1356 43.3294 48.3401 43.6618 47.6697C43.9941 46.9992 44.4501 46.4822 45.0297 46.1185C45.6092 45.7549 46.2711 45.5731 47.0154 45.5731C47.4558 45.5731 47.8691 45.637 48.2555 45.7648C48.6447 45.8927 48.9956 46.0802 49.3081 46.3273C49.6206 46.5717 49.8819 46.87 50.0922 47.2222C50.3024 47.5717 50.4473 47.9708 50.5268 48.4197ZM52.0982 54.4197V47.8742H53.0698V48.8629H53.138C53.2573 48.539 53.4732 48.2762 53.7857 48.0745C54.0982 47.8728 54.4505 47.772 54.8425 47.772C54.9164 47.772 55.0087 47.7734 55.1195 47.7762C55.2303 47.7791 55.3141 47.7833 55.3709 47.789V48.8117C55.3368 48.8032 55.2587 48.7904 55.1365 48.7734C55.0172 48.7535 54.8908 48.7435 54.7573 48.7435C54.4391 48.7435 54.155 48.8103 53.905 48.9438C53.6578 49.0745 53.4618 49.2563 53.3169 49.4893C53.1749 49.7194 53.1039 49.9822 53.1039 50.2776V54.4197H52.0982ZM59.1081 54.556C58.4775 54.556 57.9334 54.4168 57.476 54.1384C57.0215 53.8572 56.6706 53.4651 56.4235 52.9623C56.1792 52.4566 56.057 51.8685 56.057 51.1981C56.057 50.5276 56.1792 49.9367 56.4235 49.4254C56.6706 48.9112 57.0144 48.5106 57.4547 48.2237C57.8979 47.9339 58.415 47.789 59.0059 47.789C59.3468 47.789 59.6834 47.8458 60.0158 47.9595C60.3482 48.0731 60.6507 48.2577 60.9235 48.5134C61.1962 48.7663 61.4135 49.1015 61.5755 49.5191C61.7374 49.9367 61.8184 50.4509 61.8184 51.0617V51.4879H56.7729V50.6185H60.7956C60.7956 50.2492 60.7218 49.9197 60.574 49.6299C60.4292 49.3401 60.2218 49.1114 59.9519 48.9438C59.6848 48.7762 59.3695 48.6924 59.0059 48.6924C58.6053 48.6924 58.2587 48.7918 57.9661 48.9907C57.6763 49.1867 57.4533 49.4424 57.2971 49.7577C57.1408 50.0731 57.0627 50.4112 57.0627 50.772V51.3515C57.0627 51.8458 57.1479 52.2648 57.3184 52.6086C57.4917 52.9495 57.7317 53.2095 58.0385 53.3884C58.3453 53.5646 58.7019 53.6526 59.1081 53.6526C59.3723 53.6526 59.611 53.6157 59.824 53.5418C60.04 53.4651 60.226 53.3515 60.3823 53.2009C60.5385 53.0475 60.6593 52.8572 60.7445 52.6299L61.7161 52.9026C61.6138 53.2322 61.4419 53.522 61.2005 53.772C60.959 54.0191 60.6607 54.2123 60.3056 54.3515C59.9505 54.4879 59.5513 54.556 59.1081 54.556ZM58.4945 46.9879L59.5343 45.0106H60.7104L59.3809 46.9879H58.4945ZM66.0925 54.556C65.4618 54.556 64.9178 54.4168 64.4604 54.1384C64.0059 53.8572 63.655 53.4651 63.4078 52.9623C63.1635 52.4566 63.0414 51.8685 63.0414 51.1981C63.0414 50.5276 63.1635 49.9367 63.4078 49.4254C63.655 48.9112 63.9988 48.5106 64.4391 48.2237C64.8823 47.9339 65.3993 47.789 65.9902 47.789C66.3311 47.789 66.6678 47.8458 67.0002 47.9595C67.3326 48.0731 67.6351 48.2577 67.9078 48.5134C68.1806 48.7663 68.3979 49.1015 68.5598 49.5191C68.7218 49.9367 68.8027 50.4509 68.8027 51.0617V51.4879H63.7573V50.6185H67.78C67.78 50.2492 67.7061 49.9197 67.5584 49.6299C67.4135 49.3401 67.2061 49.1114 66.9363 48.9438C66.6692 48.7762 66.3539 48.6924 65.9902 48.6924C65.5897 48.6924 65.2431 48.7918 64.9505 48.9907C64.6607 49.1867 64.4377 49.4424 64.2814 49.7577C64.1252 50.0731 64.0471 50.4112 64.0471 50.772V51.3515C64.0471 51.8458 64.1323 52.2648 64.3027 52.6086C64.476 52.9495 64.7161 53.2095 65.0229 53.3884C65.3297 53.5646 65.6863 53.6526 66.0925 53.6526C66.3567 53.6526 66.5953 53.6157 66.8084 53.5418C67.0243 53.4651 67.2104 53.3515 67.3667 53.2009C67.5229 53.0475 67.6436 52.8572 67.7289 52.6299L68.7005 52.9026C68.5982 53.2322 68.4263 53.522 68.1848 53.772C67.9434 54.0191 67.6451 54.2123 67.29 54.3515C66.9348 54.4879 66.5357 54.556 66.0925 54.556ZM70.3326 54.4197V47.8742H71.3042V48.8629H71.3723C71.4917 48.539 71.7076 48.2762 72.0201 48.0745C72.3326 47.8728 72.6848 47.772 73.0769 47.772C73.1507 47.772 73.2431 47.7734 73.3539 47.7762C73.4647 47.7791 73.5485 47.7833 73.6053 47.789V48.8117C73.5712 48.8032 73.4931 48.7904 73.3709 48.7734C73.2516 48.7535 73.1252 48.7435 72.9917 48.7435C72.6735 48.7435 72.3894 48.8103 72.1394 48.9438C71.8922 49.0745 71.6962 49.2563 71.5513 49.4893C71.4093 49.7194 71.3382 49.9822 71.3382 50.2776V54.4197H70.3326ZM83.5247 47.8742L81.1042 54.4197H80.0815L77.661 47.8742H78.752L80.5588 53.0901H80.627L82.4338 47.8742H83.5247ZM87.2768 54.556C86.6859 54.556 86.1674 54.4154 85.7214 54.1342C85.2782 53.8529 84.9316 53.4595 84.6816 52.9538C84.4345 52.4481 84.3109 51.8572 84.3109 51.181C84.3109 50.4992 84.4345 49.9041 84.6816 49.3955C84.9316 48.887 85.2782 48.4921 85.7214 48.2109C86.1674 47.9296 86.6859 47.789 87.2768 47.789C87.8677 47.789 88.3848 47.9296 88.8279 48.2109C89.274 48.4921 89.6206 48.887 89.8677 49.3955C90.1177 49.9041 90.2427 50.4992 90.2427 51.181C90.2427 51.8572 90.1177 52.4481 89.8677 52.9538C89.6206 53.4595 89.274 53.8529 88.8279 54.1342C88.3848 54.4154 87.8677 54.556 87.2768 54.556ZM87.2768 53.6526C87.7257 53.6526 88.095 53.5376 88.3848 53.3075C88.6745 53.0773 88.889 52.7748 89.0282 52.3998C89.1674 52.0248 89.237 51.6185 89.237 51.181C89.237 50.7435 89.1674 50.3359 89.0282 49.958C88.889 49.5802 88.6745 49.2748 88.3848 49.0418C88.095 48.8089 87.7257 48.6924 87.2768 48.6924C86.8279 48.6924 86.4586 48.8089 86.1689 49.0418C85.8791 49.2748 85.6646 49.5802 85.5254 49.958C85.3862 50.3359 85.3166 50.7435 85.3166 51.181C85.3166 51.6185 85.3862 52.0248 85.5254 52.3998C85.6646 52.7748 85.8791 53.0773 86.1689 53.3075C86.4586 53.5376 86.8279 53.6526 87.2768 53.6526ZM94.6245 47.8742V48.7265H91.2324V47.8742H94.6245ZM92.2211 46.306H93.2267V52.5447C93.2267 52.8288 93.2679 53.0418 93.3503 53.1839C93.4355 53.3231 93.5435 53.4168 93.6742 53.4651C93.8077 53.5106 93.9483 53.5333 94.0961 53.5333C94.2069 53.5333 94.2978 53.5276 94.3688 53.5163C94.4398 53.5021 94.4966 53.4907 94.5392 53.4822L94.7438 54.3856C94.6756 54.4112 94.5804 54.4367 94.4583 54.4623C94.3361 54.4907 94.1813 54.5049 93.9938 54.5049C93.7097 54.5049 93.4313 54.4438 93.1586 54.3217C92.8887 54.1995 92.6642 54.0134 92.4853 53.7634C92.3091 53.5134 92.2211 53.1981 92.2211 52.8174V46.306ZM96.1373 54.4197V47.8742H97.1088V48.8629H97.177C97.2963 48.539 97.5123 48.2762 97.8248 48.0745C98.1373 47.8728 98.4895 47.772 98.8816 47.772C98.9554 47.772 99.0478 47.7734 99.1586 47.7762C99.2694 47.7791 99.3532 47.7833 99.41 47.789V48.8117C99.3759 48.8032 99.2978 48.7904 99.1756 48.7734C99.0563 48.7535 98.9299 48.7435 98.7963 48.7435C98.4782 48.7435 98.1941 48.8103 97.9441 48.9438C97.6969 49.0745 97.5009 49.2563 97.356 49.4893C97.214 49.7194 97.1429 49.9822 97.1429 50.2776V54.4197H96.1373ZM103.147 54.556C102.517 54.556 101.972 54.4168 101.515 54.1384C101.061 53.8572 100.71 53.4651 100.463 52.9623C100.218 52.4566 100.096 51.8685 100.096 51.1981C100.096 50.5276 100.218 49.9367 100.463 49.4254C100.71 48.9112 101.053 48.5106 101.494 48.2237C101.937 47.9339 102.454 47.789 103.045 47.789C103.386 47.789 103.722 47.8458 104.055 47.9595C104.387 48.0731 104.69 48.2577 104.963 48.5134C105.235 48.7663 105.453 49.1015 105.615 49.5191C105.776 49.9367 105.857 50.4509 105.857 51.0617V51.4879H100.812V50.6185H104.835C104.835 50.2492 104.761 49.9197 104.613 49.6299C104.468 49.3401 104.261 49.1114 103.991 48.9438C103.724 48.7762 103.409 48.6924 103.045 48.6924C102.644 48.6924 102.298 48.7918 102.005 48.9907C101.715 49.1867 101.492 49.4424 101.336 49.7577C101.18 50.0731 101.102 50.4112 101.102 50.772V51.3515C101.102 51.8458 101.187 52.2648 101.357 52.6086C101.531 52.9495 101.771 53.2095 102.078 53.3884C102.384 53.5646 102.741 53.6526 103.147 53.6526C103.411 53.6526 103.65 53.6157 103.863 53.5418C104.079 53.4651 104.265 53.3515 104.421 53.2009C104.578 53.0475 104.698 52.8572 104.784 52.6299L105.755 52.9026C105.653 53.2322 105.481 53.522 105.24 53.772C104.998 54.0191 104.7 54.2123 104.345 54.3515C103.99 54.4879 103.59 54.556 103.147 54.556ZM113.421 54.556C112.808 54.556 112.279 54.4112 111.836 54.1214C111.393 53.8316 111.052 53.4325 110.813 52.9239C110.575 52.4154 110.455 51.8345 110.455 51.181C110.455 50.5163 110.578 49.9296 110.822 49.4211C111.069 48.9097 111.413 48.5106 111.853 48.2237C112.296 47.9339 112.813 47.789 113.404 47.789C113.865 47.789 114.279 47.8742 114.649 48.0447C115.018 48.2151 115.32 48.4538 115.556 48.7606C115.792 49.0674 115.938 49.4254 115.995 49.8345H114.99C114.913 49.5362 114.742 49.272 114.478 49.0418C114.217 48.8089 113.865 48.6924 113.421 48.6924C113.029 48.6924 112.686 48.7947 112.39 48.9992C112.097 49.2009 111.869 49.4864 111.704 49.8558C111.542 50.2222 111.461 50.6526 111.461 51.147C111.461 51.6526 111.541 52.093 111.7 52.468C111.862 52.843 112.089 53.1342 112.382 53.3416C112.677 53.5489 113.024 53.6526 113.421 53.6526C113.683 53.6526 113.92 53.6072 114.133 53.5163C114.346 53.4254 114.526 53.2947 114.674 53.1242C114.822 52.9538 114.927 52.7492 114.99 52.5106H115.995C115.938 52.897 115.798 53.245 115.573 53.5546C115.352 53.8614 115.058 54.1058 114.691 54.2876C114.328 54.4666 113.904 54.556 113.421 54.556ZM120.124 54.556C119.534 54.556 119.015 54.4154 118.569 54.1342C118.126 53.8529 117.779 53.4595 117.529 52.9538C117.282 52.4481 117.159 51.8572 117.159 51.181C117.159 50.4992 117.282 49.9041 117.529 49.3955C117.779 48.887 118.126 48.4921 118.569 48.2109C119.015 47.9296 119.534 47.789 120.124 47.789C120.715 47.789 121.232 47.9296 121.676 48.2109C122.122 48.4921 122.468 48.887 122.715 49.3955C122.965 49.9041 123.09 50.4992 123.09 51.181C123.09 51.8572 122.965 52.4481 122.715 52.9538C122.468 53.4595 122.122 53.8529 121.676 54.1342C121.232 54.4154 120.715 54.556 120.124 54.556ZM120.124 53.6526C120.573 53.6526 120.943 53.5376 121.232 53.3075C121.522 53.0773 121.737 52.7748 121.876 52.3998C122.015 52.0248 122.085 51.6185 122.085 51.181C122.085 50.7435 122.015 50.3359 121.876 49.958C121.737 49.5802 121.522 49.2748 121.232 49.0418C120.943 48.8089 120.573 48.6924 120.124 48.6924C119.676 48.6924 119.306 48.8089 119.017 49.0418C118.727 49.2748 118.512 49.5802 118.373 49.958C118.234 50.3359 118.164 50.7435 118.164 51.181C118.164 51.6185 118.234 52.0248 118.373 52.3998C118.512 52.7748 118.727 53.0773 119.017 53.3075C119.306 53.5376 119.676 53.6526 120.124 53.6526ZM124.626 54.4197V47.8742H125.597V48.897H125.682C125.819 48.5475 126.039 48.2762 126.343 48.083C126.647 47.887 127.012 47.789 127.438 47.789C127.87 47.789 128.229 47.887 128.516 48.083C128.806 48.2762 129.032 48.5475 129.194 48.897H129.262C129.43 48.5589 129.681 48.2904 130.016 48.0916C130.351 47.8898 130.753 47.789 131.222 47.789C131.807 47.789 132.286 47.9722 132.658 48.3387C133.03 48.7023 133.216 49.2691 133.216 50.039V54.4197H132.211V50.039C132.211 49.556 132.079 49.2109 131.814 49.0035C131.55 48.7961 131.239 48.6924 130.881 48.6924C130.421 48.6924 130.064 48.8316 129.812 49.11C129.559 49.3856 129.432 49.735 129.432 50.1583V54.4197H128.41V49.9367C128.41 49.5646 128.289 49.2648 128.047 49.0376C127.806 48.8075 127.495 48.6924 127.114 48.6924C126.853 48.6924 126.608 48.762 126.381 48.9012C126.157 49.0404 125.975 49.2336 125.836 49.4808C125.699 49.7251 125.631 50.0077 125.631 50.3288V54.4197H124.626ZM135.055 56.8742V47.8742H136.027V48.914H136.146C136.22 48.8004 136.322 48.6555 136.453 48.4793C136.586 48.3004 136.777 48.1413 137.024 48.0021C137.274 47.86 137.612 47.789 138.038 47.789C138.589 47.789 139.075 47.9268 139.496 48.2023C139.916 48.4779 140.244 48.8685 140.48 49.3742C140.716 49.8799 140.834 50.4765 140.834 51.164C140.834 51.8572 140.716 52.458 140.48 52.9666C140.244 53.4722 139.917 53.8643 139.5 54.1427C139.082 54.4183 138.601 54.556 138.055 54.556C137.635 54.556 137.298 54.4864 137.045 54.3472C136.792 54.2052 136.598 54.0447 136.461 53.8657C136.325 53.6839 136.22 53.5333 136.146 53.414H136.061V56.8742H135.055ZM136.044 51.147C136.044 51.6413 136.116 52.0773 136.261 52.4552C136.406 52.8302 136.618 53.1242 136.896 53.3373C137.175 53.5475 137.515 53.6526 137.919 53.6526C138.339 53.6526 138.69 53.5418 138.971 53.3202C139.256 53.0958 139.469 52.7947 139.611 52.4168C139.756 52.0362 139.828 51.6129 139.828 51.147C139.828 50.6867 139.757 50.272 139.615 49.9026C139.476 49.5305 139.264 49.2364 138.98 49.0205C138.699 48.8018 138.345 48.6924 137.919 48.6924C137.51 48.6924 137.166 48.7961 136.888 49.0035C136.609 49.208 136.399 49.495 136.257 49.8643C136.115 50.2308 136.044 50.6583 136.044 51.147ZM145.214 47.8742V48.7265H141.822V47.8742H145.214ZM142.811 46.306H143.817V52.5447C143.817 52.8288 143.858 53.0418 143.94 53.1839C144.025 53.3231 144.133 53.4168 144.264 53.4651C144.398 53.5106 144.538 53.5333 144.686 53.5333C144.797 53.5333 144.888 53.5276 144.959 53.5163C145.03 53.5021 145.086 53.4907 145.129 53.4822L145.334 54.3856C145.265 54.4112 145.17 54.4367 145.048 54.4623C144.926 54.4907 144.771 54.5049 144.584 54.5049C144.3 54.5049 144.021 54.4438 143.748 54.3217C143.479 54.1995 143.254 54.0134 143.075 53.7634C142.899 53.5134 142.811 53.1981 142.811 52.8174V46.306ZM149.401 54.556C148.77 54.556 148.226 54.4168 147.769 54.1384C147.314 53.8572 146.964 53.4651 146.716 52.9623C146.472 52.4566 146.35 51.8685 146.35 51.1981C146.35 50.5276 146.472 49.9367 146.716 49.4254C146.964 48.9112 147.307 48.5106 147.748 48.2237C148.191 47.9339 148.708 47.789 149.299 47.789C149.64 47.789 149.976 47.8458 150.309 47.9595C150.641 48.0731 150.944 48.2577 151.216 48.5134C151.489 48.7663 151.706 49.1015 151.868 49.5191C152.03 49.9367 152.111 50.4509 152.111 51.0617V51.4879H147.066V50.6185H151.089C151.089 50.2492 151.015 49.9197 150.867 49.6299C150.722 49.3401 150.515 49.1114 150.245 48.9438C149.978 48.7762 149.662 48.6924 149.299 48.6924C148.898 48.6924 148.552 48.7918 148.259 48.9907C147.969 49.1867 147.746 49.4424 147.59 49.7577C147.434 50.0731 147.356 50.4112 147.356 50.772V51.3515C147.356 51.8458 147.441 52.2648 147.611 52.6086C147.785 52.9495 148.025 53.2095 148.331 53.3884C148.638 53.5646 148.995 53.6526 149.401 53.6526C149.665 53.6526 149.904 53.6157 150.117 53.5418C150.333 53.4651 150.519 53.3515 150.675 53.2009C150.831 53.0475 150.952 52.8572 151.037 52.6299L152.009 52.9026C151.907 53.2322 151.735 53.522 151.493 53.772C151.252 54.0191 150.954 54.2123 150.599 54.3515C150.243 54.4879 149.844 54.556 149.401 54.556ZM157.016 56.8742V47.8742H157.988V48.914H158.107C158.181 48.8004 158.283 48.6555 158.414 48.4793C158.547 48.3004 158.738 48.1413 158.985 48.0021C159.235 47.86 159.573 47.789 159.999 47.789C160.55 47.789 161.036 47.9268 161.456 48.2023C161.877 48.4779 162.205 48.8685 162.441 49.3742C162.677 49.8799 162.795 50.4765 162.795 51.164C162.795 51.8572 162.677 52.458 162.441 52.9666C162.205 53.4722 161.878 53.8643 161.461 54.1427C161.043 54.4183 160.562 54.556 160.016 54.556C159.596 54.556 159.259 54.4864 159.006 54.3472C158.753 54.2052 158.559 54.0447 158.422 53.8657C158.286 53.6839 158.181 53.5333 158.107 53.414H158.022V56.8742H157.016ZM158.005 51.147C158.005 51.6413 158.077 52.0773 158.222 52.4552C158.367 52.8302 158.579 53.1242 158.857 53.3373C159.135 53.5475 159.476 53.6526 159.88 53.6526C160.3 53.6526 160.651 53.5418 160.932 53.3202C161.216 53.0958 161.43 52.7947 161.572 52.4168C161.716 52.0362 161.789 51.6129 161.789 51.147C161.789 50.6867 161.718 50.272 161.576 49.9026C161.437 49.5305 161.225 49.2364 160.941 49.0205C160.66 48.8018 160.306 48.6924 159.88 48.6924C159.471 48.6924 159.127 48.7961 158.849 49.0035C158.57 49.208 158.36 49.495 158.218 49.8643C158.076 50.2308 158.005 50.6583 158.005 51.147ZM166.988 54.556C166.397 54.556 165.878 54.4154 165.432 54.1342C164.989 53.8529 164.643 53.4595 164.393 52.9538C164.145 52.4481 164.022 51.8572 164.022 51.181C164.022 50.4992 164.145 49.9041 164.393 49.3955C164.643 48.887 164.989 48.4921 165.432 48.2109C165.878 47.9296 166.397 47.789 166.988 47.789C167.579 47.789 168.096 47.9296 168.539 48.2109C168.985 48.4921 169.331 48.887 169.579 49.3955C169.829 49.9041 169.954 50.4992 169.954 51.181C169.954 51.8572 169.829 52.4481 169.579 52.9538C169.331 53.4595 168.985 53.8529 168.539 54.1342C168.096 54.4154 167.579 54.556 166.988 54.556ZM166.988 53.6526C167.437 53.6526 167.806 53.5376 168.096 53.3075C168.385 53.0773 168.6 52.7748 168.739 52.3998C168.878 52.0248 168.948 51.6185 168.948 51.181C168.948 50.7435 168.878 50.3359 168.739 49.958C168.6 49.5802 168.385 49.2748 168.096 49.0418C167.806 48.8089 167.437 48.6924 166.988 48.6924C166.539 48.6924 166.17 48.8089 165.88 49.0418C165.59 49.2748 165.376 49.5802 165.236 49.958C165.097 50.3359 165.028 50.7435 165.028 51.181C165.028 51.6185 165.097 52.0248 165.236 52.3998C165.376 52.7748 165.59 53.0773 165.88 53.3075C166.17 53.5376 166.539 53.6526 166.988 53.6526ZM175.614 51.7435V47.8742H176.619V54.4197H175.614V53.3117H175.546C175.392 53.6441 175.154 53.9268 174.83 54.1597C174.506 54.3898 174.097 54.5049 173.602 54.5049C173.193 54.5049 172.83 54.4154 172.512 54.2364C172.193 54.0546 171.943 53.7819 171.762 53.4183C171.58 53.0518 171.489 52.5901 171.489 52.0333V47.8742H172.494V51.9651C172.494 52.4424 172.628 52.8231 172.895 53.1072C173.165 53.3913 173.509 53.5333 173.926 53.5333C174.176 53.5333 174.431 53.4694 174.689 53.3416C174.95 53.2137 175.169 53.0177 175.345 52.7535C175.524 52.4893 175.614 52.1526 175.614 51.7435ZM178.461 54.4197V47.8742H179.433V48.8629H179.501C179.621 48.539 179.836 48.2762 180.149 48.0745C180.461 47.8728 180.814 47.772 181.206 47.772C181.28 47.772 181.372 47.7734 181.483 47.7762C181.594 47.7791 181.677 47.7833 181.734 47.789V48.8117C181.7 48.8032 181.622 48.7904 181.5 48.7734C181.381 48.7535 181.254 48.7435 181.121 48.7435C180.802 48.7435 180.518 48.8103 180.268 48.9438C180.021 49.0745 179.825 49.2563 179.68 49.4893C179.538 49.7194 179.467 49.9822 179.467 50.2776V54.4197H178.461ZM188.227 54.5731C187.813 54.5731 187.436 54.495 187.098 54.3387C186.76 54.1796 186.492 53.9509 186.293 53.6526C186.094 53.3515 185.994 52.9879 185.994 52.5617C185.994 52.1867 186.068 51.8827 186.216 51.6498C186.364 51.414 186.561 51.2293 186.808 51.0958C187.056 50.9623 187.328 50.8629 187.627 50.7975C187.928 50.7293 188.23 50.6754 188.534 50.6356C188.932 50.5845 189.254 50.5461 189.502 50.5205C189.752 50.4921 189.933 50.4452 190.047 50.3799C190.164 50.3146 190.222 50.2009 190.222 50.039V50.0049C190.222 49.5845 190.107 49.2577 189.877 49.0248C189.649 48.7918 189.304 48.6754 188.841 48.6754C188.361 48.6754 187.985 48.7805 187.712 48.9907C187.439 49.2009 187.247 49.4254 187.137 49.664L186.182 49.3231C186.352 48.9254 186.58 48.6157 186.864 48.3941C187.151 48.1697 187.463 48.0134 187.801 47.9254C188.142 47.8345 188.477 47.789 188.807 47.789C189.017 47.789 189.259 47.8146 189.531 47.8657C189.807 47.914 190.073 48.0148 190.328 48.1683C190.587 48.3217 190.801 48.5532 190.972 48.8629C191.142 49.1725 191.227 49.5873 191.227 50.1072V54.4197H190.222V53.5333H190.171C190.102 53.6754 189.989 53.8273 189.83 53.9893C189.671 54.1512 189.459 54.289 189.195 54.4026C188.931 54.5163 188.608 54.5731 188.227 54.5731ZM188.381 53.6697C188.779 53.6697 189.114 53.5916 189.387 53.4353C189.662 53.2791 189.869 53.0773 190.009 52.8302C190.151 52.583 190.222 52.3231 190.222 52.0504V51.1299C190.179 51.181 190.085 51.2279 189.941 51.2705C189.798 51.3103 189.634 51.3458 189.446 51.3771C189.262 51.4055 189.081 51.431 188.905 51.4538C188.732 51.4737 188.591 51.4907 188.483 51.5049C188.222 51.539 187.977 51.5944 187.75 51.6711C187.526 51.745 187.344 51.8572 187.205 52.0077C187.068 52.1555 187 52.3572 187 52.6129C187 52.9623 187.129 53.2265 187.388 53.4055C187.649 53.5816 187.98 53.6697 188.381 53.6697ZM195.722 54.556C195.108 54.556 194.58 54.4112 194.137 54.1214C193.694 53.8316 193.353 53.4325 193.114 52.9239C192.876 52.4154 192.756 51.8345 192.756 51.181C192.756 50.5163 192.878 49.9296 193.123 49.4211C193.37 48.9097 193.714 48.5106 194.154 48.2237C194.597 47.9339 195.114 47.789 195.705 47.789C196.165 47.789 196.58 47.8742 196.949 48.0447C197.319 48.2151 197.621 48.4538 197.857 48.7606C198.093 49.0674 198.239 49.4254 198.296 49.8345H197.29C197.214 49.5362 197.043 49.272 196.779 49.0418C196.518 48.8089 196.165 48.6924 195.722 48.6924C195.33 48.6924 194.986 48.7947 194.691 48.9992C194.398 49.2009 194.17 49.4864 194.005 49.8558C193.843 50.2222 193.762 50.6526 193.762 51.147C193.762 51.6526 193.841 52.093 194.001 52.468C194.162 52.843 194.39 53.1342 194.682 53.3416C194.978 53.5489 195.324 53.6526 195.722 53.6526C195.983 53.6526 196.221 53.6072 196.434 53.5163C196.647 53.4254 196.827 53.2947 196.975 53.1242C197.123 52.9538 197.228 52.7492 197.29 52.5106H198.296C198.239 52.897 198.099 53.245 197.874 53.5546C197.653 53.8614 197.358 54.1058 196.992 54.2876C196.628 54.4666 196.205 54.556 195.722 54.556ZM202.425 54.556C201.812 54.556 201.283 54.4112 200.84 54.1214C200.397 53.8316 200.056 53.4325 199.817 52.9239C199.579 52.4154 199.459 51.8345 199.459 51.181C199.459 50.5163 199.581 49.9296 199.826 49.4211C200.073 48.9097 200.417 48.5106 200.857 48.2237C201.3 47.9339 201.817 47.789 202.408 47.789C202.868 47.789 203.283 47.8742 203.653 48.0447C204.022 48.2151 204.324 48.4538 204.56 48.7606C204.796 49.0674 204.942 49.4254 204.999 49.8345H203.993C203.917 49.5362 203.746 49.272 203.482 49.0418C203.221 48.8089 202.868 48.6924 202.425 48.6924C202.033 48.6924 201.689 48.7947 201.394 48.9992C201.101 49.2009 200.873 49.4864 200.708 49.8558C200.546 50.2222 200.465 50.6526 200.465 51.147C200.465 51.6526 200.545 52.093 200.704 52.468C200.866 52.843 201.093 53.1342 201.385 53.3416C201.681 53.5489 202.028 53.6526 202.425 53.6526C202.687 53.6526 202.924 53.6072 203.137 53.5163C203.35 53.4254 203.53 53.2947 203.678 53.1242C203.826 52.9538 203.931 52.7492 203.993 52.5106H204.999C204.942 52.897 204.802 53.245 204.577 53.5546C204.356 53.8614 204.062 54.1058 203.695 54.2876C203.331 54.4666 202.908 54.556 202.425 54.556ZM209.214 54.556C208.583 54.556 208.039 54.4168 207.581 54.1384C207.127 53.8572 206.776 53.4651 206.529 52.9623C206.285 52.4566 206.162 51.8685 206.162 51.1981C206.162 50.5276 206.285 49.9367 206.529 49.4254C206.776 48.9112 207.12 48.5106 207.56 48.2237C208.003 47.9339 208.52 47.789 209.111 47.789C209.452 47.789 209.789 47.8458 210.121 47.9595C210.454 48.0731 210.756 48.2577 211.029 48.5134C211.302 48.7663 211.519 49.1015 211.681 49.5191C211.843 49.9367 211.924 50.4509 211.924 51.0617V51.4879H206.878V50.6185H210.901C210.901 50.2492 210.827 49.9197 210.68 49.6299C210.535 49.3401 210.327 49.1114 210.057 48.9438C209.79 48.7762 209.475 48.6924 209.111 48.6924C208.711 48.6924 208.364 48.7918 208.072 48.9907C207.782 49.1867 207.559 49.4424 207.403 49.7577C207.246 50.0731 207.168 50.4112 207.168 50.772V51.3515C207.168 51.8458 207.253 52.2648 207.424 52.6086C207.597 52.9495 207.837 53.2095 208.144 53.3884C208.451 53.5646 208.807 53.6526 209.214 53.6526C209.478 53.6526 209.716 53.6157 209.93 53.5418C210.145 53.4651 210.331 53.3515 210.488 53.2009C210.644 53.0475 210.765 52.8572 210.85 52.6299L211.822 52.9026C211.719 53.2322 211.547 53.522 211.306 53.772C211.064 54.0191 210.766 54.2123 210.411 54.3515C210.056 54.4879 209.657 54.556 209.214 54.556ZM208.6 46.9879L209.64 45.0106H210.816L209.486 46.9879H208.6ZM215.925 54.556C215.38 54.556 214.898 54.4183 214.481 54.1427C214.063 53.8643 213.736 53.4722 213.501 52.9666C213.265 52.458 213.147 51.8572 213.147 51.164C213.147 50.4765 213.265 49.8799 213.501 49.3742C213.736 48.8685 214.064 48.4779 214.485 48.2023C214.905 47.9268 215.391 47.789 215.942 47.789C216.368 47.789 216.705 47.86 216.952 48.0021C217.202 48.1413 217.393 48.3004 217.523 48.4793C217.657 48.6555 217.76 48.8004 217.834 48.914H217.92V45.6924H218.925V54.4197H217.954V53.414H217.834C217.76 53.5333 217.655 53.6839 217.519 53.8657C217.383 54.0447 217.188 54.2052 216.935 54.3472C216.682 54.4864 216.346 54.556 215.925 54.556ZM216.062 53.6526C216.465 53.6526 216.806 53.5475 217.084 53.3373C217.363 53.1242 217.574 52.8302 217.719 52.4552C217.864 52.0773 217.937 51.6413 217.937 51.147C217.937 50.6583 217.866 50.2308 217.724 49.8643C217.581 49.495 217.371 49.208 217.093 49.0035C216.814 48.7961 216.471 48.6924 216.062 48.6924C215.635 48.6924 215.28 48.8018 214.996 49.0205C214.715 49.2364 214.503 49.5305 214.361 49.9026C214.222 50.272 214.153 50.6867 214.153 51.147C214.153 51.6129 214.224 52.0362 214.366 52.4168C214.51 52.7947 214.724 53.0958 215.005 53.3202C215.289 53.5418 215.641 53.6526 216.062 53.6526ZM223.651 54.556C223.02 54.556 222.476 54.4168 222.019 54.1384C221.564 53.8572 221.214 53.4651 220.966 52.9623C220.722 52.4566 220.6 51.8685 220.6 51.1981C220.6 50.5276 220.722 49.9367 220.966 49.4254C221.214 48.9112 221.557 48.5106 221.998 48.2237C222.441 47.9339 222.958 47.789 223.549 47.789C223.89 47.789 224.226 47.8458 224.559 47.9595C224.891 48.0731 225.194 48.2577 225.466 48.5134C225.739 48.7663 225.956 49.1015 226.118 49.5191C226.28 49.9367 226.361 50.4509 226.361 51.0617V51.4879H221.316V50.6185H225.339C225.339 50.2492 225.265 49.9197 225.117 49.6299C224.972 49.3401 224.765 49.1114 224.495 48.9438C224.228 48.7762 223.912 48.6924 223.549 48.6924C223.148 48.6924 222.802 48.7918 222.509 48.9907C222.219 49.1867 221.996 49.4424 221.84 49.7577C221.684 50.0731 221.606 50.4112 221.606 50.772V51.3515C221.606 51.8458 221.691 52.2648 221.861 52.6086C222.035 52.9495 222.275 53.2095 222.581 53.3884C222.888 53.5646 223.245 53.6526 223.651 53.6526C223.915 53.6526 224.154 53.6157 224.367 53.5418C224.583 53.4651 224.769 53.3515 224.925 53.2009C225.081 53.0475 225.202 52.8572 225.287 52.6299L226.259 52.9026C226.157 53.2322 225.985 53.522 225.743 53.772C225.502 54.0191 225.204 54.2123 224.849 54.3515C224.493 54.4879 224.094 54.556 223.651 54.556ZM227.891 54.4197V47.8742H228.863V48.8629H228.931C229.05 48.539 229.266 48.2762 229.579 48.0745C229.891 47.8728 230.243 47.772 230.635 47.772C230.709 47.772 230.802 47.7734 230.912 47.7762C231.023 47.7791 231.107 47.7833 231.164 47.789V48.8117C231.13 48.8032 231.052 48.7904 230.93 48.7734C230.81 48.7535 230.684 48.7435 230.55 48.7435C230.232 48.7435 229.948 48.8103 229.698 48.9438C229.451 49.0745 229.255 49.2563 229.11 49.4893C228.968 49.7194 228.897 49.9822 228.897 50.2776V54.4197H227.891ZM237.657 54.5731C237.242 54.5731 236.866 54.495 236.528 54.3387C236.19 54.1796 235.921 53.9509 235.722 53.6526C235.524 53.3515 235.424 52.9879 235.424 52.5617C235.424 52.1867 235.498 51.8827 235.646 51.6498C235.794 51.414 235.991 51.2293 236.238 51.0958C236.485 50.9623 236.758 50.8629 237.056 50.7975C237.357 50.7293 237.66 50.6754 237.964 50.6356C238.362 50.5845 238.684 50.5461 238.931 50.5205C239.181 50.4921 239.363 50.4452 239.477 50.3799C239.593 50.3146 239.651 50.2009 239.651 50.039V50.0049C239.651 49.5845 239.536 49.2577 239.306 49.0248C239.079 48.7918 238.734 48.6754 238.271 48.6754C237.791 48.6754 237.414 48.7805 237.142 48.9907C236.869 49.2009 236.677 49.4254 236.566 49.664L235.612 49.3231C235.782 48.9254 236.009 48.6157 236.294 48.3941C236.58 48.1697 236.893 48.0134 237.231 47.9254C237.572 47.8345 237.907 47.789 238.237 47.789C238.447 47.789 238.688 47.8146 238.961 47.8657C239.237 47.914 239.502 48.0148 239.758 48.1683C240.017 48.3217 240.231 48.5532 240.401 48.8629C240.572 49.1725 240.657 49.5873 240.657 50.1072V54.4197H239.651V53.5333H239.6C239.532 53.6754 239.419 53.8273 239.259 53.9893C239.1 54.1512 238.889 54.289 238.624 54.4026C238.36 54.5163 238.038 54.5731 237.657 54.5731ZM237.811 53.6697C238.208 53.6697 238.544 53.5916 238.816 53.4353C239.092 53.2791 239.299 53.0773 239.438 52.8302C239.58 52.583 239.651 52.3231 239.651 52.0504V51.1299C239.609 51.181 239.515 51.2279 239.37 51.2705C239.228 51.3103 239.063 51.3458 238.876 51.3771C238.691 51.4055 238.511 51.431 238.335 51.4538C238.161 51.4737 238.021 51.4907 237.913 51.5049C237.651 51.539 237.407 51.5944 237.18 51.6711C236.955 51.745 236.774 51.8572 236.634 52.0077C236.498 52.1555 236.43 52.3572 236.43 52.6129C236.43 52.9623 236.559 53.2265 236.818 53.4055C237.079 53.5816 237.41 53.6697 237.811 53.6697ZM237.879 46.9879L236.549 45.0106H237.725L238.765 46.9879H237.879ZM251.22 47.8742L248.8 54.4197H247.777L245.356 47.8742H246.447L248.254 53.0901H248.322L250.129 47.8742H251.22ZM254.972 54.556C254.381 54.556 253.863 54.4154 253.417 54.1342C252.974 53.8529 252.627 53.4595 252.377 52.9538C252.13 52.4481 252.006 51.8572 252.006 51.181C252.006 50.4992 252.13 49.9041 252.377 49.3955C252.627 48.887 252.974 48.4921 253.417 48.2109C253.863 47.9296 254.381 47.789 254.972 47.789C255.563 47.789 256.08 47.9296 256.523 48.2109C256.969 48.4921 257.316 48.887 257.563 49.3955C257.813 49.9041 257.938 50.4992 257.938 51.181C257.938 51.8572 257.813 52.4481 257.563 52.9538C257.316 53.4595 256.969 53.8529 256.523 54.1342C256.08 54.4154 255.563 54.556 254.972 54.556ZM254.972 53.6526C255.421 53.6526 255.79 53.5376 256.08 53.3075C256.37 53.0773 256.584 52.7748 256.724 52.3998C256.863 52.0248 256.932 51.6185 256.932 51.181C256.932 50.7435 256.863 50.3359 256.724 49.958C256.584 49.5802 256.37 49.2748 256.08 49.0418C255.79 48.8089 255.421 48.6924 254.972 48.6924C254.523 48.6924 254.154 48.8089 253.864 49.0418C253.574 49.2748 253.36 49.5802 253.221 49.958C253.081 50.3359 253.012 50.7435 253.012 51.181C253.012 51.6185 253.081 52.0248 253.221 52.3998C253.36 52.7748 253.574 53.0773 253.864 53.3075C254.154 53.5376 254.523 53.6526 254.972 53.6526ZM262.32 47.8742V48.7265H258.928V47.8742H262.32ZM259.916 46.306H260.922V52.5447C260.922 52.8288 260.963 53.0418 261.046 53.1839C261.131 53.3231 261.239 53.4168 261.369 53.4651C261.503 53.5106 261.644 53.5333 261.791 53.5333C261.902 53.5333 261.993 53.5276 262.064 53.5163C262.135 53.5021 262.192 53.4907 262.235 53.4822L262.439 54.3856C262.371 54.4112 262.276 54.4367 262.154 54.4623C262.031 54.4907 261.877 54.5049 261.689 54.5049C261.405 54.5049 261.127 54.4438 260.854 54.3217C260.584 54.1995 260.36 54.0134 260.181 53.7634C260.004 53.5134 259.916 53.1981 259.916 52.8174V46.306ZM263.833 54.4197V47.8742H264.804V48.8629H264.872C264.992 48.539 265.208 48.2762 265.52 48.0745C265.833 47.8728 266.185 47.772 266.577 47.772C266.651 47.772 266.743 47.7734 266.854 47.7762C266.965 47.7791 267.048 47.7833 267.105 47.789V48.8117C267.071 48.8032 266.993 48.7904 266.871 48.7734C266.752 48.7535 266.625 48.7435 266.492 48.7435C266.173 48.7435 265.889 48.8103 265.639 48.9438C265.392 49.0745 265.196 49.2563 265.051 49.4893C264.909 49.7194 264.838 49.9822 264.838 50.2776V54.4197H263.833ZM270.843 54.556C270.212 54.556 269.668 54.4168 269.21 54.1384C268.756 53.8572 268.405 53.4651 268.158 52.9623C267.914 52.4566 267.791 51.8685 267.791 51.1981C267.791 50.5276 267.914 49.9367 268.158 49.4254C268.405 48.9112 268.749 48.5106 269.189 48.2237C269.632 47.9339 270.149 47.789 270.74 47.789C271.081 47.789 271.418 47.8458 271.75 47.9595C272.083 48.0731 272.385 48.2577 272.658 48.5134C272.931 48.7663 273.148 49.1015 273.31 49.5191C273.472 49.9367 273.553 50.4509 273.553 51.0617V51.4879H268.507V50.6185H272.53C272.53 50.2492 272.456 49.9197 272.308 49.6299C272.164 49.3401 271.956 49.1114 271.686 48.9438C271.419 48.7762 271.104 48.6924 270.74 48.6924C270.34 48.6924 269.993 48.7918 269.7 48.9907C269.411 49.1867 269.188 49.4424 269.031 49.7577C268.875 50.0731 268.797 50.4112 268.797 50.772V51.3515C268.797 51.8458 268.882 52.2648 269.053 52.6086C269.226 52.9495 269.466 53.2095 269.773 53.3884C270.08 53.5646 270.436 53.6526 270.843 53.6526C271.107 53.6526 271.345 53.6157 271.558 53.5418C271.774 53.4651 271.96 53.3515 272.117 53.2009C272.273 53.0475 272.394 52.8572 272.479 52.6299L273.45 52.9026C273.348 53.2322 273.176 53.522 272.935 53.772C272.693 54.0191 272.395 54.2123 272.04 54.3515C271.685 54.4879 271.286 54.556 270.843 54.556ZM281.202 54.556C280.571 54.556 280.027 54.4168 279.57 54.1384C279.115 53.8572 278.764 53.4651 278.517 52.9623C278.273 52.4566 278.151 51.8685 278.151 51.1981C278.151 50.5276 278.273 49.9367 278.517 49.4254C278.764 48.9112 279.108 48.5106 279.548 48.2237C279.992 47.9339 280.509 47.789 281.1 47.789C281.441 47.789 281.777 47.8458 282.11 47.9595C282.442 48.0731 282.744 48.2577 283.017 48.5134C283.29 48.7663 283.507 49.1015 283.669 49.5191C283.831 49.9367 283.912 50.4509 283.912 51.0617V51.4879H278.867V50.6185H282.889C282.889 50.2492 282.816 49.9197 282.668 49.6299C282.523 49.3401 282.316 49.1114 282.046 48.9438C281.779 48.7762 281.463 48.6924 281.1 48.6924C280.699 48.6924 280.352 48.7918 280.06 48.9907C279.77 49.1867 279.547 49.4424 279.391 49.7577C279.235 50.0731 279.156 50.4112 279.156 50.772V51.3515C279.156 51.8458 279.242 52.2648 279.412 52.6086C279.585 52.9495 279.825 53.2095 280.132 53.3884C280.439 53.5646 280.796 53.6526 281.202 53.6526C281.466 53.6526 281.705 53.6157 281.918 53.5418C282.134 53.4651 282.32 53.3515 282.476 53.2009C282.632 53.0475 282.753 52.8572 282.838 52.6299L283.81 52.9026C283.708 53.2322 283.536 53.522 283.294 53.772C283.053 54.0191 282.754 54.2123 282.399 54.3515C282.044 54.4879 281.645 54.556 281.202 54.556ZM290.078 49.3401L289.175 49.5958C289.118 49.4452 289.034 49.2989 288.923 49.1569C288.816 49.012 288.668 48.8927 288.48 48.7989C288.293 48.7052 288.053 48.6583 287.76 48.6583C287.36 48.6583 287.026 48.7506 286.759 48.9353C286.494 49.1171 286.362 49.3487 286.362 49.6299C286.362 49.8799 286.453 50.0773 286.635 50.2222C286.817 50.3671 287.101 50.4879 287.487 50.5845L288.459 50.8231C289.044 50.9651 289.48 51.1825 289.767 51.4751C290.054 51.7648 290.198 52.1384 290.198 52.5958C290.198 52.9708 290.09 53.306 289.874 53.6015C289.661 53.897 289.362 54.1299 288.979 54.3004C288.595 54.4708 288.149 54.556 287.641 54.556C286.973 54.556 286.421 54.4112 285.983 54.1214C285.546 53.8316 285.269 53.4083 285.152 52.8515L286.107 52.6129C286.198 52.9651 286.369 53.2293 286.622 53.4055C286.878 53.5816 287.212 53.6697 287.624 53.6697C288.093 53.6697 288.465 53.5702 288.74 53.3714C289.019 53.1697 289.158 52.9282 289.158 52.647C289.158 52.4197 289.078 52.2293 288.919 52.0759C288.76 51.9197 288.516 51.8032 288.186 51.7265L287.095 51.4708C286.496 51.3288 286.056 51.1086 285.774 50.8103C285.496 50.5092 285.357 50.1327 285.357 49.681C285.357 49.3117 285.46 48.985 285.668 48.7009C285.878 48.4168 286.164 48.1938 286.524 48.0319C286.888 47.87 287.3 47.789 287.76 47.789C288.408 47.789 288.916 47.931 289.286 48.2151C289.658 48.4992 289.922 48.8742 290.078 49.3401ZM291.711 56.8742V47.8742H292.683V48.914H292.802C292.876 48.8004 292.979 48.6555 293.109 48.4793C293.243 48.3004 293.433 48.1413 293.68 48.0021C293.93 47.86 294.268 47.789 294.694 47.789C295.246 47.789 295.731 47.9268 296.152 48.2023C296.572 48.4779 296.9 48.8685 297.136 49.3742C297.372 49.8799 297.49 50.4765 297.49 51.164C297.49 51.8572 297.372 52.458 297.136 52.9666C296.9 53.4722 296.574 53.8643 296.156 54.1427C295.738 54.4183 295.257 54.556 294.711 54.556C294.291 54.556 293.954 54.4864 293.702 54.3472C293.449 54.2052 293.254 54.0447 293.118 53.8657C292.981 53.6839 292.876 53.5333 292.802 53.414H292.717V56.8742H291.711ZM292.7 51.147C292.7 51.6413 292.773 52.0773 292.917 52.4552C293.062 52.8302 293.274 53.1242 293.552 53.3373C293.831 53.5475 294.172 53.6526 294.575 53.6526C294.996 53.6526 295.346 53.5418 295.628 53.3202C295.912 53.0958 296.125 52.7947 296.267 52.4168C296.412 52.0362 296.484 51.6129 296.484 51.147C296.484 50.6867 296.413 50.272 296.271 49.9026C296.132 49.5305 295.92 49.2364 295.636 49.0205C295.355 48.8018 295.001 48.6924 294.575 48.6924C294.166 48.6924 293.822 48.7961 293.544 49.0035C293.265 49.208 293.055 49.495 292.913 49.8643C292.771 50.2308 292.7 50.6583 292.7 51.147ZM300.95 54.5731C300.535 54.5731 300.159 54.495 299.821 54.3387C299.483 54.1796 299.214 53.9509 299.015 53.6526C298.817 53.3515 298.717 52.9879 298.717 52.5617C298.717 52.1867 298.791 51.8827 298.939 51.6498C299.086 51.414 299.284 51.2293 299.531 51.0958C299.778 50.9623 300.051 50.8629 300.349 50.7975C300.65 50.7293 300.953 50.6754 301.257 50.6356C301.655 50.5845 301.977 50.5461 302.224 50.5205C302.474 50.4921 302.656 50.4452 302.77 50.3799C302.886 50.3146 302.944 50.2009 302.944 50.039V50.0049C302.944 49.5845 302.829 49.2577 302.599 49.0248C302.372 48.7918 302.027 48.6754 301.564 48.6754C301.084 48.6754 300.707 48.7805 300.434 48.9907C300.162 49.2009 299.97 49.4254 299.859 49.664L298.905 49.3231C299.075 48.9254 299.302 48.6157 299.586 48.3941C299.873 48.1697 300.186 48.0134 300.524 47.9254C300.865 47.8345 301.2 47.789 301.53 47.789C301.74 47.789 301.981 47.8146 302.254 47.8657C302.53 47.914 302.795 48.0148 303.051 48.1683C303.309 48.3217 303.524 48.5532 303.694 48.8629C303.865 49.1725 303.95 49.5873 303.95 50.1072V54.4197H302.944V53.5333H302.893C302.825 53.6754 302.711 53.8273 302.552 53.9893C302.393 54.1512 302.182 54.289 301.917 54.4026C301.653 54.5163 301.331 54.5731 300.95 54.5731ZM301.104 53.6697C301.501 53.6697 301.836 53.5916 302.109 53.4353C302.385 53.2791 302.592 53.0773 302.731 52.8302C302.873 52.583 302.944 52.3231 302.944 52.0504V51.1299C302.902 51.181 302.808 51.2279 302.663 51.2705C302.521 51.3103 302.356 51.3458 302.169 51.3771C301.984 51.4055 301.804 51.431 301.628 51.4538C301.454 51.4737 301.314 51.4907 301.206 51.5049C300.944 51.539 300.7 51.5944 300.473 51.6711C300.248 51.745 300.067 51.8572 299.927 52.0077C299.791 52.1555 299.723 52.3572 299.723 52.6129C299.723 52.9623 299.852 53.2265 300.111 53.4055C300.372 53.5816 300.703 53.6697 301.104 53.6697ZM308.445 54.556C307.831 54.556 307.303 54.4112 306.86 54.1214C306.416 53.8316 306.075 53.4325 305.837 52.9239C305.598 52.4154 305.479 51.8345 305.479 51.181C305.479 50.5163 305.601 49.9296 305.845 49.4211C306.093 48.9097 306.436 48.5106 306.877 48.2237C307.32 47.9339 307.837 47.789 308.428 47.789C308.888 47.789 309.303 47.8742 309.672 48.0447C310.041 48.2151 310.344 48.4538 310.58 48.7606C310.816 49.0674 310.962 49.4254 311.019 49.8345H310.013C309.936 49.5362 309.766 49.272 309.502 49.0418C309.24 48.8089 308.888 48.6924 308.445 48.6924C308.053 48.6924 307.709 48.7947 307.414 48.9992C307.121 49.2009 306.892 49.4864 306.727 49.8558C306.566 50.2222 306.485 50.6526 306.485 51.147C306.485 51.6526 306.564 52.093 306.723 52.468C306.885 52.843 307.112 53.1342 307.405 53.3416C307.7 53.5489 308.047 53.6526 308.445 53.6526C308.706 53.6526 308.943 53.6072 309.156 53.5163C309.369 53.4254 309.55 53.2947 309.698 53.1242C309.845 52.9538 309.95 52.7492 310.013 52.5106H311.019C310.962 52.897 310.821 53.245 310.597 53.5546C310.375 53.8614 310.081 54.1058 309.715 54.2876C309.351 54.4666 308.928 54.556 308.445 54.556ZM315.233 54.556C314.602 54.556 314.058 54.4168 313.601 54.1384C313.146 53.8572 312.796 53.4651 312.548 52.9623C312.304 52.4566 312.182 51.8685 312.182 51.1981C312.182 50.5276 312.304 49.9367 312.548 49.4254C312.796 48.9112 313.139 48.5106 313.58 48.2237C314.023 47.9339 314.54 47.789 315.131 47.789C315.472 47.789 315.808 47.8458 316.141 47.9595C316.473 48.0731 316.776 48.2577 317.048 48.5134C317.321 48.7663 317.539 49.1015 317.7 49.5191C317.862 49.9367 317.943 50.4509 317.943 51.0617V51.4879H312.898V50.6185H316.921C316.921 50.2492 316.847 49.9197 316.699 49.6299C316.554 49.3401 316.347 49.1114 316.077 48.9438C315.81 48.7762 315.494 48.6924 315.131 48.6924C314.73 48.6924 314.384 48.7918 314.091 48.9907C313.801 49.1867 313.578 49.4424 313.422 49.7577C313.266 50.0731 313.188 50.4112 313.188 50.772V51.3515C313.188 51.8458 313.273 52.2648 313.443 52.6086C313.617 52.9495 313.857 53.2095 314.164 53.3884C314.47 53.5646 314.827 53.6526 315.233 53.6526C315.497 53.6526 315.736 53.6157 315.949 53.5418C316.165 53.4651 316.351 53.3515 316.507 53.2009C316.664 53.0475 316.784 52.8572 316.869 52.6299L317.841 52.9026C317.739 53.2322 317.567 53.522 317.325 53.772C317.084 54.0191 316.786 54.2123 316.431 54.3515C316.075 54.4879 315.676 54.556 315.233 54.556Z" fill="#B175FF"/>
<defs>
<radialGradient id="paint0_angular_1790_978" cx="0" cy="0" r="1" gradientUnits="userSpaceOnUse" gradientTransform="translate(181 357.166) rotate(-90) scale(21.564 78.0298)">
<stop offset="0.497101" stop-color="#9747FF"/>
<stop offset="0.996401"/>
</radialGradient>
</defs>
</svg>
