<svg width="431" height="174" viewBox="0 0 431 174" fill="none" xmlns="http://www.w3.org/2000/svg">
<g clip-path="url(#clip0_1790_1001)">
<g filter="url(#filter0_dii_1790_1001)">
<path fill-rule="evenodd" clip-rule="evenodd" d="M76 39C76 50.598 66.598 60 55 60C43.402 60 34 50.598 34 39C34 27.402 43.402 18 55 18C66.598 18 76 27.402 76 39ZM45 29H52V49H45V29ZM65 29H59V49H65V29Z" fill="url(#paint0_linear_1790_1001)"/>
</g>
<rect x="152" y="29" width="21" height="20" rx="3" fill="#FE0707"/>
<g filter="url(#filter1_dii_1790_1001)">
<path fill-rule="evenodd" clip-rule="evenodd" d="M163 60C174.598 60 184 50.598 184 39C184 27.402 174.598 18 163 18C151.402 18 142 27.402 142 39C142 50.598 151.402 60 163 60ZM155 29C153.343 29 152 30.3431 152 32V46C152 47.6569 153.343 49 155 49H170C171.657 49 173 47.6569 173 46V32C173 30.3431 171.657 29 170 29H155Z" fill="url(#paint1_linear_1790_1001)"/>
</g>
<g filter="url(#filter2_dii_1790_1001)">
<path fill-rule="evenodd" clip-rule="evenodd" d="M292 39C292 50.598 282.598 60 271 60C259.402 60 250 50.598 250 39C250 27.402 259.402 18 271 18C282.598 18 292 27.402 292 39ZM279.205 29.7974V26.471C279.205 26.3815 279.217 26.2938 279.24 26.2183C279.262 26.1427 279.295 26.0824 279.333 26.0445C279.372 26.0065 279.415 25.9924 279.457 26.0039C279.499 26.0153 279.539 26.0518 279.572 26.1091L281.685 29.8147C281.792 30.0032 281.792 30.35 281.685 30.5385L279.572 34.244C279.539 34.3013 279.499 34.3378 279.457 34.3493C279.415 34.3607 279.372 34.3466 279.333 34.3087C279.295 34.2707 279.262 34.2104 279.24 34.1349C279.217 34.0593 279.205 33.9716 279.205 33.8821V31.6961C276.548 31.6961 274.517 33.6138 273.109 35.6493C272.348 36.7575 271.694 37.9804 271.162 39.291C271.694 40.6016 272.347 41.8245 273.108 42.9328C274.519 44.9682 276.551 46.886 279.205 46.886V43.4343C279.205 43.3448 279.217 43.2571 279.24 43.1816C279.262 43.106 279.295 43.0458 279.333 43.0078C279.372 42.9698 279.415 42.9557 279.457 42.9672C279.499 42.9786 279.539 43.0152 279.572 43.0725L281.685 46.778C281.792 46.9665 281.792 47.3133 281.685 47.5018L279.572 51.2073C279.539 51.2646 279.499 51.3011 279.457 51.3126C279.415 51.324 279.372 51.31 279.333 51.272C279.295 51.234 279.262 51.1737 279.24 51.0982C279.217 51.0226 279.205 50.935 279.205 50.8454V48.7847C275.952 48.7847 273.551 46.4303 272.004 44.1936C271.383 43.29 270.826 42.3164 270.341 41.2847C269.957 42.1012 269.401 43.1455 268.677 44.1936C267.131 46.4303 264.73 48.7847 261.477 48.7847H260.739C260.543 48.7847 260.355 48.6847 260.216 48.5066C260.078 48.3286 260 48.0871 260 47.8353C260 47.5835 260.078 47.3421 260.216 47.164C260.355 46.986 260.543 46.886 260.739 46.886H261.477C264.133 46.886 266.165 44.9682 267.573 42.9328C268.334 41.8246 268.988 40.6017 269.52 39.291C268.988 37.9804 268.335 36.7576 267.574 35.6493C266.163 33.6138 264.13 31.6961 261.477 31.6961H260.739C260.543 31.6961 260.355 31.5961 260.216 31.418C260.078 31.24 260 30.9985 260 30.7467C260 30.4949 260.078 30.2535 260.216 30.0754C260.355 29.8974 260.543 29.7974 260.739 29.7974H261.477C264.73 29.7974 267.131 32.1518 268.677 34.3885C269.401 35.4366 269.955 36.4809 270.341 37.2974C270.725 36.4809 271.28 35.4366 272.004 34.3885C273.551 32.1518 275.952 29.7974 279.205 29.7974Z" fill="url(#paint2_linear_1790_1001)"/>
</g>
<g filter="url(#filter3_dii_1790_1001)">
<path fill-rule="evenodd" clip-rule="evenodd" d="M379 60C390.598 60 400 50.598 400 39C400 27.402 390.598 18 379 18C367.402 18 358 27.402 358 39C358 50.598 367.402 60 379 60ZM375.743 31.6792C373.755 29.3827 370.467 29.3251 368.4 31.5506C366.333 33.776 366.268 37.4418 368.257 39.7383L375.17 47.7236L378.77 51.8817L382.513 47.8522L389.675 40.1435C391.742 37.9181 391.806 34.2523 389.818 31.9558C387.83 29.6593 384.542 29.6017 382.475 31.8271L379.057 35.5063L375.743 31.6792Z" fill="url(#paint3_linear_1790_1001)"/>
</g>
<path d="M372 35.7087L378.913 43.694L386.075 35.9853" stroke="#AC131D" stroke-width="11" stroke-linecap="round"/>
</g>
<rect x="34" y="115" width="365" height="8" rx="4" fill="white"/>
<rect x="34" y="106" width="42" height="24" rx="12" fill="#5613AC"/>
<mask id="mask0_1790_1001" style="mask-type:alpha" maskUnits="userSpaceOnUse" x="34" y="106" width="42" height="24">
<rect x="34" y="106" width="42" height="24" rx="12" fill="#5613AC"/>
</mask>
<g mask="url(#mask0_1790_1001)">
<path d="M42.9429 120.6C43.0729 121.17 43.3879 121.455 43.8879 121.455C44.3979 121.455 44.7179 121.17 44.8479 120.6C44.9579 120.1 45.0129 119.25 45.0129 118.05C45.0129 116.1 44.9429 114.88 44.8029 114.39C44.6629 113.92 44.4829 113.635 44.2629 113.535C44.1329 113.475 43.9729 113.445 43.7829 113.445C43.2929 113.445 42.9879 113.735 42.8679 114.315C42.7579 114.785 42.7029 115.355 42.7029 116.025C42.7029 118.405 42.7829 119.93 42.9429 120.6ZM46.5429 113.7C47.2229 114.59 47.5629 115.85 47.5629 117.48C47.5629 119.11 47.2229 120.36 46.5429 121.23C45.8629 122.09 44.9629 122.52 43.8429 122.52C42.7329 122.52 41.8429 122.09 41.1729 121.23C40.5029 120.36 40.1679 119.11 40.1679 117.48C40.1679 115.85 40.5029 114.59 41.1729 113.7C41.8429 112.81 42.7329 112.365 43.8429 112.365C44.9629 112.365 45.8629 112.81 46.5429 113.7ZM50.7165 113.955C51.0765 113.955 51.3815 114.085 51.6315 114.345C51.8815 114.595 52.0065 114.9 52.0065 115.26C52.0065 115.61 51.8765 115.915 51.6165 116.175C51.3665 116.425 51.0615 116.55 50.7015 116.55C50.3515 116.55 50.0465 116.425 49.7865 116.175C49.5365 115.915 49.4115 115.61 49.4115 115.26C49.4115 114.9 49.5365 114.595 49.7865 114.345C50.0465 114.085 50.3565 113.955 50.7165 113.955ZM50.7015 120.15C51.0615 120.15 51.3665 120.28 51.6165 120.54C51.8765 120.8 52.0065 121.11 52.0065 121.47C52.0065 121.82 51.8765 122.12 51.6165 122.37C51.3665 122.62 51.0615 122.745 50.7015 122.745C50.3515 122.745 50.0465 122.62 49.7865 122.37C49.5365 122.12 49.4115 121.82 49.4115 121.47C49.4115 121.11 49.5365 120.8 49.7865 120.54C50.0465 120.28 50.3515 120.15 50.7015 120.15ZM56.6099 120.6C56.7399 121.17 57.0549 121.455 57.5549 121.455C58.0649 121.455 58.3849 121.17 58.5149 120.6C58.6249 120.1 58.6799 119.25 58.6799 118.05C58.6799 116.1 58.6099 114.88 58.4699 114.39C58.3299 113.92 58.1499 113.635 57.9299 113.535C57.7999 113.475 57.6399 113.445 57.4499 113.445C56.9599 113.445 56.6549 113.735 56.5349 114.315C56.4249 114.785 56.3699 115.355 56.3699 116.025C56.3699 118.405 56.4499 119.93 56.6099 120.6ZM60.2099 113.7C60.8899 114.59 61.2299 115.85 61.2299 117.48C61.2299 119.11 60.8899 120.36 60.2099 121.23C59.5299 122.09 58.6299 122.52 57.5099 122.52C56.3999 122.52 55.5099 122.09 54.8399 121.23C54.1699 120.36 53.8349 119.11 53.8349 117.48C53.8349 115.85 54.1699 114.59 54.8399 113.7C55.5099 112.81 56.3999 112.365 57.5099 112.365C58.6299 112.365 59.5299 112.81 60.2099 113.7ZM65.2085 120.6C65.3385 121.17 65.6535 121.455 66.1535 121.455C66.6635 121.455 66.9835 121.17 67.1135 120.6C67.2235 120.1 67.2785 119.25 67.2785 118.05C67.2785 116.1 67.2085 114.88 67.0685 114.39C66.9285 113.92 66.7485 113.635 66.5285 113.535C66.3985 113.475 66.2385 113.445 66.0485 113.445C65.5585 113.445 65.2535 113.735 65.1335 114.315C65.0235 114.785 64.9685 115.355 64.9685 116.025C64.9685 118.405 65.0485 119.93 65.2085 120.6ZM68.8085 113.7C69.4885 114.59 69.8285 115.85 69.8285 117.48C69.8285 119.11 69.4885 120.36 68.8085 121.23C68.1285 122.09 67.2285 122.52 66.1085 122.52C64.9985 122.52 64.1085 122.09 63.4385 121.23C62.7685 120.36 62.4335 119.11 62.4335 117.48C62.4335 115.85 62.7685 114.59 63.4385 113.7C64.1085 112.81 64.9985 112.365 66.1085 112.365C67.2285 112.365 68.1285 112.81 68.8085 113.7ZM44.481 139.6C44.611 140.17 44.926 140.455 45.426 140.455C45.936 140.455 46.256 140.17 46.386 139.6C46.496 139.1 46.551 138.25 46.551 137.05C46.551 135.1 46.481 133.88 46.341 133.39C46.201 132.92 46.021 132.635 45.801 132.535C45.671 132.475 45.511 132.445 45.321 132.445C44.831 132.445 44.526 132.735 44.406 133.315C44.296 133.785 44.241 134.355 44.241 135.025C44.241 137.405 44.321 138.93 44.481 139.6ZM48.081 132.7C48.761 133.59 49.101 134.85 49.101 136.48C49.101 138.11 48.761 139.36 48.081 140.23C47.401 141.09 46.501 141.52 45.381 141.52C44.271 141.52 43.381 141.09 42.711 140.23C42.041 139.36 41.706 138.11 41.706 136.48C41.706 134.85 42.041 133.59 42.711 132.7C43.381 131.81 44.271 131.365 45.381 131.365C46.501 131.365 47.401 131.81 48.081 132.7ZM52.2546 132.955C52.6146 132.955 52.9196 133.085 53.1696 133.345C53.4196 133.595 53.5446 133.9 53.5446 134.26C53.5446 134.61 53.4146 134.915 53.1546 135.175C52.9046 135.425 52.5996 135.55 52.2396 135.55C51.8896 135.55 51.5846 135.425 51.3246 135.175C51.0746 134.915 50.9496 134.61 50.9496 134.26C50.9496 133.9 51.0746 133.595 51.3246 133.345C51.5846 133.085 51.8946 132.955 52.2546 132.955ZM52.2396 139.15C52.5996 139.15 52.9046 139.28 53.1546 139.54C53.4146 139.8 53.5446 140.11 53.5446 140.47C53.5446 140.82 53.4146 141.12 53.1546 141.37C52.9046 141.62 52.5996 141.745 52.2396 141.745C51.8896 141.745 51.5846 141.62 51.3246 141.37C51.0746 141.12 50.9496 140.82 50.9496 140.47C50.9496 140.11 51.0746 139.8 51.3246 139.54C51.5846 139.28 51.8896 139.15 52.2396 139.15ZM60.1129 140.47C60.1229 140.53 60.1279 140.63 60.1279 140.77C60.1279 140.91 60.1029 141.095 60.0529 141.325H54.9229C54.9229 141.255 54.9229 141.14 54.9229 140.98C54.9229 140.82 54.9529 140.65 55.0129 140.47C55.4929 140.42 55.8579 140.335 56.1079 140.215C56.3579 140.085 56.4829 139.875 56.4829 139.585V133.525L55.0129 133.765C55.0029 133.695 54.9979 133.595 54.9979 133.465C54.9979 133.335 55.0229 133.22 55.0729 133.12C56.2829 132.36 57.3679 131.745 58.3279 131.275L58.8079 131.47V140.17C59.1379 140.32 59.5729 140.42 60.1129 140.47ZM63.6704 139.6C63.8004 140.17 64.1154 140.455 64.6154 140.455C65.1254 140.455 65.4454 140.17 65.5754 139.6C65.6854 139.1 65.7404 138.25 65.7404 137.05C65.7404 135.1 65.6704 133.88 65.5304 133.39C65.3904 132.92 65.2104 132.635 64.9904 132.535C64.8604 132.475 64.7004 132.445 64.5104 132.445C64.0204 132.445 63.7154 132.735 63.5954 133.315C63.4854 133.785 63.4304 134.355 63.4304 135.025C63.4304 137.405 63.5104 138.93 63.6704 139.6ZM67.2704 132.7C67.9504 133.59 68.2904 134.85 68.2904 136.48C68.2904 138.11 67.9504 139.36 67.2704 140.23C66.5904 141.09 65.6904 141.52 64.5704 141.52C63.4604 141.52 62.5704 141.09 61.9004 140.23C61.2304 139.36 60.8954 138.11 60.8954 136.48C60.8954 134.85 61.2304 133.59 61.9004 132.7C62.5704 131.81 63.4604 131.365 64.5704 131.365C65.6904 131.365 66.5904 131.81 67.2704 132.7ZM43.4189 158.6C43.5489 159.17 43.8639 159.455 44.3639 159.455C44.8739 159.455 45.1939 159.17 45.3239 158.6C45.4339 158.1 45.4889 157.25 45.4889 156.05C45.4889 154.1 45.4189 152.88 45.2789 152.39C45.1389 151.92 44.9589 151.635 44.7389 151.535C44.6089 151.475 44.4489 151.445 44.2589 151.445C43.7689 151.445 43.4639 151.735 43.3439 152.315C43.2339 152.785 43.1789 153.355 43.1789 154.025C43.1789 156.405 43.2589 157.93 43.4189 158.6ZM47.0189 151.7C47.6989 152.59 48.0389 153.85 48.0389 155.48C48.0389 157.11 47.6989 158.36 47.0189 159.23C46.3389 160.09 45.4389 160.52 44.3189 160.52C43.2089 160.52 42.3189 160.09 41.6489 159.23C40.9789 158.36 40.6439 157.11 40.6439 155.48C40.6439 153.85 40.9789 152.59 41.6489 151.7C42.3189 150.81 43.2089 150.365 44.3189 150.365C45.4389 150.365 46.3389 150.81 47.0189 151.7ZM51.1926 151.955C51.5526 151.955 51.8576 152.085 52.1076 152.345C52.3576 152.595 52.4826 152.9 52.4826 153.26C52.4826 153.61 52.3526 153.915 52.0926 154.175C51.8426 154.425 51.5376 154.55 51.1776 154.55C50.8276 154.55 50.5226 154.425 50.2626 154.175C50.0126 153.915 49.8876 153.61 49.8876 153.26C49.8876 152.9 50.0126 152.595 50.2626 152.345C50.5226 152.085 50.8326 151.955 51.1926 151.955ZM51.1776 158.15C51.5376 158.15 51.8426 158.28 52.0926 158.54C52.3526 158.8 52.4826 159.11 52.4826 159.47C52.4826 159.82 52.3526 160.12 52.0926 160.37C51.8426 160.62 51.5376 160.745 51.1776 160.745C50.8276 160.745 50.5226 160.62 50.2626 160.37C50.0126 160.12 49.8876 159.82 49.8876 159.47C49.8876 159.11 50.0126 158.8 50.2626 158.54C50.5226 158.28 50.8276 158.15 51.1776 158.15ZM58.9909 158.51C59.3609 158.51 59.6409 158.42 59.8309 158.24C60.0209 158.05 60.1659 157.695 60.2659 157.175C60.4259 157.175 60.5959 157.215 60.7759 157.295C60.7759 158.495 60.6359 159.505 60.3559 160.325H54.6259C54.5159 159.685 54.4609 159.17 54.4609 158.78C56.1209 157.03 57.0459 156.01 57.2359 155.72C57.4259 155.43 57.6009 155.145 57.7609 154.865C58.0009 154.425 58.1209 153.97 58.1209 153.5C58.1209 153.03 58.0059 152.67 57.7759 152.42C57.5559 152.17 57.2759 152.045 56.9359 152.045C56.2459 152.045 55.8009 152.48 55.6009 153.35C55.5209 153.36 55.4209 153.365 55.3009 153.365C55.1809 153.365 55.0359 153.355 54.8659 153.335C54.8559 153.085 54.8509 152.775 54.8509 152.405C54.8509 152.025 54.8759 151.63 54.9259 151.22C55.7159 150.66 56.5909 150.38 57.5509 150.38C58.5109 150.38 59.2559 150.645 59.7859 151.175C60.3259 151.695 60.5959 152.35 60.5959 153.14C60.5959 153.52 60.5359 153.835 60.4159 154.085C60.3059 154.325 60.2109 154.515 60.1309 154.655C60.0509 154.795 59.9209 154.965 59.7409 155.165C59.5609 155.365 59.4059 155.535 59.2759 155.675C59.1459 155.815 58.9409 156.01 58.6609 156.26L57.9409 156.905C57.7509 157.075 57.4609 157.33 57.0709 157.67C56.6909 158 56.3709 158.28 56.1109 158.51H58.9909ZM64.7324 158.6C64.8624 159.17 65.1774 159.455 65.6774 159.455C66.1874 159.455 66.5074 159.17 66.6374 158.6C66.7474 158.1 66.8024 157.25 66.8024 156.05C66.8024 154.1 66.7324 152.88 66.5924 152.39C66.4524 151.92 66.2724 151.635 66.0524 151.535C65.9224 151.475 65.7624 151.445 65.5724 151.445C65.0824 151.445 64.7774 151.735 64.6574 152.315C64.5474 152.785 64.4924 153.355 64.4924 154.025C64.4924 156.405 64.5724 157.93 64.7324 158.6ZM68.3324 151.7C69.0124 152.59 69.3524 153.85 69.3524 155.48C69.3524 157.11 69.0124 158.36 68.3324 159.23C67.6524 160.09 66.7524 160.52 65.6324 160.52C64.5224 160.52 63.6324 160.09 62.9624 159.23C62.2924 158.36 61.9574 157.11 61.9574 155.48C61.9574 153.85 62.2924 152.59 62.9624 151.7C63.6324 150.81 64.5224 150.365 65.6324 150.365C66.7524 150.365 67.6524 150.81 68.3324 151.7ZM43.6094 177.6C43.7394 178.17 44.0544 178.455 44.5544 178.455C45.0644 178.455 45.3844 178.17 45.5144 177.6C45.6244 177.1 45.6794 176.25 45.6794 175.05C45.6794 173.1 45.6094 171.88 45.4694 171.39C45.3294 170.92 45.1494 170.635 44.9294 170.535C44.7994 170.475 44.6394 170.445 44.4494 170.445C43.9594 170.445 43.6544 170.735 43.5344 171.315C43.4244 171.785 43.3694 172.355 43.3694 173.025C43.3694 175.405 43.4494 176.93 43.6094 177.6ZM47.2094 170.7C47.8894 171.59 48.2294 172.85 48.2294 174.48C48.2294 176.11 47.8894 177.36 47.2094 178.23C46.5294 179.09 45.6294 179.52 44.5094 179.52C43.3994 179.52 42.5094 179.09 41.8394 178.23C41.1694 177.36 40.8344 176.11 40.8344 174.48C40.8344 172.85 41.1694 171.59 41.8394 170.7C42.5094 169.81 43.3994 169.365 44.5094 169.365C45.6294 169.365 46.5294 169.81 47.2094 170.7ZM51.383 170.955C51.743 170.955 52.048 171.085 52.298 171.345C52.548 171.595 52.673 171.9 52.673 172.26C52.673 172.61 52.543 172.915 52.283 173.175C52.033 173.425 51.728 173.55 51.368 173.55C51.018 173.55 50.713 173.425 50.453 173.175C50.203 172.915 50.078 172.61 50.078 172.26C50.078 171.9 50.203 171.595 50.453 171.345C50.713 171.085 51.023 170.955 51.383 170.955ZM51.368 177.15C51.728 177.15 52.033 177.28 52.283 177.54C52.543 177.8 52.673 178.11 52.673 178.47C52.673 178.82 52.543 179.12 52.283 179.37C52.033 179.62 51.728 179.745 51.368 179.745C51.018 179.745 50.713 179.62 50.453 179.37C50.203 179.12 50.078 178.82 50.078 178.47C50.078 178.11 50.203 177.8 50.453 177.54C50.713 177.28 51.018 177.15 51.368 177.15ZM56.3914 175.155V174.225C56.9314 174.135 57.3364 173.93 57.6064 173.61C57.8764 173.28 58.0114 172.9 58.0114 172.47C58.0114 172.03 57.9064 171.685 57.6964 171.435C57.4964 171.175 57.2314 171.045 56.9014 171.045C56.5814 171.045 56.2864 171.16 56.0164 171.39C55.7564 171.61 55.5814 171.93 55.4914 172.35C55.4114 172.36 55.3114 172.365 55.1914 172.365C55.0714 172.365 54.9264 172.355 54.7564 172.335C54.7464 172.085 54.7414 171.775 54.7414 171.405C54.7414 171.025 54.7664 170.63 54.8164 170.22C55.7164 169.66 56.6964 169.38 57.7564 169.38C58.5164 169.38 59.1614 169.605 59.6914 170.055C60.2214 170.495 60.4864 171.035 60.4864 171.675C60.4864 172.125 60.3314 172.565 60.0214 172.995C59.7114 173.415 59.2664 173.78 58.6864 174.09C59.9664 174.57 60.6064 175.4 60.6064 176.58C60.6064 177.4 60.2764 178.095 59.6164 178.665C58.9664 179.235 58.1614 179.52 57.2014 179.52C56.2414 179.52 55.3064 179.135 54.3964 178.365C54.5564 177.935 54.7564 177.645 54.9964 177.495C55.5464 177.875 56.1714 178.065 56.8714 178.065C57.3114 178.065 57.6664 177.945 57.9364 177.705C58.2064 177.455 58.3414 177.11 58.3414 176.67C58.3414 176.22 58.1714 175.855 57.8314 175.575C57.4914 175.295 57.0114 175.155 56.3914 175.155ZM64.542 177.6C64.672 178.17 64.987 178.455 65.487 178.455C65.997 178.455 66.317 178.17 66.447 177.6C66.557 177.1 66.612 176.25 66.612 175.05C66.612 173.1 66.542 171.88 66.402 171.39C66.262 170.92 66.082 170.635 65.862 170.535C65.732 170.475 65.572 170.445 65.382 170.445C64.892 170.445 64.587 170.735 64.467 171.315C64.357 171.785 64.302 172.355 64.302 173.025C64.302 175.405 64.382 176.93 64.542 177.6ZM68.142 170.7C68.822 171.59 69.162 172.85 69.162 174.48C69.162 176.11 68.822 177.36 68.142 178.23C67.462 179.09 66.562 179.52 65.442 179.52C64.332 179.52 63.442 179.09 62.772 178.23C62.102 177.36 61.767 176.11 61.767 174.48C61.767 172.85 62.102 171.59 62.772 170.7C63.442 169.81 64.332 169.365 65.442 169.365C66.562 169.365 67.462 169.81 68.142 170.7ZM43.2798 196.6C43.4098 197.17 43.7248 197.455 44.2248 197.455C44.7348 197.455 45.0548 197.17 45.1848 196.6C45.2948 196.1 45.3498 195.25 45.3498 194.05C45.3498 192.1 45.2798 190.88 45.1398 190.39C44.9998 189.92 44.8198 189.635 44.5998 189.535C44.4698 189.475 44.3098 189.445 44.1198 189.445C43.6298 189.445 43.3248 189.735 43.2048 190.315C43.0948 190.785 43.0398 191.355 43.0398 192.025C43.0398 194.405 43.1198 195.93 43.2798 196.6ZM46.8798 189.7C47.5598 190.59 47.8998 191.85 47.8998 193.48C47.8998 195.11 47.5598 196.36 46.8798 197.23C46.1998 198.09 45.2998 198.52 44.1798 198.52C43.0698 198.52 42.1798 198.09 41.5098 197.23C40.8398 196.36 40.5048 195.11 40.5048 193.48C40.5048 191.85 40.8398 190.59 41.5098 189.7C42.1798 188.81 43.0698 188.365 44.1798 188.365C45.2998 188.365 46.1998 188.81 46.8798 189.7ZM51.0534 189.955C51.4134 189.955 51.7184 190.085 51.9684 190.345C52.2184 190.595 52.3434 190.9 52.3434 191.26C52.3434 191.61 52.2134 191.915 51.9534 192.175C51.7034 192.425 51.3984 192.55 51.0384 192.55C50.6884 192.55 50.3834 192.425 50.1234 192.175C49.8734 191.915 49.7484 191.61 49.7484 191.26C49.7484 190.9 49.8734 190.595 50.1234 190.345C50.3834 190.085 50.6934 189.955 51.0534 189.955ZM51.0384 196.15C51.3984 196.15 51.7034 196.28 51.9534 196.54C52.2134 196.8 52.3434 197.11 52.3434 197.47C52.3434 197.82 52.2134 198.12 51.9534 198.37C51.7034 198.62 51.3984 198.745 51.0384 198.745C50.6884 198.745 50.3834 198.62 50.1234 198.37C49.8734 198.12 49.7484 197.82 49.7484 197.47C49.7484 197.11 49.8734 196.8 50.1234 196.54C50.3834 196.28 50.6884 196.15 51.0384 196.15ZM57.7268 194.8V191.83L55.4918 194.8H57.7268ZM59.7368 196V197.32C59.9668 197.43 60.2718 197.485 60.6518 197.485C60.6518 197.555 60.6518 197.655 60.6518 197.785C60.6518 197.915 60.6318 198.095 60.5918 198.325H56.7068C56.7068 198.245 56.7068 198.13 56.7068 197.98C56.7068 197.82 56.7318 197.655 56.7818 197.485C57.1018 197.435 57.3368 197.35 57.4868 197.23C57.6468 197.11 57.7268 196.895 57.7268 196.585V196H54.3668C54.1368 195.66 53.9868 195.33 53.9168 195.01L58.5518 188.575H59.7368V194.8H61.0718C61.1318 195.08 61.1618 195.32 61.1618 195.52C61.1618 195.71 61.1518 195.87 61.1318 196H59.7368ZM64.8716 196.6C65.0016 197.17 65.3166 197.455 65.8166 197.455C66.3266 197.455 66.6466 197.17 66.7766 196.6C66.8866 196.1 66.9416 195.25 66.9416 194.05C66.9416 192.1 66.8716 190.88 66.7316 190.39C66.5916 189.92 66.4116 189.635 66.1916 189.535C66.0616 189.475 65.9016 189.445 65.7116 189.445C65.2216 189.445 64.9166 189.735 64.7966 190.315C64.6866 190.785 64.6316 191.355 64.6316 192.025C64.6316 194.405 64.7116 195.93 64.8716 196.6ZM68.4716 189.7C69.1516 190.59 69.4916 191.85 69.4916 193.48C69.4916 195.11 69.1516 196.36 68.4716 197.23C67.7916 198.09 66.8916 198.52 65.7716 198.52C64.6616 198.52 63.7716 198.09 63.1016 197.23C62.4316 196.36 62.0966 195.11 62.0966 193.48C62.0966 191.85 62.4316 190.59 63.1016 189.7C63.7716 188.81 64.6616 188.365 65.7716 188.365C66.8916 188.365 67.7916 188.81 68.4716 189.7ZM43.6021 215.6C43.7321 216.17 44.0471 216.455 44.5471 216.455C45.0571 216.455 45.3771 216.17 45.5071 215.6C45.6171 215.1 45.6721 214.25 45.6721 213.05C45.6721 211.1 45.6021 209.88 45.4621 209.39C45.3221 208.92 45.1421 208.635 44.9221 208.535C44.7921 208.475 44.6321 208.445 44.4421 208.445C43.9521 208.445 43.6471 208.735 43.5271 209.315C43.4171 209.785 43.3621 210.355 43.3621 211.025C43.3621 213.405 43.4421 214.93 43.6021 215.6ZM47.2021 208.7C47.8821 209.59 48.2221 210.85 48.2221 212.48C48.2221 214.11 47.8821 215.36 47.2021 216.23C46.5221 217.09 45.6221 217.52 44.5021 217.52C43.3921 217.52 42.5021 217.09 41.8321 216.23C41.1621 215.36 40.8271 214.11 40.8271 212.48C40.8271 210.85 41.1621 209.59 41.8321 208.7C42.5021 207.81 43.3921 207.365 44.5021 207.365C45.6221 207.365 46.5221 207.81 47.2021 208.7ZM51.3757 208.955C51.7357 208.955 52.0407 209.085 52.2907 209.345C52.5407 209.595 52.6657 209.9 52.6657 210.26C52.6657 210.61 52.5357 210.915 52.2757 211.175C52.0257 211.425 51.7207 211.55 51.3607 211.55C51.0107 211.55 50.7057 211.425 50.4457 211.175C50.1957 210.915 50.0707 210.61 50.0707 210.26C50.0707 209.9 50.1957 209.595 50.4457 209.345C50.7057 209.085 51.0157 208.955 51.3757 208.955ZM51.3607 215.15C51.7207 215.15 52.0257 215.28 52.2757 215.54C52.5357 215.8 52.6657 216.11 52.6657 216.47C52.6657 216.82 52.5357 217.12 52.2757 217.37C52.0257 217.62 51.7207 217.745 51.3607 217.745C51.0107 217.745 50.7057 217.62 50.4457 217.37C50.1957 217.12 50.0707 216.82 50.0707 216.47C50.0707 216.11 50.1957 215.8 50.4457 215.54C50.7057 215.28 51.0107 215.15 51.3607 215.15ZM56.249 211.565C56.829 211.305 57.444 211.175 58.094 211.175C58.744 211.175 59.319 211.425 59.819 211.925C60.319 212.415 60.569 213.09 60.569 213.95C60.569 215 60.219 215.86 59.519 216.53C58.829 217.19 57.969 217.52 56.939 217.52C55.909 217.52 54.994 217.135 54.194 216.365C54.374 215.965 54.574 215.675 54.794 215.495C55.344 215.875 55.969 216.065 56.669 216.065C57.139 216.065 57.524 215.905 57.824 215.585C58.134 215.265 58.289 214.84 58.289 214.31C58.289 213.77 58.149 213.35 57.869 213.05C57.599 212.74 57.244 212.585 56.804 212.585C56.374 212.585 55.854 212.765 55.244 213.125L54.929 212.975L55.454 207.725H58.574C59.214 207.725 59.639 207.475 59.849 206.975C60.009 206.975 60.179 207.015 60.359 207.095C60.349 207.835 60.209 208.65 59.939 209.54H56.459L56.249 211.565ZM64.5493 215.6C64.6793 216.17 64.9943 216.455 65.4943 216.455C66.0043 216.455 66.3243 216.17 66.4543 215.6C66.5643 215.1 66.6193 214.25 66.6193 213.05C66.6193 211.1 66.5493 209.88 66.4093 209.39C66.2693 208.92 66.0893 208.635 65.8693 208.535C65.7393 208.475 65.5793 208.445 65.3893 208.445C64.8993 208.445 64.5943 208.735 64.4743 209.315C64.3643 209.785 64.3093 210.355 64.3093 211.025C64.3093 213.405 64.3893 214.93 64.5493 215.6ZM68.1493 208.7C68.8293 209.59 69.1693 210.85 69.1693 212.48C69.1693 214.11 68.8293 215.36 68.1493 216.23C67.4693 217.09 66.5693 217.52 65.4493 217.52C64.3393 217.52 63.4493 217.09 62.7793 216.23C62.1093 215.36 61.7743 214.11 61.7743 212.48C61.7743 210.85 62.1093 209.59 62.7793 208.7C63.4493 207.81 64.3393 207.365 65.4493 207.365C66.5693 207.365 67.4693 207.81 68.1493 208.7ZM46.446 235.47C46.456 235.53 46.461 235.63 46.461 235.77C46.461 235.91 46.436 236.095 46.386 236.325H41.256C41.256 236.255 41.256 236.14 41.256 235.98C41.256 235.82 41.286 235.65 41.346 235.47C41.826 235.42 42.191 235.335 42.441 235.215C42.691 235.085 42.816 234.875 42.816 234.585V228.525L41.346 228.765C41.336 228.695 41.331 228.595 41.331 228.465C41.331 228.335 41.356 228.22 41.406 228.12C42.616 227.36 43.701 226.745 44.661 226.275L45.141 226.47V235.17C45.471 235.32 45.906 235.42 46.446 235.47ZM49.1784 227.955C49.5384 227.955 49.8434 228.085 50.0934 228.345C50.3434 228.595 50.4684 228.9 50.4684 229.26C50.4684 229.61 50.3384 229.915 50.0784 230.175C49.8284 230.425 49.5234 230.55 49.1634 230.55C48.8134 230.55 48.5084 230.425 48.2484 230.175C47.9984 229.915 47.8734 229.61 47.8734 229.26C47.8734 228.9 47.9984 228.595 48.2484 228.345C48.5084 228.085 48.8184 227.955 49.1784 227.955ZM49.1634 234.15C49.5234 234.15 49.8284 234.28 50.0784 234.54C50.3384 234.8 50.4684 235.11 50.4684 235.47C50.4684 235.82 50.3384 236.12 50.0784 236.37C49.8284 236.62 49.5234 236.745 49.1634 236.745C48.8134 236.745 48.5084 236.62 48.2484 236.37C47.9984 236.12 47.8734 235.82 47.8734 235.47C47.8734 235.11 47.9984 234.8 48.2484 234.54C48.5084 234.28 48.8134 234.15 49.1634 234.15ZM55.0718 234.6C55.2018 235.17 55.5168 235.455 56.0168 235.455C56.5268 235.455 56.8468 235.17 56.9768 234.6C57.0868 234.1 57.1418 233.25 57.1418 232.05C57.1418 230.1 57.0718 228.88 56.9318 228.39C56.7918 227.92 56.6118 227.635 56.3918 227.535C56.2618 227.475 56.1018 227.445 55.9118 227.445C55.4218 227.445 55.1168 227.735 54.9968 228.315C54.8868 228.785 54.8318 229.355 54.8318 230.025C54.8318 232.405 54.9118 233.93 55.0718 234.6ZM58.6718 227.7C59.3518 228.59 59.6918 229.85 59.6918 231.48C59.6918 233.11 59.3518 234.36 58.6718 235.23C57.9918 236.09 57.0918 236.52 55.9718 236.52C54.8618 236.52 53.9718 236.09 53.3018 235.23C52.6318 234.36 52.2968 233.11 52.2968 231.48C52.2968 229.85 52.6318 228.59 53.3018 227.7C53.9718 226.81 54.8618 226.365 55.9718 226.365C57.0918 226.365 57.9918 226.81 58.6718 227.7ZM63.6704 234.6C63.8004 235.17 64.1154 235.455 64.6154 235.455C65.1254 235.455 65.4454 235.17 65.5754 234.6C65.6854 234.1 65.7404 233.25 65.7404 232.05C65.7404 230.1 65.6704 228.88 65.5304 228.39C65.3904 227.92 65.2104 227.635 64.9904 227.535C64.8604 227.475 64.7004 227.445 64.5104 227.445C64.0204 227.445 63.7154 227.735 63.5954 228.315C63.4854 228.785 63.4304 229.355 63.4304 230.025C63.4304 232.405 63.5104 233.93 63.6704 234.6ZM67.2704 227.7C67.9504 228.59 68.2904 229.85 68.2904 231.48C68.2904 233.11 67.9504 234.36 67.2704 235.23C66.5904 236.09 65.6904 236.52 64.5704 236.52C63.4604 236.52 62.5704 236.09 61.9004 235.23C61.2304 234.36 60.8954 233.11 60.8954 231.48C60.8954 229.85 61.2304 228.59 61.9004 227.7C62.5704 226.81 63.4604 226.365 64.5704 226.365C65.6904 226.365 66.5904 226.81 67.2704 227.7ZM47.984 254.47C47.994 254.53 47.999 254.63 47.999 254.77C47.999 254.91 47.974 255.095 47.924 255.325H42.794C42.794 255.255 42.794 255.14 42.794 254.98C42.794 254.82 42.824 254.65 42.884 254.47C43.364 254.42 43.729 254.335 43.979 254.215C44.229 254.085 44.354 253.875 44.354 253.585V247.525L42.884 247.765C42.874 247.695 42.869 247.595 42.869 247.465C42.869 247.335 42.894 247.22 42.944 247.12C44.154 246.36 45.239 245.745 46.199 245.275L46.679 245.47V254.17C47.009 254.32 47.444 254.42 47.984 254.47ZM50.7165 246.955C51.0765 246.955 51.3815 247.085 51.6315 247.345C51.8815 247.595 52.0065 247.9 52.0065 248.26C52.0065 248.61 51.8765 248.915 51.6165 249.175C51.3665 249.425 51.0615 249.55 50.7015 249.55C50.3515 249.55 50.0465 249.425 49.7865 249.175C49.5365 248.915 49.4115 248.61 49.4115 248.26C49.4115 247.9 49.5365 247.595 49.7865 247.345C50.0465 247.085 50.3565 246.955 50.7165 246.955ZM50.7015 253.15C51.0615 253.15 51.3665 253.28 51.6165 253.54C51.8765 253.8 52.0065 254.11 52.0065 254.47C52.0065 254.82 51.8765 255.12 51.6165 255.37C51.3665 255.62 51.0615 255.745 50.7015 255.745C50.3515 255.745 50.0465 255.62 49.7865 255.37C49.5365 255.12 49.4115 254.82 49.4115 254.47C49.4115 254.11 49.5365 253.8 49.7865 253.54C50.0465 253.28 50.3515 253.15 50.7015 253.15ZM58.5749 254.47C58.5849 254.53 58.5899 254.63 58.5899 254.77C58.5899 254.91 58.5649 255.095 58.5149 255.325H53.3849C53.3849 255.255 53.3849 255.14 53.3849 254.98C53.3849 254.82 53.4149 254.65 53.4749 254.47C53.9549 254.42 54.3199 254.335 54.5699 254.215C54.8199 254.085 54.9449 253.875 54.9449 253.585V247.525L53.4749 247.765C53.4649 247.695 53.4599 247.595 53.4599 247.465C53.4599 247.335 53.4849 247.22 53.5349 247.12C54.7449 246.36 55.8299 245.745 56.7899 245.275L57.2699 245.47V254.17C57.5999 254.32 58.0349 254.42 58.5749 254.47ZM62.1323 253.6C62.2623 254.17 62.5773 254.455 63.0773 254.455C63.5873 254.455 63.9073 254.17 64.0373 253.6C64.1473 253.1 64.2023 252.25 64.2023 251.05C64.2023 249.1 64.1323 247.88 63.9923 247.39C63.8523 246.92 63.6723 246.635 63.4523 246.535C63.3223 246.475 63.1623 246.445 62.9723 246.445C62.4823 246.445 62.1773 246.735 62.0573 247.315C61.9473 247.785 61.8923 248.355 61.8923 249.025C61.8923 251.405 61.9723 252.93 62.1323 253.6ZM65.7323 246.7C66.4123 247.59 66.7523 248.85 66.7523 250.48C66.7523 252.11 66.4123 253.36 65.7323 254.23C65.0523 255.09 64.1523 255.52 63.0323 255.52C61.9223 255.52 61.0323 255.09 60.3623 254.23C59.6923 253.36 59.3573 252.11 59.3573 250.48C59.3573 248.85 59.6923 247.59 60.3623 246.7C61.0323 245.81 61.9223 245.365 63.0323 245.365C64.1523 245.365 65.0523 245.81 65.7323 246.7ZM46.922 273.47C46.932 273.53 46.937 273.63 46.937 273.77C46.937 273.91 46.912 274.095 46.862 274.325H41.732C41.732 274.255 41.732 274.14 41.732 273.98C41.732 273.82 41.762 273.65 41.822 273.47C42.302 273.42 42.667 273.335 42.917 273.215C43.167 273.085 43.292 272.875 43.292 272.585V266.525L41.822 266.765C41.812 266.695 41.807 266.595 41.807 266.465C41.807 266.335 41.832 266.22 41.882 266.12C43.092 265.36 44.177 264.745 45.137 264.275L45.617 264.47V273.17C45.947 273.32 46.382 273.42 46.922 273.47ZM49.6545 265.955C50.0145 265.955 50.3195 266.085 50.5695 266.345C50.8195 266.595 50.9445 266.9 50.9445 267.26C50.9445 267.61 50.8145 267.915 50.5545 268.175C50.3045 268.425 49.9995 268.55 49.6395 268.55C49.2895 268.55 48.9845 268.425 48.7245 268.175C48.4745 267.915 48.3495 267.61 48.3495 267.26C48.3495 266.9 48.4745 266.595 48.7245 266.345C48.9845 266.085 49.2945 265.955 49.6545 265.955ZM49.6395 272.15C49.9995 272.15 50.3045 272.28 50.5545 272.54C50.8145 272.8 50.9445 273.11 50.9445 273.47C50.9445 273.82 50.8145 274.12 50.5545 274.37C50.3045 274.62 49.9995 274.745 49.6395 274.745C49.2895 274.745 48.9845 274.62 48.7245 274.37C48.4745 274.12 48.3495 273.82 48.3495 273.47C48.3495 273.11 48.4745 272.8 48.7245 272.54C48.9845 272.28 49.2895 272.15 49.6395 272.15ZM57.4529 272.51C57.8229 272.51 58.1029 272.42 58.2929 272.24C58.4829 272.05 58.6279 271.695 58.7279 271.175C58.8879 271.175 59.0579 271.215 59.2379 271.295C59.2379 272.495 59.0979 273.505 58.8179 274.325H53.0879C52.9779 273.685 52.9229 273.17 52.9229 272.78C54.5829 271.03 55.5079 270.01 55.6979 269.72C55.8879 269.43 56.0629 269.145 56.2229 268.865C56.4629 268.425 56.5829 267.97 56.5829 267.5C56.5829 267.03 56.4679 266.67 56.2379 266.42C56.0179 266.17 55.7379 266.045 55.3979 266.045C54.7079 266.045 54.2629 266.48 54.0629 267.35C53.9829 267.36 53.8829 267.365 53.7629 267.365C53.6429 267.365 53.4979 267.355 53.3279 267.335C53.3179 267.085 53.3129 266.775 53.3129 266.405C53.3129 266.025 53.3379 265.63 53.3879 265.22C54.1779 264.66 55.0529 264.38 56.0129 264.38C56.9729 264.38 57.7179 264.645 58.2479 265.175C58.7879 265.695 59.0579 266.35 59.0579 267.14C59.0579 267.52 58.9979 267.835 58.8779 268.085C58.7679 268.325 58.6729 268.515 58.5929 268.655C58.5129 268.795 58.3829 268.965 58.2029 269.165C58.0229 269.365 57.8679 269.535 57.7379 269.675C57.6079 269.815 57.4029 270.01 57.1229 270.26L56.4029 270.905C56.2129 271.075 55.9229 271.33 55.5329 271.67C55.1529 272 54.8329 272.28 54.5729 272.51H57.4529ZM63.1943 272.6C63.3243 273.17 63.6393 273.455 64.1393 273.455C64.6493 273.455 64.9693 273.17 65.0993 272.6C65.2093 272.1 65.2643 271.25 65.2643 270.05C65.2643 268.1 65.1943 266.88 65.0543 266.39C64.9143 265.92 64.7343 265.635 64.5143 265.535C64.3843 265.475 64.2243 265.445 64.0343 265.445C63.5443 265.445 63.2393 265.735 63.1193 266.315C63.0093 266.785 62.9543 267.355 62.9543 268.025C62.9543 270.405 63.0343 271.93 63.1943 272.6ZM66.7943 265.7C67.4743 266.59 67.8143 267.85 67.8143 269.48C67.8143 271.11 67.4743 272.36 66.7943 273.23C66.1143 274.09 65.2143 274.52 64.0943 274.52C62.9843 274.52 62.0943 274.09 61.4243 273.23C60.7543 272.36 60.4193 271.11 60.4193 269.48C60.4193 267.85 60.7543 266.59 61.4243 265.7C62.0943 264.81 62.9843 264.365 64.0943 264.365C65.2143 264.365 66.1143 264.81 66.7943 265.7ZM47.1125 292.47C47.1225 292.53 47.1275 292.63 47.1275 292.77C47.1275 292.91 47.1025 293.095 47.0525 293.325H41.9225C41.9225 293.255 41.9225 293.14 41.9225 292.98C41.9225 292.82 41.9525 292.65 42.0125 292.47C42.4925 292.42 42.8575 292.335 43.1075 292.215C43.3575 292.085 43.4825 291.875 43.4825 291.585V285.525L42.0125 285.765C42.0025 285.695 41.9975 285.595 41.9975 285.465C41.9975 285.335 42.0225 285.22 42.0725 285.12C43.2825 284.36 44.3675 283.745 45.3275 283.275L45.8075 283.47V292.17C46.1375 292.32 46.5725 292.42 47.1125 292.47ZM49.8449 284.955C50.2049 284.955 50.5099 285.085 50.7599 285.345C51.0099 285.595 51.1349 285.9 51.1349 286.26C51.1349 286.61 51.0049 286.915 50.7449 287.175C50.4949 287.425 50.1899 287.55 49.8299 287.55C49.4799 287.55 49.1749 287.425 48.9149 287.175C48.6649 286.915 48.5399 286.61 48.5399 286.26C48.5399 285.9 48.6649 285.595 48.9149 285.345C49.1749 285.085 49.4849 284.955 49.8449 284.955ZM49.8299 291.15C50.1899 291.15 50.4949 291.28 50.7449 291.54C51.0049 291.8 51.1349 292.11 51.1349 292.47C51.1349 292.82 51.0049 293.12 50.7449 293.37C50.4949 293.62 50.1899 293.745 49.8299 293.745C49.4799 293.745 49.1749 293.62 48.9149 293.37C48.6649 293.12 48.5399 292.82 48.5399 292.47C48.5399 292.11 48.6649 291.8 48.9149 291.54C49.1749 291.28 49.4799 291.15 49.8299 291.15ZM54.8533 289.155V288.225C55.3933 288.135 55.7983 287.93 56.0683 287.61C56.3383 287.28 56.4733 286.9 56.4733 286.47C56.4733 286.03 56.3683 285.685 56.1583 285.435C55.9583 285.175 55.6933 285.045 55.3633 285.045C55.0433 285.045 54.7483 285.16 54.4783 285.39C54.2183 285.61 54.0433 285.93 53.9533 286.35C53.8733 286.36 53.7733 286.365 53.6533 286.365C53.5333 286.365 53.3883 286.355 53.2183 286.335C53.2083 286.085 53.2033 285.775 53.2033 285.405C53.2033 285.025 53.2283 284.63 53.2783 284.22C54.1783 283.66 55.1583 283.38 56.2183 283.38C56.9783 283.38 57.6233 283.605 58.1533 284.055C58.6833 284.495 58.9483 285.035 58.9483 285.675C58.9483 286.125 58.7933 286.565 58.4833 286.995C58.1733 287.415 57.7283 287.78 57.1483 288.09C58.4283 288.57 59.0683 289.4 59.0683 290.58C59.0683 291.4 58.7383 292.095 58.0783 292.665C57.4283 293.235 56.6233 293.52 55.6633 293.52C54.7033 293.52 53.7683 293.135 52.8583 292.365C53.0183 291.935 53.2183 291.645 53.4583 291.495C54.0083 291.875 54.6333 292.065 55.3333 292.065C55.7733 292.065 56.1283 291.945 56.3983 291.705C56.6683 291.455 56.8033 291.11 56.8033 290.67C56.8033 290.22 56.6333 289.855 56.2933 289.575C55.9533 289.295 55.4733 289.155 54.8533 289.155ZM63.0039 291.6C63.1339 292.17 63.4489 292.455 63.9489 292.455C64.4589 292.455 64.7789 292.17 64.9089 291.6C65.0189 291.1 65.0739 290.25 65.0739 289.05C65.0739 287.1 65.0039 285.88 64.8639 285.39C64.7239 284.92 64.5439 284.635 64.3239 284.535C64.1939 284.475 64.0339 284.445 63.8439 284.445C63.3539 284.445 63.0489 284.735 62.9289 285.315C62.8189 285.785 62.7639 286.355 62.7639 287.025C62.7639 289.405 62.8439 290.93 63.0039 291.6ZM66.6039 284.7C67.2839 285.59 67.6239 286.85 67.6239 288.48C67.6239 290.11 67.2839 291.36 66.6039 292.23C65.9239 293.09 65.0239 293.52 63.9039 293.52C62.7939 293.52 61.9039 293.09 61.2339 292.23C60.5639 291.36 60.2289 290.11 60.2289 288.48C60.2289 286.85 60.5639 285.59 61.2339 284.7C61.9039 283.81 62.7939 283.365 63.9039 283.365C65.0239 283.365 65.9239 283.81 66.6039 284.7ZM46.7829 311.47C46.7929 311.53 46.7979 311.63 46.7979 311.77C46.7979 311.91 46.7729 312.095 46.7229 312.325H41.5929C41.5929 312.255 41.5929 312.14 41.5929 311.98C41.5929 311.82 41.6229 311.65 41.6829 311.47C42.1629 311.42 42.5279 311.335 42.7779 311.215C43.0279 311.085 43.1529 310.875 43.1529 310.585V304.525L41.6829 304.765C41.6729 304.695 41.6679 304.595 41.6679 304.465C41.6679 304.335 41.6929 304.22 41.7429 304.12C42.9529 303.36 44.0379 302.745 44.9979 302.275L45.4779 302.47V311.17C45.8079 311.32 46.2429 311.42 46.7829 311.47ZM49.5153 303.955C49.8753 303.955 50.1803 304.085 50.4303 304.345C50.6803 304.595 50.8053 304.9 50.8053 305.26C50.8053 305.61 50.6753 305.915 50.4153 306.175C50.1653 306.425 49.8603 306.55 49.5003 306.55C49.1503 306.55 48.8453 306.425 48.5853 306.175C48.3353 305.915 48.2103 305.61 48.2103 305.26C48.2103 304.9 48.3353 304.595 48.5853 304.345C48.8453 304.085 49.1553 303.955 49.5153 303.955ZM49.5003 310.15C49.8603 310.15 50.1653 310.28 50.4153 310.54C50.6753 310.8 50.8053 311.11 50.8053 311.47C50.8053 311.82 50.6753 312.12 50.4153 312.37C50.1653 312.62 49.8603 312.745 49.5003 312.745C49.1503 312.745 48.8453 312.62 48.5853 312.37C48.3353 312.12 48.2103 311.82 48.2103 311.47C48.2103 311.11 48.3353 310.8 48.5853 310.54C48.8453 310.28 49.1503 310.15 49.5003 310.15ZM56.1887 308.8V305.83L53.9537 308.8H56.1887ZM58.1987 310V311.32C58.4287 311.43 58.7337 311.485 59.1137 311.485C59.1137 311.555 59.1137 311.655 59.1137 311.785C59.1137 311.915 59.0937 312.095 59.0537 312.325H55.1687C55.1687 312.245 55.1687 312.13 55.1687 311.98C55.1687 311.82 55.1937 311.655 55.2437 311.485C55.5637 311.435 55.7987 311.35 55.9487 311.23C56.1087 311.11 56.1887 310.895 56.1887 310.585V310H52.8287C52.5987 309.66 52.4487 309.33 52.3787 309.01L57.0137 302.575H58.1987V308.8H59.5337C59.5937 309.08 59.6237 309.32 59.6237 309.52C59.6237 309.71 59.6137 309.87 59.5937 310H58.1987ZM63.3335 310.6C63.4635 311.17 63.7785 311.455 64.2785 311.455C64.7885 311.455 65.1085 311.17 65.2385 310.6C65.3485 310.1 65.4035 309.25 65.4035 308.05C65.4035 306.1 65.3335 304.88 65.1935 304.39C65.0535 303.92 64.8735 303.635 64.6535 303.535C64.5235 303.475 64.3635 303.445 64.1735 303.445C63.6835 303.445 63.3785 303.735 63.2585 304.315C63.1485 304.785 63.0935 305.355 63.0935 306.025C63.0935 308.405 63.1735 309.93 63.3335 310.6ZM66.9335 303.7C67.6135 304.59 67.9535 305.85 67.9535 307.48C67.9535 309.11 67.6135 310.36 66.9335 311.23C66.2535 312.09 65.3535 312.52 64.2335 312.52C63.1235 312.52 62.2335 312.09 61.5635 311.23C60.8935 310.36 60.5585 309.11 60.5585 307.48C60.5585 305.85 60.8935 304.59 61.5635 303.7C62.2335 302.81 63.1235 302.365 64.2335 302.365C65.3535 302.365 66.2535 302.81 66.9335 303.7ZM47.1051 330.47C47.1151 330.53 47.1201 330.63 47.1201 330.77C47.1201 330.91 47.0951 331.095 47.0451 331.325H41.9151C41.9151 331.255 41.9151 331.14 41.9151 330.98C41.9151 330.82 41.9451 330.65 42.0051 330.47C42.4851 330.42 42.8501 330.335 43.1001 330.215C43.3501 330.085 43.4751 329.875 43.4751 329.585V323.525L42.0051 323.765C41.9951 323.695 41.9901 323.595 41.9901 323.465C41.9901 323.335 42.0151 323.22 42.0651 323.12C43.2751 322.36 44.3601 321.745 45.3201 321.275L45.8001 321.47V330.17C46.1301 330.32 46.5651 330.42 47.1051 330.47ZM49.8376 322.955C50.1976 322.955 50.5026 323.085 50.7526 323.345C51.0026 323.595 51.1276 323.9 51.1276 324.26C51.1276 324.61 50.9976 324.915 50.7376 325.175C50.4876 325.425 50.1826 325.55 49.8226 325.55C49.4726 325.55 49.1676 325.425 48.9076 325.175C48.6576 324.915 48.5326 324.61 48.5326 324.26C48.5326 323.9 48.6576 323.595 48.9076 323.345C49.1676 323.085 49.4776 322.955 49.8376 322.955ZM49.8226 329.15C50.1826 329.15 50.4876 329.28 50.7376 329.54C50.9976 329.8 51.1276 330.11 51.1276 330.47C51.1276 330.82 50.9976 331.12 50.7376 331.37C50.4876 331.62 50.1826 331.745 49.8226 331.745C49.4726 331.745 49.1676 331.62 48.9076 331.37C48.6576 331.12 48.5326 330.82 48.5326 330.47C48.5326 330.11 48.6576 329.8 48.9076 329.54C49.1676 329.28 49.4726 329.15 49.8226 329.15ZM54.711 325.565C55.291 325.305 55.906 325.175 56.556 325.175C57.206 325.175 57.781 325.425 58.281 325.925C58.781 326.415 59.031 327.09 59.031 327.95C59.031 329 58.681 329.86 57.981 330.53C57.291 331.19 56.431 331.52 55.401 331.52C54.371 331.52 53.456 331.135 52.656 330.365C52.836 329.965 53.036 329.675 53.256 329.495C53.806 329.875 54.431 330.065 55.131 330.065C55.601 330.065 55.986 329.905 56.286 329.585C56.596 329.265 56.751 328.84 56.751 328.31C56.751 327.77 56.611 327.35 56.331 327.05C56.061 326.74 55.706 326.585 55.266 326.585C54.836 326.585 54.316 326.765 53.706 327.125L53.391 326.975L53.916 321.725H57.036C57.676 321.725 58.101 321.475 58.311 320.975C58.471 320.975 58.641 321.015 58.821 321.095C58.811 321.835 58.671 322.65 58.401 323.54H54.921L54.711 325.565ZM63.0112 329.6C63.1412 330.17 63.4562 330.455 63.9562 330.455C64.4662 330.455 64.7862 330.17 64.9162 329.6C65.0262 329.1 65.0812 328.25 65.0812 327.05C65.0812 325.1 65.0112 323.88 64.8712 323.39C64.7312 322.92 64.5512 322.635 64.3312 322.535C64.2012 322.475 64.0412 322.445 63.8512 322.445C63.3612 322.445 63.0562 322.735 62.9362 323.315C62.8262 323.785 62.7712 324.355 62.7712 325.025C62.7712 327.405 62.8512 328.93 63.0112 329.6ZM66.6112 322.7C67.2912 323.59 67.6312 324.85 67.6312 326.48C67.6312 328.11 67.2912 329.36 66.6112 330.23C65.9312 331.09 65.0312 331.52 63.9112 331.52C62.8012 331.52 61.9112 331.09 61.2412 330.23C60.5712 329.36 60.2362 328.11 60.2362 326.48C60.2362 324.85 60.5712 323.59 61.2412 322.7C61.9112 321.81 62.8012 321.365 63.9112 321.365C65.0312 321.365 65.9312 321.81 66.6112 322.7ZM45.3239 348.51C45.6939 348.51 45.9739 348.42 46.1639 348.24C46.3539 348.05 46.4989 347.695 46.5989 347.175C46.7589 347.175 46.9289 347.215 47.1089 347.295C47.1089 348.495 46.9689 349.505 46.6889 350.325H40.9589C40.8489 349.685 40.7939 349.17 40.7939 348.78C42.4539 347.03 43.3789 346.01 43.5689 345.72C43.7589 345.43 43.9339 345.145 44.0939 344.865C44.3339 344.425 44.4539 343.97 44.4539 343.5C44.4539 343.03 44.3389 342.67 44.1089 342.42C43.8889 342.17 43.6089 342.045 43.2689 342.045C42.5789 342.045 42.1339 342.48 41.9339 343.35C41.8539 343.36 41.7539 343.365 41.6339 343.365C41.5139 343.365 41.3689 343.355 41.1989 343.335C41.1889 343.085 41.1839 342.775 41.1839 342.405C41.1839 342.025 41.2089 341.63 41.2589 341.22C42.0489 340.66 42.9239 340.38 43.8839 340.38C44.8439 340.38 45.5889 340.645 46.1189 341.175C46.6589 341.695 46.9289 342.35 46.9289 343.14C46.9289 343.52 46.8689 343.835 46.7489 344.085C46.6389 344.325 46.5439 344.515 46.4639 344.655C46.3839 344.795 46.2539 344.965 46.0739 345.165C45.8939 345.365 45.7389 345.535 45.6089 345.675C45.4789 345.815 45.2739 346.01 44.9939 346.26L44.2739 346.905C44.0839 347.075 43.7939 347.33 43.4039 347.67C43.0239 348 42.7039 348.28 42.4439 348.51H45.3239ZM50.2404 341.955C50.6004 341.955 50.9054 342.085 51.1554 342.345C51.4054 342.595 51.5304 342.9 51.5304 343.26C51.5304 343.61 51.4004 343.915 51.1404 344.175C50.8904 344.425 50.5854 344.55 50.2254 344.55C49.8754 344.55 49.5704 344.425 49.3104 344.175C49.0604 343.915 48.9354 343.61 48.9354 343.26C48.9354 342.9 49.0604 342.595 49.3104 342.345C49.5704 342.085 49.8804 341.955 50.2404 341.955ZM50.2254 348.15C50.5854 348.15 50.8904 348.28 51.1404 348.54C51.4004 348.8 51.5304 349.11 51.5304 349.47C51.5304 349.82 51.4004 350.12 51.1404 350.37C50.8904 350.62 50.5854 350.745 50.2254 350.745C49.8754 350.745 49.5704 350.62 49.3104 350.37C49.0604 350.12 48.9354 349.82 48.9354 349.47C48.9354 349.11 49.0604 348.8 49.3104 348.54C49.5704 348.28 49.8754 348.15 50.2254 348.15ZM56.1338 348.6C56.2638 349.17 56.5788 349.455 57.0788 349.455C57.5888 349.455 57.9088 349.17 58.0388 348.6C58.1488 348.1 58.2038 347.25 58.2038 346.05C58.2038 344.1 58.1338 342.88 57.9938 342.39C57.8538 341.92 57.6738 341.635 57.4538 341.535C57.3238 341.475 57.1638 341.445 56.9738 341.445C56.4838 341.445 56.1788 341.735 56.0588 342.315C55.9488 342.785 55.8938 343.355 55.8938 344.025C55.8938 346.405 55.9738 347.93 56.1338 348.6ZM59.7338 341.7C60.4138 342.59 60.7538 343.85 60.7538 345.48C60.7538 347.11 60.4138 348.36 59.7338 349.23C59.0538 350.09 58.1538 350.52 57.0338 350.52C55.9238 350.52 55.0338 350.09 54.3638 349.23C53.6938 348.36 53.3588 347.11 53.3588 345.48C53.3588 343.85 53.6938 342.59 54.3638 341.7C55.0338 340.81 55.9238 340.365 57.0338 340.365C58.1538 340.365 59.0538 340.81 59.7338 341.7ZM64.7324 348.6C64.8624 349.17 65.1774 349.455 65.6774 349.455C66.1874 349.455 66.5074 349.17 66.6374 348.6C66.7474 348.1 66.8024 347.25 66.8024 346.05C66.8024 344.1 66.7324 342.88 66.5924 342.39C66.4524 341.92 66.2724 341.635 66.0524 341.535C65.9224 341.475 65.7624 341.445 65.5724 341.445C65.0824 341.445 64.7774 341.735 64.6574 342.315C64.5474 342.785 64.4924 343.355 64.4924 344.025C64.4924 346.405 64.5724 347.93 64.7324 348.6ZM68.3324 341.7C69.0124 342.59 69.3524 343.85 69.3524 345.48C69.3524 347.11 69.0124 348.36 68.3324 349.23C67.6524 350.09 66.7524 350.52 65.6324 350.52C64.5224 350.52 63.6324 350.09 62.9624 349.23C62.2924 348.36 61.9574 347.11 61.9574 345.48C61.9574 343.85 62.2924 342.59 62.9624 341.7C63.6324 340.81 64.5224 340.365 65.6324 340.365C66.7524 340.365 67.6524 340.81 68.3324 341.7ZM46.862 367.51C47.232 367.51 47.512 367.42 47.702 367.24C47.892 367.05 48.037 366.695 48.137 366.175C48.297 366.175 48.467 366.215 48.647 366.295C48.647 367.495 48.507 368.505 48.227 369.325H42.497C42.387 368.685 42.332 368.17 42.332 367.78C43.992 366.03 44.917 365.01 45.107 364.72C45.297 364.43 45.472 364.145 45.632 363.865C45.872 363.425 45.992 362.97 45.992 362.5C45.992 362.03 45.877 361.67 45.647 361.42C45.427 361.17 45.147 361.045 44.807 361.045C44.117 361.045 43.672 361.48 43.472 362.35C43.392 362.36 43.292 362.365 43.172 362.365C43.052 362.365 42.907 362.355 42.737 362.335C42.727 362.085 42.722 361.775 42.722 361.405C42.722 361.025 42.747 360.63 42.797 360.22C43.587 359.66 44.462 359.38 45.422 359.38C46.382 359.38 47.127 359.645 47.657 360.175C48.197 360.695 48.467 361.35 48.467 362.14C48.467 362.52 48.407 362.835 48.287 363.085C48.177 363.325 48.082 363.515 48.002 363.655C47.922 363.795 47.792 363.965 47.612 364.165C47.432 364.365 47.277 364.535 47.147 364.675C47.017 364.815 46.812 365.01 46.532 365.26L45.812 365.905C45.622 366.075 45.332 366.33 44.942 366.67C44.562 367 44.242 367.28 43.982 367.51H46.862ZM51.7785 360.955C52.1385 360.955 52.4435 361.085 52.6935 361.345C52.9435 361.595 53.0685 361.9 53.0685 362.26C53.0685 362.61 52.9385 362.915 52.6785 363.175C52.4285 363.425 52.1235 363.55 51.7635 363.55C51.4135 363.55 51.1085 363.425 50.8485 363.175C50.5985 362.915 50.4735 362.61 50.4735 362.26C50.4735 361.9 50.5985 361.595 50.8485 361.345C51.1085 361.085 51.4185 360.955 51.7785 360.955ZM51.7635 367.15C52.1235 367.15 52.4285 367.28 52.6785 367.54C52.9385 367.8 53.0685 368.11 53.0685 368.47C53.0685 368.82 52.9385 369.12 52.6785 369.37C52.4285 369.62 52.1235 369.745 51.7635 369.745C51.4135 369.745 51.1085 369.62 50.8485 369.37C50.5985 369.12 50.4735 368.82 50.4735 368.47C50.4735 368.11 50.5985 367.8 50.8485 367.54C51.1085 367.28 51.4135 367.15 51.7635 367.15ZM59.6369 368.47C59.6469 368.53 59.6519 368.63 59.6519 368.77C59.6519 368.91 59.6269 369.095 59.5769 369.325H54.4469C54.4469 369.255 54.4469 369.14 54.4469 368.98C54.4469 368.82 54.4769 368.65 54.5369 368.47C55.0169 368.42 55.3819 368.335 55.6319 368.215C55.8819 368.085 56.0069 367.875 56.0069 367.585V361.525L54.5369 361.765C54.5269 361.695 54.5219 361.595 54.5219 361.465C54.5219 361.335 54.5469 361.22 54.5969 361.12C55.8069 360.36 56.8919 359.745 57.8519 359.275L58.3319 359.47V368.17C58.6619 368.32 59.0969 368.42 59.6369 368.47ZM63.1943 367.6C63.3243 368.17 63.6393 368.455 64.1393 368.455C64.6493 368.455 64.9693 368.17 65.0993 367.6C65.2093 367.1 65.2643 366.25 65.2643 365.05C65.2643 363.1 65.1943 361.88 65.0543 361.39C64.9143 360.92 64.7343 360.635 64.5143 360.535C64.3843 360.475 64.2243 360.445 64.0343 360.445C63.5443 360.445 63.2393 360.735 63.1193 361.315C63.0093 361.785 62.9543 362.355 62.9543 363.025C62.9543 365.405 63.0343 366.93 63.1943 367.6ZM66.7943 360.7C67.4743 361.59 67.8143 362.85 67.8143 364.48C67.8143 366.11 67.4743 367.36 66.7943 368.23C66.1143 369.09 65.2143 369.52 64.0943 369.52C62.9843 369.52 62.0943 369.09 61.4243 368.23C60.7543 367.36 60.4193 366.11 60.4193 364.48C60.4193 362.85 60.7543 361.59 61.4243 360.7C62.0943 359.81 62.9843 359.365 64.0943 359.365C65.2143 359.365 66.1143 359.81 66.7943 360.7ZM45.8 386.51C46.17 386.51 46.45 386.42 46.64 386.24C46.83 386.05 46.975 385.695 47.075 385.175C47.235 385.175 47.405 385.215 47.585 385.295C47.585 386.495 47.445 387.505 47.165 388.325H41.435C41.325 387.685 41.27 387.17 41.27 386.78C42.93 385.03 43.855 384.01 44.045 383.72C44.235 383.43 44.41 383.145 44.57 382.865C44.81 382.425 44.93 381.97 44.93 381.5C44.93 381.03 44.815 380.67 44.585 380.42C44.365 380.17 44.085 380.045 43.745 380.045C43.055 380.045 42.61 380.48 42.41 381.35C42.33 381.36 42.23 381.365 42.11 381.365C41.99 381.365 41.845 381.355 41.675 381.335C41.665 381.085 41.66 380.775 41.66 380.405C41.66 380.025 41.685 379.63 41.735 379.22C42.525 378.66 43.4 378.38 44.36 378.38C45.32 378.38 46.065 378.645 46.595 379.175C47.135 379.695 47.405 380.35 47.405 381.14C47.405 381.52 47.345 381.835 47.225 382.085C47.115 382.325 47.02 382.515 46.94 382.655C46.86 382.795 46.73 382.965 46.55 383.165C46.37 383.365 46.215 383.535 46.085 383.675C45.955 383.815 45.75 384.01 45.47 384.26L44.75 384.905C44.56 385.075 44.27 385.33 43.88 385.67C43.5 386 43.18 386.28 42.92 386.51H45.8ZM50.7165 379.955C51.0765 379.955 51.3815 380.085 51.6315 380.345C51.8815 380.595 52.0065 380.9 52.0065 381.26C52.0065 381.61 51.8765 381.915 51.6165 382.175C51.3665 382.425 51.0615 382.55 50.7015 382.55C50.3515 382.55 50.0465 382.425 49.7865 382.175C49.5365 381.915 49.4115 381.61 49.4115 381.26C49.4115 380.9 49.5365 380.595 49.7865 380.345C50.0465 380.085 50.3565 379.955 50.7165 379.955ZM50.7015 386.15C51.0615 386.15 51.3665 386.28 51.6165 386.54C51.8765 386.8 52.0065 387.11 52.0065 387.47C52.0065 387.82 51.8765 388.12 51.6165 388.37C51.3665 388.62 51.0615 388.745 50.7015 388.745C50.3515 388.745 50.0465 388.62 49.7865 388.37C49.5365 388.12 49.4115 387.82 49.4115 387.47C49.4115 387.11 49.5365 386.8 49.7865 386.54C50.0465 386.28 50.3515 386.15 50.7015 386.15ZM58.5149 386.51C58.8849 386.51 59.1649 386.42 59.3549 386.24C59.5449 386.05 59.6899 385.695 59.7899 385.175C59.9499 385.175 60.1199 385.215 60.2999 385.295C60.2999 386.495 60.1599 387.505 59.8799 388.325H54.1499C54.0399 387.685 53.9849 387.17 53.9849 386.78C55.6449 385.03 56.5699 384.01 56.7599 383.72C56.9499 383.43 57.1249 383.145 57.2849 382.865C57.5249 382.425 57.6449 381.97 57.6449 381.5C57.6449 381.03 57.5299 380.67 57.2999 380.42C57.0799 380.17 56.7999 380.045 56.4599 380.045C55.7699 380.045 55.3249 380.48 55.1249 381.35C55.0449 381.36 54.9449 381.365 54.8249 381.365C54.7049 381.365 54.5599 381.355 54.3899 381.335C54.3799 381.085 54.3749 380.775 54.3749 380.405C54.3749 380.025 54.3999 379.63 54.4499 379.22C55.2399 378.66 56.1149 378.38 57.0749 378.38C58.0349 378.38 58.7799 378.645 59.3099 379.175C59.8499 379.695 60.1199 380.35 60.1199 381.14C60.1199 381.52 60.0599 381.835 59.9399 382.085C59.8299 382.325 59.7349 382.515 59.6549 382.655C59.5749 382.795 59.4449 382.965 59.2649 383.165C59.0849 383.365 58.9299 383.535 58.7999 383.675C58.6699 383.815 58.4649 384.01 58.1849 384.26L57.4649 384.905C57.2749 385.075 56.9849 385.33 56.5949 385.67C56.2149 386 55.8949 386.28 55.6349 386.51H58.5149ZM64.2563 386.6C64.3863 387.17 64.7013 387.455 65.2013 387.455C65.7113 387.455 66.0313 387.17 66.1613 386.6C66.2713 386.1 66.3263 385.25 66.3263 384.05C66.3263 382.1 66.2563 380.88 66.1163 380.39C65.9763 379.92 65.7963 379.635 65.5763 379.535C65.4463 379.475 65.2863 379.445 65.0963 379.445C64.6063 379.445 64.3013 379.735 64.1813 380.315C64.0713 380.785 64.0163 381.355 64.0163 382.025C64.0163 384.405 64.0963 385.93 64.2563 386.6ZM67.8563 379.7C68.5363 380.59 68.8763 381.85 68.8763 383.48C68.8763 385.11 68.5363 386.36 67.8563 387.23C67.1763 388.09 66.2763 388.52 65.1563 388.52C64.0463 388.52 63.1563 388.09 62.4863 387.23C61.8163 386.36 61.4813 385.11 61.4813 383.48C61.4813 381.85 61.8163 380.59 62.4863 379.7C63.1563 378.81 64.0463 378.365 65.1563 378.365C66.2763 378.365 67.1763 378.81 67.8563 379.7ZM45.9904 405.51C46.3604 405.51 46.6404 405.42 46.8304 405.24C47.0204 405.05 47.1654 404.695 47.2654 404.175C47.4254 404.175 47.5954 404.215 47.7754 404.295C47.7754 405.495 47.6354 406.505 47.3554 407.325H41.6254C41.5154 406.685 41.4604 406.17 41.4604 405.78C43.1204 404.03 44.0454 403.01 44.2354 402.72C44.4254 402.43 44.6004 402.145 44.7604 401.865C45.0004 401.425 45.1204 400.97 45.1204 400.5C45.1204 400.03 45.0054 399.67 44.7754 399.42C44.5554 399.17 44.2754 399.045 43.9354 399.045C43.2454 399.045 42.8004 399.48 42.6004 400.35C42.5204 400.36 42.4204 400.365 42.3004 400.365C42.1804 400.365 42.0354 400.355 41.8654 400.335C41.8554 400.085 41.8504 399.775 41.8504 399.405C41.8504 399.025 41.8754 398.63 41.9254 398.22C42.7154 397.66 43.5904 397.38 44.5504 397.38C45.5104 397.38 46.2554 397.645 46.7854 398.175C47.3254 398.695 47.5954 399.35 47.5954 400.14C47.5954 400.52 47.5354 400.835 47.4154 401.085C47.3054 401.325 47.2104 401.515 47.1304 401.655C47.0504 401.795 46.9204 401.965 46.7404 402.165C46.5604 402.365 46.4054 402.535 46.2754 402.675C46.1454 402.815 45.9404 403.01 45.6604 403.26L44.9404 403.905C44.7504 404.075 44.4604 404.33 44.0704 404.67C43.6904 405 43.3704 405.28 43.1104 405.51H45.9904ZM50.9069 398.955C51.2669 398.955 51.5719 399.085 51.8219 399.345C52.0719 399.595 52.1969 399.9 52.1969 400.26C52.1969 400.61 52.0669 400.915 51.8069 401.175C51.5569 401.425 51.2519 401.55 50.8919 401.55C50.5419 401.55 50.2369 401.425 49.9769 401.175C49.7269 400.915 49.6019 400.61 49.6019 400.26C49.6019 399.9 49.7269 399.595 49.9769 399.345C50.2369 399.085 50.5469 398.955 50.9069 398.955ZM50.8919 405.15C51.2519 405.15 51.5569 405.28 51.8069 405.54C52.0669 405.8 52.1969 406.11 52.1969 406.47C52.1969 406.82 52.0669 407.12 51.8069 407.37C51.5569 407.62 51.2519 407.745 50.8919 407.745C50.5419 407.745 50.2369 407.62 49.9769 407.37C49.7269 407.12 49.6019 406.82 49.6019 406.47C49.6019 406.11 49.7269 405.8 49.9769 405.54C50.2369 405.28 50.5419 405.15 50.8919 405.15ZM55.9153 403.155V402.225C56.4553 402.135 56.8603 401.93 57.1303 401.61C57.4003 401.28 57.5353 400.9 57.5353 400.47C57.5353 400.03 57.4303 399.685 57.2203 399.435C57.0203 399.175 56.7553 399.045 56.4253 399.045C56.1053 399.045 55.8103 399.16 55.5403 399.39C55.2803 399.61 55.1053 399.93 55.0153 400.35C54.9353 400.36 54.8353 400.365 54.7153 400.365C54.5953 400.365 54.4503 400.355 54.2803 400.335C54.2703 400.085 54.2653 399.775 54.2653 399.405C54.2653 399.025 54.2903 398.63 54.3403 398.22C55.2403 397.66 56.2203 397.38 57.2803 397.38C58.0403 397.38 58.6853 397.605 59.2153 398.055C59.7453 398.495 60.0103 399.035 60.0103 399.675C60.0103 400.125 59.8553 400.565 59.5453 400.995C59.2353 401.415 58.7903 401.78 58.2103 402.09C59.4903 402.57 60.1303 403.4 60.1303 404.58C60.1303 405.4 59.8003 406.095 59.1403 406.665C58.4903 407.235 57.6853 407.52 56.7253 407.52C55.7653 407.52 54.8303 407.135 53.9203 406.365C54.0803 405.935 54.2803 405.645 54.5203 405.495C55.0703 405.875 55.6953 406.065 56.3953 406.065C56.8353 406.065 57.1903 405.945 57.4603 405.705C57.7303 405.455 57.8653 405.11 57.8653 404.67C57.8653 404.22 57.6953 403.855 57.3553 403.575C57.0153 403.295 56.5353 403.155 55.9153 403.155ZM64.0659 405.6C64.1959 406.17 64.5109 406.455 65.0109 406.455C65.5209 406.455 65.8409 406.17 65.9709 405.6C66.0809 405.1 66.1359 404.25 66.1359 403.05C66.1359 401.1 66.0659 399.88 65.9259 399.39C65.7859 398.92 65.6059 398.635 65.3859 398.535C65.2559 398.475 65.0959 398.445 64.9059 398.445C64.4159 398.445 64.1109 398.735 63.9909 399.315C63.8809 399.785 63.8259 400.355 63.8259 401.025C63.8259 403.405 63.9059 404.93 64.0659 405.6ZM67.6659 398.7C68.3459 399.59 68.6859 400.85 68.6859 402.48C68.6859 404.11 68.3459 405.36 67.6659 406.23C66.9859 407.09 66.0859 407.52 64.9659 407.52C63.8559 407.52 62.9659 407.09 62.2959 406.23C61.6259 405.36 61.2909 404.11 61.2909 402.48C61.2909 400.85 61.6259 399.59 62.2959 398.7C62.9659 397.81 63.8559 397.365 64.9659 397.365C66.0859 397.365 66.9859 397.81 67.6659 398.7ZM45.6609 424.51C46.0309 424.51 46.3109 424.42 46.5009 424.24C46.6909 424.05 46.8359 423.695 46.9359 423.175C47.0959 423.175 47.2659 423.215 47.4459 423.295C47.4459 424.495 47.3059 425.505 47.0259 426.325H41.2959C41.1859 425.685 41.1309 425.17 41.1309 424.78C42.7909 423.03 43.7159 422.01 43.9059 421.72C44.0959 421.43 44.2709 421.145 44.4309 420.865C44.6709 420.425 44.7909 419.97 44.7909 419.5C44.7909 419.03 44.6759 418.67 44.4459 418.42C44.2259 418.17 43.9459 418.045 43.6059 418.045C42.9159 418.045 42.4709 418.48 42.2709 419.35C42.1909 419.36 42.0909 419.365 41.9709 419.365C41.8509 419.365 41.7059 419.355 41.5359 419.335C41.5259 419.085 41.5209 418.775 41.5209 418.405C41.5209 418.025 41.5459 417.63 41.5959 417.22C42.3859 416.66 43.2609 416.38 44.2209 416.38C45.1809 416.38 45.9259 416.645 46.4559 417.175C46.9959 417.695 47.2659 418.35 47.2659 419.14C47.2659 419.52 47.2059 419.835 47.0859 420.085C46.9759 420.325 46.8809 420.515 46.8009 420.655C46.7209 420.795 46.5909 420.965 46.4109 421.165C46.2309 421.365 46.0759 421.535 45.9459 421.675C45.8159 421.815 45.6109 422.01 45.3309 422.26L44.6109 422.905C44.4209 423.075 44.1309 423.33 43.7409 423.67C43.3609 424 43.0409 424.28 42.7809 424.51H45.6609ZM50.5773 417.955C50.9373 417.955 51.2423 418.085 51.4923 418.345C51.7423 418.595 51.8673 418.9 51.8673 419.26C51.8673 419.61 51.7373 419.915 51.4773 420.175C51.2273 420.425 50.9223 420.55 50.5623 420.55C50.2123 420.55 49.9073 420.425 49.6473 420.175C49.3973 419.915 49.2723 419.61 49.2723 419.26C49.2723 418.9 49.3973 418.595 49.6473 418.345C49.9073 418.085 50.2173 417.955 50.5773 417.955ZM50.5623 424.15C50.9223 424.15 51.2273 424.28 51.4773 424.54C51.7373 424.8 51.8673 425.11 51.8673 425.47C51.8673 425.82 51.7373 426.12 51.4773 426.37C51.2273 426.62 50.9223 426.745 50.5623 426.745C50.2123 426.745 49.9073 426.62 49.6473 426.37C49.3973 426.12 49.2723 425.82 49.2723 425.47C49.2723 425.11 49.3973 424.8 49.6473 424.54C49.9073 424.28 50.2123 424.15 50.5623 424.15ZM57.2507 422.8V419.83L55.0157 422.8H57.2507ZM59.2607 424V425.32C59.4907 425.43 59.7957 425.485 60.1757 425.485C60.1757 425.555 60.1757 425.655 60.1757 425.785C60.1757 425.915 60.1557 426.095 60.1157 426.325H56.2307C56.2307 426.245 56.2307 426.13 56.2307 425.98C56.2307 425.82 56.2557 425.655 56.3057 425.485C56.6257 425.435 56.8607 425.35 57.0107 425.23C57.1707 425.11 57.2507 424.895 57.2507 424.585V424H53.8907C53.6607 423.66 53.5107 423.33 53.4407 423.01L58.0757 416.575H59.2607V422.8H60.5957C60.6557 423.08 60.6857 423.32 60.6857 423.52C60.6857 423.71 60.6757 423.87 60.6557 424H59.2607ZM64.3955 424.6C64.5255 425.17 64.8405 425.455 65.3405 425.455C65.8505 425.455 66.1705 425.17 66.3005 424.6C66.4105 424.1 66.4655 423.25 66.4655 422.05C66.4655 420.1 66.3955 418.88 66.2555 418.39C66.1155 417.92 65.9355 417.635 65.7155 417.535C65.5855 417.475 65.4255 417.445 65.2355 417.445C64.7455 417.445 64.4405 417.735 64.3205 418.315C64.2105 418.785 64.1555 419.355 64.1555 420.025C64.1555 422.405 64.2355 423.93 64.3955 424.6ZM67.9955 417.7C68.6755 418.59 69.0155 419.85 69.0155 421.48C69.0155 423.11 68.6755 424.36 67.9955 425.23C67.3155 426.09 66.4155 426.52 65.2955 426.52C64.1855 426.52 63.2955 426.09 62.6255 425.23C61.9555 424.36 61.6205 423.11 61.6205 421.48C61.6205 419.85 61.9555 418.59 62.6255 417.7C63.2955 416.81 64.1855 416.365 65.2955 416.365C66.4155 416.365 67.3155 416.81 67.9955 417.7ZM45.6609 443.51C46.0309 443.51 46.3109 443.42 46.5009 443.24C46.6909 443.05 46.8359 442.695 46.9359 442.175C47.0959 442.175 47.2659 442.215 47.4459 442.295C47.4459 443.495 47.3059 444.505 47.0259 445.325H41.2959C41.1859 444.685 41.1309 444.17 41.1309 443.78C42.7909 442.03 43.7159 441.01 43.9059 440.72C44.0959 440.43 44.2709 440.145 44.4309 439.865C44.6709 439.425 44.7909 438.97 44.7909 438.5C44.7909 438.03 44.6759 437.67 44.4459 437.42C44.2259 437.17 43.9459 437.045 43.6059 437.045C42.9159 437.045 42.4709 437.48 42.2709 438.35C42.1909 438.36 42.0909 438.365 41.9709 438.365C41.8509 438.365 41.7059 438.355 41.5359 438.335C41.5259 438.085 41.5209 437.775 41.5209 437.405C41.5209 437.025 41.5459 436.63 41.5959 436.22C42.3859 435.66 43.2609 435.38 44.2209 435.38C45.1809 435.38 45.9259 435.645 46.4559 436.175C46.9959 436.695 47.2659 437.35 47.2659 438.14C47.2659 438.52 47.2059 438.835 47.0859 439.085C46.9759 439.325 46.8809 439.515 46.8009 439.655C46.7209 439.795 46.5909 439.965 46.4109 440.165C46.2309 440.365 46.0759 440.535 45.9459 440.675C45.8159 440.815 45.6109 441.01 45.3309 441.26L44.6109 441.905C44.4209 442.075 44.1309 442.33 43.7409 442.67C43.3609 443 43.0409 443.28 42.7809 443.51H45.6609ZM50.5773 436.955C50.9373 436.955 51.2423 437.085 51.4923 437.345C51.7423 437.595 51.8673 437.9 51.8673 438.26C51.8673 438.61 51.7373 438.915 51.4773 439.175C51.2273 439.425 50.9223 439.55 50.5623 439.55C50.2123 439.55 49.9073 439.425 49.6473 439.175C49.3973 438.915 49.2723 438.61 49.2723 438.26C49.2723 437.9 49.3973 437.595 49.6473 437.345C49.9073 437.085 50.2173 436.955 50.5773 436.955ZM50.5623 443.15C50.9223 443.15 51.2273 443.28 51.4773 443.54C51.7373 443.8 51.8673 444.11 51.8673 444.47C51.8673 444.82 51.7373 445.12 51.4773 445.37C51.2273 445.62 50.9223 445.745 50.5623 445.745C50.2123 445.745 49.9073 445.62 49.6473 445.37C49.3973 445.12 49.2723 444.82 49.2723 444.47C49.2723 444.11 49.3973 443.8 49.6473 443.54C49.9073 443.28 50.2123 443.15 50.5623 443.15ZM57.2507 441.8V438.83L55.0157 441.8H57.2507ZM59.2607 443V444.32C59.4907 444.43 59.7957 444.485 60.1757 444.485C60.1757 444.555 60.1757 444.655 60.1757 444.785C60.1757 444.915 60.1557 445.095 60.1157 445.325H56.2307C56.2307 445.245 56.2307 445.13 56.2307 444.98C56.2307 444.82 56.2557 444.655 56.3057 444.485C56.6257 444.435 56.8607 444.35 57.0107 444.23C57.1707 444.11 57.2507 443.895 57.2507 443.585V443H53.8907C53.6607 442.66 53.5107 442.33 53.4407 442.01L58.0757 435.575H59.2607V441.8H60.5957C60.6557 442.08 60.6857 442.32 60.6857 442.52C60.6857 442.71 60.6757 442.87 60.6557 443H59.2607ZM64.3955 443.6C64.5255 444.17 64.8405 444.455 65.3405 444.455C65.8505 444.455 66.1705 444.17 66.3005 443.6C66.4105 443.1 66.4655 442.25 66.4655 441.05C66.4655 439.1 66.3955 437.88 66.2555 437.39C66.1155 436.92 65.9355 436.635 65.7155 436.535C65.5855 436.475 65.4255 436.445 65.2355 436.445C64.7455 436.445 64.4405 436.735 64.3205 437.315C64.2105 437.785 64.1555 438.355 64.1555 439.025C64.1555 441.405 64.2355 442.93 64.3955 443.6ZM67.9955 436.7C68.6755 437.59 69.0155 438.85 69.0155 440.48C69.0155 442.11 68.6755 443.36 67.9955 444.23C67.3155 445.09 66.4155 445.52 65.2955 445.52C64.1855 445.52 63.2955 445.09 62.6255 444.23C61.9555 443.36 61.6205 442.11 61.6205 440.48C61.6205 438.85 61.9555 437.59 62.6255 436.7C63.2955 435.81 64.1855 435.365 65.2955 435.365C66.4155 435.365 67.3155 435.81 67.9955 436.7ZM45.9831 462.51C46.3531 462.51 46.6331 462.42 46.8231 462.24C47.0131 462.05 47.1581 461.695 47.2581 461.175C47.4181 461.175 47.5881 461.215 47.7681 461.295C47.7681 462.495 47.6281 463.505 47.3481 464.325H41.6181C41.5081 463.685 41.4531 463.17 41.4531 462.78C43.1131 461.03 44.0381 460.01 44.2281 459.72C44.4181 459.43 44.5931 459.145 44.7531 458.865C44.9931 458.425 45.1131 457.97 45.1131 457.5C45.1131 457.03 44.9981 456.67 44.7681 456.42C44.5481 456.17 44.2681 456.045 43.9281 456.045C43.2381 456.045 42.7931 456.48 42.5931 457.35C42.5131 457.36 42.4131 457.365 42.2931 457.365C42.1731 457.365 42.0281 457.355 41.8581 457.335C41.8481 457.085 41.8431 456.775 41.8431 456.405C41.8431 456.025 41.8681 455.63 41.9181 455.22C42.7081 454.66 43.5831 454.38 44.5431 454.38C45.5031 454.38 46.2481 454.645 46.7781 455.175C47.3181 455.695 47.5881 456.35 47.5881 457.14C47.5881 457.52 47.5281 457.835 47.4081 458.085C47.2981 458.325 47.2031 458.515 47.1231 458.655C47.0431 458.795 46.9131 458.965 46.7331 459.165C46.5531 459.365 46.3981 459.535 46.2681 459.675C46.1381 459.815 45.9331 460.01 45.6531 460.26L44.9331 460.905C44.7431 461.075 44.4531 461.33 44.0631 461.67C43.6831 462 43.3631 462.28 43.1031 462.51H45.9831ZM50.8996 455.955C51.2596 455.955 51.5646 456.085 51.8146 456.345C52.0646 456.595 52.1896 456.9 52.1896 457.26C52.1896 457.61 52.0596 457.915 51.7996 458.175C51.5496 458.425 51.2446 458.55 50.8846 458.55C50.5346 458.55 50.2296 458.425 49.9696 458.175C49.7196 457.915 49.5946 457.61 49.5946 457.26C49.5946 456.9 49.7196 456.595 49.9696 456.345C50.2296 456.085 50.5396 455.955 50.8996 455.955ZM50.8846 462.15C51.2446 462.15 51.5496 462.28 51.7996 462.54C52.0596 462.8 52.1896 463.11 52.1896 463.47C52.1896 463.82 52.0596 464.12 51.7996 464.37C51.5496 464.62 51.2446 464.745 50.8846 464.745C50.5346 464.745 50.2296 464.62 49.9696 464.37C49.7196 464.12 49.5946 463.82 49.5946 463.47C49.5946 463.11 49.7196 462.8 49.9696 462.54C50.2296 462.28 50.5346 462.15 50.8846 462.15ZM55.773 458.565C56.353 458.305 56.968 458.175 57.618 458.175C58.268 458.175 58.843 458.425 59.343 458.925C59.843 459.415 60.093 460.09 60.093 460.95C60.093 462 59.743 462.86 59.043 463.53C58.353 464.19 57.493 464.52 56.463 464.52C55.433 464.52 54.518 464.135 53.718 463.365C53.898 462.965 54.098 462.675 54.318 462.495C54.868 462.875 55.493 463.065 56.193 463.065C56.663 463.065 57.048 462.905 57.348 462.585C57.658 462.265 57.813 461.84 57.813 461.31C57.813 460.77 57.673 460.35 57.393 460.05C57.123 459.74 56.768 459.585 56.328 459.585C55.898 459.585 55.378 459.765 54.768 460.125L54.453 459.975L54.978 454.725H58.098C58.738 454.725 59.163 454.475 59.373 453.975C59.533 453.975 59.703 454.015 59.883 454.095C59.873 454.835 59.733 455.65 59.463 456.54H55.983L55.773 458.565ZM64.0732 462.6C64.2032 463.17 64.5182 463.455 65.0182 463.455C65.5282 463.455 65.8482 463.17 65.9782 462.6C66.0882 462.1 66.1432 461.25 66.1432 460.05C66.1432 458.1 66.0732 456.88 65.9332 456.39C65.7932 455.92 65.6132 455.635 65.3932 455.535C65.2632 455.475 65.1032 455.445 64.9132 455.445C64.4232 455.445 64.1182 455.735 63.9982 456.315C63.8882 456.785 63.8332 457.355 63.8332 458.025C63.8332 460.405 63.9132 461.93 64.0732 462.6ZM67.6732 455.7C68.3532 456.59 68.6932 457.85 68.6932 459.48C68.6932 461.11 68.3532 462.36 67.6732 463.23C66.9932 464.09 66.0932 464.52 64.9732 464.52C63.8632 464.52 62.9732 464.09 62.3032 463.23C61.6332 462.36 61.2982 461.11 61.2982 459.48C61.2982 457.85 61.6332 456.59 62.3032 455.7C62.9732 454.81 63.8632 454.365 64.9732 454.365C66.0932 454.365 66.9932 454.81 67.6732 455.7ZM42.7244 479.155V478.225C43.2644 478.135 43.6694 477.93 43.9394 477.61C44.2094 477.28 44.3444 476.9 44.3444 476.47C44.3444 476.03 44.2394 475.685 44.0294 475.435C43.8294 475.175 43.5644 475.045 43.2344 475.045C42.9144 475.045 42.6194 475.16 42.3494 475.39C42.0894 475.61 41.9144 475.93 41.8244 476.35C41.7444 476.36 41.6444 476.365 41.5244 476.365C41.4044 476.365 41.2594 476.355 41.0894 476.335C41.0794 476.085 41.0744 475.775 41.0744 475.405C41.0744 475.025 41.0994 474.63 41.1494 474.22C42.0494 473.66 43.0294 473.38 44.0894 473.38C44.8494 473.38 45.4944 473.605 46.0244 474.055C46.5544 474.495 46.8194 475.035 46.8194 475.675C46.8194 476.125 46.6644 476.565 46.3544 476.995C46.0444 477.415 45.5994 477.78 45.0194 478.09C46.2994 478.57 46.9394 479.4 46.9394 480.58C46.9394 481.4 46.6094 482.095 45.9494 482.665C45.2994 483.235 44.4944 483.52 43.5344 483.52C42.5744 483.52 41.6394 483.135 40.7294 482.365C40.8894 481.935 41.0894 481.645 41.3294 481.495C41.8794 481.875 42.5044 482.065 43.2044 482.065C43.6444 482.065 43.9994 481.945 44.2694 481.705C44.5394 481.455 44.6744 481.11 44.6744 480.67C44.6744 480.22 44.5044 479.855 44.1644 479.575C43.8244 479.295 43.3444 479.155 42.7244 479.155ZM50.05 474.955C50.41 474.955 50.715 475.085 50.965 475.345C51.215 475.595 51.34 475.9 51.34 476.26C51.34 476.61 51.21 476.915 50.95 477.175C50.7 477.425 50.395 477.55 50.035 477.55C49.685 477.55 49.38 477.425 49.12 477.175C48.87 476.915 48.745 476.61 48.745 476.26C48.745 475.9 48.87 475.595 49.12 475.345C49.38 475.085 49.69 474.955 50.05 474.955ZM50.035 481.15C50.395 481.15 50.7 481.28 50.95 481.54C51.21 481.8 51.34 482.11 51.34 482.47C51.34 482.82 51.21 483.12 50.95 483.37C50.7 483.62 50.395 483.745 50.035 483.745C49.685 483.745 49.38 483.62 49.12 483.37C48.87 483.12 48.745 482.82 48.745 482.47C48.745 482.11 48.87 481.8 49.12 481.54C49.38 481.28 49.685 481.15 50.035 481.15ZM55.9434 481.6C56.0734 482.17 56.3884 482.455 56.8884 482.455C57.3984 482.455 57.7184 482.17 57.8484 481.6C57.9584 481.1 58.0134 480.25 58.0134 479.05C58.0134 477.1 57.9434 475.88 57.8034 475.39C57.6634 474.92 57.4834 474.635 57.2634 474.535C57.1334 474.475 56.9734 474.445 56.7834 474.445C56.2934 474.445 55.9884 474.735 55.8684 475.315C55.7584 475.785 55.7034 476.355 55.7034 477.025C55.7034 479.405 55.7834 480.93 55.9434 481.6ZM59.5434 474.7C60.2234 475.59 60.5634 476.85 60.5634 478.48C60.5634 480.11 60.2234 481.36 59.5434 482.23C58.8634 483.09 57.9634 483.52 56.8434 483.52C55.7334 483.52 54.8434 483.09 54.1734 482.23C53.5034 481.36 53.1684 480.11 53.1684 478.48C53.1684 476.85 53.5034 475.59 54.1734 474.7C54.8434 473.81 55.7334 473.365 56.8434 473.365C57.9634 473.365 58.8634 473.81 59.5434 474.7ZM64.542 481.6C64.672 482.17 64.987 482.455 65.487 482.455C65.997 482.455 66.317 482.17 66.447 481.6C66.557 481.1 66.612 480.25 66.612 479.05C66.612 477.1 66.542 475.88 66.402 475.39C66.262 474.92 66.082 474.635 65.862 474.535C65.732 474.475 65.572 474.445 65.382 474.445C64.892 474.445 64.587 474.735 64.467 475.315C64.357 475.785 64.302 476.355 64.302 477.025C64.302 479.405 64.382 480.93 64.542 481.6ZM68.142 474.7C68.822 475.59 69.162 476.85 69.162 478.48C69.162 480.11 68.822 481.36 68.142 482.23C67.462 483.09 66.562 483.52 65.442 483.52C64.332 483.52 63.442 483.09 62.772 482.23C62.102 481.36 61.767 480.11 61.767 478.48C61.767 476.85 62.102 475.59 62.772 474.7C63.442 473.81 64.332 473.365 65.442 473.365C66.562 473.365 67.462 473.81 68.142 474.7ZM44.2625 498.155V497.225C44.8025 497.135 45.2075 496.93 45.4775 496.61C45.7475 496.28 45.8825 495.9 45.8825 495.47C45.8825 495.03 45.7775 494.685 45.5675 494.435C45.3675 494.175 45.1025 494.045 44.7725 494.045C44.4525 494.045 44.1575 494.16 43.8875 494.39C43.6275 494.61 43.4525 494.93 43.3625 495.35C43.2825 495.36 43.1825 495.365 43.0625 495.365C42.9425 495.365 42.7975 495.355 42.6275 495.335C42.6175 495.085 42.6125 494.775 42.6125 494.405C42.6125 494.025 42.6375 493.63 42.6875 493.22C43.5875 492.66 44.5675 492.38 45.6275 492.38C46.3875 492.38 47.0325 492.605 47.5625 493.055C48.0925 493.495 48.3575 494.035 48.3575 494.675C48.3575 495.125 48.2025 495.565 47.8925 495.995C47.5825 496.415 47.1375 496.78 46.5575 497.09C47.8375 497.57 48.4775 498.4 48.4775 499.58C48.4775 500.4 48.1475 501.095 47.4875 501.665C46.8375 502.235 46.0325 502.52 45.0725 502.52C44.1125 502.52 43.1775 502.135 42.2675 501.365C42.4275 500.935 42.6275 500.645 42.8675 500.495C43.4175 500.875 44.0425 501.065 44.7425 501.065C45.1825 501.065 45.5375 500.945 45.8075 500.705C46.0775 500.455 46.2125 500.11 46.2125 499.67C46.2125 499.22 46.0425 498.855 45.7025 498.575C45.3625 498.295 44.8825 498.155 44.2625 498.155ZM51.5881 493.955C51.9481 493.955 52.2531 494.085 52.5031 494.345C52.7531 494.595 52.8781 494.9 52.8781 495.26C52.8781 495.61 52.7481 495.915 52.4881 496.175C52.2381 496.425 51.9331 496.55 51.5731 496.55C51.2231 496.55 50.9181 496.425 50.6581 496.175C50.4081 495.915 50.2831 495.61 50.2831 495.26C50.2831 494.9 50.4081 494.595 50.6581 494.345C50.9181 494.085 51.2281 493.955 51.5881 493.955ZM51.5731 500.15C51.9331 500.15 52.2381 500.28 52.4881 500.54C52.7481 500.8 52.8781 501.11 52.8781 501.47C52.8781 501.82 52.7481 502.12 52.4881 502.37C52.2381 502.62 51.9331 502.745 51.5731 502.745C51.2231 502.745 50.9181 502.62 50.6581 502.37C50.4081 502.12 50.2831 501.82 50.2831 501.47C50.2831 501.11 50.4081 500.8 50.6581 500.54C50.9181 500.28 51.2231 500.15 51.5731 500.15ZM59.4464 501.47C59.4564 501.53 59.4614 501.63 59.4614 501.77C59.4614 501.91 59.4364 502.095 59.3864 502.325H54.2564C54.2564 502.255 54.2564 502.14 54.2564 501.98C54.2564 501.82 54.2864 501.65 54.3464 501.47C54.8264 501.42 55.1914 501.335 55.4414 501.215C55.6914 501.085 55.8164 500.875 55.8164 500.585V494.525L54.3464 494.765C54.3364 494.695 54.3314 494.595 54.3314 494.465C54.3314 494.335 54.3564 494.22 54.4064 494.12C55.6164 493.36 56.7014 492.745 57.6614 492.275L58.1414 492.47V501.17C58.4714 501.32 58.9064 501.42 59.4464 501.47ZM63.0039 500.6C63.1339 501.17 63.4489 501.455 63.9489 501.455C64.4589 501.455 64.7789 501.17 64.9089 500.6C65.0189 500.1 65.0739 499.25 65.0739 498.05C65.0739 496.1 65.0039 494.88 64.8639 494.39C64.7239 493.92 64.5439 493.635 64.3239 493.535C64.1939 493.475 64.0339 493.445 63.8439 493.445C63.3539 493.445 63.0489 493.735 62.9289 494.315C62.8189 494.785 62.7639 495.355 62.7639 496.025C62.7639 498.405 62.8439 499.93 63.0039 500.6ZM66.6039 493.7C67.2839 494.59 67.6239 495.85 67.6239 497.48C67.6239 499.11 67.2839 500.36 66.6039 501.23C65.9239 502.09 65.0239 502.52 63.9039 502.52C62.7939 502.52 61.9039 502.09 61.2339 501.23C60.5639 500.36 60.2289 499.11 60.2289 497.48C60.2289 495.85 60.5639 494.59 61.2339 493.7C61.9039 492.81 62.7939 492.365 63.9039 492.365C65.0239 492.365 65.9239 492.81 66.6039 493.7ZM43.2004 517.155V516.225C43.7404 516.135 44.1454 515.93 44.4154 515.61C44.6854 515.28 44.8204 514.9 44.8204 514.47C44.8204 514.03 44.7154 513.685 44.5054 513.435C44.3054 513.175 44.0404 513.045 43.7104 513.045C43.3904 513.045 43.0954 513.16 42.8254 513.39C42.5654 513.61 42.3904 513.93 42.3004 514.35C42.2204 514.36 42.1204 514.365 42.0004 514.365C41.8804 514.365 41.7354 514.355 41.5654 514.335C41.5554 514.085 41.5504 513.775 41.5504 513.405C41.5504 513.025 41.5754 512.63 41.6254 512.22C42.5254 511.66 43.5054 511.38 44.5654 511.38C45.3254 511.38 45.9704 511.605 46.5004 512.055C47.0304 512.495 47.2954 513.035 47.2954 513.675C47.2954 514.125 47.1404 514.565 46.8304 514.995C46.5204 515.415 46.0754 515.78 45.4954 516.09C46.7754 516.57 47.4154 517.4 47.4154 518.58C47.4154 519.4 47.0854 520.095 46.4254 520.665C45.7754 521.235 44.9704 521.52 44.0104 521.52C43.0504 521.52 42.1154 521.135 41.2054 520.365C41.3654 519.935 41.5654 519.645 41.8054 519.495C42.3554 519.875 42.9804 520.065 43.6804 520.065C44.1204 520.065 44.4754 519.945 44.7454 519.705C45.0154 519.455 45.1504 519.11 45.1504 518.67C45.1504 518.22 44.9804 517.855 44.6404 517.575C44.3004 517.295 43.8204 517.155 43.2004 517.155ZM50.5261 512.955C50.8861 512.955 51.1911 513.085 51.4411 513.345C51.6911 513.595 51.8161 513.9 51.8161 514.26C51.8161 514.61 51.6861 514.915 51.4261 515.175C51.1761 515.425 50.8711 515.55 50.5111 515.55C50.1611 515.55 49.8561 515.425 49.5961 515.175C49.3461 514.915 49.2211 514.61 49.2211 514.26C49.2211 513.9 49.3461 513.595 49.5961 513.345C49.8561 513.085 50.1661 512.955 50.5261 512.955ZM50.5111 519.15C50.8711 519.15 51.1761 519.28 51.4261 519.54C51.6861 519.8 51.8161 520.11 51.8161 520.47C51.8161 520.82 51.6861 521.12 51.4261 521.37C51.1761 521.62 50.8711 521.745 50.5111 521.745C50.1611 521.745 49.8561 521.62 49.5961 521.37C49.3461 521.12 49.2211 520.82 49.2211 520.47C49.2211 520.11 49.3461 519.8 49.5961 519.54C49.8561 519.28 50.1611 519.15 50.5111 519.15ZM58.3244 519.51C58.6944 519.51 58.9744 519.42 59.1644 519.24C59.3544 519.05 59.4994 518.695 59.5994 518.175C59.7594 518.175 59.9294 518.215 60.1094 518.295C60.1094 519.495 59.9694 520.505 59.6894 521.325H53.9594C53.8494 520.685 53.7944 520.17 53.7944 519.78C55.4544 518.03 56.3794 517.01 56.5694 516.72C56.7594 516.43 56.9344 516.145 57.0944 515.865C57.3344 515.425 57.4544 514.97 57.4544 514.5C57.4544 514.03 57.3394 513.67 57.1094 513.42C56.8894 513.17 56.6094 513.045 56.2694 513.045C55.5794 513.045 55.1344 513.48 54.9344 514.35C54.8544 514.36 54.7544 514.365 54.6344 514.365C54.5144 514.365 54.3694 514.355 54.1994 514.335C54.1894 514.085 54.1844 513.775 54.1844 513.405C54.1844 513.025 54.2094 512.63 54.2594 512.22C55.0494 511.66 55.9244 511.38 56.8844 511.38C57.8444 511.38 58.5894 511.645 59.1194 512.175C59.6594 512.695 59.9294 513.35 59.9294 514.14C59.9294 514.52 59.8694 514.835 59.7494 515.085C59.6394 515.325 59.5444 515.515 59.4644 515.655C59.3844 515.795 59.2544 515.965 59.0744 516.165C58.8944 516.365 58.7394 516.535 58.6094 516.675C58.4794 516.815 58.2744 517.01 57.9944 517.26L57.2744 517.905C57.0844 518.075 56.7944 518.33 56.4044 518.67C56.0244 519 55.7044 519.28 55.4444 519.51H58.3244ZM64.0659 519.6C64.1959 520.17 64.5109 520.455 65.0109 520.455C65.5209 520.455 65.8409 520.17 65.9709 519.6C66.0809 519.1 66.1359 518.25 66.1359 517.05C66.1359 515.1 66.0659 513.88 65.9259 513.39C65.7859 512.92 65.6059 512.635 65.3859 512.535C65.2559 512.475 65.0959 512.445 64.9059 512.445C64.4159 512.445 64.1109 512.735 63.9909 513.315C63.8809 513.785 63.8259 514.355 63.8259 515.025C63.8259 517.405 63.9059 518.93 64.0659 519.6ZM67.6659 512.7C68.3459 513.59 68.6859 514.85 68.6859 516.48C68.6859 518.11 68.3459 519.36 67.6659 520.23C66.9859 521.09 66.0859 521.52 64.9659 521.52C63.8559 521.52 62.9659 521.09 62.2959 520.23C61.6259 519.36 61.2909 518.11 61.2909 516.48C61.2909 514.85 61.6259 513.59 62.2959 512.7C62.9659 511.81 63.8559 511.365 64.9659 511.365C66.0859 511.365 66.9859 511.81 67.6659 512.7ZM43.3909 536.155V535.225C43.9309 535.135 44.3359 534.93 44.6059 534.61C44.8759 534.28 45.0109 533.9 45.0109 533.47C45.0109 533.03 44.9059 532.685 44.6959 532.435C44.4959 532.175 44.2309 532.045 43.9009 532.045C43.5809 532.045 43.2859 532.16 43.0159 532.39C42.7559 532.61 42.5809 532.93 42.4909 533.35C42.4109 533.36 42.3109 533.365 42.1909 533.365C42.0709 533.365 41.9259 533.355 41.7559 533.335C41.7459 533.085 41.7409 532.775 41.7409 532.405C41.7409 532.025 41.7659 531.63 41.8159 531.22C42.7159 530.66 43.6959 530.38 44.7559 530.38C45.5159 530.38 46.1609 530.605 46.6909 531.055C47.2209 531.495 47.4859 532.035 47.4859 532.675C47.4859 533.125 47.3309 533.565 47.0209 533.995C46.7109 534.415 46.2659 534.78 45.6859 535.09C46.9659 535.57 47.6059 536.4 47.6059 537.58C47.6059 538.4 47.2759 539.095 46.6159 539.665C45.9659 540.235 45.1609 540.52 44.2009 540.52C43.2409 540.52 42.3059 540.135 41.3959 539.365C41.5559 538.935 41.7559 538.645 41.9959 538.495C42.5459 538.875 43.1709 539.065 43.8709 539.065C44.3109 539.065 44.6659 538.945 44.9359 538.705C45.2059 538.455 45.3409 538.11 45.3409 537.67C45.3409 537.22 45.1709 536.855 44.8309 536.575C44.4909 536.295 44.0109 536.155 43.3909 536.155ZM50.7165 531.955C51.0765 531.955 51.3815 532.085 51.6315 532.345C51.8815 532.595 52.0065 532.9 52.0065 533.26C52.0065 533.61 51.8765 533.915 51.6165 534.175C51.3665 534.425 51.0615 534.55 50.7015 534.55C50.3515 534.55 50.0465 534.425 49.7865 534.175C49.5365 533.915 49.4115 533.61 49.4115 533.26C49.4115 532.9 49.5365 532.595 49.7865 532.345C50.0465 532.085 50.3565 531.955 50.7165 531.955ZM50.7015 538.15C51.0615 538.15 51.3665 538.28 51.6165 538.54C51.8765 538.8 52.0065 539.11 52.0065 539.47C52.0065 539.82 51.8765 540.12 51.6165 540.37C51.3665 540.62 51.0615 540.745 50.7015 540.745C50.3515 540.745 50.0465 540.62 49.7865 540.37C49.5365 540.12 49.4115 539.82 49.4115 539.47C49.4115 539.11 49.5365 538.8 49.7865 538.54C50.0465 538.28 50.3515 538.15 50.7015 538.15ZM55.7249 536.155V535.225C56.2649 535.135 56.6699 534.93 56.9399 534.61C57.2099 534.28 57.3449 533.9 57.3449 533.47C57.3449 533.03 57.2399 532.685 57.0299 532.435C56.8299 532.175 56.5649 532.045 56.2349 532.045C55.9149 532.045 55.6199 532.16 55.3499 532.39C55.0899 532.61 54.9149 532.93 54.8249 533.35C54.7449 533.36 54.6449 533.365 54.5249 533.365C54.4049 533.365 54.2599 533.355 54.0899 533.335C54.0799 533.085 54.0749 532.775 54.0749 532.405C54.0749 532.025 54.0999 531.63 54.1499 531.22C55.0499 530.66 56.0299 530.38 57.0899 530.38C57.8499 530.38 58.4949 530.605 59.0249 531.055C59.5549 531.495 59.8199 532.035 59.8199 532.675C59.8199 533.125 59.6649 533.565 59.3549 533.995C59.0449 534.415 58.5999 534.78 58.0199 535.09C59.2999 535.57 59.9399 536.4 59.9399 537.58C59.9399 538.4 59.6099 539.095 58.9499 539.665C58.2999 540.235 57.4949 540.52 56.5349 540.52C55.5749 540.52 54.6399 540.135 53.7299 539.365C53.8899 538.935 54.0899 538.645 54.3299 538.495C54.8799 538.875 55.5049 539.065 56.2049 539.065C56.6449 539.065 56.9999 538.945 57.2699 538.705C57.5399 538.455 57.6749 538.11 57.6749 537.67C57.6749 537.22 57.5049 536.855 57.1649 536.575C56.8249 536.295 56.3449 536.155 55.7249 536.155ZM63.8755 538.6C64.0055 539.17 64.3205 539.455 64.8205 539.455C65.3305 539.455 65.6505 539.17 65.7805 538.6C65.8905 538.1 65.9455 537.25 65.9455 536.05C65.9455 534.1 65.8755 532.88 65.7355 532.39C65.5955 531.92 65.4155 531.635 65.1955 531.535C65.0655 531.475 64.9055 531.445 64.7155 531.445C64.2255 531.445 63.9205 531.735 63.8005 532.315C63.6905 532.785 63.6355 533.355 63.6355 534.025C63.6355 536.405 63.7155 537.93 63.8755 538.6ZM67.4755 531.7C68.1555 532.59 68.4955 533.85 68.4955 535.48C68.4955 537.11 68.1555 538.36 67.4755 539.23C66.7955 540.09 65.8955 540.52 64.7755 540.52C63.6655 540.52 62.7755 540.09 62.1055 539.23C61.4355 538.36 61.1005 537.11 61.1005 535.48C61.1005 533.85 61.4355 532.59 62.1055 531.7C62.7755 530.81 63.6655 530.365 64.7755 530.365C65.8955 530.365 66.7955 530.81 67.4755 531.7ZM43.0613 555.155V554.225C43.6013 554.135 44.0063 553.93 44.2763 553.61C44.5463 553.28 44.6813 552.9 44.6813 552.47C44.6813 552.03 44.5763 551.685 44.3663 551.435C44.1663 551.175 43.9013 551.045 43.5713 551.045C43.2513 551.045 42.9563 551.16 42.6863 551.39C42.4263 551.61 42.2513 551.93 42.1613 552.35C42.0813 552.36 41.9813 552.365 41.8613 552.365C41.7413 552.365 41.5963 552.355 41.4263 552.335C41.4163 552.085 41.4113 551.775 41.4113 551.405C41.4113 551.025 41.4363 550.63 41.4863 550.22C42.3863 549.66 43.3663 549.38 44.4263 549.38C45.1863 549.38 45.8313 549.605 46.3613 550.055C46.8913 550.495 47.1563 551.035 47.1563 551.675C47.1563 552.125 47.0013 552.565 46.6913 552.995C46.3813 553.415 45.9363 553.78 45.3563 554.09C46.6363 554.57 47.2763 555.4 47.2763 556.58C47.2763 557.4 46.9463 558.095 46.2863 558.665C45.6363 559.235 44.8313 559.52 43.8713 559.52C42.9113 559.52 41.9763 559.135 41.0663 558.365C41.2263 557.935 41.4263 557.645 41.6663 557.495C42.2163 557.875 42.8413 558.065 43.5413 558.065C43.9813 558.065 44.3363 557.945 44.6063 557.705C44.8763 557.455 45.0113 557.11 45.0113 556.67C45.0113 556.22 44.8413 555.855 44.5013 555.575C44.1613 555.295 43.6813 555.155 43.0613 555.155ZM50.3869 550.955C50.7469 550.955 51.0519 551.085 51.3019 551.345C51.5519 551.595 51.6769 551.9 51.6769 552.26C51.6769 552.61 51.5469 552.915 51.2869 553.175C51.0369 553.425 50.7319 553.55 50.3719 553.55C50.0219 553.55 49.7169 553.425 49.4569 553.175C49.2069 552.915 49.0819 552.61 49.0819 552.26C49.0819 551.9 49.2069 551.595 49.4569 551.345C49.7169 551.085 50.0269 550.955 50.3869 550.955ZM50.3719 557.15C50.7319 557.15 51.0369 557.28 51.2869 557.54C51.5469 557.8 51.6769 558.11 51.6769 558.47C51.6769 558.82 51.5469 559.12 51.2869 559.37C51.0369 559.62 50.7319 559.745 50.3719 559.745C50.0219 559.745 49.7169 559.62 49.4569 559.37C49.2069 559.12 49.0819 558.82 49.0819 558.47C49.0819 558.11 49.2069 557.8 49.4569 557.54C49.7169 557.28 50.0219 557.15 50.3719 557.15ZM57.0603 555.8V552.83L54.8253 555.8H57.0603ZM59.0703 557V558.32C59.3003 558.43 59.6053 558.485 59.9853 558.485C59.9853 558.555 59.9853 558.655 59.9853 558.785C59.9853 558.915 59.9653 559.095 59.9253 559.325H56.0403C56.0403 559.245 56.0403 559.13 56.0403 558.98C56.0403 558.82 56.0653 558.655 56.1153 558.485C56.4353 558.435 56.6703 558.35 56.8203 558.23C56.9803 558.11 57.0603 557.895 57.0603 557.585V557H53.7003C53.4703 556.66 53.3203 556.33 53.2503 556.01L57.8853 549.575H59.0703V555.8H60.4053C60.4653 556.08 60.4953 556.32 60.4953 556.52C60.4953 556.71 60.4853 556.87 60.4653 557H59.0703ZM64.2051 557.6C64.3351 558.17 64.6501 558.455 65.1501 558.455C65.6601 558.455 65.9801 558.17 66.1101 557.6C66.2201 557.1 66.2751 556.25 66.2751 555.05C66.2751 553.1 66.2051 551.88 66.0651 551.39C65.9251 550.92 65.7451 550.635 65.5251 550.535C65.3951 550.475 65.2351 550.445 65.0451 550.445C64.5551 550.445 64.2501 550.735 64.1301 551.315C64.0201 551.785 63.9651 552.355 63.9651 553.025C63.9651 555.405 64.0451 556.93 64.2051 557.6ZM67.8051 550.7C68.4851 551.59 68.8251 552.85 68.8251 554.48C68.8251 556.11 68.4851 557.36 67.8051 558.23C67.1251 559.09 66.2251 559.52 65.1051 559.52C63.9951 559.52 63.1051 559.09 62.4351 558.23C61.7651 557.36 61.4301 556.11 61.4301 554.48C61.4301 552.85 61.7651 551.59 62.4351 550.7C63.1051 549.81 63.9951 549.365 65.1051 549.365C66.2251 549.365 67.1251 549.81 67.8051 550.7ZM43.3836 574.155V573.225C43.9236 573.135 44.3286 572.93 44.5986 572.61C44.8686 572.28 45.0036 571.9 45.0036 571.47C45.0036 571.03 44.8986 570.685 44.6886 570.435C44.4886 570.175 44.2236 570.045 43.8936 570.045C43.5736 570.045 43.2786 570.16 43.0086 570.39C42.7486 570.61 42.5736 570.93 42.4836 571.35C42.4036 571.36 42.3036 571.365 42.1836 571.365C42.0636 571.365 41.9186 571.355 41.7486 571.335C41.7386 571.085 41.7336 570.775 41.7336 570.405C41.7336 570.025 41.7586 569.63 41.8086 569.22C42.7086 568.66 43.6886 568.38 44.7486 568.38C45.5086 568.38 46.1536 568.605 46.6836 569.055C47.2136 569.495 47.4786 570.035 47.4786 570.675C47.4786 571.125 47.3236 571.565 47.0136 571.995C46.7036 572.415 46.2586 572.78 45.6786 573.09C46.9586 573.57 47.5986 574.4 47.5986 575.58C47.5986 576.4 47.2686 577.095 46.6086 577.665C45.9586 578.235 45.1536 578.52 44.1936 578.52C43.2336 578.52 42.2986 578.135 41.3886 577.365C41.5486 576.935 41.7486 576.645 41.9886 576.495C42.5386 576.875 43.1636 577.065 43.8636 577.065C44.3036 577.065 44.6586 576.945 44.9286 576.705C45.1986 576.455 45.3336 576.11 45.3336 575.67C45.3336 575.22 45.1636 574.855 44.8236 574.575C44.4836 574.295 44.0036 574.155 43.3836 574.155ZM50.7092 569.955C51.0692 569.955 51.3742 570.085 51.6242 570.345C51.8742 570.595 51.9992 570.9 51.9992 571.26C51.9992 571.61 51.8692 571.915 51.6092 572.175C51.3592 572.425 51.0542 572.55 50.6942 572.55C50.3442 572.55 50.0392 572.425 49.7792 572.175C49.5292 571.915 49.4042 571.61 49.4042 571.26C49.4042 570.9 49.5292 570.595 49.7792 570.345C50.0392 570.085 50.3492 569.955 50.7092 569.955ZM50.6942 576.15C51.0542 576.15 51.3592 576.28 51.6092 576.54C51.8692 576.8 51.9992 577.11 51.9992 577.47C51.9992 577.82 51.8692 578.12 51.6092 578.37C51.3592 578.62 51.0542 578.745 50.6942 578.745C50.3442 578.745 50.0392 578.62 49.7792 578.37C49.5292 578.12 49.4042 577.82 49.4042 577.47C49.4042 577.11 49.5292 576.8 49.7792 576.54C50.0392 576.28 50.3442 576.15 50.6942 576.15ZM55.5825 572.565C56.1625 572.305 56.7775 572.175 57.4275 572.175C58.0775 572.175 58.6525 572.425 59.1525 572.925C59.6525 573.415 59.9025 574.09 59.9025 574.95C59.9025 576 59.5525 576.86 58.8525 577.53C58.1625 578.19 57.3025 578.52 56.2725 578.52C55.2425 578.52 54.3275 578.135 53.5275 577.365C53.7075 576.965 53.9075 576.675 54.1275 576.495C54.6775 576.875 55.3025 577.065 56.0025 577.065C56.4725 577.065 56.8575 576.905 57.1575 576.585C57.4675 576.265 57.6225 575.84 57.6225 575.31C57.6225 574.77 57.4825 574.35 57.2025 574.05C56.9325 573.74 56.5775 573.585 56.1375 573.585C55.7075 573.585 55.1875 573.765 54.5775 574.125L54.2625 573.975L54.7875 568.725H57.9075C58.5475 568.725 58.9725 568.475 59.1825 567.975C59.3425 567.975 59.5125 568.015 59.6925 568.095C59.6825 568.835 59.5425 569.65 59.2725 570.54H55.7925L55.5825 572.565ZM63.8828 576.6C64.0128 577.17 64.3278 577.455 64.8278 577.455C65.3378 577.455 65.6578 577.17 65.7878 576.6C65.8978 576.1 65.9528 575.25 65.9528 574.05C65.9528 572.1 65.8828 570.88 65.7428 570.39C65.6028 569.92 65.4228 569.635 65.2028 569.535C65.0728 569.475 64.9128 569.445 64.7228 569.445C64.2328 569.445 63.9278 569.735 63.8078 570.315C63.6978 570.785 63.6428 571.355 63.6428 572.025C63.6428 574.405 63.7228 575.93 63.8828 576.6ZM67.4828 569.7C68.1628 570.59 68.5028 571.85 68.5028 573.48C68.5028 575.11 68.1628 576.36 67.4828 577.23C66.8028 578.09 65.9028 578.52 64.7828 578.52C63.6728 578.52 62.7828 578.09 62.1128 577.23C61.4428 576.36 61.1078 575.11 61.1078 573.48C61.1078 571.85 61.4428 570.59 62.1128 569.7C62.7828 568.81 63.6728 568.365 64.7828 568.365C65.9028 568.365 66.8028 568.81 67.4828 569.7Z" fill="white"/>
</g>
<path d="M369.884 143.155V142.225C370.424 142.135 370.829 141.93 371.099 141.61C371.369 141.28 371.504 140.9 371.504 140.47C371.504 140.03 371.399 139.685 371.189 139.435C370.989 139.175 370.724 139.045 370.394 139.045C370.074 139.045 369.779 139.16 369.509 139.39C369.249 139.61 369.074 139.93 368.984 140.35C368.904 140.36 368.804 140.365 368.684 140.365C368.564 140.365 368.419 140.355 368.249 140.335C368.239 140.085 368.234 139.775 368.234 139.405C368.234 139.025 368.259 138.63 368.309 138.22C369.209 137.66 370.189 137.38 371.249 137.38C372.009 137.38 372.654 137.605 373.184 138.055C373.714 138.495 373.979 139.035 373.979 139.675C373.979 140.125 373.824 140.565 373.514 140.995C373.204 141.415 372.759 141.78 372.179 142.09C373.459 142.57 374.099 143.4 374.099 144.58C374.099 145.4 373.769 146.095 373.109 146.665C372.459 147.235 371.654 147.52 370.694 147.52C369.734 147.52 368.799 147.135 367.889 146.365C368.049 145.935 368.249 145.645 368.489 145.495C369.039 145.875 369.664 146.065 370.364 146.065C370.804 146.065 371.159 145.945 371.429 145.705C371.699 145.455 371.834 145.11 371.834 144.67C371.834 144.22 371.664 143.855 371.324 143.575C370.984 143.295 370.504 143.155 369.884 143.155ZM377.209 138.955C377.569 138.955 377.874 139.085 378.124 139.345C378.374 139.595 378.499 139.9 378.499 140.26C378.499 140.61 378.369 140.915 378.109 141.175C377.859 141.425 377.554 141.55 377.194 141.55C376.844 141.55 376.539 141.425 376.279 141.175C376.029 140.915 375.904 140.61 375.904 140.26C375.904 139.9 376.029 139.595 376.279 139.345C376.539 139.085 376.849 138.955 377.209 138.955ZM377.194 145.15C377.554 145.15 377.859 145.28 378.109 145.54C378.369 145.8 378.499 146.11 378.499 146.47C378.499 146.82 378.369 147.12 378.109 147.37C377.859 147.62 377.554 147.745 377.194 147.745C376.844 147.745 376.539 147.62 376.279 147.37C376.029 147.12 375.904 146.82 375.904 146.47C375.904 146.11 376.029 145.8 376.279 145.54C376.539 145.28 376.844 145.15 377.194 145.15ZM382.083 141.565C382.663 141.305 383.278 141.175 383.928 141.175C384.578 141.175 385.153 141.425 385.653 141.925C386.153 142.415 386.403 143.09 386.403 143.95C386.403 145 386.053 145.86 385.353 146.53C384.663 147.19 383.803 147.52 382.773 147.52C381.743 147.52 380.828 147.135 380.028 146.365C380.208 145.965 380.408 145.675 380.628 145.495C381.178 145.875 381.803 146.065 382.503 146.065C382.973 146.065 383.358 145.905 383.658 145.585C383.968 145.265 384.123 144.84 384.123 144.31C384.123 143.77 383.983 143.35 383.703 143.05C383.433 142.74 383.078 142.585 382.638 142.585C382.208 142.585 381.688 142.765 381.078 143.125L380.763 142.975L381.288 137.725H384.408C385.048 137.725 385.473 137.475 385.683 136.975C385.843 136.975 386.013 137.015 386.193 137.095C386.183 137.835 386.043 138.65 385.773 139.54H382.293L382.083 141.565ZM390.383 145.6C390.513 146.17 390.828 146.455 391.328 146.455C391.838 146.455 392.158 146.17 392.288 145.6C392.398 145.1 392.453 144.25 392.453 143.05C392.453 141.1 392.383 139.88 392.243 139.39C392.103 138.92 391.923 138.635 391.703 138.535C391.573 138.475 391.413 138.445 391.223 138.445C390.733 138.445 390.428 138.735 390.308 139.315C390.198 139.785 390.143 140.355 390.143 141.025C390.143 143.405 390.223 144.93 390.383 145.6ZM393.983 138.7C394.663 139.59 395.003 140.85 395.003 142.48C395.003 144.11 394.663 145.36 393.983 146.23C393.303 147.09 392.403 147.52 391.283 147.52C390.173 147.52 389.283 147.09 388.613 146.23C387.943 145.36 387.608 144.11 387.608 142.48C387.608 140.85 387.943 139.59 388.613 138.7C389.283 137.81 390.173 137.365 391.283 137.365C392.403 137.365 393.303 137.81 393.983 138.7Z" fill="white"/>
<defs>
<filter id="filter0_dii_1790_1001" x="26.5333" y="14.2667" width="56.9333" height="56.9333" filterUnits="userSpaceOnUse" color-interpolation-filters="sRGB">
<feFlood flood-opacity="0" result="BackgroundImageFix"/>
<feColorMatrix in="SourceAlpha" type="matrix" values="0 0 0 0 0 0 0 0 0 0 0 0 0 0 0 0 0 0 127 0" result="hardAlpha"/>
<feOffset dy="3.73333"/>
<feGaussianBlur stdDeviation="3.73333"/>
<feColorMatrix type="matrix" values="0 0 0 0 0.170196 0 0 0 0 0.170196 0 0 0 0 0.170196 0 0 0 0.8 0"/>
<feBlend mode="normal" in2="BackgroundImageFix" result="effect1_dropShadow_1790_1001"/>
<feBlend mode="normal" in="SourceGraphic" in2="effect1_dropShadow_1790_1001" result="shape"/>
<feColorMatrix in="SourceAlpha" type="matrix" values="0 0 0 0 0 0 0 0 0 0 0 0 0 0 0 0 0 0 127 0" result="hardAlpha"/>
<feOffset dy="2.48889"/>
<feGaussianBlur stdDeviation="1.24444"/>
<feComposite in2="hardAlpha" operator="arithmetic" k2="-1" k3="1"/>
<feColorMatrix type="matrix" values="0 0 0 0 1 0 0 0 0 1 0 0 0 0 1 0 0 0 1 0"/>
<feBlend mode="normal" in2="shape" result="effect2_innerShadow_1790_1001"/>
<feColorMatrix in="SourceAlpha" type="matrix" values="0 0 0 0 0 0 0 0 0 0 0 0 0 0 0 0 0 0 127 0" result="hardAlpha"/>
<feOffset dy="-2.48889"/>
<feGaussianBlur stdDeviation="1.24444"/>
<feComposite in2="hardAlpha" operator="arithmetic" k2="-1" k3="1"/>
<feColorMatrix type="matrix" values="0 0 0 0 0.340392 0 0 0 0 0.340392 0 0 0 0 0.340392 0 0 0 1 0"/>
<feBlend mode="normal" in2="effect2_innerShadow_1790_1001" result="effect3_innerShadow_1790_1001"/>
</filter>
<filter id="filter1_dii_1790_1001" x="134.533" y="14.2667" width="56.9333" height="56.9333" filterUnits="userSpaceOnUse" color-interpolation-filters="sRGB">
<feFlood flood-opacity="0" result="BackgroundImageFix"/>
<feColorMatrix in="SourceAlpha" type="matrix" values="0 0 0 0 0 0 0 0 0 0 0 0 0 0 0 0 0 0 127 0" result="hardAlpha"/>
<feOffset dy="3.73333"/>
<feGaussianBlur stdDeviation="3.73333"/>
<feColorMatrix type="matrix" values="0 0 0 0 0.170196 0 0 0 0 0.170196 0 0 0 0 0.170196 0 0 0 0.8 0"/>
<feBlend mode="normal" in2="BackgroundImageFix" result="effect1_dropShadow_1790_1001"/>
<feBlend mode="normal" in="SourceGraphic" in2="effect1_dropShadow_1790_1001" result="shape"/>
<feColorMatrix in="SourceAlpha" type="matrix" values="0 0 0 0 0 0 0 0 0 0 0 0 0 0 0 0 0 0 127 0" result="hardAlpha"/>
<feOffset dy="2.48889"/>
<feGaussianBlur stdDeviation="1.24444"/>
<feComposite in2="hardAlpha" operator="arithmetic" k2="-1" k3="1"/>
<feColorMatrix type="matrix" values="0 0 0 0 1 0 0 0 0 1 0 0 0 0 1 0 0 0 1 0"/>
<feBlend mode="normal" in2="shape" result="effect2_innerShadow_1790_1001"/>
<feColorMatrix in="SourceAlpha" type="matrix" values="0 0 0 0 0 0 0 0 0 0 0 0 0 0 0 0 0 0 127 0" result="hardAlpha"/>
<feOffset dy="-2.48889"/>
<feGaussianBlur stdDeviation="1.24444"/>
<feComposite in2="hardAlpha" operator="arithmetic" k2="-1" k3="1"/>
<feColorMatrix type="matrix" values="0 0 0 0 0.340392 0 0 0 0 0.340392 0 0 0 0 0.340392 0 0 0 1 0"/>
<feBlend mode="normal" in2="effect2_innerShadow_1790_1001" result="effect3_innerShadow_1790_1001"/>
</filter>
<filter id="filter2_dii_1790_1001" x="242.533" y="14.2667" width="56.9333" height="56.9333" filterUnits="userSpaceOnUse" color-interpolation-filters="sRGB">
<feFlood flood-opacity="0" result="BackgroundImageFix"/>
<feColorMatrix in="SourceAlpha" type="matrix" values="0 0 0 0 0 0 0 0 0 0 0 0 0 0 0 0 0 0 127 0" result="hardAlpha"/>
<feOffset dy="3.73333"/>
<feGaussianBlur stdDeviation="3.73333"/>
<feColorMatrix type="matrix" values="0 0 0 0 0.170196 0 0 0 0 0.170196 0 0 0 0 0.170196 0 0 0 0.8 0"/>
<feBlend mode="normal" in2="BackgroundImageFix" result="effect1_dropShadow_1790_1001"/>
<feBlend mode="normal" in="SourceGraphic" in2="effect1_dropShadow_1790_1001" result="shape"/>
<feColorMatrix in="SourceAlpha" type="matrix" values="0 0 0 0 0 0 0 0 0 0 0 0 0 0 0 0 0 0 127 0" result="hardAlpha"/>
<feOffset dy="2.48889"/>
<feGaussianBlur stdDeviation="1.24444"/>
<feComposite in2="hardAlpha" operator="arithmetic" k2="-1" k3="1"/>
<feColorMatrix type="matrix" values="0 0 0 0 1 0 0 0 0 1 0 0 0 0 1 0 0 0 1 0"/>
<feBlend mode="normal" in2="shape" result="effect2_innerShadow_1790_1001"/>
<feColorMatrix in="SourceAlpha" type="matrix" values="0 0 0 0 0 0 0 0 0 0 0 0 0 0 0 0 0 0 127 0" result="hardAlpha"/>
<feOffset dy="-2.48889"/>
<feGaussianBlur stdDeviation="1.24444"/>
<feComposite in2="hardAlpha" operator="arithmetic" k2="-1" k3="1"/>
<feColorMatrix type="matrix" values="0 0 0 0 0.340392 0 0 0 0 0.340392 0 0 0 0 0.340392 0 0 0 1 0"/>
<feBlend mode="normal" in2="effect2_innerShadow_1790_1001" result="effect3_innerShadow_1790_1001"/>
</filter>
<filter id="filter3_dii_1790_1001" x="350.533" y="14.2667" width="56.9333" height="56.9333" filterUnits="userSpaceOnUse" color-interpolation-filters="sRGB">
<feFlood flood-opacity="0" result="BackgroundImageFix"/>
<feColorMatrix in="SourceAlpha" type="matrix" values="0 0 0 0 0 0 0 0 0 0 0 0 0 0 0 0 0 0 127 0" result="hardAlpha"/>
<feOffset dy="3.73333"/>
<feGaussianBlur stdDeviation="3.73333"/>
<feColorMatrix type="matrix" values="0 0 0 0 0.170196 0 0 0 0 0.170196 0 0 0 0 0.170196 0 0 0 0.8 0"/>
<feBlend mode="normal" in2="BackgroundImageFix" result="effect1_dropShadow_1790_1001"/>
<feBlend mode="normal" in="SourceGraphic" in2="effect1_dropShadow_1790_1001" result="shape"/>
<feColorMatrix in="SourceAlpha" type="matrix" values="0 0 0 0 0 0 0 0 0 0 0 0 0 0 0 0 0 0 127 0" result="hardAlpha"/>
<feOffset dy="2.48889"/>
<feGaussianBlur stdDeviation="1.24444"/>
<feComposite in2="hardAlpha" operator="arithmetic" k2="-1" k3="1"/>
<feColorMatrix type="matrix" values="0 0 0 0 1 0 0 0 0 1 0 0 0 0 1 0 0 0 1 0"/>
<feBlend mode="normal" in2="shape" result="effect2_innerShadow_1790_1001"/>
<feColorMatrix in="SourceAlpha" type="matrix" values="0 0 0 0 0 0 0 0 0 0 0 0 0 0 0 0 0 0 127 0" result="hardAlpha"/>
<feOffset dy="-2.48889"/>
<feGaussianBlur stdDeviation="1.24444"/>
<feComposite in2="hardAlpha" operator="arithmetic" k2="-1" k3="1"/>
<feColorMatrix type="matrix" values="0 0 0 0 0.340392 0 0 0 0 0.340392 0 0 0 0 0.340392 0 0 0 1 0"/>
<feBlend mode="normal" in2="effect2_innerShadow_1790_1001" result="effect3_innerShadow_1790_1001"/>
</filter>
<linearGradient id="paint0_linear_1790_1001" x1="55" y1="18" x2="55" y2="60" gradientUnits="userSpaceOnUse">
<stop stop-color="white"/>
<stop offset="1" stop-color="#717171"/>
</linearGradient>
<linearGradient id="paint1_linear_1790_1001" x1="163" y1="18" x2="163" y2="60" gradientUnits="userSpaceOnUse">
<stop stop-color="white"/>
<stop offset="1" stop-color="#717171"/>
</linearGradient>
<linearGradient id="paint2_linear_1790_1001" x1="271" y1="18" x2="271" y2="60" gradientUnits="userSpaceOnUse">
<stop stop-color="white"/>
<stop offset="1" stop-color="#717171"/>
</linearGradient>
<linearGradient id="paint3_linear_1790_1001" x1="379" y1="18" x2="379" y2="60" gradientUnits="userSpaceOnUse">
<stop stop-color="white"/>
<stop offset="1" stop-color="#717171"/>
</linearGradient>
<clipPath id="clip0_1790_1001">
<rect width="406" height="60" fill="white" transform="translate(13 9)"/>
</clipPath>
</defs>
</svg>
