<svg width="407" height="77" viewBox="0 0 407 77" fill="none" xmlns="http://www.w3.org/2000/svg">
<rect x="21" y="35" width="365" height="8" rx="4" fill="white"/>
<rect x="21" y="26" width="42" height="24" rx="12" fill="#5613AC"/>
<mask id="mask0_1790_1215" style="mask-type:alpha" maskUnits="userSpaceOnUse" x="21" y="26" width="42" height="24">
<rect x="21" y="26" width="42" height="24" rx="12" fill="#5613AC"/>
</mask>
<g mask="url(#mask0_1790_1215)">
<path d="M29.9429 40.6C30.0729 41.17 30.3879 41.455 30.8879 41.455C31.3979 41.455 31.7179 41.17 31.8479 40.6C31.9579 40.1 32.0129 39.25 32.0129 38.05C32.0129 36.1 31.9429 34.88 31.8029 34.39C31.6629 33.92 31.4829 33.635 31.2629 33.535C31.1329 33.475 30.9729 33.445 30.7829 33.445C30.2929 33.445 29.9879 33.735 29.8679 34.315C29.7579 34.785 29.7029 35.355 29.7029 36.025C29.7029 38.405 29.7829 39.93 29.9429 40.6ZM33.5429 33.7C34.2229 34.59 34.5629 35.85 34.5629 37.48C34.5629 39.11 34.2229 40.36 33.5429 41.23C32.8629 42.09 31.9629 42.52 30.8429 42.52C29.7329 42.52 28.8429 42.09 28.1729 41.23C27.5029 40.36 27.1679 39.11 27.1679 37.48C27.1679 35.85 27.5029 34.59 28.1729 33.7C28.8429 32.81 29.7329 32.365 30.8429 32.365C31.9629 32.365 32.8629 32.81 33.5429 33.7ZM37.7165 33.955C38.0765 33.955 38.3815 34.085 38.6315 34.345C38.8815 34.595 39.0065 34.9 39.0065 35.26C39.0065 35.61 38.8765 35.915 38.6165 36.175C38.3665 36.425 38.0615 36.55 37.7015 36.55C37.3515 36.55 37.0465 36.425 36.7865 36.175C36.5365 35.915 36.4115 35.61 36.4115 35.26C36.4115 34.9 36.5365 34.595 36.7865 34.345C37.0465 34.085 37.3565 33.955 37.7165 33.955ZM37.7015 40.15C38.0615 40.15 38.3665 40.28 38.6165 40.54C38.8765 40.8 39.0065 41.11 39.0065 41.47C39.0065 41.82 38.8765 42.12 38.6165 42.37C38.3665 42.62 38.0615 42.745 37.7015 42.745C37.3515 42.745 37.0465 42.62 36.7865 42.37C36.5365 42.12 36.4115 41.82 36.4115 41.47C36.4115 41.11 36.5365 40.8 36.7865 40.54C37.0465 40.28 37.3515 40.15 37.7015 40.15ZM43.6099 40.6C43.7399 41.17 44.0549 41.455 44.5549 41.455C45.0649 41.455 45.3849 41.17 45.5149 40.6C45.6249 40.1 45.6799 39.25 45.6799 38.05C45.6799 36.1 45.6099 34.88 45.4699 34.39C45.3299 33.92 45.1499 33.635 44.9299 33.535C44.7999 33.475 44.6399 33.445 44.4499 33.445C43.9599 33.445 43.6549 33.735 43.5349 34.315C43.4249 34.785 43.3699 35.355 43.3699 36.025C43.3699 38.405 43.4499 39.93 43.6099 40.6ZM47.2099 33.7C47.8899 34.59 48.2299 35.85 48.2299 37.48C48.2299 39.11 47.8899 40.36 47.2099 41.23C46.5299 42.09 45.6299 42.52 44.5099 42.52C43.3999 42.52 42.5099 42.09 41.8399 41.23C41.1699 40.36 40.8349 39.11 40.8349 37.48C40.8349 35.85 41.1699 34.59 41.8399 33.7C42.5099 32.81 43.3999 32.365 44.5099 32.365C45.6299 32.365 46.5299 32.81 47.2099 33.7ZM52.2085 40.6C52.3385 41.17 52.6535 41.455 53.1535 41.455C53.6635 41.455 53.9835 41.17 54.1135 40.6C54.2235 40.1 54.2785 39.25 54.2785 38.05C54.2785 36.1 54.2085 34.88 54.0685 34.39C53.9285 33.92 53.7485 33.635 53.5285 33.535C53.3985 33.475 53.2385 33.445 53.0485 33.445C52.5585 33.445 52.2535 33.735 52.1335 34.315C52.0235 34.785 51.9685 35.355 51.9685 36.025C51.9685 38.405 52.0485 39.93 52.2085 40.6ZM55.8085 33.7C56.4885 34.59 56.8285 35.85 56.8285 37.48C56.8285 39.11 56.4885 40.36 55.8085 41.23C55.1285 42.09 54.2285 42.52 53.1085 42.52C51.9985 42.52 51.1085 42.09 50.4385 41.23C49.7685 40.36 49.4335 39.11 49.4335 37.48C49.4335 35.85 49.7685 34.59 50.4385 33.7C51.1085 32.81 51.9985 32.365 53.1085 32.365C54.2285 32.365 55.1285 32.81 55.8085 33.7ZM31.481 59.6C31.611 60.17 31.926 60.455 32.426 60.455C32.936 60.455 33.256 60.17 33.386 59.6C33.496 59.1 33.551 58.25 33.551 57.05C33.551 55.1 33.481 53.88 33.341 53.39C33.201 52.92 33.021 52.635 32.801 52.535C32.671 52.475 32.511 52.445 32.321 52.445C31.831 52.445 31.526 52.735 31.406 53.315C31.296 53.785 31.241 54.355 31.241 55.025C31.241 57.405 31.321 58.93 31.481 59.6ZM35.081 52.7C35.761 53.59 36.101 54.85 36.101 56.48C36.101 58.11 35.761 59.36 35.081 60.23C34.401 61.09 33.501 61.52 32.381 61.52C31.271 61.52 30.381 61.09 29.711 60.23C29.041 59.36 28.706 58.11 28.706 56.48C28.706 54.85 29.041 53.59 29.711 52.7C30.381 51.81 31.271 51.365 32.381 51.365C33.501 51.365 34.401 51.81 35.081 52.7ZM39.2546 52.955C39.6146 52.955 39.9196 53.085 40.1696 53.345C40.4196 53.595 40.5446 53.9 40.5446 54.26C40.5446 54.61 40.4146 54.915 40.1546 55.175C39.9046 55.425 39.5996 55.55 39.2396 55.55C38.8896 55.55 38.5846 55.425 38.3246 55.175C38.0746 54.915 37.9496 54.61 37.9496 54.26C37.9496 53.9 38.0746 53.595 38.3246 53.345C38.5846 53.085 38.8946 52.955 39.2546 52.955ZM39.2396 59.15C39.5996 59.15 39.9046 59.28 40.1546 59.54C40.4146 59.8 40.5446 60.11 40.5446 60.47C40.5446 60.82 40.4146 61.12 40.1546 61.37C39.9046 61.62 39.5996 61.745 39.2396 61.745C38.8896 61.745 38.5846 61.62 38.3246 61.37C38.0746 61.12 37.9496 60.82 37.9496 60.47C37.9496 60.11 38.0746 59.8 38.3246 59.54C38.5846 59.28 38.8896 59.15 39.2396 59.15ZM47.1129 60.47C47.1229 60.53 47.1279 60.63 47.1279 60.77C47.1279 60.91 47.1029 61.095 47.0529 61.325H41.9229C41.9229 61.255 41.9229 61.14 41.9229 60.98C41.9229 60.82 41.9529 60.65 42.0129 60.47C42.4929 60.42 42.8579 60.335 43.1079 60.215C43.3579 60.085 43.4829 59.875 43.4829 59.585V53.525L42.0129 53.765C42.0029 53.695 41.9979 53.595 41.9979 53.465C41.9979 53.335 42.0229 53.22 42.0729 53.12C43.2829 52.36 44.3679 51.745 45.3279 51.275L45.8079 51.47V60.17C46.1379 60.32 46.5729 60.42 47.1129 60.47ZM50.6704 59.6C50.8004 60.17 51.1154 60.455 51.6154 60.455C52.1254 60.455 52.4454 60.17 52.5754 59.6C52.6854 59.1 52.7404 58.25 52.7404 57.05C52.7404 55.1 52.6704 53.88 52.5304 53.39C52.3904 52.92 52.2104 52.635 51.9904 52.535C51.8604 52.475 51.7004 52.445 51.5104 52.445C51.0204 52.445 50.7154 52.735 50.5954 53.315C50.4854 53.785 50.4304 54.355 50.4304 55.025C50.4304 57.405 50.5104 58.93 50.6704 59.6ZM54.2704 52.7C54.9504 53.59 55.2904 54.85 55.2904 56.48C55.2904 58.11 54.9504 59.36 54.2704 60.23C53.5904 61.09 52.6904 61.52 51.5704 61.52C50.4604 61.52 49.5704 61.09 48.9004 60.23C48.2304 59.36 47.8954 58.11 47.8954 56.48C47.8954 54.85 48.2304 53.59 48.9004 52.7C49.5704 51.81 50.4604 51.365 51.5704 51.365C52.6904 51.365 53.5904 51.81 54.2704 52.7ZM30.4189 78.6C30.5489 79.17 30.8639 79.455 31.3639 79.455C31.8739 79.455 32.1939 79.17 32.3239 78.6C32.4339 78.1 32.4889 77.25 32.4889 76.05C32.4889 74.1 32.4189 72.88 32.2789 72.39C32.1389 71.92 31.9589 71.635 31.7389 71.535C31.6089 71.475 31.4489 71.445 31.2589 71.445C30.7689 71.445 30.4639 71.735 30.3439 72.315C30.2339 72.785 30.1789 73.355 30.1789 74.025C30.1789 76.405 30.2589 77.93 30.4189 78.6ZM34.0189 71.7C34.6989 72.59 35.0389 73.85 35.0389 75.48C35.0389 77.11 34.6989 78.36 34.0189 79.23C33.3389 80.09 32.4389 80.52 31.3189 80.52C30.2089 80.52 29.3189 80.09 28.6489 79.23C27.9789 78.36 27.6439 77.11 27.6439 75.48C27.6439 73.85 27.9789 72.59 28.6489 71.7C29.3189 70.81 30.2089 70.365 31.3189 70.365C32.4389 70.365 33.3389 70.81 34.0189 71.7ZM38.1926 71.955C38.5526 71.955 38.8576 72.085 39.1076 72.345C39.3576 72.595 39.4826 72.9 39.4826 73.26C39.4826 73.61 39.3526 73.915 39.0926 74.175C38.8426 74.425 38.5376 74.55 38.1776 74.55C37.8276 74.55 37.5226 74.425 37.2626 74.175C37.0126 73.915 36.8876 73.61 36.8876 73.26C36.8876 72.9 37.0126 72.595 37.2626 72.345C37.5226 72.085 37.8326 71.955 38.1926 71.955ZM38.1776 78.15C38.5376 78.15 38.8426 78.28 39.0926 78.54C39.3526 78.8 39.4826 79.11 39.4826 79.47C39.4826 79.82 39.3526 80.12 39.0926 80.37C38.8426 80.62 38.5376 80.745 38.1776 80.745C37.8276 80.745 37.5226 80.62 37.2626 80.37C37.0126 80.12 36.8876 79.82 36.8876 79.47C36.8876 79.11 37.0126 78.8 37.2626 78.54C37.5226 78.28 37.8276 78.15 38.1776 78.15ZM45.9909 78.51C46.3609 78.51 46.6409 78.42 46.8309 78.24C47.0209 78.05 47.1659 77.695 47.2659 77.175C47.4259 77.175 47.5959 77.215 47.7759 77.295C47.7759 78.495 47.6359 79.505 47.3559 80.325H41.6259C41.5159 79.685 41.4609 79.17 41.4609 78.78C43.1209 77.03 44.0459 76.01 44.2359 75.72C44.4259 75.43 44.6009 75.145 44.7609 74.865C45.0009 74.425 45.1209 73.97 45.1209 73.5C45.1209 73.03 45.0059 72.67 44.7759 72.42C44.5559 72.17 44.2759 72.045 43.9359 72.045C43.2459 72.045 42.8009 72.48 42.6009 73.35C42.5209 73.36 42.4209 73.365 42.3009 73.365C42.1809 73.365 42.0359 73.355 41.8659 73.335C41.8559 73.085 41.8509 72.775 41.8509 72.405C41.8509 72.025 41.8759 71.63 41.9259 71.22C42.7159 70.66 43.5909 70.38 44.5509 70.38C45.5109 70.38 46.2559 70.645 46.7859 71.175C47.3259 71.695 47.5959 72.35 47.5959 73.14C47.5959 73.52 47.5359 73.835 47.4159 74.085C47.3059 74.325 47.2109 74.515 47.1309 74.655C47.0509 74.795 46.9209 74.965 46.7409 75.165C46.5609 75.365 46.4059 75.535 46.2759 75.675C46.1459 75.815 45.9409 76.01 45.6609 76.26L44.9409 76.905C44.7509 77.075 44.4609 77.33 44.0709 77.67C43.6909 78 43.3709 78.28 43.1109 78.51H45.9909ZM51.7324 78.6C51.8624 79.17 52.1774 79.455 52.6774 79.455C53.1874 79.455 53.5074 79.17 53.6374 78.6C53.7474 78.1 53.8024 77.25 53.8024 76.05C53.8024 74.1 53.7324 72.88 53.5924 72.39C53.4524 71.92 53.2724 71.635 53.0524 71.535C52.9224 71.475 52.7624 71.445 52.5724 71.445C52.0824 71.445 51.7774 71.735 51.6574 72.315C51.5474 72.785 51.4924 73.355 51.4924 74.025C51.4924 76.405 51.5724 77.93 51.7324 78.6ZM55.3324 71.7C56.0124 72.59 56.3524 73.85 56.3524 75.48C56.3524 77.11 56.0124 78.36 55.3324 79.23C54.6524 80.09 53.7524 80.52 52.6324 80.52C51.5224 80.52 50.6324 80.09 49.9624 79.23C49.2924 78.36 48.9574 77.11 48.9574 75.48C48.9574 73.85 49.2924 72.59 49.9624 71.7C50.6324 70.81 51.5224 70.365 52.6324 70.365C53.7524 70.365 54.6524 70.81 55.3324 71.7ZM30.6094 97.6C30.7394 98.17 31.0544 98.455 31.5544 98.455C32.0644 98.455 32.3844 98.17 32.5144 97.6C32.6244 97.1 32.6794 96.25 32.6794 95.05C32.6794 93.1 32.6094 91.88 32.4694 91.39C32.3294 90.92 32.1494 90.635 31.9294 90.535C31.7994 90.475 31.6394 90.445 31.4494 90.445C30.9594 90.445 30.6544 90.735 30.5344 91.315C30.4244 91.785 30.3694 92.355 30.3694 93.025C30.3694 95.405 30.4494 96.93 30.6094 97.6ZM34.2094 90.7C34.8894 91.59 35.2294 92.85 35.2294 94.48C35.2294 96.11 34.8894 97.36 34.2094 98.23C33.5294 99.09 32.6294 99.52 31.5094 99.52C30.3994 99.52 29.5094 99.09 28.8394 98.23C28.1694 97.36 27.8344 96.11 27.8344 94.48C27.8344 92.85 28.1694 91.59 28.8394 90.7C29.5094 89.81 30.3994 89.365 31.5094 89.365C32.6294 89.365 33.5294 89.81 34.2094 90.7ZM38.383 90.955C38.743 90.955 39.048 91.085 39.298 91.345C39.548 91.595 39.673 91.9 39.673 92.26C39.673 92.61 39.543 92.915 39.283 93.175C39.033 93.425 38.728 93.55 38.368 93.55C38.018 93.55 37.713 93.425 37.453 93.175C37.203 92.915 37.078 92.61 37.078 92.26C37.078 91.9 37.203 91.595 37.453 91.345C37.713 91.085 38.023 90.955 38.383 90.955ZM38.368 97.15C38.728 97.15 39.033 97.28 39.283 97.54C39.543 97.8 39.673 98.11 39.673 98.47C39.673 98.82 39.543 99.12 39.283 99.37C39.033 99.62 38.728 99.745 38.368 99.745C38.018 99.745 37.713 99.62 37.453 99.37C37.203 99.12 37.078 98.82 37.078 98.47C37.078 98.11 37.203 97.8 37.453 97.54C37.713 97.28 38.018 97.15 38.368 97.15ZM43.3914 95.155V94.225C43.9314 94.135 44.3364 93.93 44.6064 93.61C44.8764 93.28 45.0114 92.9 45.0114 92.47C45.0114 92.03 44.9064 91.685 44.6964 91.435C44.4964 91.175 44.2314 91.045 43.9014 91.045C43.5814 91.045 43.2864 91.16 43.0164 91.39C42.7564 91.61 42.5814 91.93 42.4914 92.35C42.4114 92.36 42.3114 92.365 42.1914 92.365C42.0714 92.365 41.9264 92.355 41.7564 92.335C41.7464 92.085 41.7414 91.775 41.7414 91.405C41.7414 91.025 41.7664 90.63 41.8164 90.22C42.7164 89.66 43.6964 89.38 44.7564 89.38C45.5164 89.38 46.1614 89.605 46.6914 90.055C47.2214 90.495 47.4864 91.035 47.4864 91.675C47.4864 92.125 47.3314 92.565 47.0214 92.995C46.7114 93.415 46.2664 93.78 45.6864 94.09C46.9664 94.57 47.6064 95.4 47.6064 96.58C47.6064 97.4 47.2764 98.095 46.6164 98.665C45.9664 99.235 45.1614 99.52 44.2014 99.52C43.2414 99.52 42.3064 99.135 41.3964 98.365C41.5564 97.935 41.7564 97.645 41.9964 97.495C42.5464 97.875 43.1714 98.065 43.8714 98.065C44.3114 98.065 44.6664 97.945 44.9364 97.705C45.2064 97.455 45.3414 97.11 45.3414 96.67C45.3414 96.22 45.1714 95.855 44.8314 95.575C44.4914 95.295 44.0114 95.155 43.3914 95.155ZM51.542 97.6C51.672 98.17 51.987 98.455 52.487 98.455C52.997 98.455 53.317 98.17 53.447 97.6C53.557 97.1 53.612 96.25 53.612 95.05C53.612 93.1 53.542 91.88 53.402 91.39C53.262 90.92 53.082 90.635 52.862 90.535C52.732 90.475 52.572 90.445 52.382 90.445C51.892 90.445 51.587 90.735 51.467 91.315C51.357 91.785 51.302 92.355 51.302 93.025C51.302 95.405 51.382 96.93 51.542 97.6ZM55.142 90.7C55.822 91.59 56.162 92.85 56.162 94.48C56.162 96.11 55.822 97.36 55.142 98.23C54.462 99.09 53.562 99.52 52.442 99.52C51.332 99.52 50.442 99.09 49.772 98.23C49.102 97.36 48.767 96.11 48.767 94.48C48.767 92.85 49.102 91.59 49.772 90.7C50.442 89.81 51.332 89.365 52.442 89.365C53.562 89.365 54.462 89.81 55.142 90.7ZM30.2798 116.6C30.4098 117.17 30.7248 117.455 31.2248 117.455C31.7348 117.455 32.0548 117.17 32.1848 116.6C32.2948 116.1 32.3498 115.25 32.3498 114.05C32.3498 112.1 32.2798 110.88 32.1398 110.39C31.9998 109.92 31.8198 109.635 31.5998 109.535C31.4698 109.475 31.3098 109.445 31.1198 109.445C30.6298 109.445 30.3248 109.735 30.2048 110.315C30.0948 110.785 30.0398 111.355 30.0398 112.025C30.0398 114.405 30.1198 115.93 30.2798 116.6ZM33.8798 109.7C34.5598 110.59 34.8998 111.85 34.8998 113.48C34.8998 115.11 34.5598 116.36 33.8798 117.23C33.1998 118.09 32.2998 118.52 31.1798 118.52C30.0698 118.52 29.1798 118.09 28.5098 117.23C27.8398 116.36 27.5048 115.11 27.5048 113.48C27.5048 111.85 27.8398 110.59 28.5098 109.7C29.1798 108.81 30.0698 108.365 31.1798 108.365C32.2998 108.365 33.1998 108.81 33.8798 109.7ZM38.0534 109.955C38.4134 109.955 38.7184 110.085 38.9684 110.345C39.2184 110.595 39.3434 110.9 39.3434 111.26C39.3434 111.61 39.2134 111.915 38.9534 112.175C38.7034 112.425 38.3984 112.55 38.0384 112.55C37.6884 112.55 37.3834 112.425 37.1234 112.175C36.8734 111.915 36.7484 111.61 36.7484 111.26C36.7484 110.9 36.8734 110.595 37.1234 110.345C37.3834 110.085 37.6934 109.955 38.0534 109.955ZM38.0384 116.15C38.3984 116.15 38.7034 116.28 38.9534 116.54C39.2134 116.8 39.3434 117.11 39.3434 117.47C39.3434 117.82 39.2134 118.12 38.9534 118.37C38.7034 118.62 38.3984 118.745 38.0384 118.745C37.6884 118.745 37.3834 118.62 37.1234 118.37C36.8734 118.12 36.7484 117.82 36.7484 117.47C36.7484 117.11 36.8734 116.8 37.1234 116.54C37.3834 116.28 37.6884 116.15 38.0384 116.15ZM44.7268 114.8V111.83L42.4918 114.8H44.7268ZM46.7368 116V117.32C46.9668 117.43 47.2718 117.485 47.6518 117.485C47.6518 117.555 47.6518 117.655 47.6518 117.785C47.6518 117.915 47.6318 118.095 47.5918 118.325H43.7068C43.7068 118.245 43.7068 118.13 43.7068 117.98C43.7068 117.82 43.7318 117.655 43.7818 117.485C44.1018 117.435 44.3368 117.35 44.4868 117.23C44.6468 117.11 44.7268 116.895 44.7268 116.585V116H41.3668C41.1368 115.66 40.9868 115.33 40.9168 115.01L45.5518 108.575H46.7368V114.8H48.0718C48.1318 115.08 48.1618 115.32 48.1618 115.52C48.1618 115.71 48.1518 115.87 48.1318 116H46.7368ZM51.8716 116.6C52.0016 117.17 52.3166 117.455 52.8166 117.455C53.3266 117.455 53.6466 117.17 53.7766 116.6C53.8866 116.1 53.9416 115.25 53.9416 114.05C53.9416 112.1 53.8716 110.88 53.7316 110.39C53.5916 109.92 53.4116 109.635 53.1916 109.535C53.0616 109.475 52.9016 109.445 52.7116 109.445C52.2216 109.445 51.9166 109.735 51.7966 110.315C51.6866 110.785 51.6316 111.355 51.6316 112.025C51.6316 114.405 51.7116 115.93 51.8716 116.6ZM55.4716 109.7C56.1516 110.59 56.4916 111.85 56.4916 113.48C56.4916 115.11 56.1516 116.36 55.4716 117.23C54.7916 118.09 53.8916 118.52 52.7716 118.52C51.6616 118.52 50.7716 118.09 50.1016 117.23C49.4316 116.36 49.0966 115.11 49.0966 113.48C49.0966 111.85 49.4316 110.59 50.1016 109.7C50.7716 108.81 51.6616 108.365 52.7716 108.365C53.8916 108.365 54.7916 108.81 55.4716 109.7ZM30.6021 135.6C30.7321 136.17 31.0471 136.455 31.5471 136.455C32.0571 136.455 32.3771 136.17 32.5071 135.6C32.6171 135.1 32.6721 134.25 32.6721 133.05C32.6721 131.1 32.6021 129.88 32.4621 129.39C32.3221 128.92 32.1421 128.635 31.9221 128.535C31.7921 128.475 31.6321 128.445 31.4421 128.445C30.9521 128.445 30.6471 128.735 30.5271 129.315C30.4171 129.785 30.3621 130.355 30.3621 131.025C30.3621 133.405 30.4421 134.93 30.6021 135.6ZM34.2021 128.7C34.8821 129.59 35.2221 130.85 35.2221 132.48C35.2221 134.11 34.8821 135.36 34.2021 136.23C33.5221 137.09 32.6221 137.52 31.5021 137.52C30.3921 137.52 29.5021 137.09 28.8321 136.23C28.1621 135.36 27.8271 134.11 27.8271 132.48C27.8271 130.85 28.1621 129.59 28.8321 128.7C29.5021 127.81 30.3921 127.365 31.5021 127.365C32.6221 127.365 33.5221 127.81 34.2021 128.7ZM38.3757 128.955C38.7357 128.955 39.0407 129.085 39.2907 129.345C39.5407 129.595 39.6657 129.9 39.6657 130.26C39.6657 130.61 39.5357 130.915 39.2757 131.175C39.0257 131.425 38.7207 131.55 38.3607 131.55C38.0107 131.55 37.7057 131.425 37.4457 131.175C37.1957 130.915 37.0707 130.61 37.0707 130.26C37.0707 129.9 37.1957 129.595 37.4457 129.345C37.7057 129.085 38.0157 128.955 38.3757 128.955ZM38.3607 135.15C38.7207 135.15 39.0257 135.28 39.2757 135.54C39.5357 135.8 39.6657 136.11 39.6657 136.47C39.6657 136.82 39.5357 137.12 39.2757 137.37C39.0257 137.62 38.7207 137.745 38.3607 137.745C38.0107 137.745 37.7057 137.62 37.4457 137.37C37.1957 137.12 37.0707 136.82 37.0707 136.47C37.0707 136.11 37.1957 135.8 37.4457 135.54C37.7057 135.28 38.0107 135.15 38.3607 135.15ZM43.249 131.565C43.829 131.305 44.444 131.175 45.094 131.175C45.744 131.175 46.319 131.425 46.819 131.925C47.319 132.415 47.569 133.09 47.569 133.95C47.569 135 47.219 135.86 46.519 136.53C45.829 137.19 44.969 137.52 43.939 137.52C42.909 137.52 41.994 137.135 41.194 136.365C41.374 135.965 41.574 135.675 41.794 135.495C42.344 135.875 42.969 136.065 43.669 136.065C44.139 136.065 44.524 135.905 44.824 135.585C45.134 135.265 45.289 134.84 45.289 134.31C45.289 133.77 45.149 133.35 44.869 133.05C44.599 132.74 44.244 132.585 43.804 132.585C43.374 132.585 42.854 132.765 42.244 133.125L41.929 132.975L42.454 127.725H45.574C46.214 127.725 46.639 127.475 46.849 126.975C47.009 126.975 47.179 127.015 47.359 127.095C47.349 127.835 47.209 128.65 46.939 129.54H43.459L43.249 131.565ZM51.5493 135.6C51.6793 136.17 51.9943 136.455 52.4943 136.455C53.0043 136.455 53.3243 136.17 53.4543 135.6C53.5643 135.1 53.6193 134.25 53.6193 133.05C53.6193 131.1 53.5493 129.88 53.4093 129.39C53.2693 128.92 53.0893 128.635 52.8693 128.535C52.7393 128.475 52.5793 128.445 52.3893 128.445C51.8993 128.445 51.5943 128.735 51.4743 129.315C51.3643 129.785 51.3093 130.355 51.3093 131.025C51.3093 133.405 51.3893 134.93 51.5493 135.6ZM55.1493 128.7C55.8293 129.59 56.1693 130.85 56.1693 132.48C56.1693 134.11 55.8293 135.36 55.1493 136.23C54.4693 137.09 53.5693 137.52 52.4493 137.52C51.3393 137.52 50.4493 137.09 49.7793 136.23C49.1093 135.36 48.7743 134.11 48.7743 132.48C48.7743 130.85 49.1093 129.59 49.7793 128.7C50.4493 127.81 51.3393 127.365 52.4493 127.365C53.5693 127.365 54.4693 127.81 55.1493 128.7ZM33.446 155.47C33.456 155.53 33.461 155.63 33.461 155.77C33.461 155.91 33.436 156.095 33.386 156.325H28.256C28.256 156.255 28.256 156.14 28.256 155.98C28.256 155.82 28.286 155.65 28.346 155.47C28.826 155.42 29.191 155.335 29.441 155.215C29.691 155.085 29.816 154.875 29.816 154.585V148.525L28.346 148.765C28.336 148.695 28.331 148.595 28.331 148.465C28.331 148.335 28.356 148.22 28.406 148.12C29.616 147.36 30.701 146.745 31.661 146.275L32.141 146.47V155.17C32.471 155.32 32.906 155.42 33.446 155.47ZM36.1784 147.955C36.5384 147.955 36.8434 148.085 37.0934 148.345C37.3434 148.595 37.4684 148.9 37.4684 149.26C37.4684 149.61 37.3384 149.915 37.0784 150.175C36.8284 150.425 36.5234 150.55 36.1634 150.55C35.8134 150.55 35.5084 150.425 35.2484 150.175C34.9984 149.915 34.8734 149.61 34.8734 149.26C34.8734 148.9 34.9984 148.595 35.2484 148.345C35.5084 148.085 35.8184 147.955 36.1784 147.955ZM36.1634 154.15C36.5234 154.15 36.8284 154.28 37.0784 154.54C37.3384 154.8 37.4684 155.11 37.4684 155.47C37.4684 155.82 37.3384 156.12 37.0784 156.37C36.8284 156.62 36.5234 156.745 36.1634 156.745C35.8134 156.745 35.5084 156.62 35.2484 156.37C34.9984 156.12 34.8734 155.82 34.8734 155.47C34.8734 155.11 34.9984 154.8 35.2484 154.54C35.5084 154.28 35.8134 154.15 36.1634 154.15ZM42.0718 154.6C42.2018 155.17 42.5168 155.455 43.0168 155.455C43.5268 155.455 43.8468 155.17 43.9768 154.6C44.0868 154.1 44.1418 153.25 44.1418 152.05C44.1418 150.1 44.0718 148.88 43.9318 148.39C43.7918 147.92 43.6118 147.635 43.3918 147.535C43.2618 147.475 43.1018 147.445 42.9118 147.445C42.4218 147.445 42.1168 147.735 41.9968 148.315C41.8868 148.785 41.8318 149.355 41.8318 150.025C41.8318 152.405 41.9118 153.93 42.0718 154.6ZM45.6718 147.7C46.3518 148.59 46.6918 149.85 46.6918 151.48C46.6918 153.11 46.3518 154.36 45.6718 155.23C44.9918 156.09 44.0918 156.52 42.9718 156.52C41.8618 156.52 40.9718 156.09 40.3018 155.23C39.6318 154.36 39.2968 153.11 39.2968 151.48C39.2968 149.85 39.6318 148.59 40.3018 147.7C40.9718 146.81 41.8618 146.365 42.9718 146.365C44.0918 146.365 44.9918 146.81 45.6718 147.7ZM50.6704 154.6C50.8004 155.17 51.1154 155.455 51.6154 155.455C52.1254 155.455 52.4454 155.17 52.5754 154.6C52.6854 154.1 52.7404 153.25 52.7404 152.05C52.7404 150.1 52.6704 148.88 52.5304 148.39C52.3904 147.92 52.2104 147.635 51.9904 147.535C51.8604 147.475 51.7004 147.445 51.5104 147.445C51.0204 147.445 50.7154 147.735 50.5954 148.315C50.4854 148.785 50.4304 149.355 50.4304 150.025C50.4304 152.405 50.5104 153.93 50.6704 154.6ZM54.2704 147.7C54.9504 148.59 55.2904 149.85 55.2904 151.48C55.2904 153.11 54.9504 154.36 54.2704 155.23C53.5904 156.09 52.6904 156.52 51.5704 156.52C50.4604 156.52 49.5704 156.09 48.9004 155.23C48.2304 154.36 47.8954 153.11 47.8954 151.48C47.8954 149.85 48.2304 148.59 48.9004 147.7C49.5704 146.81 50.4604 146.365 51.5704 146.365C52.6904 146.365 53.5904 146.81 54.2704 147.7ZM34.984 174.47C34.994 174.53 34.999 174.63 34.999 174.77C34.999 174.91 34.974 175.095 34.924 175.325H29.794C29.794 175.255 29.794 175.14 29.794 174.98C29.794 174.82 29.824 174.65 29.884 174.47C30.364 174.42 30.729 174.335 30.979 174.215C31.229 174.085 31.354 173.875 31.354 173.585V167.525L29.884 167.765C29.874 167.695 29.869 167.595 29.869 167.465C29.869 167.335 29.894 167.22 29.944 167.12C31.154 166.36 32.239 165.745 33.199 165.275L33.679 165.47V174.17C34.009 174.32 34.444 174.42 34.984 174.47ZM37.7165 166.955C38.0765 166.955 38.3815 167.085 38.6315 167.345C38.8815 167.595 39.0065 167.9 39.0065 168.26C39.0065 168.61 38.8765 168.915 38.6165 169.175C38.3665 169.425 38.0615 169.55 37.7015 169.55C37.3515 169.55 37.0465 169.425 36.7865 169.175C36.5365 168.915 36.4115 168.61 36.4115 168.26C36.4115 167.9 36.5365 167.595 36.7865 167.345C37.0465 167.085 37.3565 166.955 37.7165 166.955ZM37.7015 173.15C38.0615 173.15 38.3665 173.28 38.6165 173.54C38.8765 173.8 39.0065 174.11 39.0065 174.47C39.0065 174.82 38.8765 175.12 38.6165 175.37C38.3665 175.62 38.0615 175.745 37.7015 175.745C37.3515 175.745 37.0465 175.62 36.7865 175.37C36.5365 175.12 36.4115 174.82 36.4115 174.47C36.4115 174.11 36.5365 173.8 36.7865 173.54C37.0465 173.28 37.3515 173.15 37.7015 173.15ZM45.5749 174.47C45.5849 174.53 45.5899 174.63 45.5899 174.77C45.5899 174.91 45.5649 175.095 45.5149 175.325H40.3849C40.3849 175.255 40.3849 175.14 40.3849 174.98C40.3849 174.82 40.4149 174.65 40.4749 174.47C40.9549 174.42 41.3199 174.335 41.5699 174.215C41.8199 174.085 41.9449 173.875 41.9449 173.585V167.525L40.4749 167.765C40.4649 167.695 40.4599 167.595 40.4599 167.465C40.4599 167.335 40.4849 167.22 40.5349 167.12C41.7449 166.36 42.8299 165.745 43.7899 165.275L44.2699 165.47V174.17C44.5999 174.32 45.0349 174.42 45.5749 174.47ZM49.1323 173.6C49.2623 174.17 49.5773 174.455 50.0773 174.455C50.5873 174.455 50.9073 174.17 51.0373 173.6C51.1473 173.1 51.2023 172.25 51.2023 171.05C51.2023 169.1 51.1323 167.88 50.9923 167.39C50.8523 166.92 50.6723 166.635 50.4523 166.535C50.3223 166.475 50.1623 166.445 49.9723 166.445C49.4823 166.445 49.1773 166.735 49.0573 167.315C48.9473 167.785 48.8923 168.355 48.8923 169.025C48.8923 171.405 48.9723 172.93 49.1323 173.6ZM52.7323 166.7C53.4123 167.59 53.7523 168.85 53.7523 170.48C53.7523 172.11 53.4123 173.36 52.7323 174.23C52.0523 175.09 51.1523 175.52 50.0323 175.52C48.9223 175.52 48.0323 175.09 47.3623 174.23C46.6923 173.36 46.3573 172.11 46.3573 170.48C46.3573 168.85 46.6923 167.59 47.3623 166.7C48.0323 165.81 48.9223 165.365 50.0323 165.365C51.1523 165.365 52.0523 165.81 52.7323 166.7ZM33.922 193.47C33.932 193.53 33.937 193.63 33.937 193.77C33.937 193.91 33.912 194.095 33.862 194.325H28.732C28.732 194.255 28.732 194.14 28.732 193.98C28.732 193.82 28.762 193.65 28.822 193.47C29.302 193.42 29.667 193.335 29.917 193.215C30.167 193.085 30.292 192.875 30.292 192.585V186.525L28.822 186.765C28.812 186.695 28.807 186.595 28.807 186.465C28.807 186.335 28.832 186.22 28.882 186.12C30.092 185.36 31.177 184.745 32.137 184.275L32.617 184.47V193.17C32.947 193.32 33.382 193.42 33.922 193.47ZM36.6545 185.955C37.0145 185.955 37.3195 186.085 37.5695 186.345C37.8195 186.595 37.9445 186.9 37.9445 187.26C37.9445 187.61 37.8145 187.915 37.5545 188.175C37.3045 188.425 36.9995 188.55 36.6395 188.55C36.2895 188.55 35.9845 188.425 35.7245 188.175C35.4745 187.915 35.3495 187.61 35.3495 187.26C35.3495 186.9 35.4745 186.595 35.7245 186.345C35.9845 186.085 36.2945 185.955 36.6545 185.955ZM36.6395 192.15C36.9995 192.15 37.3045 192.28 37.5545 192.54C37.8145 192.8 37.9445 193.11 37.9445 193.47C37.9445 193.82 37.8145 194.12 37.5545 194.37C37.3045 194.62 36.9995 194.745 36.6395 194.745C36.2895 194.745 35.9845 194.62 35.7245 194.37C35.4745 194.12 35.3495 193.82 35.3495 193.47C35.3495 193.11 35.4745 192.8 35.7245 192.54C35.9845 192.28 36.2895 192.15 36.6395 192.15ZM44.4529 192.51C44.8229 192.51 45.1029 192.42 45.2929 192.24C45.4829 192.05 45.6279 191.695 45.7279 191.175C45.8879 191.175 46.0579 191.215 46.2379 191.295C46.2379 192.495 46.0979 193.505 45.8179 194.325H40.0879C39.9779 193.685 39.9229 193.17 39.9229 192.78C41.5829 191.03 42.5079 190.01 42.6979 189.72C42.8879 189.43 43.0629 189.145 43.2229 188.865C43.4629 188.425 43.5829 187.97 43.5829 187.5C43.5829 187.03 43.4679 186.67 43.2379 186.42C43.0179 186.17 42.7379 186.045 42.3979 186.045C41.7079 186.045 41.2629 186.48 41.0629 187.35C40.9829 187.36 40.8829 187.365 40.7629 187.365C40.6429 187.365 40.4979 187.355 40.3279 187.335C40.3179 187.085 40.3129 186.775 40.3129 186.405C40.3129 186.025 40.3379 185.63 40.3879 185.22C41.1779 184.66 42.0529 184.38 43.0129 184.38C43.9729 184.38 44.7179 184.645 45.2479 185.175C45.7879 185.695 46.0579 186.35 46.0579 187.14C46.0579 187.52 45.9979 187.835 45.8779 188.085C45.7679 188.325 45.6729 188.515 45.5929 188.655C45.5129 188.795 45.3829 188.965 45.2029 189.165C45.0229 189.365 44.8679 189.535 44.7379 189.675C44.6079 189.815 44.4029 190.01 44.1229 190.26L43.4029 190.905C43.2129 191.075 42.9229 191.33 42.5329 191.67C42.1529 192 41.8329 192.28 41.5729 192.51H44.4529ZM50.1943 192.6C50.3243 193.17 50.6393 193.455 51.1393 193.455C51.6493 193.455 51.9693 193.17 52.0993 192.6C52.2093 192.1 52.2643 191.25 52.2643 190.05C52.2643 188.1 52.1943 186.88 52.0543 186.39C51.9143 185.92 51.7343 185.635 51.5143 185.535C51.3843 185.475 51.2243 185.445 51.0343 185.445C50.5443 185.445 50.2393 185.735 50.1193 186.315C50.0093 186.785 49.9543 187.355 49.9543 188.025C49.9543 190.405 50.0343 191.93 50.1943 192.6ZM53.7943 185.7C54.4743 186.59 54.8143 187.85 54.8143 189.48C54.8143 191.11 54.4743 192.36 53.7943 193.23C53.1143 194.09 52.2143 194.52 51.0943 194.52C49.9843 194.52 49.0943 194.09 48.4243 193.23C47.7543 192.36 47.4193 191.11 47.4193 189.48C47.4193 187.85 47.7543 186.59 48.4243 185.7C49.0943 184.81 49.9843 184.365 51.0943 184.365C52.2143 184.365 53.1143 184.81 53.7943 185.7ZM34.1125 212.47C34.1225 212.53 34.1275 212.63 34.1275 212.77C34.1275 212.91 34.1025 213.095 34.0525 213.325H28.9225C28.9225 213.255 28.9225 213.14 28.9225 212.98C28.9225 212.82 28.9525 212.65 29.0125 212.47C29.4925 212.42 29.8575 212.335 30.1075 212.215C30.3575 212.085 30.4825 211.875 30.4825 211.585V205.525L29.0125 205.765C29.0025 205.695 28.9975 205.595 28.9975 205.465C28.9975 205.335 29.0225 205.22 29.0725 205.12C30.2825 204.36 31.3675 203.745 32.3275 203.275L32.8075 203.47V212.17C33.1375 212.32 33.5725 212.42 34.1125 212.47ZM36.8449 204.955C37.2049 204.955 37.5099 205.085 37.7599 205.345C38.0099 205.595 38.1349 205.9 38.1349 206.26C38.1349 206.61 38.0049 206.915 37.7449 207.175C37.4949 207.425 37.1899 207.55 36.8299 207.55C36.4799 207.55 36.1749 207.425 35.9149 207.175C35.6649 206.915 35.5399 206.61 35.5399 206.26C35.5399 205.9 35.6649 205.595 35.9149 205.345C36.1749 205.085 36.4849 204.955 36.8449 204.955ZM36.8299 211.15C37.1899 211.15 37.4949 211.28 37.7449 211.54C38.0049 211.8 38.1349 212.11 38.1349 212.47C38.1349 212.82 38.0049 213.12 37.7449 213.37C37.4949 213.62 37.1899 213.745 36.8299 213.745C36.4799 213.745 36.1749 213.62 35.9149 213.37C35.6649 213.12 35.5399 212.82 35.5399 212.47C35.5399 212.11 35.6649 211.8 35.9149 211.54C36.1749 211.28 36.4799 211.15 36.8299 211.15ZM41.8533 209.155V208.225C42.3933 208.135 42.7983 207.93 43.0683 207.61C43.3383 207.28 43.4733 206.9 43.4733 206.47C43.4733 206.03 43.3683 205.685 43.1583 205.435C42.9583 205.175 42.6933 205.045 42.3633 205.045C42.0433 205.045 41.7483 205.16 41.4783 205.39C41.2183 205.61 41.0433 205.93 40.9533 206.35C40.8733 206.36 40.7733 206.365 40.6533 206.365C40.5333 206.365 40.3883 206.355 40.2183 206.335C40.2083 206.085 40.2033 205.775 40.2033 205.405C40.2033 205.025 40.2283 204.63 40.2783 204.22C41.1783 203.66 42.1583 203.38 43.2183 203.38C43.9783 203.38 44.6233 203.605 45.1533 204.055C45.6833 204.495 45.9483 205.035 45.9483 205.675C45.9483 206.125 45.7933 206.565 45.4833 206.995C45.1733 207.415 44.7283 207.78 44.1483 208.09C45.4283 208.57 46.0683 209.4 46.0683 210.58C46.0683 211.4 45.7383 212.095 45.0783 212.665C44.4283 213.235 43.6233 213.52 42.6633 213.52C41.7033 213.52 40.7683 213.135 39.8583 212.365C40.0183 211.935 40.2183 211.645 40.4583 211.495C41.0083 211.875 41.6333 212.065 42.3333 212.065C42.7733 212.065 43.1283 211.945 43.3983 211.705C43.6683 211.455 43.8033 211.11 43.8033 210.67C43.8033 210.22 43.6333 209.855 43.2933 209.575C42.9533 209.295 42.4733 209.155 41.8533 209.155ZM50.0039 211.6C50.1339 212.17 50.4489 212.455 50.9489 212.455C51.4589 212.455 51.7789 212.17 51.9089 211.6C52.0189 211.1 52.0739 210.25 52.0739 209.05C52.0739 207.1 52.0039 205.88 51.8639 205.39C51.7239 204.92 51.5439 204.635 51.3239 204.535C51.1939 204.475 51.0339 204.445 50.8439 204.445C50.3539 204.445 50.0489 204.735 49.9289 205.315C49.8189 205.785 49.7639 206.355 49.7639 207.025C49.7639 209.405 49.8439 210.93 50.0039 211.6ZM53.6039 204.7C54.2839 205.59 54.6239 206.85 54.6239 208.48C54.6239 210.11 54.2839 211.36 53.6039 212.23C52.9239 213.09 52.0239 213.52 50.9039 213.52C49.7939 213.52 48.9039 213.09 48.2339 212.23C47.5639 211.36 47.2289 210.11 47.2289 208.48C47.2289 206.85 47.5639 205.59 48.2339 204.7C48.9039 203.81 49.7939 203.365 50.9039 203.365C52.0239 203.365 52.9239 203.81 53.6039 204.7ZM33.7829 231.47C33.7929 231.53 33.7979 231.63 33.7979 231.77C33.7979 231.91 33.7729 232.095 33.7229 232.325H28.5929C28.5929 232.255 28.5929 232.14 28.5929 231.98C28.5929 231.82 28.6229 231.65 28.6829 231.47C29.1629 231.42 29.5279 231.335 29.7779 231.215C30.0279 231.085 30.1529 230.875 30.1529 230.585V224.525L28.6829 224.765C28.6729 224.695 28.6679 224.595 28.6679 224.465C28.6679 224.335 28.6929 224.22 28.7429 224.12C29.9529 223.36 31.0379 222.745 31.9979 222.275L32.4779 222.47V231.17C32.8079 231.32 33.2429 231.42 33.7829 231.47ZM36.5153 223.955C36.8753 223.955 37.1803 224.085 37.4303 224.345C37.6803 224.595 37.8053 224.9 37.8053 225.26C37.8053 225.61 37.6753 225.915 37.4153 226.175C37.1653 226.425 36.8603 226.55 36.5003 226.55C36.1503 226.55 35.8453 226.425 35.5853 226.175C35.3353 225.915 35.2103 225.61 35.2103 225.26C35.2103 224.9 35.3353 224.595 35.5853 224.345C35.8453 224.085 36.1553 223.955 36.5153 223.955ZM36.5003 230.15C36.8603 230.15 37.1653 230.28 37.4153 230.54C37.6753 230.8 37.8053 231.11 37.8053 231.47C37.8053 231.82 37.6753 232.12 37.4153 232.37C37.1653 232.62 36.8603 232.745 36.5003 232.745C36.1503 232.745 35.8453 232.62 35.5853 232.37C35.3353 232.12 35.2103 231.82 35.2103 231.47C35.2103 231.11 35.3353 230.8 35.5853 230.54C35.8453 230.28 36.1503 230.15 36.5003 230.15ZM43.1887 228.8V225.83L40.9537 228.8H43.1887ZM45.1987 230V231.32C45.4287 231.43 45.7337 231.485 46.1137 231.485C46.1137 231.555 46.1137 231.655 46.1137 231.785C46.1137 231.915 46.0937 232.095 46.0537 232.325H42.1687C42.1687 232.245 42.1687 232.13 42.1687 231.98C42.1687 231.82 42.1937 231.655 42.2437 231.485C42.5637 231.435 42.7987 231.35 42.9487 231.23C43.1087 231.11 43.1887 230.895 43.1887 230.585V230H39.8287C39.5987 229.66 39.4487 229.33 39.3787 229.01L44.0137 222.575H45.1987V228.8H46.5337C46.5937 229.08 46.6237 229.32 46.6237 229.52C46.6237 229.71 46.6137 229.87 46.5937 230H45.1987ZM50.3335 230.6C50.4635 231.17 50.7785 231.455 51.2785 231.455C51.7885 231.455 52.1085 231.17 52.2385 230.6C52.3485 230.1 52.4035 229.25 52.4035 228.05C52.4035 226.1 52.3335 224.88 52.1935 224.39C52.0535 223.92 51.8735 223.635 51.6535 223.535C51.5235 223.475 51.3635 223.445 51.1735 223.445C50.6835 223.445 50.3785 223.735 50.2585 224.315C50.1485 224.785 50.0935 225.355 50.0935 226.025C50.0935 228.405 50.1735 229.93 50.3335 230.6ZM53.9335 223.7C54.6135 224.59 54.9535 225.85 54.9535 227.48C54.9535 229.11 54.6135 230.36 53.9335 231.23C53.2535 232.09 52.3535 232.52 51.2335 232.52C50.1235 232.52 49.2335 232.09 48.5635 231.23C47.8935 230.36 47.5585 229.11 47.5585 227.48C47.5585 225.85 47.8935 224.59 48.5635 223.7C49.2335 222.81 50.1235 222.365 51.2335 222.365C52.3535 222.365 53.2535 222.81 53.9335 223.7ZM34.1051 250.47C34.1151 250.53 34.1201 250.63 34.1201 250.77C34.1201 250.91 34.0951 251.095 34.0451 251.325H28.9151C28.9151 251.255 28.9151 251.14 28.9151 250.98C28.9151 250.82 28.9451 250.65 29.0051 250.47C29.4851 250.42 29.8501 250.335 30.1001 250.215C30.3501 250.085 30.4751 249.875 30.4751 249.585V243.525L29.0051 243.765C28.9951 243.695 28.9901 243.595 28.9901 243.465C28.9901 243.335 29.0151 243.22 29.0651 243.12C30.2751 242.36 31.3601 241.745 32.3201 241.275L32.8001 241.47V250.17C33.1301 250.32 33.5651 250.42 34.1051 250.47ZM36.8376 242.955C37.1976 242.955 37.5026 243.085 37.7526 243.345C38.0026 243.595 38.1276 243.9 38.1276 244.26C38.1276 244.61 37.9976 244.915 37.7376 245.175C37.4876 245.425 37.1826 245.55 36.8226 245.55C36.4726 245.55 36.1676 245.425 35.9076 245.175C35.6576 244.915 35.5326 244.61 35.5326 244.26C35.5326 243.9 35.6576 243.595 35.9076 243.345C36.1676 243.085 36.4776 242.955 36.8376 242.955ZM36.8226 249.15C37.1826 249.15 37.4876 249.28 37.7376 249.54C37.9976 249.8 38.1276 250.11 38.1276 250.47C38.1276 250.82 37.9976 251.12 37.7376 251.37C37.4876 251.62 37.1826 251.745 36.8226 251.745C36.4726 251.745 36.1676 251.62 35.9076 251.37C35.6576 251.12 35.5326 250.82 35.5326 250.47C35.5326 250.11 35.6576 249.8 35.9076 249.54C36.1676 249.28 36.4726 249.15 36.8226 249.15ZM41.711 245.565C42.291 245.305 42.906 245.175 43.556 245.175C44.206 245.175 44.781 245.425 45.281 245.925C45.781 246.415 46.031 247.09 46.031 247.95C46.031 249 45.681 249.86 44.981 250.53C44.291 251.19 43.431 251.52 42.401 251.52C41.371 251.52 40.456 251.135 39.656 250.365C39.836 249.965 40.036 249.675 40.256 249.495C40.806 249.875 41.431 250.065 42.131 250.065C42.601 250.065 42.986 249.905 43.286 249.585C43.596 249.265 43.751 248.84 43.751 248.31C43.751 247.77 43.611 247.35 43.331 247.05C43.061 246.74 42.706 246.585 42.266 246.585C41.836 246.585 41.316 246.765 40.706 247.125L40.391 246.975L40.916 241.725H44.036C44.676 241.725 45.101 241.475 45.311 240.975C45.471 240.975 45.641 241.015 45.821 241.095C45.811 241.835 45.671 242.65 45.401 243.54H41.921L41.711 245.565ZM50.0112 249.6C50.1412 250.17 50.4562 250.455 50.9562 250.455C51.4662 250.455 51.7862 250.17 51.9162 249.6C52.0262 249.1 52.0812 248.25 52.0812 247.05C52.0812 245.1 52.0112 243.88 51.8712 243.39C51.7312 242.92 51.5512 242.635 51.3312 242.535C51.2012 242.475 51.0412 242.445 50.8512 242.445C50.3612 242.445 50.0562 242.735 49.9362 243.315C49.8262 243.785 49.7712 244.355 49.7712 245.025C49.7712 247.405 49.8512 248.93 50.0112 249.6ZM53.6112 242.7C54.2912 243.59 54.6312 244.85 54.6312 246.48C54.6312 248.11 54.2912 249.36 53.6112 250.23C52.9312 251.09 52.0312 251.52 50.9112 251.52C49.8012 251.52 48.9112 251.09 48.2412 250.23C47.5712 249.36 47.2362 248.11 47.2362 246.48C47.2362 244.85 47.5712 243.59 48.2412 242.7C48.9112 241.81 49.8012 241.365 50.9112 241.365C52.0312 241.365 52.9312 241.81 53.6112 242.7ZM32.3239 268.51C32.6939 268.51 32.9739 268.42 33.1639 268.24C33.3539 268.05 33.4989 267.695 33.5989 267.175C33.7589 267.175 33.9289 267.215 34.1089 267.295C34.1089 268.495 33.9689 269.505 33.6889 270.325H27.9589C27.8489 269.685 27.7939 269.17 27.7939 268.78C29.4539 267.03 30.3789 266.01 30.5689 265.72C30.7589 265.43 30.9339 265.145 31.0939 264.865C31.3339 264.425 31.4539 263.97 31.4539 263.5C31.4539 263.03 31.3389 262.67 31.1089 262.42C30.8889 262.17 30.6089 262.045 30.2689 262.045C29.5789 262.045 29.1339 262.48 28.9339 263.35C28.8539 263.36 28.7539 263.365 28.6339 263.365C28.5139 263.365 28.3689 263.355 28.1989 263.335C28.1889 263.085 28.1839 262.775 28.1839 262.405C28.1839 262.025 28.2089 261.63 28.2589 261.22C29.0489 260.66 29.9239 260.38 30.8839 260.38C31.8439 260.38 32.5889 260.645 33.1189 261.175C33.6589 261.695 33.9289 262.35 33.9289 263.14C33.9289 263.52 33.8689 263.835 33.7489 264.085C33.6389 264.325 33.5439 264.515 33.4639 264.655C33.3839 264.795 33.2539 264.965 33.0739 265.165C32.8939 265.365 32.7389 265.535 32.6089 265.675C32.4789 265.815 32.2739 266.01 31.9939 266.26L31.2739 266.905C31.0839 267.075 30.7939 267.33 30.4039 267.67C30.0239 268 29.7039 268.28 29.4439 268.51H32.3239ZM37.2404 261.955C37.6004 261.955 37.9054 262.085 38.1554 262.345C38.4054 262.595 38.5304 262.9 38.5304 263.26C38.5304 263.61 38.4004 263.915 38.1404 264.175C37.8904 264.425 37.5854 264.55 37.2254 264.55C36.8754 264.55 36.5704 264.425 36.3104 264.175C36.0604 263.915 35.9354 263.61 35.9354 263.26C35.9354 262.9 36.0604 262.595 36.3104 262.345C36.5704 262.085 36.8804 261.955 37.2404 261.955ZM37.2254 268.15C37.5854 268.15 37.8904 268.28 38.1404 268.54C38.4004 268.8 38.5304 269.11 38.5304 269.47C38.5304 269.82 38.4004 270.12 38.1404 270.37C37.8904 270.62 37.5854 270.745 37.2254 270.745C36.8754 270.745 36.5704 270.62 36.3104 270.37C36.0604 270.12 35.9354 269.82 35.9354 269.47C35.9354 269.11 36.0604 268.8 36.3104 268.54C36.5704 268.28 36.8754 268.15 37.2254 268.15ZM43.1338 268.6C43.2638 269.17 43.5788 269.455 44.0788 269.455C44.5888 269.455 44.9088 269.17 45.0388 268.6C45.1488 268.1 45.2038 267.25 45.2038 266.05C45.2038 264.1 45.1338 262.88 44.9938 262.39C44.8538 261.92 44.6738 261.635 44.4538 261.535C44.3238 261.475 44.1638 261.445 43.9738 261.445C43.4838 261.445 43.1788 261.735 43.0588 262.315C42.9488 262.785 42.8938 263.355 42.8938 264.025C42.8938 266.405 42.9738 267.93 43.1338 268.6ZM46.7338 261.7C47.4138 262.59 47.7538 263.85 47.7538 265.48C47.7538 267.11 47.4138 268.36 46.7338 269.23C46.0538 270.09 45.1538 270.52 44.0338 270.52C42.9238 270.52 42.0338 270.09 41.3638 269.23C40.6938 268.36 40.3588 267.11 40.3588 265.48C40.3588 263.85 40.6938 262.59 41.3638 261.7C42.0338 260.81 42.9238 260.365 44.0338 260.365C45.1538 260.365 46.0538 260.81 46.7338 261.7ZM51.7324 268.6C51.8624 269.17 52.1774 269.455 52.6774 269.455C53.1874 269.455 53.5074 269.17 53.6374 268.6C53.7474 268.1 53.8024 267.25 53.8024 266.05C53.8024 264.1 53.7324 262.88 53.5924 262.39C53.4524 261.92 53.2724 261.635 53.0524 261.535C52.9224 261.475 52.7624 261.445 52.5724 261.445C52.0824 261.445 51.7774 261.735 51.6574 262.315C51.5474 262.785 51.4924 263.355 51.4924 264.025C51.4924 266.405 51.5724 267.93 51.7324 268.6ZM55.3324 261.7C56.0124 262.59 56.3524 263.85 56.3524 265.48C56.3524 267.11 56.0124 268.36 55.3324 269.23C54.6524 270.09 53.7524 270.52 52.6324 270.52C51.5224 270.52 50.6324 270.09 49.9624 269.23C49.2924 268.36 48.9574 267.11 48.9574 265.48C48.9574 263.85 49.2924 262.59 49.9624 261.7C50.6324 260.81 51.5224 260.365 52.6324 260.365C53.7524 260.365 54.6524 260.81 55.3324 261.7ZM33.862 287.51C34.232 287.51 34.512 287.42 34.702 287.24C34.892 287.05 35.037 286.695 35.137 286.175C35.297 286.175 35.467 286.215 35.647 286.295C35.647 287.495 35.507 288.505 35.227 289.325H29.497C29.387 288.685 29.332 288.17 29.332 287.78C30.992 286.03 31.917 285.01 32.107 284.72C32.297 284.43 32.472 284.145 32.632 283.865C32.872 283.425 32.992 282.97 32.992 282.5C32.992 282.03 32.877 281.67 32.647 281.42C32.427 281.17 32.147 281.045 31.807 281.045C31.117 281.045 30.672 281.48 30.472 282.35C30.392 282.36 30.292 282.365 30.172 282.365C30.052 282.365 29.907 282.355 29.737 282.335C29.727 282.085 29.722 281.775 29.722 281.405C29.722 281.025 29.747 280.63 29.797 280.22C30.587 279.66 31.462 279.38 32.422 279.38C33.382 279.38 34.127 279.645 34.657 280.175C35.197 280.695 35.467 281.35 35.467 282.14C35.467 282.52 35.407 282.835 35.287 283.085C35.177 283.325 35.082 283.515 35.002 283.655C34.922 283.795 34.792 283.965 34.612 284.165C34.432 284.365 34.277 284.535 34.147 284.675C34.017 284.815 33.812 285.01 33.532 285.26L32.812 285.905C32.622 286.075 32.332 286.33 31.942 286.67C31.562 287 31.242 287.28 30.982 287.51H33.862ZM38.7785 280.955C39.1385 280.955 39.4435 281.085 39.6935 281.345C39.9435 281.595 40.0685 281.9 40.0685 282.26C40.0685 282.61 39.9385 282.915 39.6785 283.175C39.4285 283.425 39.1235 283.55 38.7635 283.55C38.4135 283.55 38.1085 283.425 37.8485 283.175C37.5985 282.915 37.4735 282.61 37.4735 282.26C37.4735 281.9 37.5985 281.595 37.8485 281.345C38.1085 281.085 38.4185 280.955 38.7785 280.955ZM38.7635 287.15C39.1235 287.15 39.4285 287.28 39.6785 287.54C39.9385 287.8 40.0685 288.11 40.0685 288.47C40.0685 288.82 39.9385 289.12 39.6785 289.37C39.4285 289.62 39.1235 289.745 38.7635 289.745C38.4135 289.745 38.1085 289.62 37.8485 289.37C37.5985 289.12 37.4735 288.82 37.4735 288.47C37.4735 288.11 37.5985 287.8 37.8485 287.54C38.1085 287.28 38.4135 287.15 38.7635 287.15ZM46.6369 288.47C46.6469 288.53 46.6519 288.63 46.6519 288.77C46.6519 288.91 46.6269 289.095 46.5769 289.325H41.4469C41.4469 289.255 41.4469 289.14 41.4469 288.98C41.4469 288.82 41.4769 288.65 41.5369 288.47C42.0169 288.42 42.3819 288.335 42.6319 288.215C42.8819 288.085 43.0069 287.875 43.0069 287.585V281.525L41.5369 281.765C41.5269 281.695 41.5219 281.595 41.5219 281.465C41.5219 281.335 41.5469 281.22 41.5969 281.12C42.8069 280.36 43.8919 279.745 44.8519 279.275L45.3319 279.47V288.17C45.6619 288.32 46.0969 288.42 46.6369 288.47ZM50.1943 287.6C50.3243 288.17 50.6393 288.455 51.1393 288.455C51.6493 288.455 51.9693 288.17 52.0993 287.6C52.2093 287.1 52.2643 286.25 52.2643 285.05C52.2643 283.1 52.1943 281.88 52.0543 281.39C51.9143 280.92 51.7343 280.635 51.5143 280.535C51.3843 280.475 51.2243 280.445 51.0343 280.445C50.5443 280.445 50.2393 280.735 50.1193 281.315C50.0093 281.785 49.9543 282.355 49.9543 283.025C49.9543 285.405 50.0343 286.93 50.1943 287.6ZM53.7943 280.7C54.4743 281.59 54.8143 282.85 54.8143 284.48C54.8143 286.11 54.4743 287.36 53.7943 288.23C53.1143 289.09 52.2143 289.52 51.0943 289.52C49.9843 289.52 49.0943 289.09 48.4243 288.23C47.7543 287.36 47.4193 286.11 47.4193 284.48C47.4193 282.85 47.7543 281.59 48.4243 280.7C49.0943 279.81 49.9843 279.365 51.0943 279.365C52.2143 279.365 53.1143 279.81 53.7943 280.7ZM32.8 306.51C33.17 306.51 33.45 306.42 33.64 306.24C33.83 306.05 33.975 305.695 34.075 305.175C34.235 305.175 34.405 305.215 34.585 305.295C34.585 306.495 34.445 307.505 34.165 308.325H28.435C28.325 307.685 28.27 307.17 28.27 306.78C29.93 305.03 30.855 304.01 31.045 303.72C31.235 303.43 31.41 303.145 31.57 302.865C31.81 302.425 31.93 301.97 31.93 301.5C31.93 301.03 31.815 300.67 31.585 300.42C31.365 300.17 31.085 300.045 30.745 300.045C30.055 300.045 29.61 300.48 29.41 301.35C29.33 301.36 29.23 301.365 29.11 301.365C28.99 301.365 28.845 301.355 28.675 301.335C28.665 301.085 28.66 300.775 28.66 300.405C28.66 300.025 28.685 299.63 28.735 299.22C29.525 298.66 30.4 298.38 31.36 298.38C32.32 298.38 33.065 298.645 33.595 299.175C34.135 299.695 34.405 300.35 34.405 301.14C34.405 301.52 34.345 301.835 34.225 302.085C34.115 302.325 34.02 302.515 33.94 302.655C33.86 302.795 33.73 302.965 33.55 303.165C33.37 303.365 33.215 303.535 33.085 303.675C32.955 303.815 32.75 304.01 32.47 304.26L31.75 304.905C31.56 305.075 31.27 305.33 30.88 305.67C30.5 306 30.18 306.28 29.92 306.51H32.8ZM37.7165 299.955C38.0765 299.955 38.3815 300.085 38.6315 300.345C38.8815 300.595 39.0065 300.9 39.0065 301.26C39.0065 301.61 38.8765 301.915 38.6165 302.175C38.3665 302.425 38.0615 302.55 37.7015 302.55C37.3515 302.55 37.0465 302.425 36.7865 302.175C36.5365 301.915 36.4115 301.61 36.4115 301.26C36.4115 300.9 36.5365 300.595 36.7865 300.345C37.0465 300.085 37.3565 299.955 37.7165 299.955ZM37.7015 306.15C38.0615 306.15 38.3665 306.28 38.6165 306.54C38.8765 306.8 39.0065 307.11 39.0065 307.47C39.0065 307.82 38.8765 308.12 38.6165 308.37C38.3665 308.62 38.0615 308.745 37.7015 308.745C37.3515 308.745 37.0465 308.62 36.7865 308.37C36.5365 308.12 36.4115 307.82 36.4115 307.47C36.4115 307.11 36.5365 306.8 36.7865 306.54C37.0465 306.28 37.3515 306.15 37.7015 306.15ZM45.5149 306.51C45.8849 306.51 46.1649 306.42 46.3549 306.24C46.5449 306.05 46.6899 305.695 46.7899 305.175C46.9499 305.175 47.1199 305.215 47.2999 305.295C47.2999 306.495 47.1599 307.505 46.8799 308.325H41.1499C41.0399 307.685 40.9849 307.17 40.9849 306.78C42.6449 305.03 43.5699 304.01 43.7599 303.72C43.9499 303.43 44.1249 303.145 44.2849 302.865C44.5249 302.425 44.6449 301.97 44.6449 301.5C44.6449 301.03 44.5299 300.67 44.2999 300.42C44.0799 300.17 43.7999 300.045 43.4599 300.045C42.7699 300.045 42.3249 300.48 42.1249 301.35C42.0449 301.36 41.9449 301.365 41.8249 301.365C41.7049 301.365 41.5599 301.355 41.3899 301.335C41.3799 301.085 41.3749 300.775 41.3749 300.405C41.3749 300.025 41.3999 299.63 41.4499 299.22C42.2399 298.66 43.1149 298.38 44.0749 298.38C45.0349 298.38 45.7799 298.645 46.3099 299.175C46.8499 299.695 47.1199 300.35 47.1199 301.14C47.1199 301.52 47.0599 301.835 46.9399 302.085C46.8299 302.325 46.7349 302.515 46.6549 302.655C46.5749 302.795 46.4449 302.965 46.2649 303.165C46.0849 303.365 45.9299 303.535 45.7999 303.675C45.6699 303.815 45.4649 304.01 45.1849 304.26L44.4649 304.905C44.2749 305.075 43.9849 305.33 43.5949 305.67C43.2149 306 42.8949 306.28 42.6349 306.51H45.5149ZM51.2563 306.6C51.3863 307.17 51.7013 307.455 52.2013 307.455C52.7113 307.455 53.0313 307.17 53.1613 306.6C53.2713 306.1 53.3263 305.25 53.3263 304.05C53.3263 302.1 53.2563 300.88 53.1163 300.39C52.9763 299.92 52.7963 299.635 52.5763 299.535C52.4463 299.475 52.2863 299.445 52.0963 299.445C51.6063 299.445 51.3013 299.735 51.1813 300.315C51.0713 300.785 51.0163 301.355 51.0163 302.025C51.0163 304.405 51.0963 305.93 51.2563 306.6ZM54.8563 299.7C55.5363 300.59 55.8763 301.85 55.8763 303.48C55.8763 305.11 55.5363 306.36 54.8563 307.23C54.1763 308.09 53.2763 308.52 52.1563 308.52C51.0463 308.52 50.1563 308.09 49.4863 307.23C48.8163 306.36 48.4813 305.11 48.4813 303.48C48.4813 301.85 48.8163 300.59 49.4863 299.7C50.1563 298.81 51.0463 298.365 52.1563 298.365C53.2763 298.365 54.1763 298.81 54.8563 299.7ZM32.9904 325.51C33.3604 325.51 33.6404 325.42 33.8304 325.24C34.0204 325.05 34.1654 324.695 34.2654 324.175C34.4254 324.175 34.5954 324.215 34.7754 324.295C34.7754 325.495 34.6354 326.505 34.3554 327.325H28.6254C28.5154 326.685 28.4604 326.17 28.4604 325.78C30.1204 324.03 31.0454 323.01 31.2354 322.72C31.4254 322.43 31.6004 322.145 31.7604 321.865C32.0004 321.425 32.1204 320.97 32.1204 320.5C32.1204 320.03 32.0054 319.67 31.7754 319.42C31.5554 319.17 31.2754 319.045 30.9354 319.045C30.2454 319.045 29.8004 319.48 29.6004 320.35C29.5204 320.36 29.4204 320.365 29.3004 320.365C29.1804 320.365 29.0354 320.355 28.8654 320.335C28.8554 320.085 28.8504 319.775 28.8504 319.405C28.8504 319.025 28.8754 318.63 28.9254 318.22C29.7154 317.66 30.5904 317.38 31.5504 317.38C32.5104 317.38 33.2554 317.645 33.7854 318.175C34.3254 318.695 34.5954 319.35 34.5954 320.14C34.5954 320.52 34.5354 320.835 34.4154 321.085C34.3054 321.325 34.2104 321.515 34.1304 321.655C34.0504 321.795 33.9204 321.965 33.7404 322.165C33.5604 322.365 33.4054 322.535 33.2754 322.675C33.1454 322.815 32.9404 323.01 32.6604 323.26L31.9404 323.905C31.7504 324.075 31.4604 324.33 31.0704 324.67C30.6904 325 30.3704 325.28 30.1104 325.51H32.9904ZM37.9069 318.955C38.2669 318.955 38.5719 319.085 38.8219 319.345C39.0719 319.595 39.1969 319.9 39.1969 320.26C39.1969 320.61 39.0669 320.915 38.8069 321.175C38.5569 321.425 38.2519 321.55 37.8919 321.55C37.5419 321.55 37.2369 321.425 36.9769 321.175C36.7269 320.915 36.6019 320.61 36.6019 320.26C36.6019 319.9 36.7269 319.595 36.9769 319.345C37.2369 319.085 37.5469 318.955 37.9069 318.955ZM37.8919 325.15C38.2519 325.15 38.5569 325.28 38.8069 325.54C39.0669 325.8 39.1969 326.11 39.1969 326.47C39.1969 326.82 39.0669 327.12 38.8069 327.37C38.5569 327.62 38.2519 327.745 37.8919 327.745C37.5419 327.745 37.2369 327.62 36.9769 327.37C36.7269 327.12 36.6019 326.82 36.6019 326.47C36.6019 326.11 36.7269 325.8 36.9769 325.54C37.2369 325.28 37.5419 325.15 37.8919 325.15ZM42.9153 323.155V322.225C43.4553 322.135 43.8603 321.93 44.1303 321.61C44.4003 321.28 44.5353 320.9 44.5353 320.47C44.5353 320.03 44.4303 319.685 44.2203 319.435C44.0203 319.175 43.7553 319.045 43.4253 319.045C43.1053 319.045 42.8103 319.16 42.5403 319.39C42.2803 319.61 42.1053 319.93 42.0153 320.35C41.9353 320.36 41.8353 320.365 41.7153 320.365C41.5953 320.365 41.4503 320.355 41.2803 320.335C41.2703 320.085 41.2653 319.775 41.2653 319.405C41.2653 319.025 41.2903 318.63 41.3403 318.22C42.2403 317.66 43.2203 317.38 44.2803 317.38C45.0403 317.38 45.6853 317.605 46.2153 318.055C46.7453 318.495 47.0103 319.035 47.0103 319.675C47.0103 320.125 46.8553 320.565 46.5453 320.995C46.2353 321.415 45.7903 321.78 45.2103 322.09C46.4903 322.57 47.1303 323.4 47.1303 324.58C47.1303 325.4 46.8003 326.095 46.1403 326.665C45.4903 327.235 44.6853 327.52 43.7253 327.52C42.7653 327.52 41.8303 327.135 40.9203 326.365C41.0803 325.935 41.2803 325.645 41.5203 325.495C42.0703 325.875 42.6953 326.065 43.3953 326.065C43.8353 326.065 44.1903 325.945 44.4603 325.705C44.7303 325.455 44.8653 325.11 44.8653 324.67C44.8653 324.22 44.6953 323.855 44.3553 323.575C44.0153 323.295 43.5353 323.155 42.9153 323.155ZM51.0659 325.6C51.1959 326.17 51.5109 326.455 52.0109 326.455C52.5209 326.455 52.8409 326.17 52.9709 325.6C53.0809 325.1 53.1359 324.25 53.1359 323.05C53.1359 321.1 53.0659 319.88 52.9259 319.39C52.7859 318.92 52.6059 318.635 52.3859 318.535C52.2559 318.475 52.0959 318.445 51.9059 318.445C51.4159 318.445 51.1109 318.735 50.9909 319.315C50.8809 319.785 50.8259 320.355 50.8259 321.025C50.8259 323.405 50.9059 324.93 51.0659 325.6ZM54.6659 318.7C55.3459 319.59 55.6859 320.85 55.6859 322.48C55.6859 324.11 55.3459 325.36 54.6659 326.23C53.9859 327.09 53.0859 327.52 51.9659 327.52C50.8559 327.52 49.9659 327.09 49.2959 326.23C48.6259 325.36 48.2909 324.11 48.2909 322.48C48.2909 320.85 48.6259 319.59 49.2959 318.7C49.9659 317.81 50.8559 317.365 51.9659 317.365C53.0859 317.365 53.9859 317.81 54.6659 318.7ZM32.6609 344.51C33.0309 344.51 33.3109 344.42 33.5009 344.24C33.6909 344.05 33.8359 343.695 33.9359 343.175C34.0959 343.175 34.2659 343.215 34.4459 343.295C34.4459 344.495 34.3059 345.505 34.0259 346.325H28.2959C28.1859 345.685 28.1309 345.17 28.1309 344.78C29.7909 343.03 30.7159 342.01 30.9059 341.72C31.0959 341.43 31.2709 341.145 31.4309 340.865C31.6709 340.425 31.7909 339.97 31.7909 339.5C31.7909 339.03 31.6759 338.67 31.4459 338.42C31.2259 338.17 30.9459 338.045 30.6059 338.045C29.9159 338.045 29.4709 338.48 29.2709 339.35C29.1909 339.36 29.0909 339.365 28.9709 339.365C28.8509 339.365 28.7059 339.355 28.5359 339.335C28.5259 339.085 28.5209 338.775 28.5209 338.405C28.5209 338.025 28.5459 337.63 28.5959 337.22C29.3859 336.66 30.2609 336.38 31.2209 336.38C32.1809 336.38 32.9259 336.645 33.4559 337.175C33.9959 337.695 34.2659 338.35 34.2659 339.14C34.2659 339.52 34.2059 339.835 34.0859 340.085C33.9759 340.325 33.8809 340.515 33.8009 340.655C33.7209 340.795 33.5909 340.965 33.4109 341.165C33.2309 341.365 33.0759 341.535 32.9459 341.675C32.8159 341.815 32.6109 342.01 32.3309 342.26L31.6109 342.905C31.4209 343.075 31.1309 343.33 30.7409 343.67C30.3609 344 30.0409 344.28 29.7809 344.51H32.6609ZM37.5773 337.955C37.9373 337.955 38.2423 338.085 38.4923 338.345C38.7423 338.595 38.8673 338.9 38.8673 339.26C38.8673 339.61 38.7373 339.915 38.4773 340.175C38.2273 340.425 37.9223 340.55 37.5623 340.55C37.2123 340.55 36.9073 340.425 36.6473 340.175C36.3973 339.915 36.2723 339.61 36.2723 339.26C36.2723 338.9 36.3973 338.595 36.6473 338.345C36.9073 338.085 37.2173 337.955 37.5773 337.955ZM37.5623 344.15C37.9223 344.15 38.2273 344.28 38.4773 344.54C38.7373 344.8 38.8673 345.11 38.8673 345.47C38.8673 345.82 38.7373 346.12 38.4773 346.37C38.2273 346.62 37.9223 346.745 37.5623 346.745C37.2123 346.745 36.9073 346.62 36.6473 346.37C36.3973 346.12 36.2723 345.82 36.2723 345.47C36.2723 345.11 36.3973 344.8 36.6473 344.54C36.9073 344.28 37.2123 344.15 37.5623 344.15ZM44.2507 342.8V339.83L42.0157 342.8H44.2507ZM46.2607 344V345.32C46.4907 345.43 46.7957 345.485 47.1757 345.485C47.1757 345.555 47.1757 345.655 47.1757 345.785C47.1757 345.915 47.1557 346.095 47.1157 346.325H43.2307C43.2307 346.245 43.2307 346.13 43.2307 345.98C43.2307 345.82 43.2557 345.655 43.3057 345.485C43.6257 345.435 43.8607 345.35 44.0107 345.23C44.1707 345.11 44.2507 344.895 44.2507 344.585V344H40.8907C40.6607 343.66 40.5107 343.33 40.4407 343.01L45.0757 336.575H46.2607V342.8H47.5957C47.6557 343.08 47.6857 343.32 47.6857 343.52C47.6857 343.71 47.6757 343.87 47.6557 344H46.2607ZM51.3955 344.6C51.5255 345.17 51.8405 345.455 52.3405 345.455C52.8505 345.455 53.1705 345.17 53.3005 344.6C53.4105 344.1 53.4655 343.25 53.4655 342.05C53.4655 340.1 53.3955 338.88 53.2555 338.39C53.1155 337.92 52.9355 337.635 52.7155 337.535C52.5855 337.475 52.4255 337.445 52.2355 337.445C51.7455 337.445 51.4405 337.735 51.3205 338.315C51.2105 338.785 51.1555 339.355 51.1555 340.025C51.1555 342.405 51.2355 343.93 51.3955 344.6ZM54.9955 337.7C55.6755 338.59 56.0155 339.85 56.0155 341.48C56.0155 343.11 55.6755 344.36 54.9955 345.23C54.3155 346.09 53.4155 346.52 52.2955 346.52C51.1855 346.52 50.2955 346.09 49.6255 345.23C48.9555 344.36 48.6205 343.11 48.6205 341.48C48.6205 339.85 48.9555 338.59 49.6255 337.7C50.2955 336.81 51.1855 336.365 52.2955 336.365C53.4155 336.365 54.3155 336.81 54.9955 337.7ZM32.6609 363.51C33.0309 363.51 33.3109 363.42 33.5009 363.24C33.6909 363.05 33.8359 362.695 33.9359 362.175C34.0959 362.175 34.2659 362.215 34.4459 362.295C34.4459 363.495 34.3059 364.505 34.0259 365.325H28.2959C28.1859 364.685 28.1309 364.17 28.1309 363.78C29.7909 362.03 30.7159 361.01 30.9059 360.72C31.0959 360.43 31.2709 360.145 31.4309 359.865C31.6709 359.425 31.7909 358.97 31.7909 358.5C31.7909 358.03 31.6759 357.67 31.4459 357.42C31.2259 357.17 30.9459 357.045 30.6059 357.045C29.9159 357.045 29.4709 357.48 29.2709 358.35C29.1909 358.36 29.0909 358.365 28.9709 358.365C28.8509 358.365 28.7059 358.355 28.5359 358.335C28.5259 358.085 28.5209 357.775 28.5209 357.405C28.5209 357.025 28.5459 356.63 28.5959 356.22C29.3859 355.66 30.2609 355.38 31.2209 355.38C32.1809 355.38 32.9259 355.645 33.4559 356.175C33.9959 356.695 34.2659 357.35 34.2659 358.14C34.2659 358.52 34.2059 358.835 34.0859 359.085C33.9759 359.325 33.8809 359.515 33.8009 359.655C33.7209 359.795 33.5909 359.965 33.4109 360.165C33.2309 360.365 33.0759 360.535 32.9459 360.675C32.8159 360.815 32.6109 361.01 32.3309 361.26L31.6109 361.905C31.4209 362.075 31.1309 362.33 30.7409 362.67C30.3609 363 30.0409 363.28 29.7809 363.51H32.6609ZM37.5773 356.955C37.9373 356.955 38.2423 357.085 38.4923 357.345C38.7423 357.595 38.8673 357.9 38.8673 358.26C38.8673 358.61 38.7373 358.915 38.4773 359.175C38.2273 359.425 37.9223 359.55 37.5623 359.55C37.2123 359.55 36.9073 359.425 36.6473 359.175C36.3973 358.915 36.2723 358.61 36.2723 358.26C36.2723 357.9 36.3973 357.595 36.6473 357.345C36.9073 357.085 37.2173 356.955 37.5773 356.955ZM37.5623 363.15C37.9223 363.15 38.2273 363.28 38.4773 363.54C38.7373 363.8 38.8673 364.11 38.8673 364.47C38.8673 364.82 38.7373 365.12 38.4773 365.37C38.2273 365.62 37.9223 365.745 37.5623 365.745C37.2123 365.745 36.9073 365.62 36.6473 365.37C36.3973 365.12 36.2723 364.82 36.2723 364.47C36.2723 364.11 36.3973 363.8 36.6473 363.54C36.9073 363.28 37.2123 363.15 37.5623 363.15ZM44.2507 361.8V358.83L42.0157 361.8H44.2507ZM46.2607 363V364.32C46.4907 364.43 46.7957 364.485 47.1757 364.485C47.1757 364.555 47.1757 364.655 47.1757 364.785C47.1757 364.915 47.1557 365.095 47.1157 365.325H43.2307C43.2307 365.245 43.2307 365.13 43.2307 364.98C43.2307 364.82 43.2557 364.655 43.3057 364.485C43.6257 364.435 43.8607 364.35 44.0107 364.23C44.1707 364.11 44.2507 363.895 44.2507 363.585V363H40.8907C40.6607 362.66 40.5107 362.33 40.4407 362.01L45.0757 355.575H46.2607V361.8H47.5957C47.6557 362.08 47.6857 362.32 47.6857 362.52C47.6857 362.71 47.6757 362.87 47.6557 363H46.2607ZM51.3955 363.6C51.5255 364.17 51.8405 364.455 52.3405 364.455C52.8505 364.455 53.1705 364.17 53.3005 363.6C53.4105 363.1 53.4655 362.25 53.4655 361.05C53.4655 359.1 53.3955 357.88 53.2555 357.39C53.1155 356.92 52.9355 356.635 52.7155 356.535C52.5855 356.475 52.4255 356.445 52.2355 356.445C51.7455 356.445 51.4405 356.735 51.3205 357.315C51.2105 357.785 51.1555 358.355 51.1555 359.025C51.1555 361.405 51.2355 362.93 51.3955 363.6ZM54.9955 356.7C55.6755 357.59 56.0155 358.85 56.0155 360.48C56.0155 362.11 55.6755 363.36 54.9955 364.23C54.3155 365.09 53.4155 365.52 52.2955 365.52C51.1855 365.52 50.2955 365.09 49.6255 364.23C48.9555 363.36 48.6205 362.11 48.6205 360.48C48.6205 358.85 48.9555 357.59 49.6255 356.7C50.2955 355.81 51.1855 355.365 52.2955 355.365C53.4155 355.365 54.3155 355.81 54.9955 356.7ZM32.9831 382.51C33.3531 382.51 33.6331 382.42 33.8231 382.24C34.0131 382.05 34.1581 381.695 34.2581 381.175C34.4181 381.175 34.5881 381.215 34.7681 381.295C34.7681 382.495 34.6281 383.505 34.3481 384.325H28.6181C28.5081 383.685 28.4531 383.17 28.4531 382.78C30.1131 381.03 31.0381 380.01 31.2281 379.72C31.4181 379.43 31.5931 379.145 31.7531 378.865C31.9931 378.425 32.1131 377.97 32.1131 377.5C32.1131 377.03 31.9981 376.67 31.7681 376.42C31.5481 376.17 31.2681 376.045 30.9281 376.045C30.2381 376.045 29.7931 376.48 29.5931 377.35C29.5131 377.36 29.4131 377.365 29.2931 377.365C29.1731 377.365 29.0281 377.355 28.8581 377.335C28.8481 377.085 28.8431 376.775 28.8431 376.405C28.8431 376.025 28.8681 375.63 28.9181 375.22C29.7081 374.66 30.5831 374.38 31.5431 374.38C32.5031 374.38 33.2481 374.645 33.7781 375.175C34.3181 375.695 34.5881 376.35 34.5881 377.14C34.5881 377.52 34.5281 377.835 34.4081 378.085C34.2981 378.325 34.2031 378.515 34.1231 378.655C34.0431 378.795 33.9131 378.965 33.7331 379.165C33.5531 379.365 33.3981 379.535 33.2681 379.675C33.1381 379.815 32.9331 380.01 32.6531 380.26L31.9331 380.905C31.7431 381.075 31.4531 381.33 31.0631 381.67C30.6831 382 30.3631 382.28 30.1031 382.51H32.9831ZM37.8996 375.955C38.2596 375.955 38.5646 376.085 38.8146 376.345C39.0646 376.595 39.1896 376.9 39.1896 377.26C39.1896 377.61 39.0596 377.915 38.7996 378.175C38.5496 378.425 38.2446 378.55 37.8846 378.55C37.5346 378.55 37.2296 378.425 36.9696 378.175C36.7196 377.915 36.5946 377.61 36.5946 377.26C36.5946 376.9 36.7196 376.595 36.9696 376.345C37.2296 376.085 37.5396 375.955 37.8996 375.955ZM37.8846 382.15C38.2446 382.15 38.5496 382.28 38.7996 382.54C39.0596 382.8 39.1896 383.11 39.1896 383.47C39.1896 383.82 39.0596 384.12 38.7996 384.37C38.5496 384.62 38.2446 384.745 37.8846 384.745C37.5346 384.745 37.2296 384.62 36.9696 384.37C36.7196 384.12 36.5946 383.82 36.5946 383.47C36.5946 383.11 36.7196 382.8 36.9696 382.54C37.2296 382.28 37.5346 382.15 37.8846 382.15ZM42.773 378.565C43.353 378.305 43.968 378.175 44.618 378.175C45.268 378.175 45.843 378.425 46.343 378.925C46.843 379.415 47.093 380.09 47.093 380.95C47.093 382 46.743 382.86 46.043 383.53C45.353 384.19 44.493 384.52 43.463 384.52C42.433 384.52 41.518 384.135 40.718 383.365C40.898 382.965 41.098 382.675 41.318 382.495C41.868 382.875 42.493 383.065 43.193 383.065C43.663 383.065 44.048 382.905 44.348 382.585C44.658 382.265 44.813 381.84 44.813 381.31C44.813 380.77 44.673 380.35 44.393 380.05C44.123 379.74 43.768 379.585 43.328 379.585C42.898 379.585 42.378 379.765 41.768 380.125L41.453 379.975L41.978 374.725H45.098C45.738 374.725 46.163 374.475 46.373 373.975C46.533 373.975 46.703 374.015 46.883 374.095C46.873 374.835 46.733 375.65 46.463 376.54H42.983L42.773 378.565ZM51.0732 382.6C51.2032 383.17 51.5182 383.455 52.0182 383.455C52.5282 383.455 52.8482 383.17 52.9782 382.6C53.0882 382.1 53.1432 381.25 53.1432 380.05C53.1432 378.1 53.0732 376.88 52.9332 376.39C52.7932 375.92 52.6132 375.635 52.3932 375.535C52.2632 375.475 52.1032 375.445 51.9132 375.445C51.4232 375.445 51.1182 375.735 50.9982 376.315C50.8882 376.785 50.8332 377.355 50.8332 378.025C50.8332 380.405 50.9132 381.93 51.0732 382.6ZM54.6732 375.7C55.3532 376.59 55.6932 377.85 55.6932 379.48C55.6932 381.11 55.3532 382.36 54.6732 383.23C53.9932 384.09 53.0932 384.52 51.9732 384.52C50.8632 384.52 49.9732 384.09 49.3032 383.23C48.6332 382.36 48.2982 381.11 48.2982 379.48C48.2982 377.85 48.6332 376.59 49.3032 375.7C49.9732 374.81 50.8632 374.365 51.9732 374.365C53.0932 374.365 53.9932 374.81 54.6732 375.7ZM29.7244 399.155V398.225C30.2644 398.135 30.6694 397.93 30.9394 397.61C31.2094 397.28 31.3444 396.9 31.3444 396.47C31.3444 396.03 31.2394 395.685 31.0294 395.435C30.8294 395.175 30.5644 395.045 30.2344 395.045C29.9144 395.045 29.6194 395.16 29.3494 395.39C29.0894 395.61 28.9144 395.93 28.8244 396.35C28.7444 396.36 28.6444 396.365 28.5244 396.365C28.4044 396.365 28.2594 396.355 28.0894 396.335C28.0794 396.085 28.0744 395.775 28.0744 395.405C28.0744 395.025 28.0994 394.63 28.1494 394.22C29.0494 393.66 30.0294 393.38 31.0894 393.38C31.8494 393.38 32.4944 393.605 33.0244 394.055C33.5544 394.495 33.8194 395.035 33.8194 395.675C33.8194 396.125 33.6644 396.565 33.3544 396.995C33.0444 397.415 32.5994 397.78 32.0194 398.09C33.2994 398.57 33.9394 399.4 33.9394 400.58C33.9394 401.4 33.6094 402.095 32.9494 402.665C32.2994 403.235 31.4944 403.52 30.5344 403.52C29.5744 403.52 28.6394 403.135 27.7294 402.365C27.8894 401.935 28.0894 401.645 28.3294 401.495C28.8794 401.875 29.5044 402.065 30.2044 402.065C30.6444 402.065 30.9994 401.945 31.2694 401.705C31.5394 401.455 31.6744 401.11 31.6744 400.67C31.6744 400.22 31.5044 399.855 31.1644 399.575C30.8244 399.295 30.3444 399.155 29.7244 399.155ZM37.05 394.955C37.41 394.955 37.715 395.085 37.965 395.345C38.215 395.595 38.34 395.9 38.34 396.26C38.34 396.61 38.21 396.915 37.95 397.175C37.7 397.425 37.395 397.55 37.035 397.55C36.685 397.55 36.38 397.425 36.12 397.175C35.87 396.915 35.745 396.61 35.745 396.26C35.745 395.9 35.87 395.595 36.12 395.345C36.38 395.085 36.69 394.955 37.05 394.955ZM37.035 401.15C37.395 401.15 37.7 401.28 37.95 401.54C38.21 401.8 38.34 402.11 38.34 402.47C38.34 402.82 38.21 403.12 37.95 403.37C37.7 403.62 37.395 403.745 37.035 403.745C36.685 403.745 36.38 403.62 36.12 403.37C35.87 403.12 35.745 402.82 35.745 402.47C35.745 402.11 35.87 401.8 36.12 401.54C36.38 401.28 36.685 401.15 37.035 401.15ZM42.9434 401.6C43.0734 402.17 43.3884 402.455 43.8884 402.455C44.3984 402.455 44.7184 402.17 44.8484 401.6C44.9584 401.1 45.0134 400.25 45.0134 399.05C45.0134 397.1 44.9434 395.88 44.8034 395.39C44.6634 394.92 44.4834 394.635 44.2634 394.535C44.1334 394.475 43.9734 394.445 43.7834 394.445C43.2934 394.445 42.9884 394.735 42.8684 395.315C42.7584 395.785 42.7034 396.355 42.7034 397.025C42.7034 399.405 42.7834 400.93 42.9434 401.6ZM46.5434 394.7C47.2234 395.59 47.5634 396.85 47.5634 398.48C47.5634 400.11 47.2234 401.36 46.5434 402.23C45.8634 403.09 44.9634 403.52 43.8434 403.52C42.7334 403.52 41.8434 403.09 41.1734 402.23C40.5034 401.36 40.1684 400.11 40.1684 398.48C40.1684 396.85 40.5034 395.59 41.1734 394.7C41.8434 393.81 42.7334 393.365 43.8434 393.365C44.9634 393.365 45.8634 393.81 46.5434 394.7ZM51.542 401.6C51.672 402.17 51.987 402.455 52.487 402.455C52.997 402.455 53.317 402.17 53.447 401.6C53.557 401.1 53.612 400.25 53.612 399.05C53.612 397.1 53.542 395.88 53.402 395.39C53.262 394.92 53.082 394.635 52.862 394.535C52.732 394.475 52.572 394.445 52.382 394.445C51.892 394.445 51.587 394.735 51.467 395.315C51.357 395.785 51.302 396.355 51.302 397.025C51.302 399.405 51.382 400.93 51.542 401.6ZM55.142 394.7C55.822 395.59 56.162 396.85 56.162 398.48C56.162 400.11 55.822 401.36 55.142 402.23C54.462 403.09 53.562 403.52 52.442 403.52C51.332 403.52 50.442 403.09 49.772 402.23C49.102 401.36 48.767 400.11 48.767 398.48C48.767 396.85 49.102 395.59 49.772 394.7C50.442 393.81 51.332 393.365 52.442 393.365C53.562 393.365 54.462 393.81 55.142 394.7ZM31.2625 418.155V417.225C31.8025 417.135 32.2075 416.93 32.4775 416.61C32.7475 416.28 32.8825 415.9 32.8825 415.47C32.8825 415.03 32.7775 414.685 32.5675 414.435C32.3675 414.175 32.1025 414.045 31.7725 414.045C31.4525 414.045 31.1575 414.16 30.8875 414.39C30.6275 414.61 30.4525 414.93 30.3625 415.35C30.2825 415.36 30.1825 415.365 30.0625 415.365C29.9425 415.365 29.7975 415.355 29.6275 415.335C29.6175 415.085 29.6125 414.775 29.6125 414.405C29.6125 414.025 29.6375 413.63 29.6875 413.22C30.5875 412.66 31.5675 412.38 32.6275 412.38C33.3875 412.38 34.0325 412.605 34.5625 413.055C35.0925 413.495 35.3575 414.035 35.3575 414.675C35.3575 415.125 35.2025 415.565 34.8925 415.995C34.5825 416.415 34.1375 416.78 33.5575 417.09C34.8375 417.57 35.4775 418.4 35.4775 419.58C35.4775 420.4 35.1475 421.095 34.4875 421.665C33.8375 422.235 33.0325 422.52 32.0725 422.52C31.1125 422.52 30.1775 422.135 29.2675 421.365C29.4275 420.935 29.6275 420.645 29.8675 420.495C30.4175 420.875 31.0425 421.065 31.7425 421.065C32.1825 421.065 32.5375 420.945 32.8075 420.705C33.0775 420.455 33.2125 420.11 33.2125 419.67C33.2125 419.22 33.0425 418.855 32.7025 418.575C32.3625 418.295 31.8825 418.155 31.2625 418.155ZM38.5881 413.955C38.9481 413.955 39.2531 414.085 39.5031 414.345C39.7531 414.595 39.8781 414.9 39.8781 415.26C39.8781 415.61 39.7481 415.915 39.4881 416.175C39.2381 416.425 38.9331 416.55 38.5731 416.55C38.2231 416.55 37.9181 416.425 37.6581 416.175C37.4081 415.915 37.2831 415.61 37.2831 415.26C37.2831 414.9 37.4081 414.595 37.6581 414.345C37.9181 414.085 38.2281 413.955 38.5881 413.955ZM38.5731 420.15C38.9331 420.15 39.2381 420.28 39.4881 420.54C39.7481 420.8 39.8781 421.11 39.8781 421.47C39.8781 421.82 39.7481 422.12 39.4881 422.37C39.2381 422.62 38.9331 422.745 38.5731 422.745C38.2231 422.745 37.9181 422.62 37.6581 422.37C37.4081 422.12 37.2831 421.82 37.2831 421.47C37.2831 421.11 37.4081 420.8 37.6581 420.54C37.9181 420.28 38.2231 420.15 38.5731 420.15ZM46.4464 421.47C46.4564 421.53 46.4614 421.63 46.4614 421.77C46.4614 421.91 46.4364 422.095 46.3864 422.325H41.2564C41.2564 422.255 41.2564 422.14 41.2564 421.98C41.2564 421.82 41.2864 421.65 41.3464 421.47C41.8264 421.42 42.1914 421.335 42.4414 421.215C42.6914 421.085 42.8164 420.875 42.8164 420.585V414.525L41.3464 414.765C41.3364 414.695 41.3314 414.595 41.3314 414.465C41.3314 414.335 41.3564 414.22 41.4064 414.12C42.6164 413.36 43.7014 412.745 44.6614 412.275L45.1414 412.47V421.17C45.4714 421.32 45.9064 421.42 46.4464 421.47ZM50.0039 420.6C50.1339 421.17 50.4489 421.455 50.9489 421.455C51.4589 421.455 51.7789 421.17 51.9089 420.6C52.0189 420.1 52.0739 419.25 52.0739 418.05C52.0739 416.1 52.0039 414.88 51.8639 414.39C51.7239 413.92 51.5439 413.635 51.3239 413.535C51.1939 413.475 51.0339 413.445 50.8439 413.445C50.3539 413.445 50.0489 413.735 49.9289 414.315C49.8189 414.785 49.7639 415.355 49.7639 416.025C49.7639 418.405 49.8439 419.93 50.0039 420.6ZM53.6039 413.7C54.2839 414.59 54.6239 415.85 54.6239 417.48C54.6239 419.11 54.2839 420.36 53.6039 421.23C52.9239 422.09 52.0239 422.52 50.9039 422.52C49.7939 422.52 48.9039 422.09 48.2339 421.23C47.5639 420.36 47.2289 419.11 47.2289 417.48C47.2289 415.85 47.5639 414.59 48.2339 413.7C48.9039 412.81 49.7939 412.365 50.9039 412.365C52.0239 412.365 52.9239 412.81 53.6039 413.7ZM30.2004 437.155V436.225C30.7404 436.135 31.1454 435.93 31.4154 435.61C31.6854 435.28 31.8204 434.9 31.8204 434.47C31.8204 434.03 31.7154 433.685 31.5054 433.435C31.3054 433.175 31.0404 433.045 30.7104 433.045C30.3904 433.045 30.0954 433.16 29.8254 433.39C29.5654 433.61 29.3904 433.93 29.3004 434.35C29.2204 434.36 29.1204 434.365 29.0004 434.365C28.8804 434.365 28.7354 434.355 28.5654 434.335C28.5554 434.085 28.5504 433.775 28.5504 433.405C28.5504 433.025 28.5754 432.63 28.6254 432.22C29.5254 431.66 30.5054 431.38 31.5654 431.38C32.3254 431.38 32.9704 431.605 33.5004 432.055C34.0304 432.495 34.2954 433.035 34.2954 433.675C34.2954 434.125 34.1404 434.565 33.8304 434.995C33.5204 435.415 33.0754 435.78 32.4954 436.09C33.7754 436.57 34.4154 437.4 34.4154 438.58C34.4154 439.4 34.0854 440.095 33.4254 440.665C32.7754 441.235 31.9704 441.52 31.0104 441.52C30.0504 441.52 29.1154 441.135 28.2054 440.365C28.3654 439.935 28.5654 439.645 28.8054 439.495C29.3554 439.875 29.9804 440.065 30.6804 440.065C31.1204 440.065 31.4754 439.945 31.7454 439.705C32.0154 439.455 32.1504 439.11 32.1504 438.67C32.1504 438.22 31.9804 437.855 31.6404 437.575C31.3004 437.295 30.8204 437.155 30.2004 437.155ZM37.5261 432.955C37.8861 432.955 38.1911 433.085 38.4411 433.345C38.6911 433.595 38.8161 433.9 38.8161 434.26C38.8161 434.61 38.6861 434.915 38.4261 435.175C38.1761 435.425 37.8711 435.55 37.5111 435.55C37.1611 435.55 36.8561 435.425 36.5961 435.175C36.3461 434.915 36.2211 434.61 36.2211 434.26C36.2211 433.9 36.3461 433.595 36.5961 433.345C36.8561 433.085 37.1661 432.955 37.5261 432.955ZM37.5111 439.15C37.8711 439.15 38.1761 439.28 38.4261 439.54C38.6861 439.8 38.8161 440.11 38.8161 440.47C38.8161 440.82 38.6861 441.12 38.4261 441.37C38.1761 441.62 37.8711 441.745 37.5111 441.745C37.1611 441.745 36.8561 441.62 36.5961 441.37C36.3461 441.12 36.2211 440.82 36.2211 440.47C36.2211 440.11 36.3461 439.8 36.5961 439.54C36.8561 439.28 37.1611 439.15 37.5111 439.15ZM45.3244 439.51C45.6944 439.51 45.9744 439.42 46.1644 439.24C46.3544 439.05 46.4994 438.695 46.5994 438.175C46.7594 438.175 46.9294 438.215 47.1094 438.295C47.1094 439.495 46.9694 440.505 46.6894 441.325H40.9594C40.8494 440.685 40.7944 440.17 40.7944 439.78C42.4544 438.03 43.3794 437.01 43.5694 436.72C43.7594 436.43 43.9344 436.145 44.0944 435.865C44.3344 435.425 44.4544 434.97 44.4544 434.5C44.4544 434.03 44.3394 433.67 44.1094 433.42C43.8894 433.17 43.6094 433.045 43.2694 433.045C42.5794 433.045 42.1344 433.48 41.9344 434.35C41.8544 434.36 41.7544 434.365 41.6344 434.365C41.5144 434.365 41.3694 434.355 41.1994 434.335C41.1894 434.085 41.1844 433.775 41.1844 433.405C41.1844 433.025 41.2094 432.63 41.2594 432.22C42.0494 431.66 42.9244 431.38 43.8844 431.38C44.8444 431.38 45.5894 431.645 46.1194 432.175C46.6594 432.695 46.9294 433.35 46.9294 434.14C46.9294 434.52 46.8694 434.835 46.7494 435.085C46.6394 435.325 46.5444 435.515 46.4644 435.655C46.3844 435.795 46.2544 435.965 46.0744 436.165C45.8944 436.365 45.7394 436.535 45.6094 436.675C45.4794 436.815 45.2744 437.01 44.9944 437.26L44.2744 437.905C44.0844 438.075 43.7944 438.33 43.4044 438.67C43.0244 439 42.7044 439.28 42.4444 439.51H45.3244ZM51.0659 439.6C51.1959 440.17 51.5109 440.455 52.0109 440.455C52.5209 440.455 52.8409 440.17 52.9709 439.6C53.0809 439.1 53.1359 438.25 53.1359 437.05C53.1359 435.1 53.0659 433.88 52.9259 433.39C52.7859 432.92 52.6059 432.635 52.3859 432.535C52.2559 432.475 52.0959 432.445 51.9059 432.445C51.4159 432.445 51.1109 432.735 50.9909 433.315C50.8809 433.785 50.8259 434.355 50.8259 435.025C50.8259 437.405 50.9059 438.93 51.0659 439.6ZM54.6659 432.7C55.3459 433.59 55.6859 434.85 55.6859 436.48C55.6859 438.11 55.3459 439.36 54.6659 440.23C53.9859 441.09 53.0859 441.52 51.9659 441.52C50.8559 441.52 49.9659 441.09 49.2959 440.23C48.6259 439.36 48.2909 438.11 48.2909 436.48C48.2909 434.85 48.6259 433.59 49.2959 432.7C49.9659 431.81 50.8559 431.365 51.9659 431.365C53.0859 431.365 53.9859 431.81 54.6659 432.7ZM30.3909 456.155V455.225C30.9309 455.135 31.3359 454.93 31.6059 454.61C31.8759 454.28 32.0109 453.9 32.0109 453.47C32.0109 453.03 31.9059 452.685 31.6959 452.435C31.4959 452.175 31.2309 452.045 30.9009 452.045C30.5809 452.045 30.2859 452.16 30.0159 452.39C29.7559 452.61 29.5809 452.93 29.4909 453.35C29.4109 453.36 29.3109 453.365 29.1909 453.365C29.0709 453.365 28.9259 453.355 28.7559 453.335C28.7459 453.085 28.7409 452.775 28.7409 452.405C28.7409 452.025 28.7659 451.63 28.8159 451.22C29.7159 450.66 30.6959 450.38 31.7559 450.38C32.5159 450.38 33.1609 450.605 33.6909 451.055C34.2209 451.495 34.4859 452.035 34.4859 452.675C34.4859 453.125 34.3309 453.565 34.0209 453.995C33.7109 454.415 33.2659 454.78 32.6859 455.09C33.9659 455.57 34.6059 456.4 34.6059 457.58C34.6059 458.4 34.2759 459.095 33.6159 459.665C32.9659 460.235 32.1609 460.52 31.2009 460.52C30.2409 460.52 29.3059 460.135 28.3959 459.365C28.5559 458.935 28.7559 458.645 28.9959 458.495C29.5459 458.875 30.1709 459.065 30.8709 459.065C31.3109 459.065 31.6659 458.945 31.9359 458.705C32.2059 458.455 32.3409 458.11 32.3409 457.67C32.3409 457.22 32.1709 456.855 31.8309 456.575C31.4909 456.295 31.0109 456.155 30.3909 456.155ZM37.7165 451.955C38.0765 451.955 38.3815 452.085 38.6315 452.345C38.8815 452.595 39.0065 452.9 39.0065 453.26C39.0065 453.61 38.8765 453.915 38.6165 454.175C38.3665 454.425 38.0615 454.55 37.7015 454.55C37.3515 454.55 37.0465 454.425 36.7865 454.175C36.5365 453.915 36.4115 453.61 36.4115 453.26C36.4115 452.9 36.5365 452.595 36.7865 452.345C37.0465 452.085 37.3565 451.955 37.7165 451.955ZM37.7015 458.15C38.0615 458.15 38.3665 458.28 38.6165 458.54C38.8765 458.8 39.0065 459.11 39.0065 459.47C39.0065 459.82 38.8765 460.12 38.6165 460.37C38.3665 460.62 38.0615 460.745 37.7015 460.745C37.3515 460.745 37.0465 460.62 36.7865 460.37C36.5365 460.12 36.4115 459.82 36.4115 459.47C36.4115 459.11 36.5365 458.8 36.7865 458.54C37.0465 458.28 37.3515 458.15 37.7015 458.15ZM42.7249 456.155V455.225C43.2649 455.135 43.6699 454.93 43.9399 454.61C44.2099 454.28 44.3449 453.9 44.3449 453.47C44.3449 453.03 44.2399 452.685 44.0299 452.435C43.8299 452.175 43.5649 452.045 43.2349 452.045C42.9149 452.045 42.6199 452.16 42.3499 452.39C42.0899 452.61 41.9149 452.93 41.8249 453.35C41.7449 453.36 41.6449 453.365 41.5249 453.365C41.4049 453.365 41.2599 453.355 41.0899 453.335C41.0799 453.085 41.0749 452.775 41.0749 452.405C41.0749 452.025 41.0999 451.63 41.1499 451.22C42.0499 450.66 43.0299 450.38 44.0899 450.38C44.8499 450.38 45.4949 450.605 46.0249 451.055C46.5549 451.495 46.8199 452.035 46.8199 452.675C46.8199 453.125 46.6649 453.565 46.3549 453.995C46.0449 454.415 45.5999 454.78 45.0199 455.09C46.2999 455.57 46.9399 456.4 46.9399 457.58C46.9399 458.4 46.6099 459.095 45.9499 459.665C45.2999 460.235 44.4949 460.52 43.5349 460.52C42.5749 460.52 41.6399 460.135 40.7299 459.365C40.8899 458.935 41.0899 458.645 41.3299 458.495C41.8799 458.875 42.5049 459.065 43.2049 459.065C43.6449 459.065 43.9999 458.945 44.2699 458.705C44.5399 458.455 44.6749 458.11 44.6749 457.67C44.6749 457.22 44.5049 456.855 44.1649 456.575C43.8249 456.295 43.3449 456.155 42.7249 456.155ZM50.8755 458.6C51.0055 459.17 51.3205 459.455 51.8205 459.455C52.3305 459.455 52.6505 459.17 52.7805 458.6C52.8905 458.1 52.9455 457.25 52.9455 456.05C52.9455 454.1 52.8755 452.88 52.7355 452.39C52.5955 451.92 52.4155 451.635 52.1955 451.535C52.0655 451.475 51.9055 451.445 51.7155 451.445C51.2255 451.445 50.9205 451.735 50.8005 452.315C50.6905 452.785 50.6355 453.355 50.6355 454.025C50.6355 456.405 50.7155 457.93 50.8755 458.6ZM54.4755 451.7C55.1555 452.59 55.4955 453.85 55.4955 455.48C55.4955 457.11 55.1555 458.36 54.4755 459.23C53.7955 460.09 52.8955 460.52 51.7755 460.52C50.6655 460.52 49.7755 460.09 49.1055 459.23C48.4355 458.36 48.1005 457.11 48.1005 455.48C48.1005 453.85 48.4355 452.59 49.1055 451.7C49.7755 450.81 50.6655 450.365 51.7755 450.365C52.8955 450.365 53.7955 450.81 54.4755 451.7ZM30.0613 475.155V474.225C30.6013 474.135 31.0063 473.93 31.2763 473.61C31.5463 473.28 31.6813 472.9 31.6813 472.47C31.6813 472.03 31.5763 471.685 31.3663 471.435C31.1663 471.175 30.9013 471.045 30.5713 471.045C30.2513 471.045 29.9563 471.16 29.6863 471.39C29.4263 471.61 29.2513 471.93 29.1613 472.35C29.0813 472.36 28.9813 472.365 28.8613 472.365C28.7413 472.365 28.5963 472.355 28.4263 472.335C28.4163 472.085 28.4113 471.775 28.4113 471.405C28.4113 471.025 28.4363 470.63 28.4863 470.22C29.3863 469.66 30.3663 469.38 31.4263 469.38C32.1863 469.38 32.8313 469.605 33.3613 470.055C33.8913 470.495 34.1563 471.035 34.1563 471.675C34.1563 472.125 34.0013 472.565 33.6913 472.995C33.3813 473.415 32.9363 473.78 32.3563 474.09C33.6363 474.57 34.2763 475.4 34.2763 476.58C34.2763 477.4 33.9463 478.095 33.2863 478.665C32.6363 479.235 31.8313 479.52 30.8713 479.52C29.9113 479.52 28.9763 479.135 28.0663 478.365C28.2263 477.935 28.4263 477.645 28.6663 477.495C29.2163 477.875 29.8413 478.065 30.5413 478.065C30.9813 478.065 31.3363 477.945 31.6063 477.705C31.8763 477.455 32.0113 477.11 32.0113 476.67C32.0113 476.22 31.8413 475.855 31.5013 475.575C31.1613 475.295 30.6813 475.155 30.0613 475.155ZM37.3869 470.955C37.7469 470.955 38.0519 471.085 38.3019 471.345C38.5519 471.595 38.6769 471.9 38.6769 472.26C38.6769 472.61 38.5469 472.915 38.2869 473.175C38.0369 473.425 37.7319 473.55 37.3719 473.55C37.0219 473.55 36.7169 473.425 36.4569 473.175C36.2069 472.915 36.0819 472.61 36.0819 472.26C36.0819 471.9 36.2069 471.595 36.4569 471.345C36.7169 471.085 37.0269 470.955 37.3869 470.955ZM37.3719 477.15C37.7319 477.15 38.0369 477.28 38.2869 477.54C38.5469 477.8 38.6769 478.11 38.6769 478.47C38.6769 478.82 38.5469 479.12 38.2869 479.37C38.0369 479.62 37.7319 479.745 37.3719 479.745C37.0219 479.745 36.7169 479.62 36.4569 479.37C36.2069 479.12 36.0819 478.82 36.0819 478.47C36.0819 478.11 36.2069 477.8 36.4569 477.54C36.7169 477.28 37.0219 477.15 37.3719 477.15ZM44.0603 475.8V472.83L41.8253 475.8H44.0603ZM46.0703 477V478.32C46.3003 478.43 46.6053 478.485 46.9853 478.485C46.9853 478.555 46.9853 478.655 46.9853 478.785C46.9853 478.915 46.9653 479.095 46.9253 479.325H43.0403C43.0403 479.245 43.0403 479.13 43.0403 478.98C43.0403 478.82 43.0653 478.655 43.1153 478.485C43.4353 478.435 43.6703 478.35 43.8203 478.23C43.9803 478.11 44.0603 477.895 44.0603 477.585V477H40.7003C40.4703 476.66 40.3203 476.33 40.2503 476.01L44.8853 469.575H46.0703V475.8H47.4053C47.4653 476.08 47.4953 476.32 47.4953 476.52C47.4953 476.71 47.4853 476.87 47.4653 477H46.0703ZM51.2051 477.6C51.3351 478.17 51.6501 478.455 52.1501 478.455C52.6601 478.455 52.9801 478.17 53.1101 477.6C53.2201 477.1 53.2751 476.25 53.2751 475.05C53.2751 473.1 53.2051 471.88 53.0651 471.39C52.9251 470.92 52.7451 470.635 52.5251 470.535C52.3951 470.475 52.2351 470.445 52.0451 470.445C51.5551 470.445 51.2501 470.735 51.1301 471.315C51.0201 471.785 50.9651 472.355 50.9651 473.025C50.9651 475.405 51.0451 476.93 51.2051 477.6ZM54.8051 470.7C55.4851 471.59 55.8251 472.85 55.8251 474.48C55.8251 476.11 55.4851 477.36 54.8051 478.23C54.1251 479.09 53.2251 479.52 52.1051 479.52C50.9951 479.52 50.1051 479.09 49.4351 478.23C48.7651 477.36 48.4301 476.11 48.4301 474.48C48.4301 472.85 48.7651 471.59 49.4351 470.7C50.1051 469.81 50.9951 469.365 52.1051 469.365C53.2251 469.365 54.1251 469.81 54.8051 470.7ZM30.3836 494.155V493.225C30.9236 493.135 31.3286 492.93 31.5986 492.61C31.8686 492.28 32.0036 491.9 32.0036 491.47C32.0036 491.03 31.8986 490.685 31.6886 490.435C31.4886 490.175 31.2236 490.045 30.8936 490.045C30.5736 490.045 30.2786 490.16 30.0086 490.39C29.7486 490.61 29.5736 490.93 29.4836 491.35C29.4036 491.36 29.3036 491.365 29.1836 491.365C29.0636 491.365 28.9186 491.355 28.7486 491.335C28.7386 491.085 28.7336 490.775 28.7336 490.405C28.7336 490.025 28.7586 489.63 28.8086 489.22C29.7086 488.66 30.6886 488.38 31.7486 488.38C32.5086 488.38 33.1536 488.605 33.6836 489.055C34.2136 489.495 34.4786 490.035 34.4786 490.675C34.4786 491.125 34.3236 491.565 34.0136 491.995C33.7036 492.415 33.2586 492.78 32.6786 493.09C33.9586 493.57 34.5986 494.4 34.5986 495.58C34.5986 496.4 34.2686 497.095 33.6086 497.665C32.9586 498.235 32.1536 498.52 31.1936 498.52C30.2336 498.52 29.2986 498.135 28.3886 497.365C28.5486 496.935 28.7486 496.645 28.9886 496.495C29.5386 496.875 30.1636 497.065 30.8636 497.065C31.3036 497.065 31.6586 496.945 31.9286 496.705C32.1986 496.455 32.3336 496.11 32.3336 495.67C32.3336 495.22 32.1636 494.855 31.8236 494.575C31.4836 494.295 31.0036 494.155 30.3836 494.155ZM37.7092 489.955C38.0692 489.955 38.3742 490.085 38.6242 490.345C38.8742 490.595 38.9992 490.9 38.9992 491.26C38.9992 491.61 38.8692 491.915 38.6092 492.175C38.3592 492.425 38.0542 492.55 37.6942 492.55C37.3442 492.55 37.0392 492.425 36.7792 492.175C36.5292 491.915 36.4042 491.61 36.4042 491.26C36.4042 490.9 36.5292 490.595 36.7792 490.345C37.0392 490.085 37.3492 489.955 37.7092 489.955ZM37.6942 496.15C38.0542 496.15 38.3592 496.28 38.6092 496.54C38.8692 496.8 38.9992 497.11 38.9992 497.47C38.9992 497.82 38.8692 498.12 38.6092 498.37C38.3592 498.62 38.0542 498.745 37.6942 498.745C37.3442 498.745 37.0392 498.62 36.7792 498.37C36.5292 498.12 36.4042 497.82 36.4042 497.47C36.4042 497.11 36.5292 496.8 36.7792 496.54C37.0392 496.28 37.3442 496.15 37.6942 496.15ZM42.5825 492.565C43.1625 492.305 43.7775 492.175 44.4275 492.175C45.0775 492.175 45.6525 492.425 46.1525 492.925C46.6525 493.415 46.9025 494.09 46.9025 494.95C46.9025 496 46.5525 496.86 45.8525 497.53C45.1625 498.19 44.3025 498.52 43.2725 498.52C42.2425 498.52 41.3275 498.135 40.5275 497.365C40.7075 496.965 40.9075 496.675 41.1275 496.495C41.6775 496.875 42.3025 497.065 43.0025 497.065C43.4725 497.065 43.8575 496.905 44.1575 496.585C44.4675 496.265 44.6225 495.84 44.6225 495.31C44.6225 494.77 44.4825 494.35 44.2025 494.05C43.9325 493.74 43.5775 493.585 43.1375 493.585C42.7075 493.585 42.1875 493.765 41.5775 494.125L41.2625 493.975L41.7875 488.725H44.9075C45.5475 488.725 45.9725 488.475 46.1825 487.975C46.3425 487.975 46.5125 488.015 46.6925 488.095C46.6825 488.835 46.5425 489.65 46.2725 490.54H42.7925L42.5825 492.565ZM50.8828 496.6C51.0128 497.17 51.3278 497.455 51.8278 497.455C52.3378 497.455 52.6578 497.17 52.7878 496.6C52.8978 496.1 52.9528 495.25 52.9528 494.05C52.9528 492.1 52.8828 490.88 52.7428 490.39C52.6028 489.92 52.4228 489.635 52.2028 489.535C52.0728 489.475 51.9128 489.445 51.7228 489.445C51.2328 489.445 50.9278 489.735 50.8078 490.315C50.6978 490.785 50.6428 491.355 50.6428 492.025C50.6428 494.405 50.7228 495.93 50.8828 496.6ZM54.4828 489.7C55.1628 490.59 55.5028 491.85 55.5028 493.48C55.5028 495.11 55.1628 496.36 54.4828 497.23C53.8028 498.09 52.9028 498.52 51.7828 498.52C50.6728 498.52 49.7828 498.09 49.1128 497.23C48.4428 496.36 48.1078 495.11 48.1078 493.48C48.1078 491.85 48.4428 490.59 49.1128 489.7C49.7828 488.81 50.6728 488.365 51.7828 488.365C52.9028 488.365 53.8028 488.81 54.4828 489.7Z" fill="white"/>
</g>
<path d="M356.884 63.155V62.225C357.424 62.135 357.829 61.93 358.099 61.61C358.369 61.28 358.504 60.9 358.504 60.47C358.504 60.03 358.399 59.685 358.189 59.435C357.989 59.175 357.724 59.045 357.394 59.045C357.074 59.045 356.779 59.16 356.509 59.39C356.249 59.61 356.074 59.93 355.984 60.35C355.904 60.36 355.804 60.365 355.684 60.365C355.564 60.365 355.419 60.355 355.249 60.335C355.239 60.085 355.234 59.775 355.234 59.405C355.234 59.025 355.259 58.63 355.309 58.22C356.209 57.66 357.189 57.38 358.249 57.38C359.009 57.38 359.654 57.605 360.184 58.055C360.714 58.495 360.979 59.035 360.979 59.675C360.979 60.125 360.824 60.565 360.514 60.995C360.204 61.415 359.759 61.78 359.179 62.09C360.459 62.57 361.099 63.4 361.099 64.58C361.099 65.4 360.769 66.095 360.109 66.665C359.459 67.235 358.654 67.52 357.694 67.52C356.734 67.52 355.799 67.135 354.889 66.365C355.049 65.935 355.249 65.645 355.489 65.495C356.039 65.875 356.664 66.065 357.364 66.065C357.804 66.065 358.159 65.945 358.429 65.705C358.699 65.455 358.834 65.11 358.834 64.67C358.834 64.22 358.664 63.855 358.324 63.575C357.984 63.295 357.504 63.155 356.884 63.155ZM364.209 58.955C364.569 58.955 364.874 59.085 365.124 59.345C365.374 59.595 365.499 59.9 365.499 60.26C365.499 60.61 365.369 60.915 365.109 61.175C364.859 61.425 364.554 61.55 364.194 61.55C363.844 61.55 363.539 61.425 363.279 61.175C363.029 60.915 362.904 60.61 362.904 60.26C362.904 59.9 363.029 59.595 363.279 59.345C363.539 59.085 363.849 58.955 364.209 58.955ZM364.194 65.15C364.554 65.15 364.859 65.28 365.109 65.54C365.369 65.8 365.499 66.11 365.499 66.47C365.499 66.82 365.369 67.12 365.109 67.37C364.859 67.62 364.554 67.745 364.194 67.745C363.844 67.745 363.539 67.62 363.279 67.37C363.029 67.12 362.904 66.82 362.904 66.47C362.904 66.11 363.029 65.8 363.279 65.54C363.539 65.28 363.844 65.15 364.194 65.15ZM369.083 61.565C369.663 61.305 370.278 61.175 370.928 61.175C371.578 61.175 372.153 61.425 372.653 61.925C373.153 62.415 373.403 63.09 373.403 63.95C373.403 65 373.053 65.86 372.353 66.53C371.663 67.19 370.803 67.52 369.773 67.52C368.743 67.52 367.828 67.135 367.028 66.365C367.208 65.965 367.408 65.675 367.628 65.495C368.178 65.875 368.803 66.065 369.503 66.065C369.973 66.065 370.358 65.905 370.658 65.585C370.968 65.265 371.123 64.84 371.123 64.31C371.123 63.77 370.983 63.35 370.703 63.05C370.433 62.74 370.078 62.585 369.638 62.585C369.208 62.585 368.688 62.765 368.078 63.125L367.763 62.975L368.288 57.725H371.408C372.048 57.725 372.473 57.475 372.683 56.975C372.843 56.975 373.013 57.015 373.193 57.095C373.183 57.835 373.043 58.65 372.773 59.54H369.293L369.083 61.565ZM377.383 65.6C377.513 66.17 377.828 66.455 378.328 66.455C378.838 66.455 379.158 66.17 379.288 65.6C379.398 65.1 379.453 64.25 379.453 63.05C379.453 61.1 379.383 59.88 379.243 59.39C379.103 58.92 378.923 58.635 378.703 58.535C378.573 58.475 378.413 58.445 378.223 58.445C377.733 58.445 377.428 58.735 377.308 59.315C377.198 59.785 377.143 60.355 377.143 61.025C377.143 63.405 377.223 64.93 377.383 65.6ZM380.983 58.7C381.663 59.59 382.003 60.85 382.003 62.48C382.003 64.11 381.663 65.36 380.983 66.23C380.303 67.09 379.403 67.52 378.283 67.52C377.173 67.52 376.283 67.09 375.613 66.23C374.943 65.36 374.608 64.11 374.608 62.48C374.608 60.85 374.943 59.59 375.613 58.7C376.283 57.81 377.173 57.365 378.283 57.365C379.403 57.365 380.303 57.81 380.983 58.7Z" fill="white"/>
</svg>
