<svg width="270" height="170" viewBox="0 0 270 170" fill="none" xmlns="http://www.w3.org/2000/svg">
<rect width="270" height="170" rx="12" fill="white"/>
<path d="M50.1591 39H48.0455C47.9205 38.392 47.7017 37.858 47.3892 37.3977C47.0824 36.9375 46.7074 36.5511 46.2642 36.2386C45.8267 35.9205 45.3409 35.6818 44.8068 35.5227C44.2727 35.3636 43.7159 35.2841 43.1364 35.2841C42.0795 35.2841 41.1222 35.5511 40.2642 36.0852C39.4119 36.6193 38.733 37.4062 38.2273 38.446C37.7273 39.4858 37.4773 40.7614 37.4773 42.2727C37.4773 43.7841 37.7273 45.0597 38.2273 46.0994C38.733 47.1392 39.4119 47.9261 40.2642 48.4602C41.1222 48.9943 42.0795 49.2614 43.1364 49.2614C43.7159 49.2614 44.2727 49.1818 44.8068 49.0227C45.3409 48.8636 45.8267 48.6278 46.2642 48.3153C46.7074 47.9972 47.0824 47.608 47.3892 47.1477C47.7017 46.6818 47.9205 46.1477 48.0455 45.5455H50.1591C50 46.4375 49.7102 47.2358 49.2898 47.9403C48.8693 48.6449 48.3466 49.2443 47.7216 49.7386C47.0966 50.2273 46.3949 50.5994 45.6165 50.8551C44.8438 51.1108 44.017 51.2386 43.1364 51.2386C41.6477 51.2386 40.3239 50.875 39.1648 50.1477C38.0057 49.4205 37.0938 48.3864 36.429 47.0455C35.7642 45.7045 35.4318 44.1136 35.4318 42.2727C35.4318 40.4318 35.7642 38.8409 36.429 37.5C37.0938 36.1591 38.0057 35.125 39.1648 34.3977C40.3239 33.6705 41.6477 33.3068 43.1364 33.3068C44.017 33.3068 44.8438 33.4347 45.6165 33.6903C46.3949 33.946 47.0966 34.321 47.7216 34.8153C48.3466 35.304 48.8693 35.9006 49.2898 36.6051C49.7102 37.304 50 38.1023 50.1591 39ZM58.62 51.2727C57.4382 51.2727 56.4013 50.9915 55.5092 50.429C54.6229 49.8665 53.9297 49.0795 53.4297 48.0682C52.9354 47.0568 52.6882 45.875 52.6882 44.5227C52.6882 43.1591 52.9354 41.9687 53.4297 40.9517C53.9297 39.9347 54.6229 39.1449 55.5092 38.5824C56.4013 38.0199 57.4382 37.7386 58.62 37.7386C59.8018 37.7386 60.8359 38.0199 61.7223 38.5824C62.6143 39.1449 63.3075 39.9347 63.8018 40.9517C64.3018 41.9687 64.5518 43.1591 64.5518 44.5227C64.5518 45.875 64.3018 47.0568 63.8018 48.0682C63.3075 49.0795 62.6143 49.8665 61.7223 50.429C60.8359 50.9915 59.8018 51.2727 58.62 51.2727ZM58.62 49.4659C59.5178 49.4659 60.2564 49.2358 60.8359 48.7756C61.4155 48.3153 61.8445 47.7102 62.1229 46.9602C62.4013 46.2102 62.5405 45.3977 62.5405 44.5227C62.5405 43.6477 62.4013 42.8324 62.1229 42.0767C61.8445 41.321 61.4155 40.7102 60.8359 40.2443C60.2564 39.7784 59.5178 39.5455 58.62 39.5455C57.7223 39.5455 56.9837 39.7784 56.4041 40.2443C55.8246 40.7102 55.3956 41.321 55.1172 42.0767C54.8388 42.8324 54.6996 43.6477 54.6996 44.5227C54.6996 45.3977 54.8388 46.2102 55.1172 46.9602C55.3956 47.7102 55.8246 48.3153 56.4041 48.7756C56.9837 49.2358 57.7223 49.4659 58.62 49.4659ZM69.6335 43.125V51H67.6222V37.9091H69.5653V39.9545H69.7358C70.0426 39.2898 70.5085 38.7557 71.1335 38.3523C71.7585 37.9432 72.5653 37.7386 73.554 37.7386C74.4403 37.7386 75.2159 37.9205 75.8807 38.2841C76.5455 38.642 77.0625 39.1875 77.4318 39.9205C77.8011 40.6477 77.9858 41.5682 77.9858 42.6818V51H75.9744V42.8182C75.9744 41.7898 75.7074 40.9886 75.1733 40.4148C74.6392 39.8352 73.9063 39.5455 72.9744 39.5455C72.3324 39.5455 71.7585 39.6847 71.2528 39.9631C70.7528 40.2415 70.358 40.6477 70.0682 41.1818C69.7784 41.7159 69.6335 42.3636 69.6335 43.125ZM83.6726 43.125V51H81.6612V37.9091H83.6044V39.9545H83.7749C84.0817 39.2898 84.5476 38.7557 85.1726 38.3523C85.7976 37.9432 86.6044 37.7386 87.593 37.7386C88.4794 37.7386 89.255 37.9205 89.9197 38.2841C90.5845 38.642 91.1016 39.1875 91.4709 39.9205C91.8402 40.6477 92.0249 41.5682 92.0249 42.6818V51H90.0135V42.8182C90.0135 41.7898 89.7464 40.9886 89.2124 40.4148C88.6783 39.8352 87.9453 39.5455 87.0135 39.5455C86.3714 39.5455 85.7976 39.6847 85.2919 39.9631C84.7919 40.2415 84.397 40.6477 84.1072 41.1818C83.8175 41.7159 83.6726 42.3636 83.6726 43.125ZM101.189 51.2727C99.9276 51.2727 98.8395 50.9943 97.9247 50.4375C97.0156 49.875 96.3139 49.0909 95.8196 48.0852C95.331 47.0739 95.0866 45.8977 95.0866 44.5568C95.0866 43.2159 95.331 42.0341 95.8196 41.0114C96.3139 39.983 97.0014 39.1818 97.8821 38.608C98.7685 38.0284 99.8026 37.7386 100.984 37.7386C101.666 37.7386 102.339 37.8523 103.004 38.0795C103.669 38.3068 104.274 38.6761 104.82 39.1875C105.365 39.6932 105.8 40.3636 106.124 41.1989C106.447 42.0341 106.609 43.0625 106.609 44.2841V45.1364H96.5185V43.3977H104.564C104.564 42.6591 104.416 42 104.121 41.4205C103.831 40.8409 103.416 40.3835 102.876 40.0483C102.342 39.7131 101.712 39.5455 100.984 39.5455C100.183 39.5455 99.4901 39.7443 98.9048 40.142C98.3253 40.5341 97.8793 41.0455 97.5668 41.6761C97.2543 42.3068 97.098 42.983 97.098 43.7045V44.8636C97.098 45.8523 97.2685 46.6903 97.6094 47.3778C97.956 48.0597 98.4361 48.5795 99.0497 48.9375C99.6634 49.2898 100.376 49.4659 101.189 49.4659C101.717 49.4659 102.195 49.392 102.621 49.2443C103.053 49.0909 103.425 48.8636 103.737 48.5625C104.05 48.2557 104.291 47.875 104.462 47.4205L106.405 47.9659C106.2 48.625 105.857 49.2045 105.374 49.7045C104.891 50.1989 104.294 50.5852 103.584 50.8636C102.874 51.1364 102.075 51.2727 101.189 51.2727ZM114.987 51.2727C113.76 51.2727 112.703 50.983 111.817 50.4034C110.93 49.8239 110.249 49.0256 109.771 48.0085C109.294 46.9915 109.055 45.8295 109.055 44.5227C109.055 43.1932 109.3 42.0199 109.788 41.0028C110.283 39.9801 110.97 39.1818 111.851 38.608C112.737 38.0284 113.771 37.7386 114.953 37.7386C115.874 37.7386 116.703 37.9091 117.442 38.25C118.18 38.5909 118.786 39.0682 119.257 39.6818C119.729 40.2955 120.021 41.0114 120.135 41.8295H118.124C117.97 41.233 117.629 40.7045 117.101 40.2443C116.578 39.7784 115.874 39.5455 114.987 39.5455C114.203 39.5455 113.516 39.75 112.925 40.1591C112.339 40.5625 111.882 41.1335 111.553 41.8722C111.229 42.6051 111.067 43.4659 111.067 44.4545C111.067 45.4659 111.226 46.3466 111.544 47.0966C111.868 47.8466 112.322 48.429 112.908 48.8438C113.499 49.2585 114.192 49.4659 114.987 49.4659C115.51 49.4659 115.984 49.375 116.411 49.1932C116.837 49.0114 117.197 48.75 117.493 48.4091C117.788 48.0682 117.999 47.6591 118.124 47.1818H120.135C120.021 47.9545 119.74 48.6506 119.291 49.2699C118.848 49.8835 118.26 50.3722 117.527 50.7358C116.8 51.0938 115.953 51.2727 114.987 51.2727ZM128.768 37.9091V39.6136H121.984V37.9091H128.768ZM123.962 34.7727H125.973V47.25C125.973 47.8182 126.055 48.2443 126.22 48.5284C126.391 48.8068 126.607 48.9943 126.868 49.0909C127.135 49.1818 127.416 49.2273 127.712 49.2273C127.933 49.2273 128.115 49.2159 128.257 49.1932C128.399 49.1648 128.513 49.142 128.598 49.125L129.007 50.9318C128.871 50.983 128.68 51.0341 128.436 51.0852C128.192 51.142 127.882 51.1705 127.507 51.1705C126.939 51.1705 126.382 51.0483 125.837 50.804C125.297 50.5597 124.848 50.1875 124.49 49.6875C124.138 49.1875 123.962 48.5568 123.962 47.7955V34.7727ZM137.142 51.2727C135.881 51.2727 134.793 50.9943 133.878 50.4375C132.969 49.875 132.267 49.0909 131.773 48.0852C131.284 47.0739 131.04 45.8977 131.04 44.5568C131.04 43.2159 131.284 42.0341 131.773 41.0114C132.267 39.983 132.955 39.1818 133.835 38.608C134.722 38.0284 135.756 37.7386 136.938 37.7386C137.619 37.7386 138.293 37.8523 138.957 38.0795C139.622 38.3068 140.227 38.6761 140.773 39.1875C141.318 39.6932 141.753 40.3636 142.077 41.1989C142.401 42.0341 142.562 43.0625 142.562 44.2841V45.1364H132.472V43.3977H140.517C140.517 42.6591 140.369 42 140.074 41.4205C139.784 40.8409 139.369 40.3835 138.83 40.0483C138.295 39.7131 137.665 39.5455 136.938 39.5455C136.136 39.5455 135.443 39.7443 134.858 40.142C134.278 40.5341 133.832 41.0455 133.52 41.6761C133.207 42.3068 133.051 42.983 133.051 43.7045V44.8636C133.051 45.8523 133.222 46.6903 133.562 47.3778C133.909 48.0597 134.389 48.5795 135.003 48.9375C135.616 49.2898 136.33 49.4659 137.142 49.4659C137.67 49.4659 138.148 49.392 138.574 49.2443C139.006 49.0909 139.378 48.8636 139.69 48.5625C140.003 48.2557 140.244 47.875 140.415 47.4205L142.358 47.9659C142.153 48.625 141.81 49.2045 141.327 49.7045C140.844 50.1989 140.247 50.5852 139.537 50.8636C138.827 51.1364 138.028 51.2727 137.142 51.2727ZM145.247 51V49.4659L152.679 39.9205V39.7841H145.486V37.9091H155.27V39.5114L148.043 48.9886V49.125H155.509V51H145.247ZM172.857 42.5795V44.4545H165.22V42.5795H172.857ZM187.1 37.9091L182.259 51H180.214L175.373 37.9091H177.555L181.168 48.3409H181.305L184.918 37.9091H187.1ZM194.604 51.2727C193.423 51.2727 192.386 50.9915 191.494 50.429C190.607 49.8665 189.914 49.0795 189.414 48.0682C188.92 47.0568 188.673 45.875 188.673 44.5227C188.673 43.1591 188.92 41.9687 189.414 40.9517C189.914 39.9347 190.607 39.1449 191.494 38.5824C192.386 38.0199 193.423 37.7386 194.604 37.7386C195.786 37.7386 196.82 38.0199 197.707 38.5824C198.599 39.1449 199.292 39.9347 199.786 40.9517C200.286 41.9687 200.536 43.1591 200.536 44.5227C200.536 45.875 200.286 47.0568 199.786 48.0682C199.292 49.0795 198.599 49.8665 197.707 50.429C196.82 50.9915 195.786 51.2727 194.604 51.2727ZM194.604 49.4659C195.502 49.4659 196.241 49.2358 196.82 48.7756C197.4 48.3153 197.829 47.7102 198.107 46.9602C198.386 46.2102 198.525 45.3977 198.525 44.5227C198.525 43.6477 198.386 42.8324 198.107 42.0767C197.829 41.321 197.4 40.7102 196.82 40.2443C196.241 39.7784 195.502 39.5455 194.604 39.5455C193.707 39.5455 192.968 39.7784 192.388 40.2443C191.809 40.7102 191.38 41.321 191.102 42.0767C190.823 42.8324 190.684 43.6477 190.684 44.5227C190.684 45.3977 190.823 46.2102 191.102 46.9602C191.38 47.7102 191.809 48.3153 192.388 48.7756C192.968 49.2358 193.707 49.4659 194.604 49.4659ZM211.857 45.6477V37.9091H213.868V51H211.857V48.7841H211.72C211.413 49.4489 210.936 50.0142 210.288 50.4801C209.641 50.9403 208.822 51.1705 207.834 51.1705C207.016 51.1705 206.288 50.9915 205.652 50.6335C205.016 50.2699 204.516 49.7244 204.152 48.9972C203.788 48.2642 203.607 47.3409 203.607 46.2273V37.9091H205.618V46.0909C205.618 47.0455 205.885 47.8068 206.419 48.375C206.959 48.9432 207.646 49.2273 208.482 49.2273C208.982 49.2273 209.49 49.0994 210.007 48.8438C210.53 48.5881 210.967 48.196 211.32 47.6676C211.678 47.1392 211.857 46.4659 211.857 45.6477ZM226.825 40.8409L225.018 41.3523C224.904 41.0511 224.737 40.7585 224.515 40.4744C224.299 40.1847 224.004 39.946 223.629 39.7585C223.254 39.571 222.773 39.4773 222.188 39.4773C221.387 39.4773 220.719 39.6619 220.185 40.0312C219.657 40.3949 219.393 40.858 219.393 41.4205C219.393 41.9205 219.575 42.3153 219.938 42.6051C220.302 42.8949 220.87 43.1364 221.643 43.3295L223.586 43.8068C224.756 44.0909 225.629 44.5256 226.202 45.1108C226.776 45.6903 227.063 46.4375 227.063 47.3523C227.063 48.1023 226.847 48.7727 226.415 49.3636C225.989 49.9545 225.393 50.4205 224.626 50.7614C223.859 51.1023 222.967 51.2727 221.95 51.2727C220.614 51.2727 219.509 50.983 218.634 50.4034C217.759 49.8239 217.205 48.9773 216.972 47.8636L218.881 47.3864C219.063 48.0909 219.407 48.6193 219.913 48.9716C220.424 49.3239 221.092 49.5 221.915 49.5C222.853 49.5 223.597 49.3011 224.148 48.9034C224.705 48.5 224.984 48.017 224.984 47.4545C224.984 47 224.825 46.6193 224.506 46.3125C224.188 46 223.7 45.767 223.04 45.6136L220.859 45.1023C219.66 44.8182 218.779 44.3778 218.217 43.7812C217.66 43.179 217.381 42.4261 217.381 41.5227C217.381 40.7841 217.589 40.1307 218.004 39.5625C218.424 38.9943 218.995 38.5483 219.717 38.2244C220.444 37.9006 221.268 37.7386 222.188 37.7386C223.484 37.7386 224.501 38.0227 225.239 38.5909C225.984 39.1591 226.512 39.9091 226.825 40.8409Z" fill="#9747FF"/>
<path d="M147.833 67H122.167C121.194 67 120.262 67.3863 119.574 68.0739C118.886 68.7616 118.5 69.6942 118.5 70.6667V96.3333C118.5 97.3058 118.886 98.2384 119.574 98.9261C120.262 99.6137 121.194 100 122.167 100H129.5L135 105.5L140.5 100H147.833C149.85 100 151.5 98.35 151.5 96.3333V70.6667C151.5 68.65 149.85 67 147.833 67ZM147.833 96.3333H138.978L137.897 97.415L135 100.312L132.085 97.3967L131.022 96.3333H122.167V70.6667H147.833V96.3333ZM135 83.5C138.025 83.5 140.5 81.025 140.5 78C140.5 74.975 138.025 72.5 135 72.5C131.975 72.5 129.5 74.975 129.5 78C129.5 81.025 131.975 83.5 135 83.5ZM135 76.1667C136.008 76.1667 136.833 76.9917 136.833 78C136.833 79.0083 136.008 79.8333 135 79.8333C133.992 79.8333 133.167 79.0083 133.167 78C133.167 76.9917 133.992 76.1667 135 76.1667ZM146 91.8967C146 87.3133 138.722 85.3333 135 85.3333C131.278 85.3333 124 87.3133 124 91.8967V94.5H146V91.8967ZM128.547 90.8333C129.903 89.8983 132.635 89 135 89C137.365 89 140.097 89.8983 141.453 90.8333H128.547Z" fill="black"/>
<path d="M23.4312 117H22.4624C22.4051 116.721 22.3049 116.477 22.1616 116.266C22.021 116.055 21.8491 115.878 21.646 115.734C21.4455 115.589 21.2228 115.479 20.978 115.406C20.7332 115.333 20.478 115.297 20.2124 115.297C19.728 115.297 19.2892 115.419 18.896 115.664C18.5054 115.909 18.1942 116.27 17.9624 116.746C17.7332 117.223 17.6187 117.807 17.6187 118.5C17.6187 119.193 17.7332 119.777 17.9624 120.254C18.1942 120.73 18.5054 121.091 18.896 121.336C19.2892 121.581 19.728 121.703 20.2124 121.703C20.478 121.703 20.7332 121.667 20.978 121.594C21.2228 121.521 21.4455 121.413 21.646 121.27C21.8491 121.124 22.021 120.945 22.1616 120.734C22.3049 120.521 22.4051 120.276 22.4624 120H23.4312C23.3582 120.409 23.2254 120.775 23.0327 121.098C22.84 121.421 22.6004 121.695 22.314 121.922C22.0275 122.146 21.7059 122.316 21.3491 122.434C20.995 122.551 20.616 122.609 20.2124 122.609C19.5301 122.609 18.9233 122.443 18.3921 122.109C17.8608 121.776 17.4429 121.302 17.1382 120.687C16.8335 120.073 16.6812 119.344 16.6812 118.5C16.6812 117.656 16.8335 116.927 17.1382 116.312C17.4429 115.698 17.8608 115.224 18.3921 114.891C18.9233 114.557 19.5301 114.391 20.2124 114.391C20.616 114.391 20.995 114.449 21.3491 114.566C21.7059 114.684 22.0275 114.855 22.314 115.082C22.6004 115.306 22.84 115.579 23.0327 115.902C23.2254 116.223 23.3582 116.589 23.4312 117ZM27.3091 122.625C26.7674 122.625 26.2922 122.496 25.8833 122.238C25.4771 121.98 25.1593 121.62 24.9302 121.156C24.7036 120.693 24.5903 120.151 24.5903 119.531C24.5903 118.906 24.7036 118.361 24.9302 117.895C25.1593 117.428 25.4771 117.066 25.8833 116.809C26.2922 116.551 26.7674 116.422 27.3091 116.422C27.8507 116.422 28.3247 116.551 28.731 116.809C29.1398 117.066 29.4575 117.428 29.6841 117.895C29.9132 118.361 30.0278 118.906 30.0278 119.531C30.0278 120.151 29.9132 120.693 29.6841 121.156C29.4575 121.62 29.1398 121.98 28.731 122.238C28.3247 122.496 27.8507 122.625 27.3091 122.625ZM27.3091 121.797C27.7205 121.797 28.0591 121.691 28.3247 121.48C28.5903 121.27 28.7869 120.992 28.9146 120.648C29.0422 120.305 29.106 119.932 29.106 119.531C29.106 119.13 29.0422 118.757 28.9146 118.41C28.7869 118.064 28.5903 117.784 28.3247 117.57C28.0591 117.357 27.7205 117.25 27.3091 117.25C26.8976 117.25 26.5591 117.357 26.2935 117.57C26.0278 117.784 25.8312 118.064 25.7036 118.41C25.576 118.757 25.5122 119.13 25.5122 119.531C25.5122 119.932 25.576 120.305 25.7036 120.648C25.8312 120.992 26.0278 121.27 26.2935 121.48C26.5591 121.691 26.8976 121.797 27.3091 121.797ZM32.3569 118.891V122.5H31.4351V116.5H32.3257V117.437H32.4038C32.5444 117.133 32.758 116.888 33.0444 116.703C33.3309 116.516 33.7007 116.422 34.1538 116.422C34.5601 116.422 34.9155 116.505 35.2202 116.672C35.5249 116.836 35.7619 117.086 35.9312 117.422C36.1004 117.755 36.1851 118.177 36.1851 118.688V122.5H35.2632V118.75C35.2632 118.279 35.1408 117.911 34.896 117.648C34.6512 117.383 34.3153 117.25 33.8882 117.25C33.5939 117.25 33.3309 117.314 33.0991 117.441C32.87 117.569 32.689 117.755 32.5562 118C32.4233 118.245 32.3569 118.542 32.3569 118.891ZM38.7915 118.891V122.5H37.8696V116.5H38.7603V117.437H38.8384C38.979 117.133 39.1925 116.888 39.479 116.703C39.7655 116.516 40.1353 116.422 40.5884 116.422C40.9946 116.422 41.3501 116.505 41.6548 116.672C41.9595 116.836 42.1965 117.086 42.3657 117.422C42.535 117.755 42.6196 118.177 42.6196 118.688V122.5H41.6978V118.75C41.6978 118.279 41.5754 117.911 41.3306 117.648C41.0858 117.383 40.7498 117.25 40.3228 117.25C40.0285 117.25 39.7655 117.314 39.5337 117.441C39.3045 117.569 39.1235 117.755 38.9907 118C38.8579 118.245 38.7915 118.542 38.7915 118.891ZM46.8198 122.625C46.2417 122.625 45.743 122.497 45.3237 122.242C44.9071 121.984 44.5854 121.625 44.3589 121.164C44.1349 120.701 44.0229 120.161 44.0229 119.547C44.0229 118.932 44.1349 118.391 44.3589 117.922C44.5854 117.451 44.9006 117.083 45.3042 116.82C45.7104 116.555 46.1844 116.422 46.7261 116.422C47.0386 116.422 47.3472 116.474 47.6519 116.578C47.9565 116.682 48.2339 116.852 48.4839 117.086C48.7339 117.318 48.9331 117.625 49.0815 118.008C49.23 118.391 49.3042 118.862 49.3042 119.422V119.812H44.6792V119.016H48.3667C48.3667 118.677 48.299 118.375 48.1636 118.109C48.0308 117.844 47.8407 117.634 47.5933 117.48C47.3485 117.327 47.0594 117.25 46.7261 117.25C46.3589 117.25 46.0412 117.341 45.7729 117.523C45.5073 117.703 45.3029 117.937 45.1597 118.227C45.0164 118.516 44.9448 118.826 44.9448 119.156V119.688C44.9448 120.141 45.0229 120.525 45.1792 120.84C45.3381 121.152 45.5581 121.391 45.8394 121.555C46.1206 121.716 46.4474 121.797 46.8198 121.797C47.062 121.797 47.2808 121.763 47.4761 121.695C47.674 121.625 47.8446 121.521 47.9878 121.383C48.131 121.242 48.2417 121.068 48.3198 120.859L49.2104 121.109C49.1167 121.411 48.9591 121.677 48.7378 121.906C48.5164 122.133 48.243 122.31 47.9175 122.437C47.592 122.563 47.2261 122.625 46.8198 122.625ZM53.144 122.625C52.5815 122.625 52.0972 122.492 51.6909 122.227C51.2847 121.961 50.9722 121.595 50.7534 121.129C50.5347 120.663 50.4253 120.13 50.4253 119.531C50.4253 118.922 50.5373 118.384 50.7612 117.918C50.9878 117.449 51.3029 117.083 51.7065 116.82C52.1128 116.555 52.5868 116.422 53.1284 116.422C53.5503 116.422 53.9305 116.5 54.269 116.656C54.6076 116.812 54.8849 117.031 55.1011 117.312C55.3172 117.594 55.4513 117.922 55.5034 118.297H54.5815C54.5112 118.023 54.355 117.781 54.1128 117.57C53.8732 117.357 53.5503 117.25 53.144 117.25C52.7847 117.25 52.4696 117.344 52.1987 117.531C51.9305 117.716 51.7209 117.978 51.5698 118.316C51.4214 118.652 51.3472 119.047 51.3472 119.5C51.3472 119.964 51.4201 120.367 51.5659 120.711C51.7144 121.055 51.9227 121.322 52.1909 121.512C52.4618 121.702 52.7795 121.797 53.144 121.797C53.3836 121.797 53.6011 121.755 53.7964 121.672C53.9917 121.589 54.1571 121.469 54.2925 121.312C54.4279 121.156 54.5243 120.969 54.5815 120.75H55.5034C55.4513 121.104 55.3224 121.423 55.1167 121.707C54.9136 121.988 54.644 122.212 54.3081 122.379C53.9748 122.543 53.5868 122.625 53.144 122.625ZM59.4604 116.5V117.281H56.3511V116.5H59.4604ZM57.2573 115.062H58.1792V120.781C58.1792 121.042 58.217 121.237 58.2925 121.367C58.3706 121.495 58.4696 121.581 58.5894 121.625C58.7118 121.667 58.8407 121.687 58.9761 121.687C59.0776 121.687 59.161 121.682 59.2261 121.672C59.2912 121.659 59.3433 121.648 59.3823 121.641L59.5698 122.469C59.5073 122.492 59.4201 122.516 59.3081 122.539C59.1961 122.565 59.0542 122.578 58.8823 122.578C58.6219 122.578 58.3667 122.522 58.1167 122.41C57.8693 122.298 57.6636 122.128 57.4995 121.898C57.3381 121.669 57.2573 121.38 57.2573 121.031V115.062ZM63.2983 122.625C62.7202 122.625 62.2215 122.497 61.8022 122.242C61.3856 121.984 61.064 121.625 60.8374 121.164C60.6134 120.701 60.5015 120.161 60.5015 119.547C60.5015 118.932 60.6134 118.391 60.8374 117.922C61.064 117.451 61.3791 117.083 61.7827 116.82C62.189 116.555 62.6629 116.422 63.2046 116.422C63.5171 116.422 63.8257 116.474 64.1304 116.578C64.4351 116.682 64.7124 116.852 64.9624 117.086C65.2124 117.318 65.4116 117.625 65.5601 118.008C65.7085 118.391 65.7827 118.862 65.7827 119.422V119.812H61.1577V119.016H64.8452C64.8452 118.677 64.7775 118.375 64.6421 118.109C64.5093 117.844 64.3192 117.634 64.0718 117.48C63.827 117.327 63.5379 117.25 63.2046 117.25C62.8374 117.25 62.5197 117.341 62.2515 117.523C61.9858 117.703 61.7814 117.937 61.6382 118.227C61.495 118.516 61.4233 118.826 61.4233 119.156V119.688C61.4233 120.141 61.5015 120.525 61.6577 120.84C61.8166 121.152 62.0366 121.391 62.3179 121.555C62.5991 121.716 62.9259 121.797 63.2983 121.797C63.5405 121.797 63.7593 121.763 63.9546 121.695C64.1525 121.625 64.3231 121.521 64.4663 121.383C64.6095 121.242 64.7202 121.068 64.7983 120.859L65.689 121.109C65.5952 121.411 65.4377 121.677 65.2163 121.906C64.995 122.133 64.7215 122.31 64.396 122.437C64.0705 122.563 63.7046 122.625 63.2983 122.625ZM67.0132 122.5V121.797L70.4194 117.422V117.359H67.1226V116.5H71.6069V117.234L68.2944 121.578V121.641H71.7163V122.5H67.0132ZM76.5737 118.641V119.5H73.0737V118.641H76.5737ZM83.1021 116.5L80.8833 122.5H79.9458L77.7271 116.5H78.7271L80.3833 121.281H80.4458L82.1021 116.5H83.1021ZM86.5415 122.625C85.9998 122.625 85.5246 122.496 85.1157 122.238C84.7095 121.98 84.3918 121.62 84.1626 121.156C83.936 120.693 83.8228 120.151 83.8228 119.531C83.8228 118.906 83.936 118.361 84.1626 117.895C84.3918 117.428 84.7095 117.066 85.1157 116.809C85.5246 116.551 85.9998 116.422 86.5415 116.422C87.0832 116.422 87.5571 116.551 87.9634 116.809C88.3722 117.066 88.6899 117.428 88.9165 117.895C89.1457 118.361 89.2603 118.906 89.2603 119.531C89.2603 120.151 89.1457 120.693 88.9165 121.156C88.6899 121.62 88.3722 121.98 87.9634 122.238C87.5571 122.496 87.0832 122.625 86.5415 122.625ZM86.5415 121.797C86.953 121.797 87.2915 121.691 87.5571 121.48C87.8228 121.27 88.0194 120.992 88.147 120.648C88.2746 120.305 88.3384 119.932 88.3384 119.531C88.3384 119.13 88.2746 118.757 88.147 118.41C88.0194 118.064 87.8228 117.784 87.5571 117.57C87.2915 117.357 86.953 117.25 86.5415 117.25C86.13 117.25 85.7915 117.357 85.5259 117.57C85.2603 117.784 85.0636 118.064 84.936 118.41C84.8084 118.757 84.7446 119.13 84.7446 119.531C84.7446 119.932 84.8084 120.305 84.936 120.648C85.0636 120.992 85.2603 121.27 85.5259 121.48C85.7915 121.691 86.13 121.797 86.5415 121.797ZM94.4487 120.047V116.5H95.3706V122.5H94.4487V121.484H94.3862C94.2456 121.789 94.0269 122.048 93.73 122.262C93.4331 122.473 93.0581 122.578 92.605 122.578C92.23 122.578 91.8966 122.496 91.605 122.332C91.3133 122.165 91.0841 121.915 90.9175 121.582C90.7508 121.246 90.6675 120.823 90.6675 120.312V116.5H91.5894V120.25C91.5894 120.687 91.7118 121.036 91.9565 121.297C92.2039 121.557 92.519 121.687 92.9019 121.687C93.131 121.687 93.3641 121.629 93.6011 121.512C93.8407 121.395 94.0412 121.215 94.2026 120.973C94.3667 120.73 94.4487 120.422 94.4487 120.047ZM101.309 117.844L100.481 118.078C100.429 117.94 100.352 117.806 100.25 117.676C100.152 117.543 100.016 117.434 99.8442 117.348C99.6724 117.262 99.4523 117.219 99.1841 117.219C98.8169 117.219 98.5109 117.303 98.2661 117.473C98.0239 117.639 97.9028 117.852 97.9028 118.109C97.9028 118.339 97.9862 118.52 98.1528 118.652C98.3195 118.785 98.5799 118.896 98.9341 118.984L99.8247 119.203C100.361 119.333 100.761 119.533 101.024 119.801C101.287 120.066 101.418 120.409 101.418 120.828C101.418 121.172 101.319 121.479 101.122 121.75C100.926 122.021 100.653 122.234 100.301 122.391C99.9497 122.547 99.5409 122.625 99.0747 122.625C98.4627 122.625 97.9562 122.492 97.5552 122.227C97.1541 121.961 96.9002 121.573 96.7935 121.062L97.6685 120.844C97.7518 121.167 97.9093 121.409 98.1411 121.57C98.3755 121.732 98.6815 121.812 99.0591 121.812C99.4888 121.812 99.8299 121.721 100.083 121.539C100.338 121.354 100.465 121.133 100.465 120.875C100.465 120.667 100.392 120.492 100.247 120.352C100.101 120.208 99.8768 120.102 99.5747 120.031L98.5747 119.797C98.0252 119.667 97.6216 119.465 97.3638 119.191C97.1086 118.915 96.981 118.57 96.981 118.156C96.981 117.818 97.076 117.518 97.2661 117.258C97.4588 116.997 97.7205 116.793 98.0513 116.645C98.3846 116.496 98.7622 116.422 99.1841 116.422C99.7778 116.422 100.244 116.552 100.583 116.812C100.924 117.073 101.166 117.417 101.309 117.844ZM105.9 124.75V116.5H106.791V117.453H106.9C106.968 117.349 107.061 117.216 107.181 117.055C107.304 116.891 107.478 116.745 107.705 116.617C107.934 116.487 108.244 116.422 108.634 116.422C109.139 116.422 109.585 116.548 109.97 116.801C110.356 117.053 110.656 117.411 110.873 117.875C111.089 118.339 111.197 118.885 111.197 119.516C111.197 120.151 111.089 120.702 110.873 121.168C110.656 121.632 110.357 121.991 109.974 122.246C109.591 122.499 109.15 122.625 108.65 122.625C108.264 122.625 107.956 122.561 107.724 122.434C107.492 122.303 107.314 122.156 107.189 121.992C107.064 121.826 106.968 121.687 106.9 121.578H106.822V124.75H105.9ZM106.806 119.5C106.806 119.953 106.873 120.353 107.005 120.699C107.138 121.043 107.332 121.312 107.587 121.508C107.843 121.701 108.155 121.797 108.525 121.797C108.91 121.797 109.232 121.695 109.49 121.492C109.75 121.286 109.945 121.01 110.076 120.664C110.208 120.315 110.275 119.927 110.275 119.5C110.275 119.078 110.21 118.698 110.08 118.359C109.952 118.018 109.758 117.749 109.498 117.551C109.24 117.35 108.916 117.25 108.525 117.25C108.15 117.25 107.835 117.345 107.58 117.535C107.324 117.723 107.132 117.986 107.001 118.324C106.871 118.66 106.806 119.052 106.806 119.5ZM115.041 122.625C114.499 122.625 114.024 122.496 113.615 122.238C113.208 121.98 112.891 121.62 112.662 121.156C112.435 120.693 112.322 120.151 112.322 119.531C112.322 118.906 112.435 118.361 112.662 117.895C112.891 117.428 113.208 117.066 113.615 116.809C114.024 116.551 114.499 116.422 115.041 116.422C115.582 116.422 116.056 116.551 116.462 116.809C116.871 117.066 117.189 117.428 117.416 117.895C117.645 118.361 117.759 118.906 117.759 119.531C117.759 120.151 117.645 120.693 117.416 121.156C117.189 121.62 116.871 121.98 116.462 122.238C116.056 122.496 115.582 122.625 115.041 122.625ZM115.041 121.797C115.452 121.797 115.791 121.691 116.056 121.48C116.322 121.27 116.518 120.992 116.646 120.648C116.774 120.305 116.837 119.932 116.837 119.531C116.837 119.13 116.774 118.757 116.646 118.41C116.518 118.064 116.322 117.784 116.056 117.57C115.791 117.357 115.452 117.25 115.041 117.25C114.629 117.25 114.291 117.357 114.025 117.57C113.759 117.784 113.563 118.064 113.435 118.41C113.307 118.757 113.244 119.13 113.244 119.531C113.244 119.932 113.307 120.305 113.435 120.648C113.563 120.992 113.759 121.27 114.025 121.48C114.291 121.691 114.629 121.797 115.041 121.797ZM122.948 120.047V116.5H123.87V122.5H122.948V121.484H122.885C122.745 121.789 122.526 122.048 122.229 122.262C121.932 122.473 121.557 122.578 121.104 122.578C120.729 122.578 120.396 122.496 120.104 122.332C119.812 122.165 119.583 121.915 119.417 121.582C119.25 121.246 119.167 120.823 119.167 120.312V116.5H120.088V120.25C120.088 120.687 120.211 121.036 120.456 121.297C120.703 121.557 121.018 121.687 121.401 121.687C121.63 121.687 121.863 121.629 122.1 121.512C122.34 121.395 122.54 121.215 122.702 120.973C122.866 120.73 122.948 120.422 122.948 120.047ZM125.558 122.5V116.5H126.449V117.406H126.511C126.621 117.109 126.819 116.868 127.105 116.684C127.391 116.499 127.714 116.406 128.074 116.406C128.141 116.406 128.226 116.408 128.328 116.41C128.429 116.413 128.506 116.417 128.558 116.422V117.359C128.527 117.352 128.455 117.34 128.343 117.324C128.234 117.306 128.118 117.297 127.996 117.297C127.704 117.297 127.444 117.358 127.214 117.48C126.988 117.6 126.808 117.767 126.675 117.98C126.545 118.191 126.48 118.432 126.48 118.703V122.5H125.558ZM134.51 122.641C134.13 122.641 133.785 122.569 133.475 122.426C133.165 122.28 132.919 122.07 132.737 121.797C132.555 121.521 132.463 121.187 132.463 120.797C132.463 120.453 132.531 120.174 132.667 119.961C132.802 119.745 132.983 119.576 133.209 119.453C133.436 119.331 133.686 119.24 133.959 119.18C134.236 119.117 134.513 119.068 134.792 119.031C135.156 118.984 135.452 118.949 135.678 118.926C135.907 118.9 136.074 118.857 136.178 118.797C136.285 118.737 136.338 118.633 136.338 118.484V118.453C136.338 118.068 136.233 117.768 136.022 117.555C135.814 117.341 135.497 117.234 135.073 117.234C134.633 117.234 134.288 117.331 134.038 117.523C133.788 117.716 133.612 117.922 133.51 118.141L132.635 117.828C132.792 117.464 133 117.18 133.26 116.977C133.523 116.771 133.81 116.628 134.12 116.547C134.432 116.464 134.739 116.422 135.042 116.422C135.234 116.422 135.456 116.445 135.706 116.492C135.958 116.536 136.202 116.629 136.436 116.77C136.673 116.91 136.87 117.122 137.026 117.406C137.182 117.69 137.26 118.07 137.26 118.547V122.5H136.338V121.687H136.292C136.229 121.818 136.125 121.957 135.979 122.105C135.833 122.254 135.639 122.38 135.397 122.484C135.155 122.589 134.859 122.641 134.51 122.641ZM134.651 121.812C135.015 121.812 135.323 121.741 135.573 121.598C135.825 121.454 136.015 121.27 136.143 121.043C136.273 120.816 136.338 120.578 136.338 120.328V119.484C136.299 119.531 136.213 119.574 136.081 119.613C135.95 119.65 135.799 119.682 135.627 119.711C135.458 119.737 135.293 119.76 135.131 119.781C134.972 119.799 134.844 119.815 134.745 119.828C134.505 119.859 134.281 119.91 134.073 119.98C133.867 120.048 133.7 120.151 133.573 120.289C133.448 120.424 133.385 120.609 133.385 120.844C133.385 121.164 133.504 121.406 133.741 121.57C133.98 121.732 134.284 121.812 134.651 121.812ZM141.38 122.625C140.818 122.625 140.333 122.492 139.927 122.227C139.521 121.961 139.208 121.595 138.99 121.129C138.771 120.663 138.662 120.13 138.662 119.531C138.662 118.922 138.774 118.384 138.998 117.918C139.224 117.449 139.539 117.083 139.943 116.82C140.349 116.555 140.823 116.422 141.365 116.422C141.787 116.422 142.167 116.5 142.505 116.656C142.844 116.812 143.121 117.031 143.337 117.312C143.554 117.594 143.688 117.922 143.74 118.297H142.818C142.748 118.023 142.591 117.781 142.349 117.57C142.11 117.357 141.787 117.25 141.38 117.25C141.021 117.25 140.706 117.344 140.435 117.531C140.167 117.716 139.957 117.978 139.806 118.316C139.658 118.652 139.583 119.047 139.583 119.5C139.583 119.964 139.656 120.367 139.802 120.711C139.951 121.055 140.159 121.322 140.427 121.512C140.698 121.702 141.016 121.797 141.38 121.797C141.62 121.797 141.837 121.755 142.033 121.672C142.228 121.589 142.393 121.469 142.529 121.312C142.664 121.156 142.761 120.969 142.818 120.75H143.74C143.688 121.104 143.559 121.423 143.353 121.707C143.15 121.988 142.88 122.212 142.544 122.379C142.211 122.543 141.823 122.625 141.38 122.625ZM147.525 122.625C146.962 122.625 146.478 122.492 146.072 122.227C145.666 121.961 145.353 121.595 145.134 121.129C144.916 120.663 144.806 120.13 144.806 119.531C144.806 118.922 144.918 118.384 145.142 117.918C145.369 117.449 145.684 117.083 146.087 116.82C146.494 116.555 146.968 116.422 147.509 116.422C147.931 116.422 148.311 116.5 148.65 116.656C148.988 116.812 149.266 117.031 149.482 117.312C149.698 117.594 149.832 117.922 149.884 118.297H148.962C148.892 118.023 148.736 117.781 148.494 117.57C148.254 117.357 147.931 117.25 147.525 117.25C147.166 117.25 146.85 117.344 146.58 117.531C146.311 117.716 146.102 117.978 145.951 118.316C145.802 118.652 145.728 119.047 145.728 119.5C145.728 119.964 145.801 120.367 145.947 120.711C146.095 121.055 146.304 121.322 146.572 121.512C146.843 121.702 147.16 121.797 147.525 121.797C147.764 121.797 147.982 121.755 148.177 121.672C148.373 121.589 148.538 121.469 148.673 121.312C148.809 121.156 148.905 120.969 148.962 120.75H149.884C149.832 121.104 149.703 121.423 149.498 121.707C149.294 121.988 149.025 122.212 148.689 122.379C148.356 122.543 147.968 122.625 147.525 122.625ZM153.748 122.625C153.169 122.625 152.671 122.497 152.251 122.242C151.835 121.984 151.513 121.625 151.287 121.164C151.063 120.701 150.951 120.161 150.951 119.547C150.951 118.932 151.063 118.391 151.287 117.922C151.513 117.451 151.828 117.083 152.232 116.82C152.638 116.555 153.112 116.422 153.654 116.422C153.966 116.422 154.275 116.474 154.58 116.578C154.884 116.682 155.162 116.852 155.412 117.086C155.662 117.318 155.861 117.625 156.009 118.008C156.158 118.391 156.232 118.862 156.232 119.422V119.812H151.607V119.016H155.294C155.294 118.677 155.227 118.375 155.091 118.109C154.958 117.844 154.768 117.634 154.521 117.48C154.276 117.327 153.987 117.25 153.654 117.25C153.287 117.25 152.969 117.341 152.701 117.523C152.435 117.703 152.231 117.937 152.087 118.227C151.944 118.516 151.873 118.826 151.873 119.156V119.688C151.873 120.141 151.951 120.525 152.107 120.84C152.266 121.152 152.486 121.391 152.767 121.555C153.048 121.716 153.375 121.797 153.748 121.797C153.99 121.797 154.208 121.763 154.404 121.695C154.602 121.625 154.772 121.521 154.916 121.383C155.059 121.242 155.169 121.068 155.248 120.859L156.138 121.109C156.044 121.411 155.887 121.677 155.666 121.906C155.444 122.133 155.171 122.31 154.845 122.437C154.52 122.563 154.154 122.625 153.748 122.625ZM153.185 115.687L154.138 113.875H155.216L153.998 115.687H153.185ZM159.9 122.625C159.4 122.625 158.958 122.499 158.576 122.246C158.193 121.991 157.893 121.632 157.677 121.168C157.461 120.702 157.353 120.151 157.353 119.516C157.353 118.885 157.461 118.339 157.677 117.875C157.893 117.411 158.194 117.053 158.58 116.801C158.965 116.548 159.41 116.422 159.916 116.422C160.306 116.422 160.615 116.487 160.841 116.617C161.07 116.745 161.245 116.891 161.365 117.055C161.487 117.216 161.582 117.349 161.65 117.453H161.728V114.5H162.65V122.5H161.759V121.578H161.65C161.582 121.687 161.486 121.826 161.361 121.992C161.236 122.156 161.057 122.303 160.826 122.434C160.594 122.561 160.285 122.625 159.9 122.625ZM160.025 121.797C160.395 121.797 160.707 121.701 160.962 121.508C161.218 121.312 161.412 121.043 161.544 120.699C161.677 120.353 161.744 119.953 161.744 119.5C161.744 119.052 161.679 118.66 161.548 118.324C161.418 117.986 161.225 117.723 160.97 117.535C160.715 117.345 160.4 117.25 160.025 117.25C159.634 117.25 159.309 117.35 159.048 117.551C158.791 117.749 158.597 118.018 158.466 118.359C158.339 118.698 158.275 119.078 158.275 119.5C158.275 119.927 158.34 120.315 158.47 120.664C158.603 121.01 158.798 121.286 159.056 121.492C159.317 121.695 159.639 121.797 160.025 121.797ZM166.982 122.625C166.404 122.625 165.905 122.497 165.486 122.242C165.069 121.984 164.748 121.625 164.521 121.164C164.297 120.701 164.185 120.161 164.185 119.547C164.185 118.932 164.297 118.391 164.521 117.922C164.748 117.451 165.063 117.083 165.466 116.82C165.873 116.555 166.347 116.422 166.888 116.422C167.201 116.422 167.509 116.474 167.814 116.578C168.119 116.682 168.396 116.852 168.646 117.086C168.896 117.318 169.095 117.625 169.244 118.008C169.392 118.391 169.466 118.862 169.466 119.422V119.812H164.841V119.016H168.529C168.529 118.677 168.461 118.375 168.326 118.109C168.193 117.844 168.003 117.634 167.755 117.48C167.511 117.327 167.222 117.25 166.888 117.25C166.521 117.25 166.203 117.341 165.935 117.523C165.669 117.703 165.465 117.937 165.322 118.227C165.179 118.516 165.107 118.826 165.107 119.156V119.688C165.107 120.141 165.185 120.525 165.341 120.84C165.5 121.152 165.72 121.391 166.001 121.555C166.283 121.716 166.61 121.797 166.982 121.797C167.224 121.797 167.443 121.763 167.638 121.695C167.836 121.625 168.007 121.521 168.15 121.383C168.293 121.242 168.404 121.068 168.482 120.859L169.373 121.109C169.279 121.411 169.121 121.677 168.9 121.906C168.679 122.133 168.405 122.31 168.08 122.437C167.754 122.563 167.388 122.625 166.982 122.625ZM170.869 122.5V116.5H171.759V117.406H171.822C171.931 117.109 172.129 116.868 172.416 116.684C172.702 116.499 173.025 116.406 173.384 116.406C173.452 116.406 173.537 116.408 173.638 116.41C173.74 116.413 173.817 116.417 173.869 116.422V117.359C173.837 117.352 173.766 117.34 173.654 117.324C173.544 117.306 173.429 117.297 173.306 117.297C173.014 117.297 172.754 117.358 172.525 117.48C172.298 117.6 172.119 117.767 171.986 117.98C171.856 118.191 171.791 118.432 171.791 118.703V122.5H170.869ZM179.821 122.641C179.441 122.641 179.096 122.569 178.786 122.426C178.476 122.28 178.23 122.07 178.047 121.797C177.865 121.521 177.774 121.187 177.774 120.797C177.774 120.453 177.842 120.174 177.977 119.961C178.112 119.745 178.293 119.576 178.52 119.453C178.747 119.331 178.997 119.24 179.27 119.18C179.546 119.117 179.823 119.068 180.102 119.031C180.467 118.984 180.762 118.949 180.989 118.926C181.218 118.9 181.385 118.857 181.489 118.797C181.596 118.737 181.649 118.633 181.649 118.484V118.453C181.649 118.068 181.543 117.768 181.333 117.555C181.124 117.341 180.808 117.234 180.383 117.234C179.943 117.234 179.598 117.331 179.348 117.523C179.098 117.716 178.922 117.922 178.821 118.141L177.946 117.828C178.102 117.464 178.31 117.18 178.571 116.977C178.834 116.771 179.12 116.628 179.43 116.547C179.743 116.464 180.05 116.422 180.352 116.422C180.545 116.422 180.766 116.445 181.016 116.492C181.269 116.536 181.512 116.629 181.747 116.77C181.984 116.91 182.18 117.122 182.336 117.406C182.493 117.69 182.571 118.07 182.571 118.547V122.5H181.649V121.687H181.602C181.54 121.818 181.435 121.957 181.29 122.105C181.144 122.254 180.95 122.38 180.708 122.484C180.465 122.589 180.17 122.641 179.821 122.641ZM179.961 121.812C180.326 121.812 180.633 121.741 180.883 121.598C181.136 121.454 181.326 121.27 181.454 121.043C181.584 120.816 181.649 120.578 181.649 120.328V119.484C181.61 119.531 181.524 119.574 181.391 119.613C181.261 119.65 181.11 119.682 180.938 119.711C180.769 119.737 180.603 119.76 180.442 119.781C180.283 119.799 180.154 119.815 180.055 119.828C179.816 119.859 179.592 119.91 179.383 119.98C179.178 120.048 179.011 120.151 178.883 120.289C178.758 120.424 178.696 120.609 178.696 120.844C178.696 121.164 178.814 121.406 179.051 121.57C179.291 121.732 179.594 121.812 179.961 121.812ZM180.024 115.687L178.805 113.875H179.883L180.836 115.687H180.024ZM192.253 116.5L190.035 122.5H189.097L186.878 116.5H187.878L189.535 121.281H189.597L191.253 116.5H192.253ZM195.693 122.625C195.151 122.625 194.676 122.496 194.267 122.238C193.861 121.98 193.543 121.62 193.314 121.156C193.087 120.693 192.974 120.151 192.974 119.531C192.974 118.906 193.087 118.361 193.314 117.895C193.543 117.428 193.861 117.066 194.267 116.809C194.676 116.551 195.151 116.422 195.693 116.422C196.235 116.422 196.708 116.551 197.115 116.809C197.524 117.066 197.841 117.428 198.068 117.895C198.297 118.361 198.412 118.906 198.412 119.531C198.412 120.151 198.297 120.693 198.068 121.156C197.841 121.62 197.524 121.98 197.115 122.238C196.708 122.496 196.235 122.625 195.693 122.625ZM195.693 121.797C196.104 121.797 196.443 121.691 196.708 121.48C196.974 121.27 197.171 120.992 197.298 120.648C197.426 120.305 197.49 119.932 197.49 119.531C197.49 119.13 197.426 118.757 197.298 118.41C197.171 118.064 196.974 117.784 196.708 117.57C196.443 117.357 196.104 117.25 195.693 117.25C195.281 117.25 194.943 117.357 194.677 117.57C194.412 117.784 194.215 118.064 194.087 118.41C193.96 118.757 193.896 119.13 193.896 119.531C193.896 119.932 193.96 120.305 194.087 120.648C194.215 120.992 194.412 121.27 194.677 121.48C194.943 121.691 195.281 121.797 195.693 121.797ZM202.428 116.5V117.281H199.319V116.5H202.428ZM200.225 115.062H201.147V120.781C201.147 121.042 201.185 121.237 201.26 121.367C201.338 121.495 201.437 121.581 201.557 121.625C201.68 121.667 201.808 121.687 201.944 121.687C202.045 121.687 202.129 121.682 202.194 121.672C202.259 121.659 202.311 121.648 202.35 121.641L202.538 122.469C202.475 122.492 202.388 122.516 202.276 122.539C202.164 122.565 202.022 122.578 201.85 122.578C201.59 122.578 201.334 122.522 201.084 122.41C200.837 122.298 200.631 122.128 200.467 121.898C200.306 121.669 200.225 121.38 200.225 121.031V115.062ZM203.815 122.5V116.5H204.706V117.406H204.768C204.877 117.109 205.075 116.868 205.362 116.684C205.648 116.499 205.971 116.406 206.331 116.406C206.398 116.406 206.483 116.408 206.584 116.41C206.686 116.413 206.763 116.417 206.815 116.422V117.359C206.784 117.352 206.712 117.34 206.6 117.324C206.491 117.306 206.375 117.297 206.252 117.297C205.961 117.297 205.7 117.358 205.471 117.48C205.245 117.6 205.065 117.767 204.932 117.98C204.802 118.191 204.737 118.432 204.737 118.703V122.5H203.815ZM210.241 122.625C209.663 122.625 209.164 122.497 208.745 122.242C208.328 121.984 208.006 121.625 207.78 121.164C207.556 120.701 207.444 120.161 207.444 119.547C207.444 118.932 207.556 118.391 207.78 117.922C208.006 117.451 208.321 117.083 208.725 116.82C209.131 116.555 209.605 116.422 210.147 116.422C210.459 116.422 210.768 116.474 211.073 116.578C211.377 116.682 211.655 116.852 211.905 117.086C212.155 117.318 212.354 117.625 212.502 118.008C212.651 118.391 212.725 118.862 212.725 119.422V119.812H208.1V119.016H211.788C211.788 118.677 211.72 118.375 211.584 118.109C211.452 117.844 211.262 117.634 211.014 117.48C210.769 117.327 210.48 117.25 210.147 117.25C209.78 117.25 209.462 117.341 209.194 117.523C208.928 117.703 208.724 117.937 208.581 118.227C208.437 118.516 208.366 118.826 208.366 119.156V119.688C208.366 120.141 208.444 120.525 208.6 120.84C208.759 121.152 208.979 121.391 209.26 121.555C209.542 121.716 209.868 121.797 210.241 121.797C210.483 121.797 210.702 121.763 210.897 121.695C211.095 121.625 211.265 121.521 211.409 121.383C211.552 121.242 211.663 121.068 211.741 120.859L212.631 121.109C212.538 121.411 212.38 121.677 212.159 121.906C211.937 122.133 211.664 122.31 211.338 122.437C211.013 122.563 210.647 122.625 210.241 122.625ZM219.737 122.625C219.159 122.625 218.66 122.497 218.241 122.242C217.824 121.984 217.502 121.625 217.276 121.164C217.052 120.701 216.94 120.161 216.94 119.547C216.94 118.932 217.052 118.391 217.276 117.922C217.502 117.451 217.818 117.083 218.221 116.82C218.627 116.555 219.101 116.422 219.643 116.422C219.956 116.422 220.264 116.474 220.569 116.578C220.874 116.682 221.151 116.852 221.401 117.086C221.651 117.318 221.85 117.625 221.999 118.008C222.147 118.391 222.221 118.862 222.221 119.422V119.812H217.596V119.016H221.284C221.284 118.677 221.216 118.375 221.081 118.109C220.948 117.844 220.758 117.634 220.51 117.48C220.265 117.327 219.976 117.25 219.643 117.25C219.276 117.25 218.958 117.341 218.69 117.523C218.424 117.703 218.22 117.937 218.077 118.227C217.933 118.516 217.862 118.826 217.862 119.156V119.688C217.862 120.141 217.94 120.525 218.096 120.84C218.255 121.152 218.475 121.391 218.756 121.555C219.038 121.716 219.364 121.797 219.737 121.797C219.979 121.797 220.198 121.763 220.393 121.695C220.591 121.625 220.762 121.521 220.905 121.383C221.048 121.242 221.159 121.068 221.237 120.859L222.127 121.109C222.034 121.411 221.876 121.677 221.655 121.906C221.433 122.133 221.16 122.31 220.834 122.437C220.509 122.563 220.143 122.625 219.737 122.625ZM227.874 117.844L227.045 118.078C226.993 117.94 226.917 117.806 226.815 117.676C226.716 117.543 226.581 117.434 226.409 117.348C226.237 117.262 226.017 117.219 225.749 117.219C225.381 117.219 225.075 117.303 224.831 117.473C224.588 117.639 224.467 117.852 224.467 118.109C224.467 118.339 224.551 118.52 224.717 118.652C224.884 118.785 225.144 118.896 225.499 118.984L226.389 119.203C226.926 119.333 227.325 119.533 227.588 119.801C227.851 120.066 227.983 120.409 227.983 120.828C227.983 121.172 227.884 121.479 227.686 121.75C227.491 122.021 227.217 122.234 226.866 122.391C226.514 122.547 226.105 122.625 225.639 122.625C225.027 122.625 224.521 122.492 224.12 122.227C223.719 121.961 223.465 121.573 223.358 121.062L224.233 120.844C224.316 121.167 224.474 121.409 224.706 121.57C224.94 121.732 225.246 121.812 225.624 121.812C226.053 121.812 226.394 121.721 226.647 121.539C226.902 121.354 227.03 121.133 227.03 120.875C227.03 120.667 226.957 120.492 226.811 120.352C226.665 120.208 226.441 120.102 226.139 120.031L225.139 119.797C224.59 119.667 224.186 119.465 223.928 119.191C223.673 118.915 223.545 118.57 223.545 118.156C223.545 117.818 223.64 117.518 223.831 117.258C224.023 116.997 224.285 116.793 224.616 116.645C224.949 116.496 225.327 116.422 225.749 116.422C226.342 116.422 226.808 116.552 227.147 116.812C227.488 117.073 227.73 117.417 227.874 117.844ZM229.371 124.75V116.5H230.261V117.453H230.371C230.438 117.349 230.532 117.216 230.652 117.055C230.774 116.891 230.949 116.745 231.175 116.617C231.404 116.487 231.714 116.422 232.105 116.422C232.61 116.422 233.056 116.548 233.441 116.801C233.826 117.053 234.127 117.411 234.343 117.875C234.559 118.339 234.667 118.885 234.667 119.516C234.667 120.151 234.559 120.702 234.343 121.168C234.127 121.632 233.828 121.991 233.445 122.246C233.062 122.499 232.621 122.625 232.121 122.625C231.735 122.625 231.427 122.561 231.195 122.434C230.963 122.303 230.785 122.156 230.66 121.992C230.535 121.826 230.438 121.687 230.371 121.578H230.292V124.75H229.371ZM230.277 119.5C230.277 119.953 230.343 120.353 230.476 120.699C230.609 121.043 230.803 121.312 231.058 121.508C231.313 121.701 231.626 121.797 231.996 121.797C232.381 121.797 232.703 121.695 232.96 121.492C233.221 121.286 233.416 121.01 233.546 120.664C233.679 120.315 233.746 119.927 233.746 119.5C233.746 119.078 233.681 118.698 233.55 118.359C233.423 118.018 233.229 117.749 232.968 117.551C232.71 117.35 232.386 117.25 231.996 117.25C231.621 117.25 231.306 117.345 231.05 117.535C230.795 117.723 230.602 117.986 230.472 118.324C230.342 118.66 230.277 119.052 230.277 119.5ZM237.839 122.641C237.459 122.641 237.114 122.569 236.804 122.426C236.494 122.28 236.248 122.07 236.066 121.797C235.884 121.521 235.792 121.187 235.792 120.797C235.792 120.453 235.86 120.174 235.996 119.961C236.131 119.745 236.312 119.576 236.539 119.453C236.765 119.331 237.015 119.24 237.289 119.18C237.565 119.117 237.842 119.068 238.121 119.031C238.485 118.984 238.781 118.949 239.007 118.926C239.236 118.9 239.403 118.857 239.507 118.797C239.614 118.737 239.667 118.633 239.667 118.484V118.453C239.667 118.068 239.562 117.768 239.351 117.555C239.143 117.341 238.826 117.234 238.402 117.234C237.962 117.234 237.617 117.331 237.367 117.523C237.117 117.716 236.941 117.922 236.839 118.141L235.964 117.828C236.121 117.464 236.329 117.18 236.589 116.977C236.852 116.771 237.139 116.628 237.449 116.547C237.761 116.464 238.069 116.422 238.371 116.422C238.563 116.422 238.785 116.445 239.035 116.492C239.287 116.536 239.531 116.629 239.765 116.77C240.002 116.91 240.199 117.122 240.355 117.406C240.511 117.69 240.589 118.07 240.589 118.547V122.5H239.667V121.687H239.621C239.558 121.818 239.454 121.957 239.308 122.105C239.162 122.254 238.968 122.38 238.726 122.484C238.484 122.589 238.188 122.641 237.839 122.641ZM237.98 121.812C238.345 121.812 238.652 121.741 238.902 121.598C239.154 121.454 239.345 121.27 239.472 121.043C239.602 120.816 239.667 120.578 239.667 120.328V119.484C239.628 119.531 239.542 119.574 239.41 119.613C239.279 119.65 239.128 119.682 238.957 119.711C238.787 119.737 238.622 119.76 238.46 119.781C238.302 119.799 238.173 119.815 238.074 119.828C237.834 119.859 237.61 119.91 237.402 119.98C237.196 120.048 237.029 120.151 236.902 120.289C236.777 120.424 236.714 120.609 236.714 120.844C236.714 121.164 236.833 121.406 237.07 121.57C237.309 121.732 237.613 121.812 237.98 121.812ZM244.709 122.625C244.147 122.625 243.663 122.492 243.256 122.227C242.85 121.961 242.538 121.595 242.319 121.129C242.1 120.663 241.991 120.13 241.991 119.531C241.991 118.922 242.103 118.384 242.327 117.918C242.553 117.449 242.868 117.083 243.272 116.82C243.678 116.555 244.152 116.422 244.694 116.422C245.116 116.422 245.496 116.5 245.834 116.656C246.173 116.812 246.45 117.031 246.667 117.312C246.883 117.594 247.017 117.922 247.069 118.297H246.147C246.077 118.023 245.92 117.781 245.678 117.57C245.439 117.357 245.116 117.25 244.709 117.25C244.35 117.25 244.035 117.344 243.764 117.531C243.496 117.716 243.286 117.978 243.135 118.316C242.987 118.652 242.913 119.047 242.913 119.5C242.913 119.964 242.986 120.367 243.131 120.711C243.28 121.055 243.488 121.322 243.756 121.512C244.027 121.702 244.345 121.797 244.709 121.797C244.949 121.797 245.167 121.755 245.362 121.672C245.557 121.589 245.722 121.469 245.858 121.312C245.993 121.156 246.09 120.969 246.147 120.75H247.069C247.017 121.104 246.888 121.423 246.682 121.707C246.479 121.988 246.209 122.212 245.874 122.379C245.54 122.543 245.152 122.625 244.709 122.625ZM250.932 122.625C250.354 122.625 249.855 122.497 249.436 122.242C249.019 121.984 248.698 121.625 248.471 121.164C248.247 120.701 248.135 120.161 248.135 119.547C248.135 118.932 248.247 118.391 248.471 117.922C248.698 117.451 249.013 117.083 249.417 116.82C249.823 116.555 250.297 116.422 250.838 116.422C251.151 116.422 251.459 116.474 251.764 116.578C252.069 116.682 252.346 116.852 252.596 117.086C252.846 117.318 253.045 117.625 253.194 118.008C253.342 118.391 253.417 118.862 253.417 119.422V119.812H248.792V119.016H252.479C252.479 118.677 252.411 118.375 252.276 118.109C252.143 117.844 251.953 117.634 251.706 117.48C251.461 117.327 251.172 117.25 250.838 117.25C250.471 117.25 250.153 117.341 249.885 117.523C249.62 117.703 249.415 117.937 249.272 118.227C249.129 118.516 249.057 118.826 249.057 119.156V119.688C249.057 120.141 249.135 120.525 249.292 120.84C249.45 121.152 249.67 121.391 249.952 121.555C250.233 121.716 250.56 121.797 250.932 121.797C251.174 121.797 251.393 121.763 251.588 121.695C251.786 121.625 251.957 121.521 252.1 121.383C252.243 121.242 252.354 121.068 252.432 120.859L253.323 121.109C253.229 121.411 253.071 121.677 252.85 121.906C252.629 122.133 252.355 122.31 252.03 122.437C251.704 122.563 251.338 122.625 250.932 122.625Z" fill="#9747FF"/>
</svg>
