<svg width="88" height="86" viewBox="0 0 88 86" fill="none" xmlns="http://www.w3.org/2000/svg">
<g filter="url(#filter0_dii_1790_1140)">
<path fill-rule="evenodd" clip-rule="evenodd" d="M44 63C55.598 63 65 53.598 65 42C65 30.402 55.598 21 44 21C32.402 21 23 30.402 23 42C23 53.598 32.402 63 44 63ZM33.9773 36.0212C34.28 35.6954 34.6135 35.4271 34.9668 35.2163C35.4714 33.9351 36.2031 32.7402 37.1613 31.7088C41.1164 27.4514 47.4324 27.592 51.2359 31.9854C52.1537 33.0455 52.8445 34.26 53.3087 35.5524C53.6635 35.778 53.9958 36.063 54.2937 36.4072C55.9837 38.3592 55.9291 41.4751 54.1718 43.3667L52.9835 44.6459C52.4922 45.7478 51.8268 46.7762 50.9878 47.6794C50.1489 48.5825 49.2037 49.2877 48.1987 49.7964L47.0105 51.0754L43.8286 54.5005L40.7687 50.966L39.587 49.6011C38.6155 49.0555 37.7093 48.3223 36.9133 47.4028C36.1172 46.4832 35.492 45.4476 35.0372 44.3458L33.8554 42.9808C32.1655 41.0287 32.22 37.9128 33.9773 36.0212Z" fill="url(#paint0_linear_1790_1140)"/>
</g>
<rect width="21.0436" height="21.1242" rx="10.5218" transform="matrix(0.680616 -0.732641 0.654535 0.756032 30 39.4175)" fill="#030813"/>
<g style="mix-blend-mode:hard-light" filter="url(#filter1_f_1790_1140)">
<ellipse cx="6.31309" cy="6.33726" rx="6.31309" ry="6.33726" transform="matrix(0.680616 -0.732641 0.654535 0.756032 35.6299 39.5281)" fill="#FF0000" fill-opacity="0.2"/>
</g>
<g style="mix-blend-mode:hard-light" filter="url(#filter2_f_1790_1140)">
<path d="M37.0374 39.5557L43.9506 47.541L51.1119 39.8322" stroke="#FF5C00" stroke-width="7.15" stroke-linecap="round"/>
</g>
<g style="mix-blend-mode:hard-light" filter="url(#filter3_f_1790_1140)">
<path d="M37.0374 39.5557L43.9506 47.541L51.1119 39.8322" stroke="#FF0000" stroke-width="9.35" stroke-linecap="round"/>
</g>
<g style="mix-blend-mode:hard-light" filter="url(#filter4_ddi_1790_1140)">
<path d="M37.0374 39.5557L43.9506 47.541L51.1119 39.8322" stroke="#FF0000" stroke-opacity="0.2" stroke-width="7.15" stroke-linecap="round"/>
</g>
<g filter="url(#filter5_f_1790_1140)">
<path d="M37.0374 39.5557L43.9506 47.541L51.1119 39.8322" stroke="#FF9983" stroke-width="4.4" stroke-linecap="round"/>
</g>
<g filter="url(#filter6_f_1790_1140)">
<path d="M37.0374 39.5557L43.9506 47.541L51.1119 39.8322" stroke="white" stroke-width="2.2" stroke-linecap="round"/>
</g>
<defs>
<filter id="filter0_dii_1790_1140" x="15.5333" y="17.2667" width="56.9333" height="56.9333" filterUnits="userSpaceOnUse" color-interpolation-filters="sRGB">
<feFlood flood-opacity="0" result="BackgroundImageFix"/>
<feColorMatrix in="SourceAlpha" type="matrix" values="0 0 0 0 0 0 0 0 0 0 0 0 0 0 0 0 0 0 127 0" result="hardAlpha"/>
<feOffset dy="3.73333"/>
<feGaussianBlur stdDeviation="3.73333"/>
<feColorMatrix type="matrix" values="0 0 0 0 0.144251 0 0 0 0 0.144251 0 0 0 0 0.144251 0 0 0 0.8 0"/>
<feBlend mode="normal" in2="BackgroundImageFix" result="effect1_dropShadow_1790_1140"/>
<feBlend mode="normal" in="SourceGraphic" in2="effect1_dropShadow_1790_1140" result="shape"/>
<feColorMatrix in="SourceAlpha" type="matrix" values="0 0 0 0 0 0 0 0 0 0 0 0 0 0 0 0 0 0 127 0" result="hardAlpha"/>
<feOffset dy="2.48889"/>
<feGaussianBlur stdDeviation="1.24444"/>
<feComposite in2="hardAlpha" operator="arithmetic" k2="-1" k3="1"/>
<feColorMatrix type="matrix" values="0 0 0 0 1 0 0 0 0 1 0 0 0 0 1 0 0 0 1 0"/>
<feBlend mode="normal" in2="shape" result="effect2_innerShadow_1790_1140"/>
<feColorMatrix in="SourceAlpha" type="matrix" values="0 0 0 0 0 0 0 0 0 0 0 0 0 0 0 0 0 0 127 0" result="hardAlpha"/>
<feOffset dy="-2.48889"/>
<feGaussianBlur stdDeviation="1.24444"/>
<feComposite in2="hardAlpha" operator="arithmetic" k2="-1" k3="1"/>
<feColorMatrix type="matrix" values="0 0 0 0 0.288502 0 0 0 0 0.288502 0 0 0 0 0.288502 0 0 0 1 0"/>
<feBlend mode="normal" in2="effect2_innerShadow_1790_1140" result="effect3_innerShadow_1790_1140"/>
</filter>
<filter id="filter1_f_1790_1140" x="5.10229" y="0.034668" width="77.9446" height="79.3188" filterUnits="userSpaceOnUse" color-interpolation-filters="sRGB">
<feFlood flood-opacity="0" result="BackgroundImageFix"/>
<feBlend mode="normal" in="SourceGraphic" in2="BackgroundImageFix" result="shape"/>
<feGaussianBlur stdDeviation="16.5" result="effect1_foregroundBlur_1790_1140"/>
</filter>
<filter id="filter2_f_1790_1140" x="0.661621" y="2.79199" width="86.8262" height="83.071" filterUnits="userSpaceOnUse" color-interpolation-filters="sRGB">
<feFlood flood-opacity="0" result="BackgroundImageFix"/>
<feBlend mode="normal" in="SourceGraphic" in2="BackgroundImageFix" result="shape"/>
<feGaussianBlur stdDeviation="16.5" result="effect1_foregroundBlur_1790_1140"/>
</filter>
<filter id="filter3_f_1790_1140" x="21.6228" y="23.634" width="44.9036" height="41.8665" filterUnits="userSpaceOnUse" color-interpolation-filters="sRGB">
<feFlood flood-opacity="0" result="BackgroundImageFix"/>
<feBlend mode="normal" in="SourceGraphic" in2="BackgroundImageFix" result="shape"/>
<feGaussianBlur stdDeviation="5.5" result="effect1_foregroundBlur_1790_1140"/>
</filter>
<filter id="filter4_ddi_1790_1140" x="19.3616" y="32.492" width="49.4262" height="45.671" filterUnits="userSpaceOnUse" color-interpolation-filters="sRGB">
<feFlood flood-opacity="0" result="BackgroundImageFix"/>
<feColorMatrix in="SourceAlpha" type="matrix" values="0 0 0 0 0 0 0 0 0 0 0 0 0 0 0 0 0 0 127 0" result="hardAlpha"/>
<feOffset dy="7.15"/>
<feGaussianBlur stdDeviation="2.75"/>
<feColorMatrix type="matrix" values="0 0 0 0 0.15 0 0 0 0 0 0 0 0 0 0 0 0 0 0.7 0"/>
<feBlend mode="multiply" in2="BackgroundImageFix" result="effect1_dropShadow_1790_1140"/>
<feColorMatrix in="SourceAlpha" type="matrix" values="0 0 0 0 0 0 0 0 0 0 0 0 0 0 0 0 0 0 127 0" result="hardAlpha"/>
<feOffset dy="11"/>
<feGaussianBlur stdDeviation="7.15"/>
<feColorMatrix type="matrix" values="0 0 0 0 0.8 0 0 0 0 0.19 0 0 0 0 0.19 0 0 0 1 0"/>
<feBlend mode="color-dodge" in2="effect1_dropShadow_1790_1140" result="effect2_dropShadow_1790_1140"/>
<feBlend mode="normal" in="SourceGraphic" in2="effect2_dropShadow_1790_1140" result="shape"/>
<feColorMatrix in="SourceAlpha" type="matrix" values="0 0 0 0 0 0 0 0 0 0 0 0 0 0 0 0 0 0 127 0" result="hardAlpha"/>
<feOffset dx="-0.715" dy="1.43"/>
<feGaussianBlur stdDeviation="0.3575"/>
<feComposite in2="hardAlpha" operator="arithmetic" k2="-1" k3="1"/>
<feColorMatrix type="matrix" values="0 0 0 0 1 0 0 0 0 1 0 0 0 0 1 0 0 0 0.5 0"/>
<feBlend mode="normal" in2="shape" result="effect3_innerShadow_1790_1140"/>
</filter>
<filter id="filter5_f_1790_1140" x="33.86" y="36.1395" width="20.4295" height="15.7764" filterUnits="userSpaceOnUse" color-interpolation-filters="sRGB">
<feFlood flood-opacity="0" result="BackgroundImageFix"/>
<feBlend mode="normal" in="SourceGraphic" in2="BackgroundImageFix" result="shape"/>
<feGaussianBlur stdDeviation="0.55" result="effect1_foregroundBlur_1790_1140"/>
</filter>
<filter id="filter6_f_1790_1140" x="35.2652" y="37.6644" width="17.6188" height="12.2474" filterUnits="userSpaceOnUse" color-interpolation-filters="sRGB">
<feFlood flood-opacity="0" result="BackgroundImageFix"/>
<feBlend mode="normal" in="SourceGraphic" in2="BackgroundImageFix" result="shape"/>
<feGaussianBlur stdDeviation="0.366667" result="effect1_foregroundBlur_1790_1140"/>
</filter>
<linearGradient id="paint0_linear_1790_1140" x1="44" y1="21" x2="44" y2="63" gradientUnits="userSpaceOnUse">
<stop stop-color="#606060"/>
<stop offset="1" stop-color="#FAFAFA"/>
</linearGradient>
</defs>
</svg>
