<svg width="11" height="13" viewBox="0 0 11 13" fill="none" xmlns="http://www.w3.org/2000/svg">
<path d="M9.77778 0H1.22222C0.898069 0 0.587192 0.130442 0.357981 0.36263C0.128769 0.594818 0 0.909732 0 1.2381V9.90476C0 10.2331 0.128769 10.548 0.357981 10.7802C0.587192 11.0124 0.898069 11.1429 1.22222 11.1429H3.66667L5.5 13L7.33333 11.1429H9.77778C10.45 11.1429 11 10.5857 11 9.90476V1.2381C11 0.557143 10.45 0 9.77778 0ZM9.77778 9.90476H6.82611L6.46556 10.27L5.5 11.2481L4.52833 10.2638L4.17389 9.90476H1.22222V1.2381H9.77778V9.90476ZM5.5 5.57143C6.50833 5.57143 7.33333 4.73571 7.33333 3.71429C7.33333 2.69286 6.50833 1.85714 5.5 1.85714C4.49167 1.85714 3.66667 2.69286 3.66667 3.71429C3.66667 4.73571 4.49167 5.57143 5.5 5.57143ZM5.5 3.09524C5.83611 3.09524 6.11111 3.37381 6.11111 3.71429C6.11111 4.05476 5.83611 4.33333 5.5 4.33333C5.16389 4.33333 4.88889 4.05476 4.88889 3.71429C4.88889 3.37381 5.16389 3.09524 5.5 3.09524ZM9.16667 8.40667C9.16667 6.85905 6.74056 6.19048 5.5 6.19048C4.25944 6.19048 1.83333 6.85905 1.83333 8.40667V9.28572H9.16667V8.40667ZM3.34889 8.04762C3.80111 7.7319 4.71167 7.42857 5.5 7.42857C6.28833 7.42857 7.19889 7.7319 7.65111 8.04762H3.34889Z" fill="black"/>
</svg>
