<svg width="34" height="40" viewBox="0 0 34 40" fill="none" xmlns="http://www.w3.org/2000/svg">
<path d="M29.8333 0.666748H4.16667C3.19421 0.666748 2.26157 1.05306 1.57394 1.74069C0.886308 2.42832 0.5 3.36095 0.5 4.33341V30.0001C0.5 30.9725 0.886308 31.9052 1.57394 32.5928C2.26157 33.2804 3.19421 33.6667 4.16667 33.6667H11.5L17 39.1667L22.5 33.6667H29.8333C31.85 33.6667 33.5 32.0167 33.5 30.0001V4.33341C33.5 2.31675 31.85 0.666748 29.8333 0.666748ZM29.8333 30.0001H20.9783L19.8967 31.0817L17 33.9784L14.085 31.0634L13.0217 30.0001H4.16667V4.33341H29.8333V30.0001ZM17 17.1667C20.025 17.1667 22.5 14.6917 22.5 11.6667C22.5 8.64175 20.025 6.16675 17 6.16675C13.975 6.16675 11.5 8.64175 11.5 11.6667C11.5 14.6917 13.975 17.1667 17 17.1667ZM17 9.83342C18.0083 9.83342 18.8333 10.6584 18.8333 11.6667C18.8333 12.6751 18.0083 13.5001 17 13.5001C15.9917 13.5001 15.1667 12.6751 15.1667 11.6667C15.1667 10.6584 15.9917 9.83342 17 9.83342ZM28 25.5634C28 20.9801 20.7217 19.0001 17 19.0001C13.2783 19.0001 6 20.9801 6 25.5634V28.1667H28V25.5634ZM10.5467 24.5001C11.9033 23.5651 14.635 22.6667 17 22.6667C19.365 22.6667 22.0967 23.5651 23.4533 24.5001H10.5467Z" fill="white"/>
</svg>
