<svg width="58" height="58" viewBox="0 0 58 58" fill="none" xmlns="http://www.w3.org/2000/svg">
<path d="M36.2046 19.8821V12.471C36.2046 12.3815 36.2167 12.2938 36.2396 12.2183C36.2624 12.1427 36.295 12.0824 36.3335 12.0445C36.372 12.0065 36.4149 11.9924 36.4571 12.0039C36.4992 12.0153 36.539 12.0518 36.5717 12.1091L38.6846 15.8147C38.7921 16.0032 38.7921 16.35 38.6846 16.5385L36.5717 20.244C36.539 20.3013 36.4992 20.3378 36.4571 20.3493C36.4149 20.3607 36.372 20.3466 36.3335 20.3087C36.295 20.2707 36.2624 20.2104 36.2396 20.1349C36.2167 20.0593 36.2046 19.9716 36.2046 19.8821ZM36.2046 36.8454V29.4343C36.2046 29.3448 36.2167 29.2571 36.2396 29.1816C36.2624 29.106 36.295 29.0458 36.3335 29.0078C36.372 28.9698 36.4149 28.9557 36.4571 28.9672C36.4992 28.9786 36.539 29.0152 36.5717 29.0725L38.6846 32.778C38.7921 32.9665 38.7921 33.3133 38.6846 33.5018L36.5717 37.2073C36.539 37.2646 36.4992 37.3011 36.4571 37.3126C36.4149 37.324 36.372 37.31 36.3335 37.272C36.295 37.234 36.2624 37.1737 36.2396 37.0982C36.2167 37.0226 36.2046 36.935 36.2046 36.8454Z" fill="#78FC57"/>
<g filter="url(#filter0_dii_1292_998)">
<path fill-rule="evenodd" clip-rule="evenodd" d="M50 25C50 36.5979 40.598 46 29 46C17.402 46 8 36.5979 8 25C8 13.4021 17.402 4 29 4C40.598 4 50 13.4021 50 25ZM36.2045 15.7974V12.4709C36.2045 12.4487 36.2053 12.4268 36.2068 12.4048L36.2113 12.3562C36.2158 12.3193 36.2222 12.2837 36.2307 12.25L36.2395 12.2183C36.2623 12.1428 36.2949 12.0825 36.3334 12.0444C36.3553 12.0229 36.3786 12.009 36.4023 12.0032C36.4204 11.9988 36.4387 11.999 36.457 12.0039C36.4991 12.0154 36.5389 12.0518 36.5716 12.1091L38.6846 15.8147C38.792 16.0032 38.792 16.3499 38.6846 16.5386L36.5716 20.2439C36.5389 20.3013 36.4991 20.3379 36.457 20.3494C36.4443 20.3528 36.4315 20.354 36.4189 20.3528C36.3894 20.3503 36.3604 20.3352 36.3334 20.3086C36.2949 20.2708 36.2623 20.2104 36.2395 20.1348C36.232 20.1099 36.2256 20.0837 36.2205 20.0566C36.21 20.0015 36.2045 19.9421 36.2045 19.8821V17.696C33.5484 17.696 31.5172 19.6138 30.1093 21.6492C29.3481 22.7576 28.6943 23.9805 28.1623 25.291C28.6938 26.6016 29.3471 27.8245 30.1078 28.9329C31.5186 30.9683 33.5514 32.886 36.2045 32.886V29.4343C36.2045 29.3447 36.2167 29.2571 36.2395 29.1816C36.2623 29.106 36.2949 29.0457 36.3334 29.0078C36.3524 28.989 36.3725 28.9761 36.393 28.9692C36.4141 28.9622 36.4356 28.9614 36.457 28.9673C36.4991 28.9788 36.5389 29.0151 36.5716 29.0725L38.6846 32.7781C38.792 32.9666 38.792 33.3132 38.6846 33.5017L36.5716 37.2073C36.5389 37.2646 36.4991 37.301 36.457 37.3125C36.4414 37.3167 36.4258 37.3174 36.4103 37.3147C36.3838 37.3103 36.3577 37.2959 36.3334 37.272C36.2949 37.2339 36.2623 37.1738 36.2395 37.0981C36.2167 37.0227 36.2045 36.9351 36.2045 36.8455V34.7847C32.9516 34.7847 30.551 32.4302 29.0043 30.1936C28.3831 29.29 27.8264 28.3164 27.3409 27.2847C26.9568 28.1011 26.4014 29.1455 25.6775 30.1936C24.1308 32.4302 21.7302 34.7847 18.4773 34.7847H17.7386C17.5427 34.7847 17.3549 34.6846 17.2164 34.5066C17.0778 34.3286 17 34.0872 17 33.8354C17 33.5835 17.0778 33.342 17.2164 33.1641C17.3549 32.9861 17.5427 32.886 17.7386 32.886H18.4773C21.1334 32.886 23.1647 30.9683 24.5725 28.9329C25.3337 27.8245 25.9875 26.6018 26.5195 25.291C25.988 23.9805 25.3347 22.7576 24.574 21.6492C23.1632 19.6138 21.1304 17.696 18.4773 17.696H17.7386C17.5427 17.696 17.3549 17.5962 17.2164 17.418C17.0778 17.24 17 16.9985 17 16.7468C17 16.4949 17.0778 16.2534 17.2164 16.0754C17.3549 15.8975 17.5427 15.7974 17.7386 15.7974H18.4773C21.7302 15.7974 24.1308 18.1519 25.6775 20.3884C26.4014 21.4365 26.9553 22.481 27.3409 23.2974C27.725 22.481 28.2805 21.4365 29.0043 20.3884C30.551 18.1519 32.9516 15.7974 36.2045 15.7974Z" fill="url(#paint0_linear_1292_998)"/>
</g>
<path fill-rule="evenodd" clip-rule="evenodd" d="M17 16.747C17 16.4952 17.0778 16.2537 17.2163 16.0757C17.3549 15.8976 17.5427 15.7976 17.7386 15.7976H18.4773C21.7302 15.7976 24.1308 18.152 25.6775 20.3887C26.4014 21.4368 26.9553 22.4812 27.3409 23.2976C27.725 22.4812 28.2805 21.4368 29.0043 20.3887C30.551 18.152 32.9516 15.7976 36.2045 15.7976V17.6963C33.5484 17.6963 31.5172 19.6141 30.1093 21.6495C29.3481 22.7577 28.6943 23.9806 28.1623 25.2913C28.6938 26.6019 29.3471 27.8247 30.1078 28.9331C31.5186 30.9685 33.5514 32.8862 36.2045 32.8862V34.7849C32.9516 34.7849 30.551 32.4305 29.0043 30.1938C28.3831 29.2902 27.8264 28.3167 27.3409 27.2849C26.9568 28.1014 26.4014 29.1457 25.6775 30.1938C24.1308 32.4305 21.7302 34.7849 18.4773 34.7849H17.7386C17.5427 34.7849 17.3549 34.6849 17.2163 34.5069C17.0778 34.3288 17 34.0874 17 33.8356C17 33.5838 17.0778 33.3423 17.2163 33.1643C17.3549 32.9862 17.5427 32.8862 17.7386 32.8862H18.4773C21.1334 32.8862 23.1647 30.9685 24.5725 28.9331C25.3337 27.8248 25.9875 26.602 26.5195 25.2913C25.988 23.9807 25.3347 22.7578 24.574 21.6495C23.1632 19.6141 21.1305 17.6963 18.4773 17.6963H17.7386C17.5427 17.6963 17.3549 17.5963 17.2163 17.4183C17.0778 17.2402 17 16.9988 17 16.747Z" fill="#40F014"/>
<defs>
<filter id="filter0_dii_1292_998" x="0.533333" y="0.266667" width="56.9333" height="56.9333" filterUnits="userSpaceOnUse" color-interpolation-filters="sRGB">
<feFlood flood-opacity="0" result="BackgroundImageFix"/>
<feColorMatrix in="SourceAlpha" type="matrix" values="0 0 0 0 0 0 0 0 0 0 0 0 0 0 0 0 0 0 127 0" result="hardAlpha"/>
<feOffset dy="3.73333"/>
<feGaussianBlur stdDeviation="3.73333"/>
<feColorMatrix type="matrix" values="0 0 0 0 0.144251 0 0 0 0 0.144251 0 0 0 0 0.144251 0 0 0 0.8 0"/>
<feBlend mode="normal" in2="BackgroundImageFix" result="effect1_dropShadow_1292_998"/>
<feBlend mode="normal" in="SourceGraphic" in2="effect1_dropShadow_1292_998" result="shape"/>
<feColorMatrix in="SourceAlpha" type="matrix" values="0 0 0 0 0 0 0 0 0 0 0 0 0 0 0 0 0 0 127 0" result="hardAlpha"/>
<feOffset dy="2.48889"/>
<feGaussianBlur stdDeviation="1.24444"/>
<feComposite in2="hardAlpha" operator="arithmetic" k2="-1" k3="1"/>
<feColorMatrix type="matrix" values="0 0 0 0 1 0 0 0 0 1 0 0 0 0 1 0 0 0 1 0"/>
<feBlend mode="normal" in2="shape" result="effect2_innerShadow_1292_998"/>
<feColorMatrix in="SourceAlpha" type="matrix" values="0 0 0 0 0 0 0 0 0 0 0 0 0 0 0 0 0 0 127 0" result="hardAlpha"/>
<feOffset dy="-2.48889"/>
<feGaussianBlur stdDeviation="1.24444"/>
<feComposite in2="hardAlpha" operator="arithmetic" k2="-1" k3="1"/>
<feColorMatrix type="matrix" values="0 0 0 0 0.288502 0 0 0 0 0.288502 0 0 0 0 0.288502 0 0 0 1 0"/>
<feBlend mode="normal" in2="effect2_innerShadow_1292_998" result="effect3_innerShadow_1292_998"/>
</filter>
<linearGradient id="paint0_linear_1292_998" x1="29" y1="4" x2="29" y2="46" gradientUnits="userSpaceOnUse">
<stop stop-color="#606060"/>
<stop offset="1" stop-color="#FAFAFA"/>
</linearGradient>
</defs>
</svg>
