<svg width="9" height="8" viewBox="0 0 9 8" fill="none" xmlns="http://www.w3.org/2000/svg">
<path d="M4.75055 0.732858L4.49955 0.983387L4.24855 0.732858C4.01886 0.500729 3.74528 0.316426 3.44367 0.190637C3.14207 0.0648475 2.81845 7.53593e-05 2.49158 7.53593e-05C2.16471 7.53593e-05 1.84109 0.0648475 1.53948 0.190637C1.23788 0.316426 0.964302 0.500729 0.734605 0.732858C0.501907 0.962143 0.317145 1.23527 0.191041 1.53639C0.0649362 1.83752 0 2.16064 0 2.48701C0 2.81338 0.0649362 3.13651 0.191041 3.43763C0.317145 3.73875 0.501907 4.01188 0.734605 4.24116L4.49955 8L8.2654 4.24116C8.49809 4.01188 8.68285 3.73875 8.80896 3.43763C8.93506 3.13651 9 2.81338 9 2.48701C9 2.16064 8.93506 1.83752 8.80896 1.53639C8.68285 1.23527 8.49809 0.962143 8.2654 0.732858C8.03562 0.500702 7.76196 0.31638 7.46029 0.190579C7.15861 0.0647783 6.83492 0 6.50797 0C6.18103 0 5.85733 0.0647783 5.55565 0.190579C5.25398 0.31638 4.98032 0.500702 4.75055 0.732858Z" fill="black"/>
</svg>
