<svg width="15" height="15" viewBox="0 0 15 15" fill="none" xmlns="http://www.w3.org/2000/svg">
<rect width="14.2041" height="14.2041" transform="translate(0.346924 0.448975)" fill="none"/>
<path d="M8.33672 11.9899C8.33672 12.9708 7.34244 13.7654 6.11734 13.7654C4.89223 13.7654 3.89795 12.9708 3.89795 11.9899C3.89795 11.0089 4.89223 10.2144 6.11734 10.2144C7.34244 10.2144 8.33672 11.0089 8.33672 11.9899Z" fill="white"/>
<path fill-rule="evenodd" clip-rule="evenodd" d="M8.33673 3.1123V11.9899H7.44897V3.1123H8.33673Z" fill="white"/>
<path d="M7.44897 2.95234C7.4491 2.74719 7.52027 2.54841 7.65039 2.3898C7.78052 2.2312 7.96156 2.12255 8.16273 2.08234L10.826 1.54969C10.9547 1.52396 11.0876 1.5271 11.215 1.55889C11.3424 1.59069 11.4611 1.65034 11.5627 1.73355C11.6642 1.81676 11.746 1.92146 11.8023 2.04011C11.8585 2.15876 11.8877 2.2884 11.8877 2.41969V3.99989L7.44897 4.88765V2.95234Z" fill="white"/>
</svg>
