<svg width="58" height="55" viewBox="0 0 58 55" fill="none" xmlns="http://www.w3.org/2000/svg">
<g filter="url(#filter0_dii_29_852)">
<path fill-rule="evenodd" clip-rule="evenodd" d="M50 25C50 36.598 40.598 46 29 46C17.402 46 8 36.598 8 25C8 13.402 17.402 4 29 4C40.598 4 50 13.402 50 25ZM37.2045 15.7974V12.471C37.2045 12.3815 37.2167 12.2938 37.2395 12.2183C37.2623 12.1427 37.2949 12.0824 37.3334 12.0445C37.372 12.0065 37.4148 11.9924 37.457 12.0039C37.4992 12.0153 37.5389 12.0518 37.5716 12.1091L39.6846 15.8147C39.792 16.0032 39.792 16.35 39.6846 16.5385L37.5716 20.244C37.5389 20.3013 37.4992 20.3378 37.457 20.3493C37.4148 20.3607 37.372 20.3466 37.3334 20.3087C37.2949 20.2707 37.2623 20.2104 37.2395 20.1349C37.2167 20.0593 37.2045 19.9716 37.2045 19.8821V17.6961C34.5484 17.6961 32.5172 19.6138 31.1093 21.6493C30.3481 22.7575 29.6943 23.9804 29.1623 25.291C29.6938 26.6016 30.3471 27.8245 31.1078 28.9328C32.5186 30.9682 34.5514 32.886 37.2045 32.886V29.4343C37.2045 29.3448 37.2167 29.2571 37.2395 29.1816C37.2623 29.106 37.2949 29.0458 37.3334 29.0078C37.372 28.9698 37.4148 28.9557 37.457 28.9672C37.4992 28.9786 37.5389 29.0152 37.5716 29.0725L39.6846 32.778C39.792 32.9665 39.792 33.3133 39.6846 33.5018L37.5716 37.2073C37.5389 37.2646 37.4992 37.3011 37.457 37.3126C37.4148 37.324 37.372 37.31 37.3334 37.272C37.2949 37.234 37.2623 37.1737 37.2395 37.0982C37.2167 37.0226 37.2045 36.935 37.2045 36.8454V34.7847C33.9516 34.7847 31.551 32.4303 30.0043 30.1936C29.3831 29.29 28.8264 28.3164 28.3409 27.2847C27.9568 28.1012 27.4014 29.1455 26.6775 30.1936C25.1308 32.4303 22.7302 34.7847 19.4773 34.7847H18.7386C18.5427 34.7847 18.3549 34.6847 18.2163 34.5066C18.0778 34.3286 18 34.0871 18 33.8353C18 33.5835 18.0778 33.3421 18.2163 33.164C18.3549 32.986 18.5427 32.886 18.7386 32.886H19.4773C22.1334 32.886 24.1647 30.9682 25.5725 28.9328C26.3337 27.8246 26.9875 26.6017 27.5195 25.291C26.988 23.9804 26.3347 22.7576 25.574 21.6493C24.1632 19.6138 22.1305 17.6961 19.4773 17.6961H18.7386C18.5427 17.6961 18.3549 17.5961 18.2163 17.418C18.0778 17.24 18 16.9985 18 16.7467C18 16.4949 18.0778 16.2535 18.2163 16.0754C18.3549 15.8974 18.5427 15.7974 18.7386 15.7974H19.4773C22.7302 15.7974 25.1308 18.1518 26.6775 20.3885C27.4014 21.4366 27.9553 22.4809 28.3409 23.2974C28.725 22.4809 29.2805 21.4366 30.0043 20.3885C31.551 18.1518 33.9516 15.7974 37.2045 15.7974Z" fill="url(#paint0_linear_29_852)"/>
</g>
<defs>
<filter id="filter0_dii_29_852" x="0.533333" y="0.266667" width="56.9333" height="56.9333" filterUnits="userSpaceOnUse" color-interpolation-filters="sRGB">
<feFlood flood-opacity="0" result="BackgroundImageFix"/>
<feColorMatrix in="SourceAlpha" type="matrix" values="0 0 0 0 0 0 0 0 0 0 0 0 0 0 0 0 0 0 127 0" result="hardAlpha"/>
<feOffset dy="3.73333"/>
<feGaussianBlur stdDeviation="3.73333"/>
<feColorMatrix type="matrix" values="0 0 0 0 0.170196 0 0 0 0 0.170196 0 0 0 0 0.170196 0 0 0 0.8 0"/>
<feBlend mode="normal" in2="BackgroundImageFix" result="effect1_dropShadow_29_852"/>
<feBlend mode="normal" in="SourceGraphic" in2="effect1_dropShadow_29_852" result="shape"/>
<feColorMatrix in="SourceAlpha" type="matrix" values="0 0 0 0 0 0 0 0 0 0 0 0 0 0 0 0 0 0 127 0" result="hardAlpha"/>
<feOffset dy="2.48889"/>
<feGaussianBlur stdDeviation="1.24444"/>
<feComposite in2="hardAlpha" operator="arithmetic" k2="-1" k3="1"/>
<feColorMatrix type="matrix" values="0 0 0 0 1 0 0 0 0 1 0 0 0 0 1 0 0 0 1 0"/>
<feBlend mode="normal" in2="shape" result="effect2_innerShadow_29_852"/>
<feColorMatrix in="SourceAlpha" type="matrix" values="0 0 0 0 0 0 0 0 0 0 0 0 0 0 0 0 0 0 127 0" result="hardAlpha"/>
<feOffset dy="-2.48889"/>
<feGaussianBlur stdDeviation="1.24444"/>
<feComposite in2="hardAlpha" operator="arithmetic" k2="-1" k3="1"/>
<feColorMatrix type="matrix" values="0 0 0 0 0.340392 0 0 0 0 0.340392 0 0 0 0 0.340392 0 0 0 1 0"/>
<feBlend mode="normal" in2="effect2_innerShadow_29_852" result="effect3_innerShadow_29_852"/>
</filter>
<linearGradient id="paint0_linear_29_852" x1="29" y1="4" x2="29" y2="46" gradientUnits="userSpaceOnUse">
<stop stop-color="white"/>
<stop offset="1" stop-color="#717171"/>
</linearGradient>
</defs>
</svg>
