<?xml version="1.0" encoding="UTF-8"?>
<svg xmlns="http://www.w3.org/2000/svg" viewBox="0 0 136.11 221">
    <defs>
        <style>.d{fill:#fff;}.e{fill:transparent;}</style>
    </defs>
    <g id="a"/>
    <g id="b">
        <g id="c">
            <g>
                <rect class="e" x=".5" y=".5" width="135.11" height="220"/>
                <path class="e" d="M136.11,221H0V0H136.11V221ZM1,220H135.11V1H1V220Z"/>
            </g>
            <path class="d"
                  d="M41.11,49.22c-6.9-.15-12.81,2.33-17.89,7.1s-7.54,10.69-7.69,17.43c-.15,7.06,2.33,13.14,7.26,18.22,4.94,5.08,11.02,7.54,18.08,7.36,11.66-.35,19.86-8.09,24.6-23.37l4.08-13.48c4.41-14.3,15.73-22.54,30.84-22.73,9.36-.18,17.25,3.25,23.67,10.3,6.58,7.05,9.89,15.26,9.74,24.79-.15,9.36-3.58,17.42-10.3,24s-14.76,9.88-24.13,9.9l-.03-13.31c5.92,.15,11-1.83,15.27-5.94,4.26-3.95,6.55-8.88,6.87-14.63,.32-6.08-1.67-11.5-6.11-16.25-4.28-4.59-9.38-6.72-15.45-6.54-9.86,.18-16.25,5.12-19.19,14.66l-4.74,15.29c-6.04,19.56-17.85,29.44-35.43,29.64-10.35,.18-19.06-3.58-26.47-10.96-7.24-7.38-10.87-16.24-10.89-26.75-.02-10.51,3.58-19.39,10.79-26.8,7.21-7.41,16.24-11.04,27.08-11.22l.03,13.31Z"/>
            <path class="d"
                  d="M66.36,219.99c-16.28,0-30.34-5.62-42.33-17.02-11.84-11.4-17.76-25.01-17.76-41s5.77-30.49,17.32-42.18c11.69-11.69,25.6-17.61,42.03-17.61s30.49,5.62,42.47,16.87c11.99,11.1,17.91,24.71,17.91,40.85s-5.92,30.63-17.61,42.47c-11.69,11.69-25.6,17.61-42.03,17.61Zm48.69-59.35c-.15-13.17-5.18-24.42-14.8-33.6s-21.02-13.76-34.33-13.76-24.42,4.74-33.89,14.06c-9.47,9.32-14.21,20.57-14.21,33.74s4.74,24.27,14.21,33.59c9.47,9.32,20.87,14.06,34.04,14.21,13.47,.15,25.01-4.59,34.63-14.06,9.62-9.47,14.5-20.87,14.36-34.19Z"/>
            <path class="d"
                  d="M38.37,1.63h32.71c17.32,0,29.6,9.92,29.6,28.12V115.59h-11.39V27.68c0-4-1.92-7.84-5.62-11.69-2.37-2.37-6.51-3.55-12.58-3.55H38.37V1.63Z"/>
        </g>
    </g>
</svg>