<svg width="245" height="74" viewBox="0 0 245 74" fill="none" xmlns="http://www.w3.org/2000/svg">
<path d="M5.63636 62V15.4545H11.2727V57H32.9091V62H5.63636ZM79.0966 38.7273C79.0966 43.6364 78.2102 47.8788 76.4375 51.4545C74.6648 55.0303 72.233 57.7879 69.142 59.7273C66.0511 61.6667 62.5208 62.6364 58.5511 62.6364C54.5814 62.6364 51.0511 61.6667 47.9602 59.7273C44.8693 57.7879 42.4375 55.0303 40.6648 51.4545C38.892 47.8788 38.0057 43.6364 38.0057 38.7273C38.0057 33.8182 38.892 29.5758 40.6648 26C42.4375 22.4242 44.8693 19.6667 47.9602 17.7273C51.0511 15.7879 54.5814 14.8182 58.5511 14.8182C62.5208 14.8182 66.0511 15.7879 69.142 17.7273C72.233 19.6667 74.6648 22.4242 76.4375 26C78.2102 29.5758 79.0966 33.8182 79.0966 38.7273ZM73.642 38.7273C73.642 34.697 72.9678 31.2955 71.6193 28.5227C70.286 25.75 68.4754 23.6515 66.1875 22.2273C63.9148 20.803 61.3693 20.0909 58.5511 20.0909C55.733 20.0909 53.1799 20.803 50.892 22.2273C48.6193 23.6515 46.8087 25.75 45.4602 28.5227C44.1269 31.2955 43.4602 34.697 43.4602 38.7273C43.4602 42.7576 44.1269 46.1591 45.4602 48.9318C46.8087 51.7045 48.6193 53.803 50.892 55.2273C53.1799 56.6515 55.733 57.3636 58.5511 57.3636C61.3693 57.3636 63.9148 56.6515 66.1875 55.2273C68.4754 53.803 70.286 51.7045 71.6193 48.9318C72.9678 46.1591 73.642 42.7576 73.642 38.7273ZM114.028 27.0909C113.756 24.7879 112.65 23 110.71 21.7273C108.771 20.4545 106.392 19.8182 103.574 19.8182C101.513 19.8182 99.7102 20.1515 98.1648 20.8182C96.6345 21.4848 95.4375 22.4015 94.5739 23.5682C93.7254 24.7348 93.3011 26.0606 93.3011 27.5455C93.3011 28.7879 93.5966 29.8561 94.1875 30.75C94.7936 31.6288 95.5663 32.3636 96.5057 32.9545C97.4451 33.5303 98.4299 34.0076 99.4602 34.3864C100.491 34.75 101.438 35.0455 102.301 35.2727L107.028 36.5455C108.241 36.8636 109.589 37.303 111.074 37.8636C112.574 38.4242 114.006 39.1894 115.369 40.1591C116.748 41.1136 117.884 42.3409 118.778 43.8409C119.672 45.3409 120.119 47.1818 120.119 49.3636C120.119 51.8788 119.46 54.1515 118.142 56.1818C116.839 58.2121 114.93 59.8258 112.415 61.0227C109.915 62.2197 106.877 62.8182 103.301 62.8182C99.9678 62.8182 97.0814 62.2803 94.642 61.2045C92.2178 60.1288 90.3087 58.6288 88.9148 56.7045C87.536 54.7803 86.7557 52.5455 86.5739 50H92.392C92.5436 51.7576 93.1345 53.2121 94.1648 54.3636C95.2102 55.5 96.5284 56.3485 98.1193 56.9091C99.7254 57.4545 101.453 57.7273 103.301 57.7273C105.453 57.7273 107.384 57.3788 109.097 56.6818C110.809 55.9697 112.165 54.9848 113.165 53.7273C114.165 52.4545 114.665 50.9697 114.665 49.2727C114.665 47.7273 114.233 46.4697 113.369 45.5C112.506 44.5303 111.369 43.7424 109.96 43.1364C108.551 42.5303 107.028 42 105.392 41.5455L99.6648 39.9091C96.0284 38.8636 93.1496 37.3712 91.0284 35.4318C88.9072 33.4924 87.8466 30.9545 87.8466 27.8182C87.8466 25.2121 88.5511 22.9394 89.9602 21C91.3845 19.0455 93.2936 17.5303 95.6875 16.4545C98.0966 15.3636 100.786 14.8182 103.756 14.8182C106.756 14.8182 109.422 15.3561 111.756 16.4318C114.089 17.4924 115.938 18.947 117.301 20.7955C118.68 22.6439 119.407 24.7424 119.483 27.0909H114.028ZM129.386 62V15.4545H157.295V20.4545H135.023V36.1818H155.205V41.1818H135.023V62H129.386ZM163.045 62H157.136L174.227 15.4545H180.045L197.136 62H191.227L177.318 22.8182H176.955L163.045 62ZM165.227 43.8182H189.045V48.8182H165.227V43.8182ZM204.386 62V15.4545H210.023V57H231.659V62H204.386Z" fill="white"/>
</svg>
