<svg width="96" height="28" viewBox="0 0 96 28" fill="none" xmlns="http://www.w3.org/2000/svg">
<path d="M2.11364 23V5.54545H4.22727V21.125H12.3409V23H2.11364ZM29.6612 14.2727C29.6612 16.1136 29.3288 17.7045 28.6641 19.0455C27.9993 20.3864 27.0874 21.4205 25.9283 22.1477C24.7692 22.875 23.4453 23.2386 21.9567 23.2386C20.468 23.2386 19.1442 22.875 17.9851 22.1477C16.826 21.4205 15.9141 20.3864 15.2493 19.0455C14.5845 17.7045 14.2521 16.1136 14.2521 14.2727C14.2521 12.4318 14.5845 10.8409 15.2493 9.5C15.9141 8.15909 16.826 7.125 17.9851 6.39773C19.1442 5.67045 20.468 5.30682 21.9567 5.30682C23.4453 5.30682 24.7692 5.67045 25.9283 6.39773C27.0874 7.125 27.9993 8.15909 28.6641 9.5C29.3288 10.8409 29.6612 12.4318 29.6612 14.2727ZM27.6158 14.2727C27.6158 12.7614 27.3629 11.4858 26.8572 10.446C26.3572 9.40625 25.6783 8.61932 24.8203 8.08523C23.968 7.55114 23.0135 7.28409 21.9567 7.28409C20.8999 7.28409 19.9425 7.55114 19.0845 8.08523C18.2322 8.61932 17.5533 9.40625 17.0476 10.446C16.5476 11.4858 16.2976 12.7614 16.2976 14.2727C16.2976 15.7841 16.5476 17.0597 17.0476 18.0994C17.5533 19.1392 18.2322 19.9261 19.0845 20.4602C19.9425 20.9943 20.8999 21.2614 21.9567 21.2614C23.0135 21.2614 23.968 20.9943 24.8203 20.4602C25.6783 19.9261 26.3572 19.1392 26.8572 18.0994C27.3629 17.0597 27.6158 15.7841 27.6158 14.2727ZM42.7607 9.90909C42.6584 9.04545 42.2436 8.375 41.5163 7.89773C40.7891 7.42045 39.897 7.18182 38.8402 7.18182C38.0675 7.18182 37.3913 7.30682 36.8118 7.55682C36.2379 7.80682 35.7891 8.15057 35.4652 8.58807C35.147 9.02557 34.9879 9.52273 34.9879 10.0795C34.9879 10.5455 35.0987 10.946 35.3203 11.2812C35.5476 11.6108 35.8374 11.8864 36.1896 12.108C36.5419 12.3239 36.9112 12.5028 37.2976 12.6449C37.6839 12.7812 38.0391 12.892 38.3629 12.9773L40.1357 13.4545C40.5902 13.5739 41.0959 13.7386 41.6527 13.9489C42.2152 14.1591 42.7521 14.446 43.2635 14.8097C43.7805 15.1676 44.2067 15.6278 44.5419 16.1903C44.8771 16.7528 45.0447 17.4432 45.0447 18.2614C45.0447 19.2045 44.7976 20.0568 44.3033 20.8182C43.8146 21.5795 43.0987 22.1847 42.1555 22.6335C41.218 23.0824 40.0788 23.3068 38.7379 23.3068C37.4879 23.3068 36.4055 23.1051 35.4908 22.7017C34.5817 22.2983 33.8658 21.7358 33.343 21.0142C32.826 20.2926 32.5334 19.4545 32.4652 18.5H34.647C34.7038 19.1591 34.9254 19.7045 35.3118 20.1364C35.7038 20.5625 36.1982 20.8807 36.7947 21.0909C37.397 21.2955 38.0447 21.3977 38.7379 21.3977C39.5447 21.3977 40.2692 21.267 40.9112 21.0057C41.5533 20.7386 42.0618 20.3693 42.4368 19.8977C42.8118 19.4205 42.9993 18.8636 42.9993 18.2273C42.9993 17.6477 42.8374 17.1761 42.5135 16.8125C42.1896 16.4489 41.7635 16.1534 41.2351 15.9261C40.7067 15.6989 40.1357 15.5 39.522 15.3295L37.3743 14.7159C36.0107 14.3239 34.9311 13.7642 34.1357 13.0369C33.3402 12.3097 32.9425 11.358 32.9425 10.1818C32.9425 9.20454 33.2067 8.35227 33.7351 7.625C34.2692 6.89205 34.9851 6.32386 35.8828 5.92045C36.7862 5.51136 37.7947 5.30682 38.9084 5.30682C40.0334 5.30682 41.0334 5.50852 41.9084 5.91193C42.7834 6.30966 43.4766 6.85511 43.9879 7.54829C44.505 8.24148 44.7777 9.02841 44.8061 9.90909H42.7607ZM48.5199 23V5.54545H58.9858V7.42045H50.6335V13.3182H58.2017V15.1932H50.6335V23H48.5199ZM61.142 23H58.9261L65.3352 5.54545H67.517L73.9261 23H71.7102L66.4943 8.30682H66.358L61.142 23ZM61.9602 16.1818H70.892V18.0568H61.9602V16.1818Z" fill="white"/>
</svg>
